G75*
%MOIN*%
%OFA0B0*%
%FSLAX25Y25*%
%IPPOS*%
%LPD*%
%AMOC8*
5,1,8,0,0,1.08239X$1,22.5*
%
%ADD10C,0.00600*%
%ADD11C,0.00000*%
%ADD12C,0.00100*%
%ADD13C,0.00300*%
D10*
X0011353Y0001400D02*
X0011353Y0161900D01*
X0022103Y0161900D01*
X0022103Y0170900D01*
X0011353Y0170900D01*
X0011353Y0313900D01*
X0291353Y0313900D01*
X0291353Y0001400D01*
X0011353Y0001400D01*
D11*
X0011404Y0127817D02*
X0011404Y0161872D01*
X0022034Y0161872D01*
X0022034Y0170928D01*
X0011404Y0170928D01*
X0011404Y0186872D01*
X0271920Y0185408D02*
X0271922Y0185492D01*
X0271928Y0185575D01*
X0271938Y0185658D01*
X0271952Y0185741D01*
X0271969Y0185823D01*
X0271991Y0185904D01*
X0272016Y0185983D01*
X0272045Y0186062D01*
X0272078Y0186139D01*
X0272114Y0186214D01*
X0272154Y0186288D01*
X0272197Y0186360D01*
X0272244Y0186429D01*
X0272294Y0186496D01*
X0272347Y0186561D01*
X0272403Y0186623D01*
X0272461Y0186683D01*
X0272523Y0186740D01*
X0272587Y0186793D01*
X0272654Y0186844D01*
X0272723Y0186891D01*
X0272794Y0186936D01*
X0272867Y0186976D01*
X0272942Y0187013D01*
X0273019Y0187047D01*
X0273097Y0187077D01*
X0273176Y0187103D01*
X0273257Y0187126D01*
X0273339Y0187144D01*
X0273421Y0187159D01*
X0273504Y0187170D01*
X0273587Y0187177D01*
X0273671Y0187180D01*
X0273755Y0187179D01*
X0273838Y0187174D01*
X0273922Y0187165D01*
X0274004Y0187152D01*
X0274086Y0187136D01*
X0274167Y0187115D01*
X0274248Y0187091D01*
X0274326Y0187063D01*
X0274404Y0187031D01*
X0274480Y0186995D01*
X0274554Y0186956D01*
X0274626Y0186914D01*
X0274696Y0186868D01*
X0274764Y0186819D01*
X0274829Y0186767D01*
X0274892Y0186712D01*
X0274952Y0186654D01*
X0275010Y0186593D01*
X0275064Y0186529D01*
X0275116Y0186463D01*
X0275164Y0186395D01*
X0275209Y0186324D01*
X0275250Y0186251D01*
X0275289Y0186177D01*
X0275323Y0186101D01*
X0275354Y0186023D01*
X0275381Y0185944D01*
X0275405Y0185863D01*
X0275424Y0185782D01*
X0275440Y0185700D01*
X0275452Y0185617D01*
X0275460Y0185533D01*
X0275464Y0185450D01*
X0275464Y0185366D01*
X0275460Y0185283D01*
X0275452Y0185199D01*
X0275440Y0185116D01*
X0275424Y0185034D01*
X0275405Y0184953D01*
X0275381Y0184872D01*
X0275354Y0184793D01*
X0275323Y0184715D01*
X0275289Y0184639D01*
X0275250Y0184565D01*
X0275209Y0184492D01*
X0275164Y0184421D01*
X0275116Y0184353D01*
X0275064Y0184287D01*
X0275010Y0184223D01*
X0274952Y0184162D01*
X0274892Y0184104D01*
X0274829Y0184049D01*
X0274764Y0183997D01*
X0274696Y0183948D01*
X0274626Y0183902D01*
X0274554Y0183860D01*
X0274480Y0183821D01*
X0274404Y0183785D01*
X0274326Y0183753D01*
X0274248Y0183725D01*
X0274167Y0183701D01*
X0274086Y0183680D01*
X0274004Y0183664D01*
X0273922Y0183651D01*
X0273838Y0183642D01*
X0273755Y0183637D01*
X0273671Y0183636D01*
X0273587Y0183639D01*
X0273504Y0183646D01*
X0273421Y0183657D01*
X0273339Y0183672D01*
X0273257Y0183690D01*
X0273176Y0183713D01*
X0273097Y0183739D01*
X0273019Y0183769D01*
X0272942Y0183803D01*
X0272867Y0183840D01*
X0272794Y0183880D01*
X0272723Y0183925D01*
X0272654Y0183972D01*
X0272587Y0184023D01*
X0272523Y0184076D01*
X0272461Y0184133D01*
X0272403Y0184193D01*
X0272347Y0184255D01*
X0272294Y0184320D01*
X0272244Y0184387D01*
X0272197Y0184456D01*
X0272154Y0184528D01*
X0272114Y0184602D01*
X0272078Y0184677D01*
X0272045Y0184754D01*
X0272016Y0184833D01*
X0271991Y0184912D01*
X0271969Y0184993D01*
X0271952Y0185075D01*
X0271938Y0185158D01*
X0271928Y0185241D01*
X0271922Y0185324D01*
X0271920Y0185408D01*
X0271920Y0153912D02*
X0271922Y0153996D01*
X0271928Y0154079D01*
X0271938Y0154162D01*
X0271952Y0154245D01*
X0271969Y0154327D01*
X0271991Y0154408D01*
X0272016Y0154487D01*
X0272045Y0154566D01*
X0272078Y0154643D01*
X0272114Y0154718D01*
X0272154Y0154792D01*
X0272197Y0154864D01*
X0272244Y0154933D01*
X0272294Y0155000D01*
X0272347Y0155065D01*
X0272403Y0155127D01*
X0272461Y0155187D01*
X0272523Y0155244D01*
X0272587Y0155297D01*
X0272654Y0155348D01*
X0272723Y0155395D01*
X0272794Y0155440D01*
X0272867Y0155480D01*
X0272942Y0155517D01*
X0273019Y0155551D01*
X0273097Y0155581D01*
X0273176Y0155607D01*
X0273257Y0155630D01*
X0273339Y0155648D01*
X0273421Y0155663D01*
X0273504Y0155674D01*
X0273587Y0155681D01*
X0273671Y0155684D01*
X0273755Y0155683D01*
X0273838Y0155678D01*
X0273922Y0155669D01*
X0274004Y0155656D01*
X0274086Y0155640D01*
X0274167Y0155619D01*
X0274248Y0155595D01*
X0274326Y0155567D01*
X0274404Y0155535D01*
X0274480Y0155499D01*
X0274554Y0155460D01*
X0274626Y0155418D01*
X0274696Y0155372D01*
X0274764Y0155323D01*
X0274829Y0155271D01*
X0274892Y0155216D01*
X0274952Y0155158D01*
X0275010Y0155097D01*
X0275064Y0155033D01*
X0275116Y0154967D01*
X0275164Y0154899D01*
X0275209Y0154828D01*
X0275250Y0154755D01*
X0275289Y0154681D01*
X0275323Y0154605D01*
X0275354Y0154527D01*
X0275381Y0154448D01*
X0275405Y0154367D01*
X0275424Y0154286D01*
X0275440Y0154204D01*
X0275452Y0154121D01*
X0275460Y0154037D01*
X0275464Y0153954D01*
X0275464Y0153870D01*
X0275460Y0153787D01*
X0275452Y0153703D01*
X0275440Y0153620D01*
X0275424Y0153538D01*
X0275405Y0153457D01*
X0275381Y0153376D01*
X0275354Y0153297D01*
X0275323Y0153219D01*
X0275289Y0153143D01*
X0275250Y0153069D01*
X0275209Y0152996D01*
X0275164Y0152925D01*
X0275116Y0152857D01*
X0275064Y0152791D01*
X0275010Y0152727D01*
X0274952Y0152666D01*
X0274892Y0152608D01*
X0274829Y0152553D01*
X0274764Y0152501D01*
X0274696Y0152452D01*
X0274626Y0152406D01*
X0274554Y0152364D01*
X0274480Y0152325D01*
X0274404Y0152289D01*
X0274326Y0152257D01*
X0274248Y0152229D01*
X0274167Y0152205D01*
X0274086Y0152184D01*
X0274004Y0152168D01*
X0273922Y0152155D01*
X0273838Y0152146D01*
X0273755Y0152141D01*
X0273671Y0152140D01*
X0273587Y0152143D01*
X0273504Y0152150D01*
X0273421Y0152161D01*
X0273339Y0152176D01*
X0273257Y0152194D01*
X0273176Y0152217D01*
X0273097Y0152243D01*
X0273019Y0152273D01*
X0272942Y0152307D01*
X0272867Y0152344D01*
X0272794Y0152384D01*
X0272723Y0152429D01*
X0272654Y0152476D01*
X0272587Y0152527D01*
X0272523Y0152580D01*
X0272461Y0152637D01*
X0272403Y0152697D01*
X0272347Y0152759D01*
X0272294Y0152824D01*
X0272244Y0152891D01*
X0272197Y0152960D01*
X0272154Y0153032D01*
X0272114Y0153106D01*
X0272078Y0153181D01*
X0272045Y0153258D01*
X0272016Y0153337D01*
X0271991Y0153416D01*
X0271969Y0153497D01*
X0271952Y0153579D01*
X0271938Y0153662D01*
X0271928Y0153745D01*
X0271922Y0153828D01*
X0271920Y0153912D01*
D12*
X0098330Y0283871D02*
X0098132Y0283673D01*
X0097895Y0283524D01*
X0097631Y0283431D01*
X0097353Y0283400D01*
X0097075Y0283431D01*
X0096811Y0283524D01*
X0096574Y0283673D01*
X0096376Y0283871D01*
X0096227Y0284108D01*
X0096134Y0284372D01*
X0096103Y0284650D01*
X0096103Y0287650D01*
X0096134Y0287928D01*
X0096227Y0288192D01*
X0096376Y0288429D01*
X0096574Y0288627D01*
X0096811Y0288776D01*
X0097075Y0288869D01*
X0097353Y0288900D01*
X0097631Y0288869D01*
X0097895Y0288776D01*
X0098132Y0288627D01*
X0098330Y0288429D01*
X0098479Y0288192D01*
X0098572Y0287928D01*
X0098603Y0287650D01*
X0098603Y0284650D01*
X0098572Y0284372D01*
X0098479Y0284108D01*
X0098330Y0283871D01*
X0098292Y0283832D02*
X0096414Y0283832D01*
X0096338Y0283930D02*
X0098368Y0283930D01*
X0098430Y0284029D02*
X0096276Y0284029D01*
X0096220Y0284127D02*
X0098486Y0284127D01*
X0098521Y0284226D02*
X0096185Y0284226D01*
X0096151Y0284325D02*
X0098555Y0284325D01*
X0098577Y0284423D02*
X0096129Y0284423D01*
X0096117Y0284522D02*
X0098589Y0284522D01*
X0098600Y0284620D02*
X0096106Y0284620D01*
X0096103Y0284719D02*
X0098603Y0284719D01*
X0098603Y0284817D02*
X0096103Y0284817D01*
X0096103Y0284916D02*
X0098603Y0284916D01*
X0098603Y0285014D02*
X0096103Y0285014D01*
X0096103Y0285113D02*
X0098603Y0285113D01*
X0098603Y0285211D02*
X0096103Y0285211D01*
X0096103Y0285310D02*
X0098603Y0285310D01*
X0098603Y0285408D02*
X0096103Y0285408D01*
X0096103Y0285507D02*
X0098603Y0285507D01*
X0098603Y0285605D02*
X0096103Y0285605D01*
X0096103Y0285704D02*
X0098603Y0285704D01*
X0098603Y0285802D02*
X0096103Y0285802D01*
X0096103Y0285901D02*
X0098603Y0285901D01*
X0098603Y0285999D02*
X0096103Y0285999D01*
X0096103Y0286098D02*
X0098603Y0286098D01*
X0098603Y0286196D02*
X0096103Y0286196D01*
X0096103Y0286295D02*
X0098603Y0286295D01*
X0098603Y0286393D02*
X0096103Y0286393D01*
X0096103Y0286492D02*
X0098603Y0286492D01*
X0098603Y0286590D02*
X0096103Y0286590D01*
X0096103Y0286689D02*
X0098603Y0286689D01*
X0098603Y0286787D02*
X0096103Y0286787D01*
X0096103Y0286886D02*
X0098603Y0286886D01*
X0098603Y0286984D02*
X0096103Y0286984D01*
X0096103Y0287083D02*
X0098603Y0287083D01*
X0098603Y0287181D02*
X0096103Y0287181D01*
X0096103Y0287280D02*
X0098603Y0287280D01*
X0098603Y0287378D02*
X0096103Y0287378D01*
X0096103Y0287477D02*
X0098603Y0287477D01*
X0098603Y0287575D02*
X0096103Y0287575D01*
X0096106Y0287674D02*
X0098600Y0287674D01*
X0098589Y0287772D02*
X0096117Y0287772D01*
X0096128Y0287871D02*
X0098578Y0287871D01*
X0098557Y0287969D02*
X0096149Y0287969D01*
X0096183Y0288068D02*
X0098523Y0288068D01*
X0098488Y0288166D02*
X0096218Y0288166D01*
X0096272Y0288265D02*
X0098434Y0288265D01*
X0098372Y0288363D02*
X0096334Y0288363D01*
X0096408Y0288462D02*
X0098298Y0288462D01*
X0098199Y0288560D02*
X0096507Y0288560D01*
X0096624Y0288659D02*
X0098082Y0288659D01*
X0097925Y0288758D02*
X0096781Y0288758D01*
X0097039Y0288856D02*
X0097667Y0288856D01*
X0097353Y0293650D02*
X0096853Y0294650D01*
X0097853Y0294650D02*
X0097353Y0293650D01*
X0097353Y0296650D01*
X0096353Y0297650D01*
X0096513Y0283733D02*
X0098193Y0283733D01*
X0098072Y0283635D02*
X0096634Y0283635D01*
X0096791Y0283536D02*
X0097915Y0283536D01*
X0097650Y0283438D02*
X0097056Y0283438D01*
X0045603Y0284650D02*
X0045603Y0287650D01*
X0045572Y0287928D01*
X0045479Y0288192D01*
X0045330Y0288429D01*
X0045132Y0288627D01*
X0044895Y0288776D01*
X0044631Y0288869D01*
X0044353Y0288900D01*
X0044075Y0288869D01*
X0043811Y0288776D01*
X0043574Y0288627D01*
X0043376Y0288429D01*
X0043227Y0288192D01*
X0043134Y0287928D01*
X0043103Y0287650D01*
X0043103Y0284650D01*
X0043134Y0284372D01*
X0043227Y0284108D01*
X0043376Y0283871D01*
X0043574Y0283673D01*
X0043811Y0283524D01*
X0044075Y0283431D01*
X0044353Y0283400D01*
X0044631Y0283431D01*
X0044895Y0283524D01*
X0045132Y0283673D01*
X0045330Y0283871D01*
X0045479Y0284108D01*
X0045572Y0284372D01*
X0045603Y0284650D01*
X0045600Y0284620D02*
X0043106Y0284620D01*
X0043103Y0284719D02*
X0045603Y0284719D01*
X0045603Y0284817D02*
X0043103Y0284817D01*
X0043103Y0284916D02*
X0045603Y0284916D01*
X0045603Y0285014D02*
X0043103Y0285014D01*
X0043103Y0285113D02*
X0045603Y0285113D01*
X0045603Y0285211D02*
X0043103Y0285211D01*
X0043103Y0285310D02*
X0045603Y0285310D01*
X0045603Y0285408D02*
X0043103Y0285408D01*
X0043103Y0285507D02*
X0045603Y0285507D01*
X0045603Y0285605D02*
X0043103Y0285605D01*
X0043103Y0285704D02*
X0045603Y0285704D01*
X0045603Y0285802D02*
X0043103Y0285802D01*
X0043103Y0285901D02*
X0045603Y0285901D01*
X0045603Y0285999D02*
X0043103Y0285999D01*
X0043103Y0286098D02*
X0045603Y0286098D01*
X0045603Y0286196D02*
X0043103Y0286196D01*
X0043103Y0286295D02*
X0045603Y0286295D01*
X0045603Y0286393D02*
X0043103Y0286393D01*
X0043103Y0286492D02*
X0045603Y0286492D01*
X0045603Y0286590D02*
X0043103Y0286590D01*
X0043103Y0286689D02*
X0045603Y0286689D01*
X0045603Y0286787D02*
X0043103Y0286787D01*
X0043103Y0286886D02*
X0045603Y0286886D01*
X0045603Y0286984D02*
X0043103Y0286984D01*
X0043103Y0287083D02*
X0045603Y0287083D01*
X0045603Y0287181D02*
X0043103Y0287181D01*
X0043103Y0287280D02*
X0045603Y0287280D01*
X0045603Y0287378D02*
X0043103Y0287378D01*
X0043103Y0287477D02*
X0045603Y0287477D01*
X0045603Y0287575D02*
X0043103Y0287575D01*
X0043106Y0287674D02*
X0045600Y0287674D01*
X0045589Y0287772D02*
X0043117Y0287772D01*
X0043128Y0287871D02*
X0045578Y0287871D01*
X0045557Y0287969D02*
X0043149Y0287969D01*
X0043183Y0288068D02*
X0045523Y0288068D01*
X0045488Y0288166D02*
X0043218Y0288166D01*
X0043272Y0288265D02*
X0045434Y0288265D01*
X0045372Y0288363D02*
X0043334Y0288363D01*
X0043408Y0288462D02*
X0045298Y0288462D01*
X0045199Y0288560D02*
X0043507Y0288560D01*
X0043624Y0288659D02*
X0045082Y0288659D01*
X0044925Y0288758D02*
X0043781Y0288758D01*
X0044039Y0288856D02*
X0044667Y0288856D01*
X0045589Y0284522D02*
X0043117Y0284522D01*
X0043129Y0284423D02*
X0045577Y0284423D01*
X0045555Y0284325D02*
X0043151Y0284325D01*
X0043185Y0284226D02*
X0045521Y0284226D01*
X0045486Y0284127D02*
X0043220Y0284127D01*
X0043276Y0284029D02*
X0045430Y0284029D01*
X0045368Y0283930D02*
X0043338Y0283930D01*
X0043414Y0283832D02*
X0045292Y0283832D01*
X0045193Y0283733D02*
X0043513Y0283733D01*
X0043634Y0283635D02*
X0045072Y0283635D01*
X0044915Y0283536D02*
X0043791Y0283536D01*
X0044056Y0283438D02*
X0044650Y0283438D01*
X0044353Y0293650D02*
X0043853Y0294650D01*
X0044853Y0294650D02*
X0044353Y0293650D01*
X0044353Y0296650D01*
X0045353Y0297650D01*
D13*
X0045451Y0297600D02*
X0044484Y0297600D01*
X0044967Y0297600D02*
X0044967Y0300502D01*
X0044484Y0300502D01*
X0043472Y0299535D02*
X0042021Y0299535D01*
X0041537Y0299051D01*
X0042021Y0298567D01*
X0042988Y0298567D01*
X0043472Y0298084D01*
X0042988Y0297600D01*
X0041537Y0297600D01*
X0046448Y0298084D02*
X0046932Y0297600D01*
X0047899Y0297600D01*
X0048383Y0298084D01*
X0048383Y0299051D01*
X0047899Y0299535D01*
X0046932Y0299535D01*
X0046448Y0299051D01*
X0046448Y0298084D01*
X0049394Y0299535D02*
X0050362Y0299535D01*
X0049878Y0300019D02*
X0049878Y0298084D01*
X0050362Y0297600D01*
X0054305Y0298084D02*
X0054305Y0299051D01*
X0054789Y0299535D01*
X0056240Y0299535D01*
X0056240Y0300502D02*
X0056240Y0297600D01*
X0054789Y0297600D01*
X0054305Y0298084D01*
X0057252Y0298567D02*
X0058219Y0299535D01*
X0058703Y0299535D01*
X0059707Y0299535D02*
X0060191Y0299535D01*
X0060191Y0297600D01*
X0059707Y0297600D02*
X0060675Y0297600D01*
X0061672Y0297600D02*
X0062639Y0297600D01*
X0062155Y0297600D02*
X0062155Y0300502D01*
X0061672Y0300502D01*
X0060191Y0300502D02*
X0060191Y0300986D01*
X0057252Y0299535D02*
X0057252Y0297600D01*
X0063636Y0297600D02*
X0064603Y0297600D01*
X0064120Y0297600D02*
X0064120Y0300502D01*
X0063636Y0300502D01*
X0068547Y0299535D02*
X0068547Y0298084D01*
X0069030Y0297600D01*
X0069514Y0298084D01*
X0069998Y0297600D01*
X0070482Y0298084D01*
X0070482Y0299535D01*
X0071493Y0299535D02*
X0071977Y0299535D01*
X0071977Y0297600D01*
X0071493Y0297600D02*
X0072461Y0297600D01*
X0073941Y0298084D02*
X0073941Y0300019D01*
X0073458Y0299535D02*
X0074425Y0299535D01*
X0075422Y0299051D02*
X0075906Y0299535D01*
X0076873Y0299535D01*
X0077357Y0299051D01*
X0077357Y0297600D01*
X0075422Y0297600D02*
X0075422Y0300502D01*
X0073941Y0298084D02*
X0074425Y0297600D01*
X0071977Y0300502D02*
X0071977Y0300986D01*
X0081315Y0299051D02*
X0081315Y0298084D01*
X0081799Y0297600D01*
X0083250Y0297600D01*
X0084261Y0298084D02*
X0084745Y0297600D01*
X0085713Y0297600D01*
X0086196Y0298084D01*
X0086196Y0299051D01*
X0085713Y0299535D01*
X0084745Y0299535D01*
X0084261Y0299051D01*
X0084261Y0298084D01*
X0083250Y0299535D02*
X0081799Y0299535D01*
X0081315Y0299051D01*
X0087208Y0299535D02*
X0087208Y0296633D01*
X0087208Y0297600D02*
X0088659Y0297600D01*
X0089143Y0298084D01*
X0089143Y0299051D01*
X0088659Y0299535D01*
X0087208Y0299535D01*
X0090155Y0299535D02*
X0090155Y0296633D01*
X0090155Y0297600D02*
X0091606Y0297600D01*
X0092090Y0298084D01*
X0092090Y0299051D01*
X0091606Y0299535D01*
X0090155Y0299535D01*
X0093101Y0299051D02*
X0093585Y0299535D01*
X0094552Y0299535D01*
X0095036Y0299051D01*
X0095036Y0298567D01*
X0093101Y0298567D01*
X0093101Y0298084D02*
X0093101Y0299051D01*
X0093101Y0298084D02*
X0093585Y0297600D01*
X0094552Y0297600D01*
X0096048Y0297600D02*
X0096048Y0299535D01*
X0097015Y0299535D02*
X0097499Y0299535D01*
X0097015Y0299535D02*
X0096048Y0298567D01*
M02*
