G75*
%MOIN*%
%OFA0B0*%
%FSLAX25Y25*%
%IPPOS*%
%LPD*%
%AMOC8*
5,1,8,0,0,1.08239X$1,22.5*
%
%ADD10C,0.00600*%
%ADD11R,0.04724X0.03543*%
%ADD12R,0.03543X0.04724*%
%ADD13R,0.23622X0.23622*%
%ADD14C,0.00827*%
%ADD15R,0.09449X0.05906*%
%ADD16R,0.06299X0.02756*%
%ADD17R,0.06299X0.05512*%
%ADD18R,0.08661X0.05512*%
%ADD19R,0.05512X0.07087*%
%ADD20C,0.00000*%
%ADD21C,0.01250*%
%ADD22R,0.02953X0.01181*%
%ADD23R,0.02953X0.04724*%
%ADD24R,0.14961X0.04528*%
%ADD25C,0.00550*%
%ADD26C,0.06000*%
%ADD27C,0.30000*%
%ADD28R,0.12205X0.08661*%
%ADD29R,0.06299X0.03150*%
%ADD30C,0.03740*%
%ADD31R,0.05315X0.01575*%
%ADD32C,0.05150*%
%ADD33C,0.04000*%
%ADD34C,0.01000*%
%ADD35C,0.00875*%
%ADD36R,0.07500X0.07500*%
%ADD37C,0.07500*%
%ADD38R,0.03543X0.02756*%
%ADD39R,0.04500X0.04000*%
%ADD40R,0.09000X0.05000*%
%ADD41R,0.08500X0.14000*%
%ADD42R,0.05906X0.01575*%
%ADD43R,0.07000X0.08000*%
%ADD44R,0.07874X0.02756*%
%ADD45R,0.02756X0.07874*%
%ADD46R,0.04331X0.03937*%
%ADD47R,0.03937X0.04331*%
%ADD48C,0.00750*%
%ADD49R,0.05709X0.01772*%
%ADD50R,0.06500X0.06500*%
%ADD51C,0.06500*%
%ADD52C,0.02578*%
%ADD53C,0.01600*%
%ADD54C,0.02000*%
%ADD55C,0.01200*%
%ADD56C,0.04000*%
%ADD57C,0.15024*%
D10*
X0011353Y0001400D02*
X0011353Y0161900D01*
X0022103Y0161900D01*
X0022103Y0170900D01*
X0011353Y0170900D01*
X0011353Y0313900D01*
X0291353Y0313900D01*
X0291353Y0001400D01*
X0011353Y0001400D01*
X0013153Y0121400D02*
X0013153Y0152121D01*
X0013202Y0152108D01*
X0013841Y0152108D01*
X0013841Y0127196D01*
X0014720Y0126317D01*
X0036829Y0126317D01*
X0037707Y0127196D01*
X0037707Y0167056D01*
X0046353Y0167056D01*
X0046353Y0167035D01*
X0047488Y0165900D01*
X0051718Y0165900D01*
X0052786Y0166968D01*
X0052900Y0166771D01*
X0053224Y0166447D01*
X0053620Y0166218D01*
X0054062Y0166100D01*
X0055303Y0166100D01*
X0055303Y0168850D01*
X0055903Y0168850D01*
X0055903Y0169450D01*
X0055303Y0169450D01*
X0055303Y0172200D01*
X0054062Y0172200D01*
X0053620Y0172082D01*
X0053224Y0171853D01*
X0052900Y0171529D01*
X0052786Y0171332D01*
X0051718Y0172400D01*
X0051703Y0172400D01*
X0051703Y0172650D01*
X0051718Y0172650D01*
X0052853Y0173785D01*
X0052853Y0178015D01*
X0051968Y0178900D01*
X0052853Y0179785D01*
X0052853Y0184015D01*
X0051718Y0185150D01*
X0051703Y0185150D01*
X0051703Y0185400D01*
X0051718Y0185400D01*
X0052786Y0186468D01*
X0052900Y0186271D01*
X0053224Y0185947D01*
X0053620Y0185718D01*
X0054062Y0185600D01*
X0055303Y0185600D01*
X0055303Y0188350D01*
X0055903Y0188350D01*
X0055903Y0188950D01*
X0055303Y0188950D01*
X0055303Y0191700D01*
X0054062Y0191700D01*
X0053620Y0191582D01*
X0053224Y0191353D01*
X0052900Y0191029D01*
X0052786Y0190832D01*
X0051718Y0191900D01*
X0051703Y0191900D01*
X0051703Y0192150D01*
X0051718Y0192150D01*
X0052853Y0193285D01*
X0052853Y0197515D01*
X0051968Y0198400D01*
X0052853Y0199285D01*
X0052853Y0203515D01*
X0051718Y0204650D01*
X0051703Y0204650D01*
X0051703Y0204713D01*
X0051996Y0204713D01*
X0052875Y0205592D01*
X0052875Y0209590D01*
X0052315Y0210150D01*
X0052774Y0210609D01*
X0057428Y0210609D01*
X0057428Y0210550D01*
X0059353Y0210550D01*
X0061278Y0210550D01*
X0061278Y0210650D01*
X0064478Y0210650D01*
X0064537Y0210591D01*
X0065755Y0210591D01*
X0065765Y0210581D01*
X0067504Y0210581D01*
X0067514Y0210591D01*
X0069661Y0210591D01*
X0069702Y0210550D01*
X0075603Y0210550D01*
X0075603Y0210535D01*
X0076353Y0209785D01*
X0076353Y0209232D01*
X0076353Y0210633D01*
X0076986Y0210000D01*
X0080720Y0210000D01*
X0081503Y0210783D01*
X0081503Y0211150D01*
X0083953Y0211150D01*
X0083953Y0210783D01*
X0084736Y0210000D01*
X0088470Y0210000D01*
X0089253Y0210783D01*
X0089253Y0211150D01*
X0092703Y0211150D01*
X0092703Y0210607D01*
X0093410Y0209900D01*
X0092703Y0209193D01*
X0092703Y0205033D01*
X0093523Y0204213D01*
X0094103Y0204213D01*
X0094103Y0183651D01*
X0093453Y0183001D01*
X0093453Y0177988D01*
X0094346Y0177094D01*
X0096860Y0177094D01*
X0097753Y0177988D01*
X0097753Y0183001D01*
X0097103Y0183651D01*
X0097103Y0204213D01*
X0097683Y0204213D01*
X0098503Y0205033D01*
X0098503Y0209193D01*
X0097796Y0209900D01*
X0098503Y0210607D01*
X0098503Y0214767D01*
X0098370Y0214900D01*
X0099019Y0214900D01*
X0100453Y0213466D01*
X0100453Y0210607D01*
X0101160Y0209900D01*
X0100453Y0209193D01*
X0100453Y0205033D01*
X0101273Y0204213D01*
X0101853Y0204213D01*
X0101853Y0202021D01*
X0098434Y0198602D01*
X0098434Y0183651D01*
X0097784Y0183001D01*
X0097784Y0177988D01*
X0098677Y0177094D01*
X0101190Y0177094D01*
X0101892Y0177796D01*
X0102099Y0177437D01*
X0102457Y0177079D01*
X0102896Y0176826D01*
X0103386Y0176694D01*
X0103964Y0176694D01*
X0103964Y0180194D01*
X0104564Y0180194D01*
X0104564Y0176694D01*
X0105143Y0176694D01*
X0105632Y0176826D01*
X0106071Y0177079D01*
X0106430Y0177437D01*
X0106637Y0177796D01*
X0107338Y0177094D01*
X0109852Y0177094D01*
X0110553Y0177796D01*
X0110760Y0177437D01*
X0111119Y0177079D01*
X0111558Y0176826D01*
X0112047Y0176694D01*
X0112626Y0176694D01*
X0112626Y0180194D01*
X0113226Y0180194D01*
X0113226Y0176694D01*
X0113804Y0176694D01*
X0114294Y0176826D01*
X0114733Y0177079D01*
X0115091Y0177437D01*
X0115345Y0177876D01*
X0115476Y0178366D01*
X0115476Y0180195D01*
X0113226Y0180195D01*
X0113226Y0180794D01*
X0115476Y0180794D01*
X0115476Y0182623D01*
X0115345Y0183112D01*
X0115091Y0183551D01*
X0114733Y0183910D01*
X0114294Y0184163D01*
X0113804Y0184294D01*
X0113226Y0184294D01*
X0113226Y0180795D01*
X0112626Y0180795D01*
X0112626Y0184294D01*
X0112047Y0184294D01*
X0111558Y0184163D01*
X0111119Y0183910D01*
X0110760Y0183551D01*
X0110553Y0183193D01*
X0110095Y0183651D01*
X0110095Y0214779D01*
X0104974Y0219900D01*
X0076353Y0219900D01*
X0076353Y0223900D01*
X0122353Y0223900D01*
X0122353Y0166800D01*
X0089933Y0166800D01*
X0079680Y0177053D01*
X0079680Y0177238D01*
X0080430Y0177988D01*
X0080430Y0183001D01*
X0079537Y0183894D01*
X0077023Y0183894D01*
X0076353Y0183224D01*
X0076353Y0187000D01*
X0077773Y0187000D01*
X0081116Y0183657D01*
X0080461Y0183001D01*
X0080461Y0177988D01*
X0081354Y0177094D01*
X0083868Y0177094D01*
X0084761Y0177988D01*
X0084761Y0183001D01*
X0084011Y0183751D01*
X0084011Y0184722D01*
X0083191Y0185542D01*
X0078933Y0189800D01*
X0076353Y0189800D01*
X0076353Y0194000D01*
X0079773Y0194000D01*
X0085542Y0188232D01*
X0085542Y0183751D01*
X0084792Y0183001D01*
X0084792Y0177988D01*
X0085685Y0177094D01*
X0088198Y0177094D01*
X0089092Y0177988D01*
X0089092Y0183001D01*
X0088342Y0183751D01*
X0088342Y0189391D01*
X0087521Y0190211D01*
X0080933Y0196800D01*
X0076353Y0196800D01*
X0076353Y0204068D01*
X0076474Y0203947D01*
X0076870Y0203718D01*
X0077312Y0203600D01*
X0078553Y0203600D01*
X0078553Y0206350D01*
X0079153Y0206350D01*
X0079153Y0206950D01*
X0078553Y0206950D01*
X0078553Y0209700D01*
X0077312Y0209700D01*
X0076870Y0209582D01*
X0076474Y0209353D01*
X0076353Y0209232D01*
X0076150Y0209029D01*
X0075921Y0208633D01*
X0075803Y0208191D01*
X0075803Y0206950D01*
X0076353Y0206950D01*
X0076353Y0206350D01*
X0075803Y0206350D01*
X0075803Y0205109D01*
X0075921Y0204667D01*
X0076150Y0204271D01*
X0076353Y0204068D01*
X0076353Y0198015D01*
X0075468Y0198900D01*
X0070812Y0198900D01*
X0070212Y0198300D01*
X0070171Y0198340D01*
X0069761Y0198577D01*
X0069303Y0198700D01*
X0067866Y0198700D01*
X0067866Y0195700D01*
X0067266Y0195700D01*
X0067266Y0198700D01*
X0065829Y0198700D01*
X0065371Y0198577D01*
X0064961Y0198340D01*
X0064626Y0198005D01*
X0064389Y0197595D01*
X0064266Y0197137D01*
X0064266Y0195700D01*
X0067266Y0195700D01*
X0067266Y0195100D01*
X0064266Y0195100D01*
X0064266Y0193663D01*
X0064389Y0193205D01*
X0064626Y0192795D01*
X0064961Y0192460D01*
X0065371Y0192223D01*
X0065829Y0192100D01*
X0067266Y0192100D01*
X0067266Y0195100D01*
X0067866Y0195100D01*
X0067866Y0192100D01*
X0069303Y0192100D01*
X0069761Y0192223D01*
X0070171Y0192460D01*
X0070212Y0192500D01*
X0070812Y0191900D01*
X0070212Y0191300D01*
X0070171Y0191340D01*
X0069761Y0191577D01*
X0069303Y0191700D01*
X0067866Y0191700D01*
X0067866Y0188700D01*
X0067266Y0188700D01*
X0067266Y0191700D01*
X0065829Y0191700D01*
X0065371Y0191577D01*
X0064961Y0191340D01*
X0064626Y0191005D01*
X0064389Y0190595D01*
X0064266Y0190137D01*
X0064266Y0188700D01*
X0067266Y0188700D01*
X0067266Y0188100D01*
X0064266Y0188100D01*
X0064266Y0186663D01*
X0064389Y0186205D01*
X0064626Y0185795D01*
X0064961Y0185460D01*
X0065371Y0185223D01*
X0065829Y0185100D01*
X0067266Y0185100D01*
X0067266Y0188100D01*
X0067866Y0188100D01*
X0067866Y0185100D01*
X0069303Y0185100D01*
X0069761Y0185223D01*
X0070171Y0185460D01*
X0070212Y0185500D01*
X0070812Y0184900D01*
X0075468Y0184900D01*
X0076353Y0185785D01*
X0076353Y0184073D01*
X0075530Y0183250D01*
X0075530Y0177739D01*
X0076280Y0176989D01*
X0076280Y0175644D01*
X0076353Y0175572D01*
X0076353Y0145601D01*
X0076353Y0177765D01*
X0076880Y0177238D01*
X0076880Y0175893D01*
X0077700Y0175073D01*
X0088773Y0164000D01*
X0122353Y0164000D01*
X0122353Y0159800D01*
X0099773Y0159800D01*
X0090692Y0150719D01*
X0089872Y0149899D01*
X0089872Y0145562D01*
X0089122Y0144812D01*
X0089122Y0139799D01*
X0090016Y0138906D01*
X0092529Y0138906D01*
X0093422Y0139799D01*
X0093422Y0144812D01*
X0092672Y0145562D01*
X0092672Y0148739D01*
X0100933Y0157000D01*
X0122353Y0157000D01*
X0122353Y0156800D01*
X0101773Y0156800D01*
X0095023Y0150050D01*
X0094203Y0149230D01*
X0094203Y0145562D01*
X0093453Y0144812D01*
X0093453Y0139799D01*
X0094346Y0138906D01*
X0096860Y0138906D01*
X0097753Y0139799D01*
X0097753Y0144812D01*
X0097003Y0145562D01*
X0097003Y0148070D01*
X0102933Y0154000D01*
X0122353Y0154000D01*
X0122353Y0152100D01*
X0103649Y0152100D01*
X0102653Y0151104D01*
X0098653Y0147104D01*
X0098653Y0145681D01*
X0097784Y0144812D01*
X0097784Y0139799D01*
X0098677Y0138906D01*
X0101190Y0138906D01*
X0102084Y0139799D01*
X0102084Y0144812D01*
X0102053Y0144843D01*
X0102053Y0145696D01*
X0105057Y0148700D01*
X0122353Y0148700D01*
X0122353Y0138322D01*
X0122336Y0138332D01*
X0121894Y0138450D01*
X0120653Y0138450D01*
X0120653Y0135700D01*
X0120053Y0135700D01*
X0120053Y0138450D01*
X0118812Y0138450D01*
X0118370Y0138332D01*
X0117974Y0138103D01*
X0117650Y0137779D01*
X0117421Y0137383D01*
X0117303Y0136941D01*
X0117303Y0135700D01*
X0120053Y0135700D01*
X0120053Y0135100D01*
X0120653Y0135100D01*
X0120653Y0132350D01*
X0121894Y0132350D01*
X0122336Y0132468D01*
X0122353Y0132478D01*
X0122353Y0129300D01*
X0107940Y0129300D01*
X0110253Y0131613D01*
X0110253Y0132783D01*
X0111003Y0133533D01*
X0111003Y0137267D01*
X0110495Y0137774D01*
X0110495Y0139549D01*
X0110745Y0139799D01*
X0110745Y0140406D01*
X0110776Y0140406D01*
X0110776Y0139799D01*
X0111026Y0139549D01*
X0111026Y0136040D01*
X0111703Y0135363D01*
X0111703Y0133533D01*
X0112486Y0132750D01*
X0116220Y0132750D01*
X0117003Y0133533D01*
X0117003Y0137267D01*
X0116220Y0138050D01*
X0114826Y0138050D01*
X0114826Y0139549D01*
X0115076Y0139799D01*
X0115076Y0144812D01*
X0114183Y0145705D01*
X0111669Y0145705D01*
X0110776Y0144812D01*
X0110776Y0144205D01*
X0110745Y0144205D01*
X0110745Y0144812D01*
X0109852Y0145705D01*
X0107338Y0145705D01*
X0106445Y0144812D01*
X0106445Y0139799D01*
X0106695Y0139549D01*
X0106695Y0138050D01*
X0106486Y0138050D01*
X0105703Y0137267D01*
X0105703Y0133533D01*
X0106251Y0132985D01*
X0102566Y0129300D01*
X0100549Y0129300D01*
X0100260Y0129589D01*
X0098446Y0129589D01*
X0097164Y0128307D01*
X0097164Y0126493D01*
X0098446Y0125211D01*
X0100260Y0125211D01*
X0100549Y0125500D01*
X0122353Y0125500D01*
X0122353Y0124300D01*
X0096549Y0124300D01*
X0096260Y0124589D01*
X0094446Y0124589D01*
X0093164Y0123307D01*
X0093164Y0121493D01*
X0093257Y0121400D01*
X0092503Y0121400D01*
X0092503Y0124443D01*
X0091796Y0125150D01*
X0092503Y0125857D01*
X0092503Y0130017D01*
X0091683Y0130837D01*
X0091003Y0130837D01*
X0091003Y0131730D01*
X0088342Y0134391D01*
X0088342Y0139049D01*
X0089092Y0139799D01*
X0089092Y0144812D01*
X0088198Y0145705D01*
X0085685Y0145705D01*
X0084792Y0144812D01*
X0084792Y0139799D01*
X0085542Y0139049D01*
X0085542Y0133232D01*
X0087936Y0130837D01*
X0087523Y0130837D01*
X0086703Y0130017D01*
X0086703Y0125857D01*
X0087410Y0125150D01*
X0086703Y0124443D01*
X0086703Y0121400D01*
X0085503Y0121400D01*
X0085503Y0124443D01*
X0084796Y0125150D01*
X0085503Y0125857D01*
X0085503Y0130017D01*
X0084683Y0130837D01*
X0084011Y0130837D01*
X0084011Y0139049D01*
X0084761Y0139799D01*
X0084761Y0144812D01*
X0083868Y0145705D01*
X0081354Y0145705D01*
X0080653Y0145004D01*
X0080446Y0145362D01*
X0080087Y0145721D01*
X0079648Y0145974D01*
X0079159Y0146105D01*
X0078580Y0146105D01*
X0078580Y0142606D01*
X0077980Y0142606D01*
X0077980Y0146105D01*
X0077402Y0146105D01*
X0076912Y0145974D01*
X0076473Y0145721D01*
X0076353Y0145601D01*
X0076115Y0145362D01*
X0075861Y0144924D01*
X0075730Y0144434D01*
X0075730Y0142605D01*
X0076353Y0142605D01*
X0076353Y0142006D01*
X0075730Y0142006D01*
X0075730Y0140177D01*
X0075861Y0139687D01*
X0076115Y0139249D01*
X0076353Y0139010D01*
X0076473Y0138890D01*
X0076912Y0138637D01*
X0077402Y0138506D01*
X0077980Y0138505D01*
X0077980Y0142005D01*
X0078580Y0142005D01*
X0078580Y0138505D01*
X0079159Y0138506D01*
X0079648Y0138637D01*
X0080087Y0138890D01*
X0080446Y0139249D01*
X0080653Y0139607D01*
X0081211Y0139049D01*
X0081211Y0130837D01*
X0080523Y0130837D01*
X0079703Y0130017D01*
X0079703Y0125857D01*
X0080410Y0125150D01*
X0079703Y0124443D01*
X0079703Y0121400D01*
X0076353Y0121400D01*
X0076353Y0139010D01*
X0076353Y0121400D01*
X0063606Y0121400D01*
X0066817Y0124611D01*
X0066908Y0124611D01*
X0067933Y0125036D01*
X0068717Y0125820D01*
X0069142Y0126845D01*
X0069142Y0127955D01*
X0068717Y0128980D01*
X0067933Y0129764D01*
X0066908Y0130189D01*
X0065798Y0130189D01*
X0064773Y0129764D01*
X0063989Y0128980D01*
X0063564Y0127955D01*
X0063564Y0127864D01*
X0058142Y0122442D01*
X0058142Y0122955D01*
X0057717Y0123980D01*
X0056933Y0124764D01*
X0055908Y0125189D01*
X0054798Y0125189D01*
X0053773Y0124764D01*
X0052989Y0123980D01*
X0052700Y0123282D01*
X0050817Y0121400D01*
X0013153Y0121400D01*
X0013153Y0121701D02*
X0051118Y0121701D01*
X0051717Y0122299D02*
X0013153Y0122299D01*
X0013153Y0122898D02*
X0052315Y0122898D01*
X0052788Y0123496D02*
X0013153Y0123496D01*
X0013153Y0124095D02*
X0053104Y0124095D01*
X0053702Y0124693D02*
X0013153Y0124693D01*
X0013153Y0125292D02*
X0060992Y0125292D01*
X0060394Y0124693D02*
X0057004Y0124693D01*
X0057602Y0124095D02*
X0059795Y0124095D01*
X0059197Y0123496D02*
X0057918Y0123496D01*
X0058142Y0122898D02*
X0058598Y0122898D01*
X0061591Y0125890D02*
X0013153Y0125890D01*
X0013153Y0126489D02*
X0014548Y0126489D01*
X0013950Y0127087D02*
X0013153Y0127087D01*
X0013153Y0127686D02*
X0013841Y0127686D01*
X0013841Y0128284D02*
X0013153Y0128284D01*
X0013153Y0128883D02*
X0013841Y0128883D01*
X0013841Y0129481D02*
X0013153Y0129481D01*
X0013153Y0130080D02*
X0013841Y0130080D01*
X0013841Y0130678D02*
X0013153Y0130678D01*
X0013153Y0131277D02*
X0013841Y0131277D01*
X0013841Y0131875D02*
X0013153Y0131875D01*
X0013153Y0132474D02*
X0013841Y0132474D01*
X0013841Y0133072D02*
X0013153Y0133072D01*
X0013153Y0133671D02*
X0013841Y0133671D01*
X0013841Y0134270D02*
X0013153Y0134270D01*
X0013153Y0134868D02*
X0013841Y0134868D01*
X0013841Y0135467D02*
X0013153Y0135467D01*
X0013153Y0136065D02*
X0013841Y0136065D01*
X0013841Y0136664D02*
X0013153Y0136664D01*
X0013153Y0137262D02*
X0013841Y0137262D01*
X0013841Y0137861D02*
X0013153Y0137861D01*
X0013153Y0138459D02*
X0013841Y0138459D01*
X0013841Y0139058D02*
X0013153Y0139058D01*
X0013153Y0139656D02*
X0013841Y0139656D01*
X0013841Y0140255D02*
X0013153Y0140255D01*
X0013153Y0140853D02*
X0013841Y0140853D01*
X0013841Y0141452D02*
X0013153Y0141452D01*
X0013153Y0142050D02*
X0013841Y0142050D01*
X0013841Y0142649D02*
X0013153Y0142649D01*
X0013153Y0143247D02*
X0013841Y0143247D01*
X0013841Y0143846D02*
X0013153Y0143846D01*
X0013153Y0144444D02*
X0013841Y0144444D01*
X0013841Y0145043D02*
X0013153Y0145043D01*
X0013153Y0145641D02*
X0013841Y0145641D01*
X0013841Y0146240D02*
X0013153Y0146240D01*
X0013153Y0146838D02*
X0013841Y0146838D01*
X0013841Y0147437D02*
X0013153Y0147437D01*
X0013153Y0148035D02*
X0013841Y0148035D01*
X0013841Y0148634D02*
X0013153Y0148634D01*
X0013153Y0149232D02*
X0013841Y0149232D01*
X0013841Y0149831D02*
X0013153Y0149831D01*
X0013153Y0150429D02*
X0013841Y0150429D01*
X0013841Y0151028D02*
X0013153Y0151028D01*
X0013153Y0151626D02*
X0013841Y0151626D01*
X0037707Y0151626D02*
X0076353Y0151626D01*
X0091599Y0151626D01*
X0091001Y0151028D02*
X0076353Y0151028D01*
X0037707Y0151028D01*
X0037707Y0150429D02*
X0076353Y0150429D01*
X0090402Y0150429D01*
X0089872Y0149831D02*
X0076353Y0149831D01*
X0037707Y0149831D01*
X0037707Y0149232D02*
X0076353Y0149232D01*
X0089872Y0149232D01*
X0089872Y0148634D02*
X0076353Y0148634D01*
X0037707Y0148634D01*
X0037707Y0148035D02*
X0076353Y0148035D01*
X0089872Y0148035D01*
X0089872Y0147437D02*
X0076353Y0147437D01*
X0037707Y0147437D01*
X0037707Y0146838D02*
X0076353Y0146838D01*
X0089872Y0146838D01*
X0089872Y0146240D02*
X0076353Y0146240D01*
X0037707Y0146240D01*
X0037707Y0145641D02*
X0076353Y0145641D01*
X0076394Y0145641D01*
X0075930Y0145043D02*
X0037707Y0145043D01*
X0037707Y0144444D02*
X0075733Y0144444D01*
X0075730Y0143846D02*
X0037707Y0143846D01*
X0037707Y0143247D02*
X0075730Y0143247D01*
X0075730Y0142649D02*
X0037707Y0142649D01*
X0037707Y0142050D02*
X0076353Y0142050D01*
X0075730Y0141452D02*
X0037707Y0141452D01*
X0037707Y0140853D02*
X0075730Y0140853D01*
X0075730Y0140255D02*
X0037707Y0140255D01*
X0037707Y0139656D02*
X0075879Y0139656D01*
X0076306Y0139058D02*
X0037707Y0139058D01*
X0037707Y0138459D02*
X0076353Y0138459D01*
X0081211Y0138459D01*
X0081211Y0137861D02*
X0076353Y0137861D01*
X0037707Y0137861D01*
X0037707Y0137262D02*
X0076353Y0137262D01*
X0081211Y0137262D01*
X0081211Y0136664D02*
X0076353Y0136664D01*
X0037707Y0136664D01*
X0037707Y0136065D02*
X0076353Y0136065D01*
X0081211Y0136065D01*
X0081211Y0135467D02*
X0076353Y0135467D01*
X0037707Y0135467D01*
X0037707Y0134868D02*
X0076353Y0134868D01*
X0081211Y0134868D01*
X0081211Y0134270D02*
X0076353Y0134270D01*
X0037707Y0134270D01*
X0037707Y0133671D02*
X0076353Y0133671D01*
X0081211Y0133671D01*
X0081211Y0133072D02*
X0076353Y0133072D01*
X0037707Y0133072D01*
X0037707Y0132474D02*
X0076353Y0132474D01*
X0081211Y0132474D01*
X0081211Y0131875D02*
X0076353Y0131875D01*
X0037707Y0131875D01*
X0037707Y0131277D02*
X0076353Y0131277D01*
X0081211Y0131277D01*
X0080365Y0130678D02*
X0076353Y0130678D01*
X0037707Y0130678D01*
X0037707Y0130080D02*
X0065535Y0130080D01*
X0064490Y0129481D02*
X0037707Y0129481D01*
X0037707Y0128883D02*
X0063948Y0128883D01*
X0063701Y0128284D02*
X0037707Y0128284D01*
X0037707Y0127686D02*
X0063386Y0127686D01*
X0062788Y0127087D02*
X0037599Y0127087D01*
X0037000Y0126489D02*
X0062189Y0126489D01*
X0065702Y0123496D02*
X0076353Y0123496D01*
X0079703Y0123496D01*
X0079703Y0122898D02*
X0076353Y0122898D01*
X0065103Y0122898D01*
X0064505Y0122299D02*
X0076353Y0122299D01*
X0079703Y0122299D01*
X0079703Y0121701D02*
X0076353Y0121701D01*
X0063906Y0121701D01*
X0066300Y0124095D02*
X0076353Y0124095D01*
X0079703Y0124095D01*
X0079953Y0124693D02*
X0076353Y0124693D01*
X0067106Y0124693D01*
X0068189Y0125292D02*
X0076353Y0125292D01*
X0080268Y0125292D01*
X0079703Y0125890D02*
X0076353Y0125890D01*
X0068746Y0125890D01*
X0068994Y0126489D02*
X0076353Y0126489D01*
X0079703Y0126489D01*
X0079703Y0127087D02*
X0076353Y0127087D01*
X0069142Y0127087D01*
X0069142Y0127686D02*
X0076353Y0127686D01*
X0079703Y0127686D01*
X0079703Y0128284D02*
X0076353Y0128284D01*
X0069005Y0128284D01*
X0068758Y0128883D02*
X0076353Y0128883D01*
X0079703Y0128883D01*
X0079703Y0129481D02*
X0076353Y0129481D01*
X0068216Y0129481D01*
X0067171Y0130080D02*
X0076353Y0130080D01*
X0079766Y0130080D01*
X0084011Y0131277D02*
X0087496Y0131277D01*
X0087365Y0130678D02*
X0084841Y0130678D01*
X0085440Y0130080D02*
X0086766Y0130080D01*
X0086703Y0129481D02*
X0085503Y0129481D01*
X0085503Y0128883D02*
X0086703Y0128883D01*
X0086703Y0128284D02*
X0085503Y0128284D01*
X0085503Y0127686D02*
X0086703Y0127686D01*
X0086703Y0127087D02*
X0085503Y0127087D01*
X0085503Y0126489D02*
X0086703Y0126489D01*
X0086703Y0125890D02*
X0085503Y0125890D01*
X0084938Y0125292D02*
X0087268Y0125292D01*
X0086953Y0124693D02*
X0085253Y0124693D01*
X0085503Y0124095D02*
X0086703Y0124095D01*
X0086703Y0123496D02*
X0085503Y0123496D01*
X0085503Y0122898D02*
X0086703Y0122898D01*
X0086703Y0122299D02*
X0085503Y0122299D01*
X0085503Y0121701D02*
X0086703Y0121701D01*
X0092503Y0121701D02*
X0093164Y0121701D01*
X0093164Y0122299D02*
X0092503Y0122299D01*
X0092503Y0122898D02*
X0093164Y0122898D01*
X0093354Y0123496D02*
X0092503Y0123496D01*
X0092503Y0124095D02*
X0093952Y0124095D01*
X0092253Y0124693D02*
X0122353Y0124693D01*
X0122353Y0125292D02*
X0100341Y0125292D01*
X0098365Y0125292D02*
X0091938Y0125292D01*
X0092503Y0125890D02*
X0097767Y0125890D01*
X0097168Y0126489D02*
X0092503Y0126489D01*
X0092503Y0127087D02*
X0097164Y0127087D01*
X0097164Y0127686D02*
X0092503Y0127686D01*
X0092503Y0128284D02*
X0097164Y0128284D01*
X0097740Y0128883D02*
X0092503Y0128883D01*
X0092503Y0129481D02*
X0098339Y0129481D01*
X0100367Y0129481D02*
X0102747Y0129481D01*
X0103346Y0130080D02*
X0092440Y0130080D01*
X0091841Y0130678D02*
X0103944Y0130678D01*
X0104543Y0131277D02*
X0091003Y0131277D01*
X0090857Y0131875D02*
X0105141Y0131875D01*
X0105740Y0132474D02*
X0104346Y0132474D01*
X0104336Y0132468D02*
X0104732Y0132697D01*
X0105056Y0133021D01*
X0105285Y0133417D01*
X0105403Y0133859D01*
X0105403Y0135100D01*
X0102653Y0135100D01*
X0102653Y0135700D01*
X0105403Y0135700D01*
X0105403Y0136941D01*
X0105285Y0137383D01*
X0105056Y0137779D01*
X0104732Y0138103D01*
X0104336Y0138332D01*
X0103894Y0138450D01*
X0102653Y0138450D01*
X0102653Y0135700D01*
X0102053Y0135700D01*
X0102053Y0138450D01*
X0100812Y0138450D01*
X0100370Y0138332D01*
X0099974Y0138103D01*
X0099650Y0137779D01*
X0099421Y0137383D01*
X0099303Y0136941D01*
X0099303Y0135700D01*
X0102053Y0135700D01*
X0102053Y0135100D01*
X0102653Y0135100D01*
X0102653Y0132350D01*
X0103894Y0132350D01*
X0104336Y0132468D01*
X0105086Y0133072D02*
X0106164Y0133072D01*
X0105703Y0133671D02*
X0105353Y0133671D01*
X0105403Y0134270D02*
X0105703Y0134270D01*
X0105703Y0134868D02*
X0105403Y0134868D01*
X0105703Y0135467D02*
X0102653Y0135467D01*
X0102653Y0136065D02*
X0102053Y0136065D01*
X0102053Y0135467D02*
X0088342Y0135467D01*
X0088342Y0136065D02*
X0099303Y0136065D01*
X0099303Y0136664D02*
X0088342Y0136664D01*
X0088342Y0137262D02*
X0099389Y0137262D01*
X0099731Y0137861D02*
X0088342Y0137861D01*
X0088342Y0138459D02*
X0106695Y0138459D01*
X0106695Y0139058D02*
X0105673Y0139058D01*
X0105521Y0138906D02*
X0106414Y0139799D01*
X0106414Y0144812D01*
X0105521Y0145705D01*
X0103008Y0145705D01*
X0102114Y0144812D01*
X0102114Y0139799D01*
X0103008Y0138906D01*
X0105521Y0138906D01*
X0106272Y0139656D02*
X0106588Y0139656D01*
X0106445Y0140255D02*
X0106414Y0140255D01*
X0106414Y0140853D02*
X0106445Y0140853D01*
X0106414Y0141452D02*
X0106445Y0141452D01*
X0106414Y0142050D02*
X0106445Y0142050D01*
X0106414Y0142649D02*
X0106445Y0142649D01*
X0106414Y0143247D02*
X0106445Y0143247D01*
X0106414Y0143846D02*
X0106445Y0143846D01*
X0106414Y0144444D02*
X0106445Y0144444D01*
X0106676Y0145043D02*
X0106184Y0145043D01*
X0105585Y0145641D02*
X0107274Y0145641D01*
X0109916Y0145641D02*
X0111605Y0145641D01*
X0111006Y0145043D02*
X0110515Y0145043D01*
X0110745Y0144444D02*
X0110776Y0144444D01*
X0114247Y0145641D02*
X0122353Y0145641D01*
X0122353Y0145043D02*
X0114845Y0145043D01*
X0115076Y0144444D02*
X0122353Y0144444D01*
X0122353Y0143846D02*
X0115076Y0143846D01*
X0115076Y0143247D02*
X0122353Y0143247D01*
X0122353Y0142649D02*
X0115076Y0142649D01*
X0115076Y0142050D02*
X0122353Y0142050D01*
X0122353Y0141452D02*
X0115076Y0141452D01*
X0115076Y0140853D02*
X0122353Y0140853D01*
X0122353Y0140255D02*
X0115076Y0140255D01*
X0114933Y0139656D02*
X0122353Y0139656D01*
X0122353Y0139058D02*
X0114826Y0139058D01*
X0114826Y0138459D02*
X0122353Y0138459D01*
X0120653Y0137861D02*
X0120053Y0137861D01*
X0120053Y0137262D02*
X0120653Y0137262D01*
X0120653Y0136664D02*
X0120053Y0136664D01*
X0120053Y0136065D02*
X0120653Y0136065D01*
X0120053Y0135467D02*
X0117003Y0135467D01*
X0117303Y0135100D02*
X0117303Y0133859D01*
X0117421Y0133417D01*
X0117650Y0133021D01*
X0117974Y0132697D01*
X0118370Y0132468D01*
X0118812Y0132350D01*
X0120053Y0132350D01*
X0120053Y0135100D01*
X0117303Y0135100D01*
X0117303Y0134868D02*
X0117003Y0134868D01*
X0117003Y0134270D02*
X0117303Y0134270D01*
X0117353Y0133671D02*
X0117003Y0133671D01*
X0116542Y0133072D02*
X0117620Y0133072D01*
X0118360Y0132474D02*
X0110253Y0132474D01*
X0110253Y0131875D02*
X0122353Y0131875D01*
X0122353Y0131277D02*
X0109917Y0131277D01*
X0109318Y0130678D02*
X0122353Y0130678D01*
X0122353Y0130080D02*
X0108720Y0130080D01*
X0108121Y0129481D02*
X0122353Y0129481D01*
X0122346Y0132474D02*
X0122353Y0132474D01*
X0120653Y0132474D02*
X0120053Y0132474D01*
X0120053Y0133072D02*
X0120653Y0133072D01*
X0120653Y0133671D02*
X0120053Y0133671D01*
X0120053Y0134270D02*
X0120653Y0134270D01*
X0120653Y0134868D02*
X0120053Y0134868D01*
X0117303Y0136065D02*
X0117003Y0136065D01*
X0117003Y0136664D02*
X0117303Y0136664D01*
X0117389Y0137262D02*
X0117003Y0137262D01*
X0116409Y0137861D02*
X0117731Y0137861D01*
X0112164Y0133072D02*
X0110542Y0133072D01*
X0111003Y0133671D02*
X0111703Y0133671D01*
X0111703Y0134270D02*
X0111003Y0134270D01*
X0111003Y0134868D02*
X0111703Y0134868D01*
X0111599Y0135467D02*
X0111003Y0135467D01*
X0111003Y0136065D02*
X0111026Y0136065D01*
X0111003Y0136664D02*
X0111026Y0136664D01*
X0111003Y0137262D02*
X0111026Y0137262D01*
X0111026Y0137861D02*
X0110495Y0137861D01*
X0110495Y0138459D02*
X0111026Y0138459D01*
X0111026Y0139058D02*
X0110495Y0139058D01*
X0110602Y0139656D02*
X0110919Y0139656D01*
X0110776Y0140255D02*
X0110745Y0140255D01*
X0106297Y0137861D02*
X0104975Y0137861D01*
X0105317Y0137262D02*
X0105703Y0137262D01*
X0105703Y0136664D02*
X0105403Y0136664D01*
X0105403Y0136065D02*
X0105703Y0136065D01*
X0102653Y0136664D02*
X0102053Y0136664D01*
X0102053Y0137262D02*
X0102653Y0137262D01*
X0102653Y0137861D02*
X0102053Y0137861D01*
X0101342Y0139058D02*
X0102856Y0139058D01*
X0102257Y0139656D02*
X0101941Y0139656D01*
X0102084Y0140255D02*
X0102114Y0140255D01*
X0102084Y0140853D02*
X0102114Y0140853D01*
X0102084Y0141452D02*
X0102114Y0141452D01*
X0102084Y0142050D02*
X0102114Y0142050D01*
X0102084Y0142649D02*
X0102114Y0142649D01*
X0102084Y0143247D02*
X0102114Y0143247D01*
X0102084Y0143846D02*
X0102114Y0143846D01*
X0102084Y0144444D02*
X0102114Y0144444D01*
X0102053Y0145043D02*
X0102345Y0145043D01*
X0102053Y0145641D02*
X0102943Y0145641D01*
X0102597Y0146240D02*
X0122353Y0146240D01*
X0122353Y0146838D02*
X0103195Y0146838D01*
X0103794Y0147437D02*
X0122353Y0147437D01*
X0122353Y0148035D02*
X0104392Y0148035D01*
X0104991Y0148634D02*
X0122353Y0148634D01*
X0122353Y0152225D02*
X0101158Y0152225D01*
X0101756Y0152823D02*
X0122353Y0152823D01*
X0122353Y0153422D02*
X0102355Y0153422D01*
X0103175Y0151626D02*
X0100559Y0151626D01*
X0099961Y0151028D02*
X0102577Y0151028D01*
X0101978Y0150429D02*
X0099362Y0150429D01*
X0098764Y0149831D02*
X0101380Y0149831D01*
X0100781Y0149232D02*
X0098165Y0149232D01*
X0097567Y0148634D02*
X0100183Y0148634D01*
X0099584Y0148035D02*
X0097003Y0148035D01*
X0097003Y0147437D02*
X0098986Y0147437D01*
X0098653Y0146838D02*
X0097003Y0146838D01*
X0097003Y0146240D02*
X0098653Y0146240D01*
X0098613Y0145641D02*
X0097003Y0145641D01*
X0097522Y0145043D02*
X0098014Y0145043D01*
X0097784Y0144444D02*
X0097753Y0144444D01*
X0097753Y0143846D02*
X0097784Y0143846D01*
X0097753Y0143247D02*
X0097784Y0143247D01*
X0097753Y0142649D02*
X0097784Y0142649D01*
X0097753Y0142050D02*
X0097784Y0142050D01*
X0097753Y0141452D02*
X0097784Y0141452D01*
X0097753Y0140853D02*
X0097784Y0140853D01*
X0097753Y0140255D02*
X0097784Y0140255D01*
X0097926Y0139656D02*
X0097610Y0139656D01*
X0097012Y0139058D02*
X0098525Y0139058D01*
X0094194Y0139058D02*
X0092681Y0139058D01*
X0093280Y0139656D02*
X0093596Y0139656D01*
X0093453Y0140255D02*
X0093422Y0140255D01*
X0093422Y0140853D02*
X0093453Y0140853D01*
X0093422Y0141452D02*
X0093453Y0141452D01*
X0093422Y0142050D02*
X0093453Y0142050D01*
X0093422Y0142649D02*
X0093453Y0142649D01*
X0093422Y0143247D02*
X0093453Y0143247D01*
X0093422Y0143846D02*
X0093453Y0143846D01*
X0093422Y0144444D02*
X0093453Y0144444D01*
X0093684Y0145043D02*
X0093192Y0145043D01*
X0092672Y0145641D02*
X0094203Y0145641D01*
X0094203Y0146240D02*
X0092672Y0146240D01*
X0092672Y0146838D02*
X0094203Y0146838D01*
X0094203Y0147437D02*
X0092672Y0147437D01*
X0092672Y0148035D02*
X0094203Y0148035D01*
X0094203Y0148634D02*
X0092672Y0148634D01*
X0093165Y0149232D02*
X0094205Y0149232D01*
X0093764Y0149831D02*
X0094804Y0149831D01*
X0094362Y0150429D02*
X0095402Y0150429D01*
X0094961Y0151028D02*
X0096001Y0151028D01*
X0095559Y0151626D02*
X0096599Y0151626D01*
X0096158Y0152225D02*
X0097198Y0152225D01*
X0096756Y0152823D02*
X0097796Y0152823D01*
X0097355Y0153422D02*
X0098395Y0153422D01*
X0097953Y0154020D02*
X0098993Y0154020D01*
X0098552Y0154619D02*
X0099592Y0154619D01*
X0099150Y0155217D02*
X0100191Y0155217D01*
X0099749Y0155816D02*
X0100789Y0155816D01*
X0100347Y0156414D02*
X0101388Y0156414D01*
X0098782Y0158808D02*
X0076353Y0158808D01*
X0037707Y0158808D01*
X0037707Y0158210D02*
X0076353Y0158210D01*
X0098183Y0158210D01*
X0097585Y0157611D02*
X0076353Y0157611D01*
X0037707Y0157611D01*
X0037707Y0157013D02*
X0076353Y0157013D01*
X0096986Y0157013D01*
X0096388Y0156414D02*
X0076353Y0156414D01*
X0037707Y0156414D01*
X0037707Y0155816D02*
X0076353Y0155816D01*
X0095789Y0155816D01*
X0095191Y0155217D02*
X0076353Y0155217D01*
X0037707Y0155217D01*
X0037707Y0154619D02*
X0076353Y0154619D01*
X0094592Y0154619D01*
X0093993Y0154020D02*
X0076353Y0154020D01*
X0037707Y0154020D01*
X0037707Y0153422D02*
X0076353Y0153422D01*
X0093395Y0153422D01*
X0092796Y0152823D02*
X0076353Y0152823D01*
X0037707Y0152823D01*
X0037707Y0152225D02*
X0076353Y0152225D01*
X0092198Y0152225D01*
X0089872Y0145641D02*
X0088263Y0145641D01*
X0088861Y0145043D02*
X0089353Y0145043D01*
X0089122Y0144444D02*
X0089092Y0144444D01*
X0089092Y0143846D02*
X0089122Y0143846D01*
X0089092Y0143247D02*
X0089122Y0143247D01*
X0089092Y0142649D02*
X0089122Y0142649D01*
X0089092Y0142050D02*
X0089122Y0142050D01*
X0089092Y0141452D02*
X0089122Y0141452D01*
X0089092Y0140853D02*
X0089122Y0140853D01*
X0089092Y0140255D02*
X0089122Y0140255D01*
X0089265Y0139656D02*
X0088949Y0139656D01*
X0088350Y0139058D02*
X0089864Y0139058D01*
X0085533Y0139058D02*
X0084020Y0139058D01*
X0084011Y0138459D02*
X0085542Y0138459D01*
X0085542Y0137861D02*
X0084011Y0137861D01*
X0084011Y0137262D02*
X0085542Y0137262D01*
X0085542Y0136664D02*
X0084011Y0136664D01*
X0084011Y0136065D02*
X0085542Y0136065D01*
X0085542Y0135467D02*
X0084011Y0135467D01*
X0084011Y0134868D02*
X0085542Y0134868D01*
X0085542Y0134270D02*
X0084011Y0134270D01*
X0084011Y0133671D02*
X0085542Y0133671D01*
X0085701Y0133072D02*
X0084011Y0133072D01*
X0084011Y0132474D02*
X0086299Y0132474D01*
X0086898Y0131875D02*
X0084011Y0131875D01*
X0088463Y0134270D02*
X0099303Y0134270D01*
X0099303Y0133859D02*
X0099421Y0133417D01*
X0099650Y0133021D01*
X0099974Y0132697D01*
X0100370Y0132468D01*
X0100812Y0132350D01*
X0102053Y0132350D01*
X0102053Y0135100D01*
X0099303Y0135100D01*
X0099303Y0133859D01*
X0099353Y0133671D02*
X0089062Y0133671D01*
X0089660Y0133072D02*
X0099620Y0133072D01*
X0100360Y0132474D02*
X0090259Y0132474D01*
X0088342Y0134868D02*
X0099303Y0134868D01*
X0102053Y0134868D02*
X0102653Y0134868D01*
X0102653Y0134270D02*
X0102053Y0134270D01*
X0102053Y0133671D02*
X0102653Y0133671D01*
X0102653Y0133072D02*
X0102053Y0133072D01*
X0102053Y0132474D02*
X0102653Y0132474D01*
X0085621Y0145641D02*
X0083932Y0145641D01*
X0084530Y0145043D02*
X0085022Y0145043D01*
X0084792Y0144444D02*
X0084761Y0144444D01*
X0084761Y0143846D02*
X0084792Y0143846D01*
X0084761Y0143247D02*
X0084792Y0143247D01*
X0084761Y0142649D02*
X0084792Y0142649D01*
X0084761Y0142050D02*
X0084792Y0142050D01*
X0084761Y0141452D02*
X0084792Y0141452D01*
X0084761Y0140853D02*
X0084792Y0140853D01*
X0084761Y0140255D02*
X0084792Y0140255D01*
X0084934Y0139656D02*
X0084618Y0139656D01*
X0081202Y0139058D02*
X0080255Y0139058D01*
X0078580Y0139058D02*
X0077980Y0139058D01*
X0077980Y0139656D02*
X0078580Y0139656D01*
X0078580Y0140255D02*
X0077980Y0140255D01*
X0077980Y0140853D02*
X0078580Y0140853D01*
X0078580Y0141452D02*
X0077980Y0141452D01*
X0077980Y0142649D02*
X0078580Y0142649D01*
X0078580Y0143247D02*
X0077980Y0143247D01*
X0077980Y0143846D02*
X0078580Y0143846D01*
X0078580Y0144444D02*
X0077980Y0144444D01*
X0077980Y0145043D02*
X0078580Y0145043D01*
X0078580Y0145641D02*
X0077980Y0145641D01*
X0080167Y0145641D02*
X0081290Y0145641D01*
X0080691Y0145043D02*
X0080630Y0145043D01*
X0076353Y0159407D02*
X0099380Y0159407D01*
X0088578Y0164195D02*
X0076353Y0164195D01*
X0037707Y0164195D01*
X0037707Y0163597D02*
X0076353Y0163597D01*
X0122353Y0163597D01*
X0122353Y0162998D02*
X0076353Y0162998D01*
X0037707Y0162998D01*
X0037707Y0162400D02*
X0076353Y0162400D01*
X0122353Y0162400D01*
X0122353Y0161801D02*
X0076353Y0161801D01*
X0037707Y0161801D01*
X0037707Y0161203D02*
X0076353Y0161203D01*
X0122353Y0161203D01*
X0122353Y0160604D02*
X0076353Y0160604D01*
X0037707Y0160604D01*
X0037707Y0160005D02*
X0076353Y0160005D01*
X0122353Y0160005D01*
X0122353Y0167188D02*
X0089545Y0167188D01*
X0088947Y0167786D02*
X0122353Y0167786D01*
X0122353Y0168385D02*
X0088348Y0168385D01*
X0087750Y0168983D02*
X0122353Y0168983D01*
X0122353Y0169582D02*
X0087151Y0169582D01*
X0086553Y0170180D02*
X0122353Y0170180D01*
X0122353Y0170779D02*
X0085954Y0170779D01*
X0085356Y0171377D02*
X0122353Y0171377D01*
X0122353Y0171976D02*
X0084757Y0171976D01*
X0084159Y0172574D02*
X0122353Y0172574D01*
X0122353Y0173173D02*
X0083560Y0173173D01*
X0082962Y0173771D02*
X0122353Y0173771D01*
X0122353Y0174370D02*
X0082363Y0174370D01*
X0081765Y0174968D02*
X0122353Y0174968D01*
X0122353Y0175567D02*
X0081166Y0175567D01*
X0080568Y0176165D02*
X0122353Y0176165D01*
X0122353Y0176764D02*
X0114063Y0176764D01*
X0113226Y0176764D02*
X0112626Y0176764D01*
X0112626Y0177362D02*
X0113226Y0177362D01*
X0113226Y0177961D02*
X0112626Y0177961D01*
X0112626Y0178559D02*
X0113226Y0178559D01*
X0113226Y0179158D02*
X0112626Y0179158D01*
X0112626Y0179756D02*
X0113226Y0179756D01*
X0113226Y0180355D02*
X0122353Y0180355D01*
X0122353Y0180953D02*
X0115476Y0180953D01*
X0115476Y0181552D02*
X0122353Y0181552D01*
X0122353Y0182150D02*
X0115476Y0182150D01*
X0115442Y0182749D02*
X0122353Y0182749D01*
X0122353Y0183347D02*
X0115209Y0183347D01*
X0114670Y0183946D02*
X0122353Y0183946D01*
X0122353Y0184544D02*
X0110095Y0184544D01*
X0110095Y0183946D02*
X0111181Y0183946D01*
X0110643Y0183347D02*
X0110399Y0183347D01*
X0110095Y0185143D02*
X0122353Y0185143D01*
X0122353Y0185741D02*
X0110095Y0185741D01*
X0110095Y0186340D02*
X0122353Y0186340D01*
X0122353Y0186939D02*
X0110095Y0186939D01*
X0110095Y0187537D02*
X0122353Y0187537D01*
X0122353Y0188136D02*
X0110095Y0188136D01*
X0110095Y0188734D02*
X0122353Y0188734D01*
X0122353Y0189333D02*
X0110095Y0189333D01*
X0110095Y0189931D02*
X0122353Y0189931D01*
X0122353Y0190530D02*
X0110095Y0190530D01*
X0110095Y0191128D02*
X0122353Y0191128D01*
X0122353Y0191727D02*
X0110095Y0191727D01*
X0110095Y0192325D02*
X0122353Y0192325D01*
X0122353Y0192924D02*
X0110095Y0192924D01*
X0110095Y0193522D02*
X0122353Y0193522D01*
X0122353Y0194121D02*
X0110095Y0194121D01*
X0110095Y0194719D02*
X0122353Y0194719D01*
X0122353Y0195318D02*
X0110095Y0195318D01*
X0110095Y0195916D02*
X0122353Y0195916D01*
X0122353Y0196515D02*
X0110095Y0196515D01*
X0110095Y0197113D02*
X0122353Y0197113D01*
X0122353Y0197712D02*
X0110095Y0197712D01*
X0110095Y0198310D02*
X0122353Y0198310D01*
X0122353Y0198909D02*
X0110095Y0198909D01*
X0110095Y0199507D02*
X0122353Y0199507D01*
X0122353Y0200106D02*
X0110095Y0200106D01*
X0110095Y0200704D02*
X0122353Y0200704D01*
X0122353Y0201303D02*
X0110095Y0201303D01*
X0110095Y0201901D02*
X0122353Y0201901D01*
X0122353Y0202500D02*
X0110095Y0202500D01*
X0110095Y0203098D02*
X0122353Y0203098D01*
X0122353Y0203697D02*
X0110095Y0203697D01*
X0110095Y0204295D02*
X0122353Y0204295D01*
X0122353Y0204894D02*
X0110095Y0204894D01*
X0110095Y0205492D02*
X0122353Y0205492D01*
X0122353Y0206091D02*
X0110095Y0206091D01*
X0110095Y0206689D02*
X0122353Y0206689D01*
X0122353Y0207288D02*
X0110095Y0207288D01*
X0110095Y0207886D02*
X0122353Y0207886D01*
X0122353Y0208485D02*
X0110095Y0208485D01*
X0110095Y0209083D02*
X0122353Y0209083D01*
X0122353Y0209682D02*
X0110095Y0209682D01*
X0110095Y0210280D02*
X0122353Y0210280D01*
X0122353Y0210879D02*
X0110095Y0210879D01*
X0110095Y0211477D02*
X0122353Y0211477D01*
X0122353Y0212076D02*
X0110095Y0212076D01*
X0110095Y0212674D02*
X0122353Y0212674D01*
X0122353Y0213273D02*
X0110095Y0213273D01*
X0110095Y0213872D02*
X0122353Y0213872D01*
X0122353Y0214470D02*
X0110095Y0214470D01*
X0109806Y0215069D02*
X0122353Y0215069D01*
X0122353Y0215667D02*
X0109207Y0215667D01*
X0108609Y0216266D02*
X0122353Y0216266D01*
X0122353Y0216864D02*
X0108010Y0216864D01*
X0107412Y0217463D02*
X0122353Y0217463D01*
X0122353Y0218061D02*
X0106813Y0218061D01*
X0106215Y0218660D02*
X0122353Y0218660D01*
X0122353Y0219258D02*
X0105616Y0219258D01*
X0105018Y0219857D02*
X0122353Y0219857D01*
X0122353Y0220455D02*
X0076353Y0220455D01*
X0076353Y0220500D02*
X0074483Y0220500D01*
X0073253Y0219270D01*
X0072702Y0218718D01*
X0069702Y0218718D01*
X0069692Y0218709D01*
X0068474Y0218709D01*
X0068274Y0218509D01*
X0066635Y0218509D01*
X0066635Y0216619D01*
X0066634Y0216619D01*
X0066634Y0218509D01*
X0064987Y0218509D01*
X0064656Y0218420D01*
X0064360Y0218249D01*
X0064118Y0218007D01*
X0063947Y0217711D01*
X0063858Y0217380D01*
X0063858Y0216619D01*
X0066634Y0216619D01*
X0066634Y0216618D01*
X0063858Y0216618D01*
X0063858Y0215857D01*
X0063918Y0215634D01*
X0063858Y0215412D01*
X0063858Y0214850D01*
X0058483Y0214850D01*
X0058442Y0214809D01*
X0052774Y0214809D01*
X0051996Y0215587D01*
X0047210Y0215587D01*
X0046331Y0214708D01*
X0046331Y0210710D01*
X0046891Y0210150D01*
X0046331Y0209590D01*
X0046331Y0205592D01*
X0047210Y0204713D01*
X0047503Y0204713D01*
X0047503Y0204650D01*
X0047488Y0204650D01*
X0046353Y0203515D01*
X0046353Y0199285D01*
X0047238Y0198400D01*
X0046353Y0197515D01*
X0046353Y0193285D01*
X0047488Y0192150D01*
X0047503Y0192150D01*
X0047503Y0191900D01*
X0047488Y0191900D01*
X0046353Y0190765D01*
X0046353Y0186535D01*
X0047488Y0185400D01*
X0047503Y0185400D01*
X0047503Y0185150D01*
X0047488Y0185150D01*
X0046353Y0184015D01*
X0046353Y0179785D01*
X0047238Y0178900D01*
X0046353Y0178015D01*
X0046353Y0173785D01*
X0047488Y0172650D01*
X0047503Y0172650D01*
X0047503Y0172400D01*
X0047488Y0172400D01*
X0046353Y0171265D01*
X0046353Y0171256D01*
X0037707Y0171256D01*
X0037707Y0187494D01*
X0036829Y0188372D01*
X0014720Y0188372D01*
X0013841Y0187494D01*
X0013841Y0183102D01*
X0014720Y0182223D01*
X0026833Y0182223D01*
X0026833Y0180692D01*
X0021153Y0180692D01*
X0021153Y0177428D01*
X0020553Y0177428D01*
X0020553Y0180692D01*
X0013202Y0180692D01*
X0013153Y0180679D01*
X0013153Y0223900D01*
X0025025Y0223900D01*
X0023775Y0222650D01*
X0021451Y0222650D01*
X0020353Y0221552D01*
X0020353Y0217248D01*
X0021451Y0216150D01*
X0025255Y0216150D01*
X0026353Y0217248D01*
X0026353Y0219572D01*
X0030681Y0223900D01*
X0034025Y0223900D01*
X0023775Y0213650D01*
X0021451Y0213650D01*
X0020353Y0212552D01*
X0020353Y0208248D01*
X0021451Y0207150D01*
X0025255Y0207150D01*
X0026353Y0208248D01*
X0026353Y0210572D01*
X0039681Y0223900D01*
X0043025Y0223900D01*
X0023775Y0204650D01*
X0021451Y0204650D01*
X0020353Y0203552D01*
X0020353Y0199248D01*
X0021451Y0198150D01*
X0025255Y0198150D01*
X0026353Y0199248D01*
X0026353Y0201572D01*
X0048681Y0223900D01*
X0076353Y0223900D01*
X0076353Y0220500D01*
X0076353Y0221054D02*
X0122353Y0221054D01*
X0122353Y0221652D02*
X0076353Y0221652D01*
X0046434Y0221652D01*
X0047032Y0222251D02*
X0076353Y0222251D01*
X0122353Y0222251D01*
X0122353Y0222849D02*
X0076353Y0222849D01*
X0047631Y0222849D01*
X0048229Y0223448D02*
X0076353Y0223448D01*
X0122353Y0223448D01*
X0107095Y0213537D02*
X0107095Y0183651D01*
X0106637Y0183193D01*
X0106430Y0183551D01*
X0106071Y0183910D01*
X0105632Y0184163D01*
X0105143Y0184294D01*
X0104564Y0184294D01*
X0104564Y0180795D01*
X0103964Y0180795D01*
X0103964Y0184294D01*
X0103386Y0184294D01*
X0102896Y0184163D01*
X0102457Y0183910D01*
X0102099Y0183551D01*
X0101892Y0183193D01*
X0101434Y0183651D01*
X0101434Y0197359D01*
X0103974Y0199900D01*
X0104853Y0200779D01*
X0104853Y0204213D01*
X0105433Y0204213D01*
X0106253Y0205033D01*
X0106253Y0209193D01*
X0105546Y0209900D01*
X0106253Y0210607D01*
X0106253Y0214379D01*
X0107095Y0213537D01*
X0107095Y0213273D02*
X0106253Y0213273D01*
X0106253Y0212674D02*
X0107095Y0212674D01*
X0107095Y0212076D02*
X0106253Y0212076D01*
X0106253Y0211477D02*
X0107095Y0211477D01*
X0107095Y0210879D02*
X0106253Y0210879D01*
X0105926Y0210280D02*
X0107095Y0210280D01*
X0107095Y0209682D02*
X0105764Y0209682D01*
X0106253Y0209083D02*
X0107095Y0209083D01*
X0107095Y0208485D02*
X0106253Y0208485D01*
X0106253Y0207886D02*
X0107095Y0207886D01*
X0107095Y0207288D02*
X0106253Y0207288D01*
X0106253Y0206689D02*
X0107095Y0206689D01*
X0107095Y0206091D02*
X0106253Y0206091D01*
X0106253Y0205492D02*
X0107095Y0205492D01*
X0107095Y0204894D02*
X0106114Y0204894D01*
X0105515Y0204295D02*
X0107095Y0204295D01*
X0107095Y0203697D02*
X0104853Y0203697D01*
X0104853Y0203098D02*
X0107095Y0203098D01*
X0107095Y0202500D02*
X0104853Y0202500D01*
X0104853Y0201901D02*
X0107095Y0201901D01*
X0107095Y0201303D02*
X0104853Y0201303D01*
X0104779Y0200704D02*
X0107095Y0200704D01*
X0107095Y0200106D02*
X0104180Y0200106D01*
X0103582Y0199507D02*
X0107095Y0199507D01*
X0107095Y0198909D02*
X0102983Y0198909D01*
X0102385Y0198310D02*
X0107095Y0198310D01*
X0107095Y0197712D02*
X0101786Y0197712D01*
X0101434Y0197113D02*
X0107095Y0197113D01*
X0107095Y0196515D02*
X0101434Y0196515D01*
X0101434Y0195916D02*
X0107095Y0195916D01*
X0107095Y0195318D02*
X0101434Y0195318D01*
X0101434Y0194719D02*
X0107095Y0194719D01*
X0107095Y0194121D02*
X0101434Y0194121D01*
X0101434Y0193522D02*
X0107095Y0193522D01*
X0107095Y0192924D02*
X0101434Y0192924D01*
X0101434Y0192325D02*
X0107095Y0192325D01*
X0107095Y0191727D02*
X0101434Y0191727D01*
X0101434Y0191128D02*
X0107095Y0191128D01*
X0107095Y0190530D02*
X0101434Y0190530D01*
X0101434Y0189931D02*
X0107095Y0189931D01*
X0107095Y0189333D02*
X0101434Y0189333D01*
X0101434Y0188734D02*
X0107095Y0188734D01*
X0107095Y0188136D02*
X0101434Y0188136D01*
X0101434Y0187537D02*
X0107095Y0187537D01*
X0107095Y0186939D02*
X0101434Y0186939D01*
X0101434Y0186340D02*
X0107095Y0186340D01*
X0107095Y0185741D02*
X0101434Y0185741D01*
X0101434Y0185143D02*
X0107095Y0185143D01*
X0107095Y0184544D02*
X0101434Y0184544D01*
X0101434Y0183946D02*
X0102520Y0183946D01*
X0101981Y0183347D02*
X0101737Y0183347D01*
X0103964Y0183347D02*
X0104564Y0183347D01*
X0104564Y0182749D02*
X0103964Y0182749D01*
X0103964Y0182150D02*
X0104564Y0182150D01*
X0104564Y0181552D02*
X0103964Y0181552D01*
X0103964Y0180953D02*
X0104564Y0180953D01*
X0104564Y0179756D02*
X0103964Y0179756D01*
X0103964Y0179158D02*
X0104564Y0179158D01*
X0104564Y0178559D02*
X0103964Y0178559D01*
X0103964Y0177961D02*
X0104564Y0177961D01*
X0104564Y0177362D02*
X0103964Y0177362D01*
X0103964Y0176764D02*
X0104564Y0176764D01*
X0105402Y0176764D02*
X0111789Y0176764D01*
X0110836Y0177362D02*
X0110120Y0177362D01*
X0107071Y0177362D02*
X0106355Y0177362D01*
X0103127Y0176764D02*
X0079969Y0176764D01*
X0079805Y0177362D02*
X0081086Y0177362D01*
X0080488Y0177961D02*
X0080403Y0177961D01*
X0080430Y0178559D02*
X0080461Y0178559D01*
X0080430Y0179158D02*
X0080461Y0179158D01*
X0080430Y0179756D02*
X0080461Y0179756D01*
X0080430Y0180355D02*
X0080461Y0180355D01*
X0080430Y0180953D02*
X0080461Y0180953D01*
X0080430Y0181552D02*
X0080461Y0181552D01*
X0080430Y0182150D02*
X0080461Y0182150D01*
X0080430Y0182749D02*
X0080461Y0182749D01*
X0080807Y0183347D02*
X0080084Y0183347D01*
X0080827Y0183946D02*
X0076353Y0183946D01*
X0076226Y0183946D02*
X0052853Y0183946D01*
X0052853Y0183347D02*
X0075628Y0183347D01*
X0075530Y0182749D02*
X0052853Y0182749D01*
X0052853Y0182150D02*
X0075530Y0182150D01*
X0075530Y0181552D02*
X0052853Y0181552D01*
X0052853Y0180953D02*
X0075530Y0180953D01*
X0075530Y0180355D02*
X0052853Y0180355D01*
X0052824Y0179756D02*
X0075530Y0179756D01*
X0075530Y0179158D02*
X0052226Y0179158D01*
X0052309Y0178559D02*
X0075530Y0178559D01*
X0075530Y0177961D02*
X0052853Y0177961D01*
X0052853Y0177362D02*
X0075907Y0177362D01*
X0076353Y0177362D02*
X0076756Y0177362D01*
X0076880Y0176764D02*
X0076353Y0176764D01*
X0076280Y0176764D02*
X0052853Y0176764D01*
X0052853Y0176165D02*
X0076280Y0176165D01*
X0076353Y0176165D02*
X0076880Y0176165D01*
X0077206Y0175567D02*
X0076353Y0175567D01*
X0052853Y0175567D01*
X0052853Y0174968D02*
X0076353Y0174968D01*
X0077805Y0174968D01*
X0078403Y0174370D02*
X0076353Y0174370D01*
X0052853Y0174370D01*
X0052839Y0173771D02*
X0076353Y0173771D01*
X0079002Y0173771D01*
X0079600Y0173173D02*
X0076353Y0173173D01*
X0052241Y0173173D01*
X0051703Y0172574D02*
X0076353Y0172574D01*
X0080199Y0172574D01*
X0080797Y0171976D02*
X0076353Y0171976D01*
X0057770Y0171976D01*
X0057586Y0172082D02*
X0057144Y0172200D01*
X0055903Y0172200D01*
X0055903Y0169450D01*
X0058653Y0169450D01*
X0058653Y0170691D01*
X0058535Y0171133D01*
X0058306Y0171529D01*
X0057982Y0171853D01*
X0057586Y0172082D01*
X0058394Y0171377D02*
X0076353Y0171377D01*
X0081396Y0171377D01*
X0081994Y0170779D02*
X0076353Y0170779D01*
X0058630Y0170779D01*
X0058653Y0170180D02*
X0076353Y0170180D01*
X0082593Y0170180D01*
X0083191Y0169582D02*
X0076353Y0169582D01*
X0058653Y0169582D01*
X0058653Y0168850D02*
X0055903Y0168850D01*
X0055903Y0166100D01*
X0057144Y0166100D01*
X0057586Y0166218D01*
X0057982Y0166447D01*
X0058306Y0166771D01*
X0058535Y0167167D01*
X0058653Y0167609D01*
X0058653Y0168850D01*
X0058653Y0168385D02*
X0076353Y0168385D01*
X0084388Y0168385D01*
X0083790Y0168983D02*
X0076353Y0168983D01*
X0055903Y0168983D01*
X0055903Y0168385D02*
X0055303Y0168385D01*
X0055303Y0167786D02*
X0055903Y0167786D01*
X0055903Y0167188D02*
X0055303Y0167188D01*
X0055303Y0166589D02*
X0055903Y0166589D01*
X0058124Y0166589D02*
X0076353Y0166589D01*
X0086184Y0166589D01*
X0086782Y0165991D02*
X0076353Y0165991D01*
X0051809Y0165991D01*
X0052407Y0166589D02*
X0053082Y0166589D01*
X0055303Y0169582D02*
X0055903Y0169582D01*
X0055903Y0170180D02*
X0055303Y0170180D01*
X0055303Y0170779D02*
X0055903Y0170779D01*
X0055903Y0171377D02*
X0055303Y0171377D01*
X0055303Y0171976D02*
X0055903Y0171976D01*
X0053437Y0171976D02*
X0052142Y0171976D01*
X0052741Y0171377D02*
X0052812Y0171377D01*
X0047503Y0172574D02*
X0037707Y0172574D01*
X0037707Y0171976D02*
X0047064Y0171976D01*
X0046465Y0171377D02*
X0037707Y0171377D01*
X0037707Y0173173D02*
X0046965Y0173173D01*
X0046367Y0173771D02*
X0037707Y0173771D01*
X0037707Y0174370D02*
X0046353Y0174370D01*
X0046353Y0174968D02*
X0037707Y0174968D01*
X0037707Y0175567D02*
X0046353Y0175567D01*
X0046353Y0176165D02*
X0037707Y0176165D01*
X0037707Y0176764D02*
X0046353Y0176764D01*
X0046353Y0177362D02*
X0037707Y0177362D01*
X0037707Y0177961D02*
X0046353Y0177961D01*
X0046897Y0178559D02*
X0037707Y0178559D01*
X0037707Y0179158D02*
X0046980Y0179158D01*
X0046382Y0179756D02*
X0037707Y0179756D01*
X0037707Y0180355D02*
X0046353Y0180355D01*
X0046353Y0180953D02*
X0037707Y0180953D01*
X0037707Y0181552D02*
X0046353Y0181552D01*
X0046353Y0182150D02*
X0037707Y0182150D01*
X0037707Y0182749D02*
X0046353Y0182749D01*
X0046353Y0183347D02*
X0037707Y0183347D01*
X0037707Y0183946D02*
X0046353Y0183946D01*
X0046882Y0184544D02*
X0037707Y0184544D01*
X0037707Y0185143D02*
X0047481Y0185143D01*
X0047146Y0185741D02*
X0037707Y0185741D01*
X0037707Y0186340D02*
X0046548Y0186340D01*
X0046353Y0186939D02*
X0037707Y0186939D01*
X0037664Y0187537D02*
X0046353Y0187537D01*
X0046353Y0188136D02*
X0037066Y0188136D01*
X0046353Y0188734D02*
X0013153Y0188734D01*
X0013153Y0188136D02*
X0014483Y0188136D01*
X0013884Y0187537D02*
X0013153Y0187537D01*
X0013153Y0186939D02*
X0013841Y0186939D01*
X0013841Y0186340D02*
X0013153Y0186340D01*
X0013153Y0185741D02*
X0013841Y0185741D01*
X0013841Y0185143D02*
X0013153Y0185143D01*
X0013153Y0184544D02*
X0013841Y0184544D01*
X0013841Y0183946D02*
X0013153Y0183946D01*
X0013153Y0183347D02*
X0013841Y0183347D01*
X0014194Y0182749D02*
X0013153Y0182749D01*
X0013153Y0182150D02*
X0026833Y0182150D01*
X0026833Y0181552D02*
X0013153Y0181552D01*
X0013153Y0180953D02*
X0026833Y0180953D01*
X0021153Y0180355D02*
X0020553Y0180355D01*
X0020553Y0179756D02*
X0021153Y0179756D01*
X0021153Y0179158D02*
X0020553Y0179158D01*
X0020553Y0178559D02*
X0021153Y0178559D01*
X0021153Y0177961D02*
X0020553Y0177961D01*
X0013153Y0189333D02*
X0046353Y0189333D01*
X0046353Y0189931D02*
X0013153Y0189931D01*
X0013153Y0190530D02*
X0046353Y0190530D01*
X0046716Y0191128D02*
X0013153Y0191128D01*
X0013153Y0191727D02*
X0047315Y0191727D01*
X0047313Y0192325D02*
X0013153Y0192325D01*
X0013153Y0192924D02*
X0046714Y0192924D01*
X0046353Y0193522D02*
X0013153Y0193522D01*
X0013153Y0194121D02*
X0046353Y0194121D01*
X0046353Y0194719D02*
X0013153Y0194719D01*
X0013153Y0195318D02*
X0046353Y0195318D01*
X0046353Y0195916D02*
X0013153Y0195916D01*
X0013153Y0196515D02*
X0046353Y0196515D01*
X0046353Y0197113D02*
X0013153Y0197113D01*
X0013153Y0197712D02*
X0046550Y0197712D01*
X0047148Y0198310D02*
X0025415Y0198310D01*
X0026013Y0198909D02*
X0046729Y0198909D01*
X0046353Y0199507D02*
X0026353Y0199507D01*
X0026353Y0200106D02*
X0046353Y0200106D01*
X0046353Y0200704D02*
X0026353Y0200704D01*
X0026353Y0201303D02*
X0046353Y0201303D01*
X0046353Y0201901D02*
X0026683Y0201901D01*
X0027281Y0202500D02*
X0046353Y0202500D01*
X0046353Y0203098D02*
X0027880Y0203098D01*
X0028478Y0203697D02*
X0046535Y0203697D01*
X0047133Y0204295D02*
X0029077Y0204295D01*
X0029675Y0204894D02*
X0047029Y0204894D01*
X0046431Y0205492D02*
X0030274Y0205492D01*
X0030872Y0206091D02*
X0046331Y0206091D01*
X0046331Y0206689D02*
X0031471Y0206689D01*
X0032069Y0207288D02*
X0046331Y0207288D01*
X0046331Y0207886D02*
X0032668Y0207886D01*
X0033266Y0208485D02*
X0046331Y0208485D01*
X0046331Y0209083D02*
X0033865Y0209083D01*
X0034463Y0209682D02*
X0046423Y0209682D01*
X0046761Y0210280D02*
X0035062Y0210280D01*
X0035660Y0210879D02*
X0046331Y0210879D01*
X0046331Y0211477D02*
X0036259Y0211477D01*
X0036857Y0212076D02*
X0046331Y0212076D01*
X0046331Y0212674D02*
X0037456Y0212674D01*
X0038054Y0213273D02*
X0046331Y0213273D01*
X0046331Y0213872D02*
X0038653Y0213872D01*
X0039251Y0214470D02*
X0046331Y0214470D01*
X0046692Y0215069D02*
X0039850Y0215069D01*
X0040448Y0215667D02*
X0063909Y0215667D01*
X0063858Y0215069D02*
X0052514Y0215069D01*
X0052445Y0210280D02*
X0057428Y0210280D01*
X0057428Y0210068D02*
X0057535Y0209667D01*
X0057743Y0209308D01*
X0058036Y0209015D01*
X0058395Y0208807D01*
X0058796Y0208700D01*
X0059353Y0208700D01*
X0059910Y0208700D01*
X0060311Y0208807D01*
X0060670Y0209015D01*
X0060963Y0209308D01*
X0061171Y0209667D01*
X0061278Y0210068D01*
X0061278Y0210550D01*
X0059353Y0210550D01*
X0059353Y0210550D01*
X0059353Y0208700D01*
X0059353Y0210550D01*
X0059353Y0210550D01*
X0059353Y0210550D01*
X0057428Y0210550D01*
X0057428Y0210068D01*
X0057531Y0209682D02*
X0052783Y0209682D01*
X0052875Y0209083D02*
X0057967Y0209083D01*
X0059353Y0209083D02*
X0059353Y0209083D01*
X0059353Y0209682D02*
X0059353Y0209682D01*
X0059353Y0210280D02*
X0059353Y0210280D01*
X0060739Y0209083D02*
X0076204Y0209083D01*
X0076353Y0209682D02*
X0077244Y0209682D01*
X0076706Y0210280D02*
X0076353Y0210280D01*
X0075858Y0210280D02*
X0061278Y0210280D01*
X0061175Y0209682D02*
X0076353Y0209682D01*
X0075882Y0208485D02*
X0052875Y0208485D01*
X0052875Y0207886D02*
X0075803Y0207886D01*
X0075803Y0207288D02*
X0052875Y0207288D01*
X0052875Y0206689D02*
X0076353Y0206689D01*
X0075803Y0206091D02*
X0052875Y0206091D01*
X0052775Y0205492D02*
X0075803Y0205492D01*
X0075861Y0204894D02*
X0052177Y0204894D01*
X0052073Y0204295D02*
X0076136Y0204295D01*
X0076353Y0203697D02*
X0076950Y0203697D01*
X0076353Y0203697D02*
X0052671Y0203697D01*
X0052853Y0203098D02*
X0076353Y0203098D01*
X0094103Y0203098D01*
X0094103Y0202500D02*
X0076353Y0202500D01*
X0052853Y0202500D01*
X0052853Y0201901D02*
X0076353Y0201901D01*
X0094103Y0201901D01*
X0094103Y0201303D02*
X0076353Y0201303D01*
X0052853Y0201303D01*
X0052853Y0200704D02*
X0076353Y0200704D01*
X0094103Y0200704D01*
X0094103Y0200106D02*
X0076353Y0200106D01*
X0052853Y0200106D01*
X0052853Y0199507D02*
X0076353Y0199507D01*
X0094103Y0199507D01*
X0094103Y0198909D02*
X0076353Y0198909D01*
X0052477Y0198909D01*
X0052058Y0198310D02*
X0064931Y0198310D01*
X0064456Y0197712D02*
X0052656Y0197712D01*
X0052853Y0197113D02*
X0064266Y0197113D01*
X0064266Y0196515D02*
X0052853Y0196515D01*
X0052853Y0195916D02*
X0064266Y0195916D01*
X0064266Y0194719D02*
X0052853Y0194719D01*
X0052853Y0194121D02*
X0064266Y0194121D01*
X0064304Y0193522D02*
X0052853Y0193522D01*
X0052492Y0192924D02*
X0064551Y0192924D01*
X0065194Y0192325D02*
X0051893Y0192325D01*
X0051891Y0191727D02*
X0070638Y0191727D01*
X0070812Y0191900D02*
X0075468Y0191900D01*
X0076353Y0191015D01*
X0076353Y0192785D01*
X0075468Y0191900D01*
X0070812Y0191900D01*
X0070386Y0192325D02*
X0069938Y0192325D01*
X0067866Y0192325D02*
X0067266Y0192325D01*
X0067266Y0192924D02*
X0067866Y0192924D01*
X0067866Y0193522D02*
X0067266Y0193522D01*
X0067266Y0194121D02*
X0067866Y0194121D01*
X0067866Y0194719D02*
X0067266Y0194719D01*
X0067266Y0195318D02*
X0052853Y0195318D01*
X0052999Y0191128D02*
X0052490Y0191128D01*
X0055303Y0191128D02*
X0055903Y0191128D01*
X0055903Y0191700D02*
X0055903Y0188950D01*
X0058653Y0188950D01*
X0058653Y0190191D01*
X0058535Y0190633D01*
X0058306Y0191029D01*
X0057982Y0191353D01*
X0057586Y0191582D01*
X0057144Y0191700D01*
X0055903Y0191700D01*
X0055903Y0190530D02*
X0055303Y0190530D01*
X0055303Y0189931D02*
X0055903Y0189931D01*
X0055903Y0189333D02*
X0055303Y0189333D01*
X0055903Y0188734D02*
X0064266Y0188734D01*
X0064266Y0189333D02*
X0058653Y0189333D01*
X0058653Y0189931D02*
X0064266Y0189931D01*
X0064371Y0190530D02*
X0058562Y0190530D01*
X0058207Y0191128D02*
X0064749Y0191128D01*
X0067266Y0191128D02*
X0067866Y0191128D01*
X0067866Y0190530D02*
X0067266Y0190530D01*
X0067266Y0189931D02*
X0067866Y0189931D01*
X0067866Y0189333D02*
X0067266Y0189333D01*
X0067266Y0188734D02*
X0067866Y0188734D01*
X0067266Y0188136D02*
X0058653Y0188136D01*
X0058653Y0188350D02*
X0055903Y0188350D01*
X0055903Y0185600D01*
X0057144Y0185600D01*
X0057586Y0185718D01*
X0057982Y0185947D01*
X0058306Y0186271D01*
X0058535Y0186667D01*
X0058653Y0187109D01*
X0058653Y0188350D01*
X0058653Y0187537D02*
X0064266Y0187537D01*
X0064266Y0186939D02*
X0058607Y0186939D01*
X0058346Y0186340D02*
X0064353Y0186340D01*
X0064679Y0185741D02*
X0057626Y0185741D01*
X0055903Y0185741D02*
X0055303Y0185741D01*
X0055303Y0186340D02*
X0055903Y0186340D01*
X0055903Y0186939D02*
X0055303Y0186939D01*
X0055303Y0187537D02*
X0055903Y0187537D01*
X0055903Y0188136D02*
X0055303Y0188136D01*
X0053580Y0185741D02*
X0052060Y0185741D01*
X0051725Y0185143D02*
X0065669Y0185143D01*
X0067266Y0185143D02*
X0067866Y0185143D01*
X0067866Y0185741D02*
X0067266Y0185741D01*
X0067266Y0186340D02*
X0067866Y0186340D01*
X0067866Y0186939D02*
X0067266Y0186939D01*
X0067266Y0187537D02*
X0067866Y0187537D01*
X0069463Y0185143D02*
X0070569Y0185143D01*
X0075711Y0185143D02*
X0076353Y0185143D01*
X0079630Y0185143D01*
X0079032Y0185741D02*
X0076353Y0185741D01*
X0076310Y0185741D01*
X0076353Y0186340D02*
X0078433Y0186340D01*
X0077835Y0186939D02*
X0076353Y0186939D01*
X0076353Y0184544D02*
X0080229Y0184544D01*
X0082393Y0186340D02*
X0085542Y0186340D01*
X0085542Y0186939D02*
X0081794Y0186939D01*
X0081196Y0187537D02*
X0085542Y0187537D01*
X0085542Y0188136D02*
X0080597Y0188136D01*
X0079999Y0188734D02*
X0085039Y0188734D01*
X0084441Y0189333D02*
X0079400Y0189333D01*
X0076353Y0189931D02*
X0083842Y0189931D01*
X0083244Y0190530D02*
X0076353Y0190530D01*
X0076353Y0191128D02*
X0082645Y0191128D01*
X0082046Y0191727D02*
X0076353Y0191727D01*
X0075642Y0191727D01*
X0075894Y0192325D02*
X0076353Y0192325D01*
X0081448Y0192325D01*
X0080849Y0192924D02*
X0076353Y0192924D01*
X0076353Y0193522D02*
X0080251Y0193522D01*
X0082415Y0195318D02*
X0094103Y0195318D01*
X0094103Y0195916D02*
X0081817Y0195916D01*
X0081218Y0196515D02*
X0094103Y0196515D01*
X0094103Y0197113D02*
X0076353Y0197113D01*
X0076353Y0197712D02*
X0094103Y0197712D01*
X0094103Y0198310D02*
X0076353Y0198310D01*
X0076058Y0198310D01*
X0070222Y0198310D02*
X0070201Y0198310D01*
X0067866Y0198310D02*
X0067266Y0198310D01*
X0067266Y0197712D02*
X0067866Y0197712D01*
X0067866Y0197113D02*
X0067266Y0197113D01*
X0067266Y0196515D02*
X0067866Y0196515D01*
X0067866Y0195916D02*
X0067266Y0195916D01*
X0076240Y0191128D02*
X0076353Y0191128D01*
X0076353Y0184544D02*
X0052324Y0184544D01*
X0052658Y0186340D02*
X0052860Y0186340D01*
X0058653Y0167786D02*
X0076353Y0167786D01*
X0084987Y0167786D01*
X0085585Y0167188D02*
X0076353Y0167188D01*
X0058540Y0167188D01*
X0047397Y0165991D02*
X0037707Y0165991D01*
X0037707Y0166589D02*
X0046799Y0166589D01*
X0037707Y0165392D02*
X0076353Y0165392D01*
X0087381Y0165392D01*
X0087980Y0164794D02*
X0076353Y0164794D01*
X0037707Y0164794D01*
X0037707Y0159407D02*
X0076353Y0159407D01*
X0084135Y0177362D02*
X0085417Y0177362D01*
X0084819Y0177961D02*
X0084734Y0177961D01*
X0084761Y0178559D02*
X0084792Y0178559D01*
X0084761Y0179158D02*
X0084792Y0179158D01*
X0084761Y0179756D02*
X0084792Y0179756D01*
X0084761Y0180355D02*
X0084792Y0180355D01*
X0084761Y0180953D02*
X0084792Y0180953D01*
X0084761Y0181552D02*
X0084792Y0181552D01*
X0084761Y0182150D02*
X0084792Y0182150D01*
X0084761Y0182749D02*
X0084792Y0182749D01*
X0085138Y0183347D02*
X0084415Y0183347D01*
X0084011Y0183946D02*
X0085542Y0183946D01*
X0085542Y0184544D02*
X0084011Y0184544D01*
X0083590Y0185143D02*
X0085542Y0185143D01*
X0085542Y0185741D02*
X0082991Y0185741D01*
X0088342Y0185741D02*
X0094103Y0185741D01*
X0094103Y0185143D02*
X0088342Y0185143D01*
X0088342Y0184544D02*
X0094103Y0184544D01*
X0094103Y0183946D02*
X0088342Y0183946D01*
X0088745Y0183347D02*
X0089469Y0183347D01*
X0089122Y0183001D02*
X0089122Y0177988D01*
X0090016Y0177094D01*
X0092529Y0177094D01*
X0093422Y0177988D01*
X0093422Y0183001D01*
X0092529Y0183894D01*
X0090016Y0183894D01*
X0089122Y0183001D01*
X0089122Y0182749D02*
X0089092Y0182749D01*
X0089092Y0182150D02*
X0089122Y0182150D01*
X0089092Y0181552D02*
X0089122Y0181552D01*
X0089092Y0180953D02*
X0089122Y0180953D01*
X0089092Y0180355D02*
X0089122Y0180355D01*
X0089092Y0179756D02*
X0089122Y0179756D01*
X0089092Y0179158D02*
X0089122Y0179158D01*
X0089092Y0178559D02*
X0089122Y0178559D01*
X0089149Y0177961D02*
X0089065Y0177961D01*
X0088466Y0177362D02*
X0089748Y0177362D01*
X0092797Y0177362D02*
X0094078Y0177362D01*
X0093480Y0177961D02*
X0093395Y0177961D01*
X0093422Y0178559D02*
X0093453Y0178559D01*
X0093422Y0179158D02*
X0093453Y0179158D01*
X0093422Y0179756D02*
X0093453Y0179756D01*
X0093422Y0180355D02*
X0093453Y0180355D01*
X0093422Y0180953D02*
X0093453Y0180953D01*
X0093422Y0181552D02*
X0093453Y0181552D01*
X0093422Y0182150D02*
X0093453Y0182150D01*
X0093422Y0182749D02*
X0093453Y0182749D01*
X0093799Y0183347D02*
X0093076Y0183347D01*
X0094103Y0186340D02*
X0088342Y0186340D01*
X0088342Y0186939D02*
X0094103Y0186939D01*
X0094103Y0187537D02*
X0088342Y0187537D01*
X0088342Y0188136D02*
X0094103Y0188136D01*
X0094103Y0188734D02*
X0088342Y0188734D01*
X0088342Y0189333D02*
X0094103Y0189333D01*
X0094103Y0189931D02*
X0087802Y0189931D01*
X0087203Y0190530D02*
X0094103Y0190530D01*
X0094103Y0191128D02*
X0086605Y0191128D01*
X0086006Y0191727D02*
X0094103Y0191727D01*
X0094103Y0192325D02*
X0085408Y0192325D01*
X0084809Y0192924D02*
X0094103Y0192924D01*
X0094103Y0193522D02*
X0084211Y0193522D01*
X0083612Y0194121D02*
X0094103Y0194121D01*
X0094103Y0194719D02*
X0083014Y0194719D01*
X0085062Y0203600D02*
X0086303Y0203600D01*
X0086303Y0206350D01*
X0086903Y0206350D01*
X0086903Y0206950D01*
X0086303Y0206950D01*
X0086303Y0209700D01*
X0085062Y0209700D01*
X0084620Y0209582D01*
X0084224Y0209353D01*
X0083900Y0209029D01*
X0083671Y0208633D01*
X0083553Y0208191D01*
X0083553Y0206950D01*
X0086303Y0206950D01*
X0086303Y0206350D01*
X0083553Y0206350D01*
X0083553Y0205109D01*
X0083671Y0204667D01*
X0083900Y0204271D01*
X0084224Y0203947D01*
X0084620Y0203718D01*
X0085062Y0203600D01*
X0084700Y0203697D02*
X0080756Y0203697D01*
X0080836Y0203718D02*
X0081232Y0203947D01*
X0081556Y0204271D01*
X0081785Y0204667D01*
X0081903Y0205109D01*
X0081903Y0206350D01*
X0079153Y0206350D01*
X0079153Y0203600D01*
X0080394Y0203600D01*
X0080836Y0203718D01*
X0081570Y0204295D02*
X0083886Y0204295D01*
X0083611Y0204894D02*
X0081845Y0204894D01*
X0081903Y0205492D02*
X0083553Y0205492D01*
X0083553Y0206091D02*
X0081903Y0206091D01*
X0081903Y0206950D02*
X0081903Y0208191D01*
X0081785Y0208633D01*
X0081556Y0209029D01*
X0081232Y0209353D01*
X0080836Y0209582D01*
X0080394Y0209700D01*
X0079153Y0209700D01*
X0079153Y0206950D01*
X0081903Y0206950D01*
X0081903Y0207288D02*
X0083553Y0207288D01*
X0083553Y0207886D02*
X0081903Y0207886D01*
X0081824Y0208485D02*
X0083632Y0208485D01*
X0083954Y0209083D02*
X0081502Y0209083D01*
X0080462Y0209682D02*
X0084994Y0209682D01*
X0084456Y0210280D02*
X0081000Y0210280D01*
X0081503Y0210879D02*
X0083953Y0210879D01*
X0086303Y0209682D02*
X0086903Y0209682D01*
X0086903Y0209700D02*
X0086903Y0206950D01*
X0089653Y0206950D01*
X0089653Y0208191D01*
X0089535Y0208633D01*
X0089306Y0209029D01*
X0088982Y0209353D01*
X0088586Y0209582D01*
X0088144Y0209700D01*
X0086903Y0209700D01*
X0086903Y0209083D02*
X0086303Y0209083D01*
X0086303Y0208485D02*
X0086903Y0208485D01*
X0086903Y0207886D02*
X0086303Y0207886D01*
X0086303Y0207288D02*
X0086903Y0207288D01*
X0086903Y0206689D02*
X0092703Y0206689D01*
X0092703Y0206091D02*
X0089653Y0206091D01*
X0089653Y0206350D02*
X0086903Y0206350D01*
X0086903Y0203600D01*
X0088144Y0203600D01*
X0088586Y0203718D01*
X0088982Y0203947D01*
X0089306Y0204271D01*
X0089535Y0204667D01*
X0089653Y0205109D01*
X0089653Y0206350D01*
X0089653Y0205492D02*
X0092703Y0205492D01*
X0092842Y0204894D02*
X0089595Y0204894D01*
X0089320Y0204295D02*
X0093441Y0204295D01*
X0094103Y0203697D02*
X0088506Y0203697D01*
X0086903Y0203697D02*
X0086303Y0203697D01*
X0086303Y0204295D02*
X0086903Y0204295D01*
X0086903Y0204894D02*
X0086303Y0204894D01*
X0086303Y0205492D02*
X0086903Y0205492D01*
X0086903Y0206091D02*
X0086303Y0206091D01*
X0086303Y0206689D02*
X0079153Y0206689D01*
X0079153Y0206091D02*
X0078553Y0206091D01*
X0078553Y0205492D02*
X0079153Y0205492D01*
X0079153Y0204894D02*
X0078553Y0204894D01*
X0078553Y0204295D02*
X0079153Y0204295D01*
X0079153Y0203697D02*
X0078553Y0203697D01*
X0078553Y0207288D02*
X0079153Y0207288D01*
X0079153Y0207886D02*
X0078553Y0207886D01*
X0078553Y0208485D02*
X0079153Y0208485D01*
X0079153Y0209083D02*
X0078553Y0209083D01*
X0078553Y0209682D02*
X0079153Y0209682D01*
X0088212Y0209682D02*
X0093192Y0209682D01*
X0093030Y0210280D02*
X0088750Y0210280D01*
X0089253Y0210879D02*
X0092703Y0210879D01*
X0092703Y0209083D02*
X0089252Y0209083D01*
X0089574Y0208485D02*
X0092703Y0208485D01*
X0092703Y0207886D02*
X0089653Y0207886D01*
X0089653Y0207288D02*
X0092703Y0207288D01*
X0097103Y0203697D02*
X0101853Y0203697D01*
X0101853Y0203098D02*
X0097103Y0203098D01*
X0097103Y0202500D02*
X0101853Y0202500D01*
X0101733Y0201901D02*
X0097103Y0201901D01*
X0097103Y0201303D02*
X0101134Y0201303D01*
X0100536Y0200704D02*
X0097103Y0200704D01*
X0097103Y0200106D02*
X0099937Y0200106D01*
X0099339Y0199507D02*
X0097103Y0199507D01*
X0097103Y0198909D02*
X0098740Y0198909D01*
X0098434Y0198310D02*
X0097103Y0198310D01*
X0097103Y0197712D02*
X0098434Y0197712D01*
X0098434Y0197113D02*
X0097103Y0197113D01*
X0097103Y0196515D02*
X0098434Y0196515D01*
X0098434Y0195916D02*
X0097103Y0195916D01*
X0097103Y0195318D02*
X0098434Y0195318D01*
X0098434Y0194719D02*
X0097103Y0194719D01*
X0097103Y0194121D02*
X0098434Y0194121D01*
X0098434Y0193522D02*
X0097103Y0193522D01*
X0097103Y0192924D02*
X0098434Y0192924D01*
X0098434Y0192325D02*
X0097103Y0192325D01*
X0097103Y0191727D02*
X0098434Y0191727D01*
X0098434Y0191128D02*
X0097103Y0191128D01*
X0097103Y0190530D02*
X0098434Y0190530D01*
X0098434Y0189931D02*
X0097103Y0189931D01*
X0097103Y0189333D02*
X0098434Y0189333D01*
X0098434Y0188734D02*
X0097103Y0188734D01*
X0097103Y0188136D02*
X0098434Y0188136D01*
X0098434Y0187537D02*
X0097103Y0187537D01*
X0097103Y0186939D02*
X0098434Y0186939D01*
X0098434Y0186340D02*
X0097103Y0186340D01*
X0097103Y0185741D02*
X0098434Y0185741D01*
X0098434Y0185143D02*
X0097103Y0185143D01*
X0097103Y0184544D02*
X0098434Y0184544D01*
X0098434Y0183946D02*
X0097103Y0183946D01*
X0097407Y0183347D02*
X0098130Y0183347D01*
X0097784Y0182749D02*
X0097753Y0182749D01*
X0097753Y0182150D02*
X0097784Y0182150D01*
X0097753Y0181552D02*
X0097784Y0181552D01*
X0097753Y0180953D02*
X0097784Y0180953D01*
X0097753Y0180355D02*
X0097784Y0180355D01*
X0097753Y0179756D02*
X0097784Y0179756D01*
X0097753Y0179158D02*
X0097784Y0179158D01*
X0097753Y0178559D02*
X0097784Y0178559D01*
X0097811Y0177961D02*
X0097726Y0177961D01*
X0097128Y0177362D02*
X0098409Y0177362D01*
X0101458Y0177362D02*
X0102174Y0177362D01*
X0103964Y0183946D02*
X0104564Y0183946D01*
X0106009Y0183946D02*
X0107095Y0183946D01*
X0106791Y0183347D02*
X0106548Y0183347D01*
X0112626Y0183347D02*
X0113226Y0183347D01*
X0113226Y0182749D02*
X0112626Y0182749D01*
X0112626Y0182150D02*
X0113226Y0182150D01*
X0113226Y0181552D02*
X0112626Y0181552D01*
X0112626Y0180953D02*
X0113226Y0180953D01*
X0115476Y0179756D02*
X0122353Y0179756D01*
X0122353Y0179158D02*
X0115476Y0179158D01*
X0115476Y0178559D02*
X0122353Y0178559D01*
X0122353Y0177961D02*
X0115367Y0177961D01*
X0115016Y0177362D02*
X0122353Y0177362D01*
X0113226Y0183946D02*
X0112626Y0183946D01*
X0101191Y0204295D02*
X0097765Y0204295D01*
X0098364Y0204894D02*
X0100592Y0204894D01*
X0100453Y0205492D02*
X0098503Y0205492D01*
X0098503Y0206091D02*
X0100453Y0206091D01*
X0100453Y0206689D02*
X0098503Y0206689D01*
X0098503Y0207288D02*
X0100453Y0207288D01*
X0100453Y0207886D02*
X0098503Y0207886D01*
X0098503Y0208485D02*
X0100453Y0208485D01*
X0100453Y0209083D02*
X0098503Y0209083D01*
X0098014Y0209682D02*
X0100942Y0209682D01*
X0100780Y0210280D02*
X0098176Y0210280D01*
X0098503Y0210879D02*
X0100453Y0210879D01*
X0100453Y0211477D02*
X0098503Y0211477D01*
X0098503Y0212076D02*
X0100453Y0212076D01*
X0100453Y0212674D02*
X0098503Y0212674D01*
X0098503Y0213273D02*
X0100453Y0213273D01*
X0100047Y0213872D02*
X0098503Y0213872D01*
X0098503Y0214470D02*
X0099449Y0214470D01*
X0106253Y0213872D02*
X0106760Y0213872D01*
X0076353Y0221054D02*
X0045835Y0221054D01*
X0045237Y0220455D02*
X0074438Y0220455D01*
X0073840Y0219857D02*
X0044638Y0219857D01*
X0044040Y0219258D02*
X0073241Y0219258D01*
X0068424Y0218660D02*
X0043441Y0218660D01*
X0042843Y0218061D02*
X0064172Y0218061D01*
X0063880Y0217463D02*
X0042244Y0217463D01*
X0041645Y0216864D02*
X0063858Y0216864D01*
X0063858Y0216266D02*
X0041047Y0216266D01*
X0038383Y0219258D02*
X0035040Y0219258D01*
X0035638Y0219857D02*
X0038981Y0219857D01*
X0039580Y0220455D02*
X0036237Y0220455D01*
X0036835Y0221054D02*
X0040178Y0221054D01*
X0040777Y0221652D02*
X0037434Y0221652D01*
X0038032Y0222251D02*
X0041375Y0222251D01*
X0041974Y0222849D02*
X0038631Y0222849D01*
X0039229Y0223448D02*
X0042572Y0223448D01*
X0037784Y0218660D02*
X0034441Y0218660D01*
X0033843Y0218061D02*
X0037186Y0218061D01*
X0036587Y0217463D02*
X0033244Y0217463D01*
X0032645Y0216864D02*
X0035989Y0216864D01*
X0035390Y0216266D02*
X0032047Y0216266D01*
X0031448Y0215667D02*
X0034792Y0215667D01*
X0034193Y0215069D02*
X0030850Y0215069D01*
X0030251Y0214470D02*
X0033595Y0214470D01*
X0032996Y0213872D02*
X0029653Y0213872D01*
X0029054Y0213273D02*
X0032398Y0213273D01*
X0031799Y0212674D02*
X0028456Y0212674D01*
X0027857Y0212076D02*
X0031201Y0212076D01*
X0030602Y0211477D02*
X0027259Y0211477D01*
X0026660Y0210879D02*
X0030004Y0210879D01*
X0029405Y0210280D02*
X0026353Y0210280D01*
X0026353Y0209682D02*
X0028807Y0209682D01*
X0028208Y0209083D02*
X0026353Y0209083D01*
X0026353Y0208485D02*
X0027609Y0208485D01*
X0027011Y0207886D02*
X0025991Y0207886D01*
X0026412Y0207288D02*
X0025393Y0207288D01*
X0025814Y0206689D02*
X0013153Y0206689D01*
X0013153Y0206091D02*
X0025215Y0206091D01*
X0024617Y0205492D02*
X0013153Y0205492D01*
X0013153Y0204894D02*
X0024018Y0204894D01*
X0021097Y0204295D02*
X0019195Y0204295D01*
X0019125Y0204336D02*
X0018699Y0204450D01*
X0017653Y0204450D01*
X0017653Y0201700D01*
X0017053Y0201700D01*
X0017053Y0204450D01*
X0016007Y0204450D01*
X0015581Y0204336D01*
X0015200Y0204115D01*
X0014888Y0203803D01*
X0014667Y0203422D01*
X0014553Y0202996D01*
X0014553Y0201700D01*
X0017053Y0201700D01*
X0017053Y0201100D01*
X0014553Y0201100D01*
X0014553Y0199804D01*
X0014667Y0199378D01*
X0014888Y0198997D01*
X0015200Y0198685D01*
X0015581Y0198464D01*
X0016007Y0198350D01*
X0017053Y0198350D01*
X0017053Y0201100D01*
X0017653Y0201100D01*
X0017653Y0201700D01*
X0020153Y0201700D01*
X0020153Y0202996D01*
X0020039Y0203422D01*
X0019818Y0203803D01*
X0019506Y0204115D01*
X0019125Y0204336D01*
X0019880Y0203697D02*
X0020498Y0203697D01*
X0020353Y0203098D02*
X0020125Y0203098D01*
X0020153Y0202500D02*
X0020353Y0202500D01*
X0020353Y0201901D02*
X0020153Y0201901D01*
X0020353Y0201303D02*
X0017653Y0201303D01*
X0017653Y0201100D02*
X0020153Y0201100D01*
X0020153Y0199804D01*
X0020039Y0199378D01*
X0019818Y0198997D01*
X0019506Y0198685D01*
X0019125Y0198464D01*
X0018699Y0198350D01*
X0017653Y0198350D01*
X0017653Y0201100D01*
X0017653Y0200704D02*
X0017053Y0200704D01*
X0017053Y0200106D02*
X0017653Y0200106D01*
X0017653Y0199507D02*
X0017053Y0199507D01*
X0017053Y0198909D02*
X0017653Y0198909D01*
X0019731Y0198909D02*
X0020693Y0198909D01*
X0020353Y0199507D02*
X0020073Y0199507D01*
X0020153Y0200106D02*
X0020353Y0200106D01*
X0020353Y0200704D02*
X0020153Y0200704D01*
X0021291Y0198310D02*
X0013153Y0198310D01*
X0013153Y0198909D02*
X0014975Y0198909D01*
X0014633Y0199507D02*
X0013153Y0199507D01*
X0013153Y0200106D02*
X0014553Y0200106D01*
X0014553Y0200704D02*
X0013153Y0200704D01*
X0013153Y0201303D02*
X0017053Y0201303D01*
X0017053Y0201901D02*
X0017653Y0201901D01*
X0017653Y0202500D02*
X0017053Y0202500D01*
X0017053Y0203098D02*
X0017653Y0203098D01*
X0017653Y0203697D02*
X0017053Y0203697D01*
X0017053Y0204295D02*
X0017653Y0204295D01*
X0015511Y0204295D02*
X0013153Y0204295D01*
X0013153Y0203697D02*
X0014826Y0203697D01*
X0014581Y0203098D02*
X0013153Y0203098D01*
X0013153Y0202500D02*
X0014553Y0202500D01*
X0014553Y0201901D02*
X0013153Y0201901D01*
X0013153Y0207288D02*
X0021313Y0207288D01*
X0020715Y0207886D02*
X0019708Y0207886D01*
X0019818Y0207997D02*
X0020039Y0208378D01*
X0020153Y0208804D01*
X0020153Y0210100D01*
X0017653Y0210100D01*
X0017653Y0210700D01*
X0017053Y0210700D01*
X0017053Y0213450D01*
X0016007Y0213450D01*
X0015581Y0213336D01*
X0015200Y0213115D01*
X0014888Y0212803D01*
X0014667Y0212422D01*
X0014553Y0211996D01*
X0014553Y0210700D01*
X0017053Y0210700D01*
X0017053Y0210100D01*
X0014553Y0210100D01*
X0014553Y0208804D01*
X0014667Y0208378D01*
X0014888Y0207997D01*
X0015200Y0207685D01*
X0015581Y0207464D01*
X0016007Y0207350D01*
X0017053Y0207350D01*
X0017053Y0210100D01*
X0017653Y0210100D01*
X0017653Y0207350D01*
X0018699Y0207350D01*
X0019125Y0207464D01*
X0019506Y0207685D01*
X0019818Y0207997D01*
X0020067Y0208485D02*
X0020353Y0208485D01*
X0020353Y0209083D02*
X0020153Y0209083D01*
X0020153Y0209682D02*
X0020353Y0209682D01*
X0020353Y0210280D02*
X0017653Y0210280D01*
X0017653Y0210700D02*
X0020153Y0210700D01*
X0020153Y0211996D01*
X0020039Y0212422D01*
X0019818Y0212803D01*
X0019506Y0213115D01*
X0019125Y0213336D01*
X0018699Y0213450D01*
X0017653Y0213450D01*
X0017653Y0210700D01*
X0017653Y0210879D02*
X0017053Y0210879D01*
X0017053Y0211477D02*
X0017653Y0211477D01*
X0017653Y0212076D02*
X0017053Y0212076D01*
X0017053Y0212674D02*
X0017653Y0212674D01*
X0017653Y0213273D02*
X0017053Y0213273D01*
X0015473Y0213273D02*
X0013153Y0213273D01*
X0013153Y0212674D02*
X0014813Y0212674D01*
X0014575Y0212076D02*
X0013153Y0212076D01*
X0013153Y0211477D02*
X0014553Y0211477D01*
X0014553Y0210879D02*
X0013153Y0210879D01*
X0013153Y0210280D02*
X0017053Y0210280D01*
X0017053Y0209682D02*
X0017653Y0209682D01*
X0017653Y0209083D02*
X0017053Y0209083D01*
X0017053Y0208485D02*
X0017653Y0208485D01*
X0017653Y0207886D02*
X0017053Y0207886D01*
X0014998Y0207886D02*
X0013153Y0207886D01*
X0013153Y0208485D02*
X0014639Y0208485D01*
X0014553Y0209083D02*
X0013153Y0209083D01*
X0013153Y0209682D02*
X0014553Y0209682D01*
X0013153Y0213872D02*
X0023996Y0213872D01*
X0024595Y0214470D02*
X0013153Y0214470D01*
X0013153Y0215069D02*
X0025193Y0215069D01*
X0025792Y0215667D02*
X0013153Y0215667D01*
X0013153Y0216266D02*
X0021336Y0216266D01*
X0020737Y0216864D02*
X0019686Y0216864D01*
X0019818Y0216997D02*
X0020039Y0217378D01*
X0020153Y0217804D01*
X0020153Y0219100D01*
X0017653Y0219100D01*
X0017653Y0219700D01*
X0017053Y0219700D01*
X0017053Y0222450D01*
X0016007Y0222450D01*
X0015581Y0222336D01*
X0015200Y0222115D01*
X0014888Y0221803D01*
X0014667Y0221422D01*
X0014553Y0220996D01*
X0014553Y0219700D01*
X0017053Y0219700D01*
X0017053Y0219100D01*
X0014553Y0219100D01*
X0014553Y0217804D01*
X0014667Y0217378D01*
X0014888Y0216997D01*
X0015200Y0216685D01*
X0015581Y0216464D01*
X0016007Y0216350D01*
X0017053Y0216350D01*
X0017053Y0219100D01*
X0017653Y0219100D01*
X0017653Y0216350D01*
X0018699Y0216350D01*
X0019125Y0216464D01*
X0019506Y0216685D01*
X0019818Y0216997D01*
X0020061Y0217463D02*
X0020353Y0217463D01*
X0020353Y0218061D02*
X0020153Y0218061D01*
X0020153Y0218660D02*
X0020353Y0218660D01*
X0020353Y0219258D02*
X0017653Y0219258D01*
X0017653Y0219700D02*
X0020153Y0219700D01*
X0020153Y0220996D01*
X0020039Y0221422D01*
X0019818Y0221803D01*
X0019506Y0222115D01*
X0019125Y0222336D01*
X0018699Y0222450D01*
X0017653Y0222450D01*
X0017653Y0219700D01*
X0017653Y0219857D02*
X0017053Y0219857D01*
X0017053Y0220455D02*
X0017653Y0220455D01*
X0017653Y0221054D02*
X0017053Y0221054D01*
X0017053Y0221652D02*
X0017653Y0221652D01*
X0017653Y0222251D02*
X0017053Y0222251D01*
X0015434Y0222251D02*
X0013153Y0222251D01*
X0013153Y0222849D02*
X0023974Y0222849D01*
X0024572Y0223448D02*
X0013153Y0223448D01*
X0013153Y0221652D02*
X0014800Y0221652D01*
X0014569Y0221054D02*
X0013153Y0221054D01*
X0013153Y0220455D02*
X0014553Y0220455D01*
X0014553Y0219857D02*
X0013153Y0219857D01*
X0013153Y0219258D02*
X0017053Y0219258D01*
X0017053Y0218660D02*
X0017653Y0218660D01*
X0017653Y0218061D02*
X0017053Y0218061D01*
X0017053Y0217463D02*
X0017653Y0217463D01*
X0017653Y0216864D02*
X0017053Y0216864D01*
X0015020Y0216864D02*
X0013153Y0216864D01*
X0013153Y0217463D02*
X0014645Y0217463D01*
X0014553Y0218061D02*
X0013153Y0218061D01*
X0013153Y0218660D02*
X0014553Y0218660D01*
X0020153Y0219857D02*
X0020353Y0219857D01*
X0020353Y0220455D02*
X0020153Y0220455D01*
X0020137Y0221054D02*
X0020353Y0221054D01*
X0020454Y0221652D02*
X0019906Y0221652D01*
X0019272Y0222251D02*
X0021052Y0222251D01*
X0026353Y0219258D02*
X0029383Y0219258D01*
X0029981Y0219857D02*
X0026638Y0219857D01*
X0027237Y0220455D02*
X0030580Y0220455D01*
X0031178Y0221054D02*
X0027835Y0221054D01*
X0028434Y0221652D02*
X0031777Y0221652D01*
X0032375Y0222251D02*
X0029032Y0222251D01*
X0029631Y0222849D02*
X0032974Y0222849D01*
X0033572Y0223448D02*
X0030229Y0223448D01*
X0028784Y0218660D02*
X0026353Y0218660D01*
X0026353Y0218061D02*
X0028186Y0218061D01*
X0027587Y0217463D02*
X0026353Y0217463D01*
X0025969Y0216864D02*
X0026989Y0216864D01*
X0026390Y0216266D02*
X0025370Y0216266D01*
X0021074Y0213273D02*
X0019233Y0213273D01*
X0019893Y0212674D02*
X0020476Y0212674D01*
X0020353Y0212076D02*
X0020131Y0212076D01*
X0020153Y0211477D02*
X0020353Y0211477D01*
X0020353Y0210879D02*
X0020153Y0210879D01*
X0066634Y0214850D02*
X0066634Y0216541D01*
X0066634Y0216618D01*
X0066635Y0216618D01*
X0066635Y0214850D01*
X0066634Y0214850D01*
X0066634Y0215069D02*
X0066635Y0215069D01*
X0066634Y0215667D02*
X0066635Y0215667D01*
X0066634Y0216266D02*
X0066635Y0216266D01*
X0066634Y0216864D02*
X0066635Y0216864D01*
X0066634Y0217463D02*
X0066635Y0217463D01*
X0066634Y0218061D02*
X0066635Y0218061D01*
X0076353Y0183347D02*
X0076476Y0183347D01*
D11*
X0095138Y0096215D03*
X0095138Y0091215D03*
X0095138Y0086215D03*
X0095138Y0081215D03*
X0095138Y0076215D03*
X0095138Y0071215D03*
X0095138Y0066215D03*
X0095138Y0061215D03*
X0095138Y0056215D03*
X0095138Y0051215D03*
X0095138Y0046215D03*
X0095138Y0041215D03*
X0095138Y0036215D03*
X0095138Y0031215D03*
X0162068Y0031215D03*
X0162068Y0036215D03*
X0162068Y0041215D03*
X0162068Y0046215D03*
X0162068Y0051215D03*
X0162068Y0056215D03*
X0162068Y0061215D03*
X0162068Y0066215D03*
X0162068Y0071215D03*
X0162068Y0076215D03*
X0162068Y0081215D03*
X0162068Y0086215D03*
X0162068Y0091215D03*
X0162068Y0096215D03*
D12*
X0151044Y0101687D03*
X0146044Y0101687D03*
X0141044Y0101687D03*
X0136044Y0101687D03*
X0131044Y0101687D03*
X0126044Y0101687D03*
X0121044Y0101687D03*
X0116044Y0101687D03*
X0111044Y0101687D03*
X0106044Y0101687D03*
D13*
X0127264Y0061530D03*
D14*
X0274830Y0113470D02*
X0274830Y0116030D01*
X0274830Y0113470D02*
X0274002Y0113470D01*
X0274002Y0116030D01*
X0274830Y0116030D01*
X0274830Y0114296D02*
X0274002Y0114296D01*
X0274002Y0115122D02*
X0274830Y0115122D01*
X0274830Y0115948D02*
X0274002Y0115948D01*
X0278767Y0116030D02*
X0278767Y0113470D01*
X0277939Y0113470D01*
X0277939Y0116030D01*
X0278767Y0116030D01*
X0278767Y0114296D02*
X0277939Y0114296D01*
X0277939Y0115122D02*
X0278767Y0115122D01*
X0278767Y0115948D02*
X0277939Y0115948D01*
X0282704Y0116030D02*
X0282704Y0113470D01*
X0281876Y0113470D01*
X0281876Y0116030D01*
X0282704Y0116030D01*
X0282704Y0114296D02*
X0281876Y0114296D01*
X0281876Y0115122D02*
X0282704Y0115122D01*
X0282704Y0115948D02*
X0281876Y0115948D01*
X0281876Y0124770D02*
X0281876Y0127330D01*
X0282704Y0127330D01*
X0282704Y0124770D01*
X0281876Y0124770D01*
X0281876Y0125596D02*
X0282704Y0125596D01*
X0282704Y0126422D02*
X0281876Y0126422D01*
X0281876Y0127248D02*
X0282704Y0127248D01*
X0277939Y0127330D02*
X0277939Y0124770D01*
X0277939Y0127330D02*
X0278767Y0127330D01*
X0278767Y0124770D01*
X0277939Y0124770D01*
X0277939Y0125596D02*
X0278767Y0125596D01*
X0278767Y0126422D02*
X0277939Y0126422D01*
X0277939Y0127248D02*
X0278767Y0127248D01*
X0274002Y0127330D02*
X0274002Y0124770D01*
X0274002Y0127330D02*
X0274830Y0127330D01*
X0274830Y0124770D01*
X0274002Y0124770D01*
X0274002Y0125596D02*
X0274830Y0125596D01*
X0274830Y0126422D02*
X0274002Y0126422D01*
X0274002Y0127248D02*
X0274830Y0127248D01*
D15*
X0278353Y0120400D03*
D16*
X0232353Y0147613D03*
X0232353Y0151943D03*
X0232353Y0156274D03*
X0232353Y0160605D03*
X0232353Y0164935D03*
X0232353Y0169266D03*
X0232353Y0173597D03*
X0232353Y0177928D03*
X0232353Y0182258D03*
D17*
X0234715Y0142494D03*
D18*
X0272117Y0142494D03*
X0272117Y0204306D03*
D19*
X0234322Y0200762D03*
D20*
X0271920Y0185408D02*
X0271922Y0185492D01*
X0271928Y0185575D01*
X0271938Y0185658D01*
X0271952Y0185741D01*
X0271969Y0185823D01*
X0271991Y0185904D01*
X0272016Y0185983D01*
X0272045Y0186062D01*
X0272078Y0186139D01*
X0272114Y0186214D01*
X0272154Y0186288D01*
X0272197Y0186360D01*
X0272244Y0186429D01*
X0272294Y0186496D01*
X0272347Y0186561D01*
X0272403Y0186623D01*
X0272461Y0186683D01*
X0272523Y0186740D01*
X0272587Y0186793D01*
X0272654Y0186844D01*
X0272723Y0186891D01*
X0272794Y0186936D01*
X0272867Y0186976D01*
X0272942Y0187013D01*
X0273019Y0187047D01*
X0273097Y0187077D01*
X0273176Y0187103D01*
X0273257Y0187126D01*
X0273339Y0187144D01*
X0273421Y0187159D01*
X0273504Y0187170D01*
X0273587Y0187177D01*
X0273671Y0187180D01*
X0273755Y0187179D01*
X0273838Y0187174D01*
X0273922Y0187165D01*
X0274004Y0187152D01*
X0274086Y0187136D01*
X0274167Y0187115D01*
X0274248Y0187091D01*
X0274326Y0187063D01*
X0274404Y0187031D01*
X0274480Y0186995D01*
X0274554Y0186956D01*
X0274626Y0186914D01*
X0274696Y0186868D01*
X0274764Y0186819D01*
X0274829Y0186767D01*
X0274892Y0186712D01*
X0274952Y0186654D01*
X0275010Y0186593D01*
X0275064Y0186529D01*
X0275116Y0186463D01*
X0275164Y0186395D01*
X0275209Y0186324D01*
X0275250Y0186251D01*
X0275289Y0186177D01*
X0275323Y0186101D01*
X0275354Y0186023D01*
X0275381Y0185944D01*
X0275405Y0185863D01*
X0275424Y0185782D01*
X0275440Y0185700D01*
X0275452Y0185617D01*
X0275460Y0185533D01*
X0275464Y0185450D01*
X0275464Y0185366D01*
X0275460Y0185283D01*
X0275452Y0185199D01*
X0275440Y0185116D01*
X0275424Y0185034D01*
X0275405Y0184953D01*
X0275381Y0184872D01*
X0275354Y0184793D01*
X0275323Y0184715D01*
X0275289Y0184639D01*
X0275250Y0184565D01*
X0275209Y0184492D01*
X0275164Y0184421D01*
X0275116Y0184353D01*
X0275064Y0184287D01*
X0275010Y0184223D01*
X0274952Y0184162D01*
X0274892Y0184104D01*
X0274829Y0184049D01*
X0274764Y0183997D01*
X0274696Y0183948D01*
X0274626Y0183902D01*
X0274554Y0183860D01*
X0274480Y0183821D01*
X0274404Y0183785D01*
X0274326Y0183753D01*
X0274248Y0183725D01*
X0274167Y0183701D01*
X0274086Y0183680D01*
X0274004Y0183664D01*
X0273922Y0183651D01*
X0273838Y0183642D01*
X0273755Y0183637D01*
X0273671Y0183636D01*
X0273587Y0183639D01*
X0273504Y0183646D01*
X0273421Y0183657D01*
X0273339Y0183672D01*
X0273257Y0183690D01*
X0273176Y0183713D01*
X0273097Y0183739D01*
X0273019Y0183769D01*
X0272942Y0183803D01*
X0272867Y0183840D01*
X0272794Y0183880D01*
X0272723Y0183925D01*
X0272654Y0183972D01*
X0272587Y0184023D01*
X0272523Y0184076D01*
X0272461Y0184133D01*
X0272403Y0184193D01*
X0272347Y0184255D01*
X0272294Y0184320D01*
X0272244Y0184387D01*
X0272197Y0184456D01*
X0272154Y0184528D01*
X0272114Y0184602D01*
X0272078Y0184677D01*
X0272045Y0184754D01*
X0272016Y0184833D01*
X0271991Y0184912D01*
X0271969Y0184993D01*
X0271952Y0185075D01*
X0271938Y0185158D01*
X0271928Y0185241D01*
X0271922Y0185324D01*
X0271920Y0185408D01*
X0271920Y0153912D02*
X0271922Y0153996D01*
X0271928Y0154079D01*
X0271938Y0154162D01*
X0271952Y0154245D01*
X0271969Y0154327D01*
X0271991Y0154408D01*
X0272016Y0154487D01*
X0272045Y0154566D01*
X0272078Y0154643D01*
X0272114Y0154718D01*
X0272154Y0154792D01*
X0272197Y0154864D01*
X0272244Y0154933D01*
X0272294Y0155000D01*
X0272347Y0155065D01*
X0272403Y0155127D01*
X0272461Y0155187D01*
X0272523Y0155244D01*
X0272587Y0155297D01*
X0272654Y0155348D01*
X0272723Y0155395D01*
X0272794Y0155440D01*
X0272867Y0155480D01*
X0272942Y0155517D01*
X0273019Y0155551D01*
X0273097Y0155581D01*
X0273176Y0155607D01*
X0273257Y0155630D01*
X0273339Y0155648D01*
X0273421Y0155663D01*
X0273504Y0155674D01*
X0273587Y0155681D01*
X0273671Y0155684D01*
X0273755Y0155683D01*
X0273838Y0155678D01*
X0273922Y0155669D01*
X0274004Y0155656D01*
X0274086Y0155640D01*
X0274167Y0155619D01*
X0274248Y0155595D01*
X0274326Y0155567D01*
X0274404Y0155535D01*
X0274480Y0155499D01*
X0274554Y0155460D01*
X0274626Y0155418D01*
X0274696Y0155372D01*
X0274764Y0155323D01*
X0274829Y0155271D01*
X0274892Y0155216D01*
X0274952Y0155158D01*
X0275010Y0155097D01*
X0275064Y0155033D01*
X0275116Y0154967D01*
X0275164Y0154899D01*
X0275209Y0154828D01*
X0275250Y0154755D01*
X0275289Y0154681D01*
X0275323Y0154605D01*
X0275354Y0154527D01*
X0275381Y0154448D01*
X0275405Y0154367D01*
X0275424Y0154286D01*
X0275440Y0154204D01*
X0275452Y0154121D01*
X0275460Y0154037D01*
X0275464Y0153954D01*
X0275464Y0153870D01*
X0275460Y0153787D01*
X0275452Y0153703D01*
X0275440Y0153620D01*
X0275424Y0153538D01*
X0275405Y0153457D01*
X0275381Y0153376D01*
X0275354Y0153297D01*
X0275323Y0153219D01*
X0275289Y0153143D01*
X0275250Y0153069D01*
X0275209Y0152996D01*
X0275164Y0152925D01*
X0275116Y0152857D01*
X0275064Y0152791D01*
X0275010Y0152727D01*
X0274952Y0152666D01*
X0274892Y0152608D01*
X0274829Y0152553D01*
X0274764Y0152501D01*
X0274696Y0152452D01*
X0274626Y0152406D01*
X0274554Y0152364D01*
X0274480Y0152325D01*
X0274404Y0152289D01*
X0274326Y0152257D01*
X0274248Y0152229D01*
X0274167Y0152205D01*
X0274086Y0152184D01*
X0274004Y0152168D01*
X0273922Y0152155D01*
X0273838Y0152146D01*
X0273755Y0152141D01*
X0273671Y0152140D01*
X0273587Y0152143D01*
X0273504Y0152150D01*
X0273421Y0152161D01*
X0273339Y0152176D01*
X0273257Y0152194D01*
X0273176Y0152217D01*
X0273097Y0152243D01*
X0273019Y0152273D01*
X0272942Y0152307D01*
X0272867Y0152344D01*
X0272794Y0152384D01*
X0272723Y0152429D01*
X0272654Y0152476D01*
X0272587Y0152527D01*
X0272523Y0152580D01*
X0272461Y0152637D01*
X0272403Y0152697D01*
X0272347Y0152759D01*
X0272294Y0152824D01*
X0272244Y0152891D01*
X0272197Y0152960D01*
X0272154Y0153032D01*
X0272114Y0153106D01*
X0272078Y0153181D01*
X0272045Y0153258D01*
X0272016Y0153337D01*
X0271991Y0153416D01*
X0271969Y0153497D01*
X0271952Y0153579D01*
X0271938Y0153662D01*
X0271928Y0153745D01*
X0271922Y0153828D01*
X0271920Y0153912D01*
X0022034Y0161872D02*
X0011404Y0161872D01*
X0011404Y0127817D01*
X0022034Y0161872D02*
X0022034Y0170928D01*
X0011404Y0170928D01*
X0011404Y0186872D01*
D21*
X0077655Y0182369D02*
X0077655Y0178619D01*
X0077655Y0182369D02*
X0078905Y0182369D01*
X0078905Y0178619D01*
X0077655Y0178619D01*
X0077655Y0179868D02*
X0078905Y0179868D01*
X0078905Y0181117D02*
X0077655Y0181117D01*
X0077655Y0182366D02*
X0078905Y0182366D01*
X0081986Y0182369D02*
X0081986Y0178619D01*
X0081986Y0182369D02*
X0083236Y0182369D01*
X0083236Y0178619D01*
X0081986Y0178619D01*
X0081986Y0179868D02*
X0083236Y0179868D01*
X0083236Y0181117D02*
X0081986Y0181117D01*
X0081986Y0182366D02*
X0083236Y0182366D01*
X0086317Y0182369D02*
X0086317Y0178619D01*
X0086317Y0182369D02*
X0087567Y0182369D01*
X0087567Y0178619D01*
X0086317Y0178619D01*
X0086317Y0179868D02*
X0087567Y0179868D01*
X0087567Y0181117D02*
X0086317Y0181117D01*
X0086317Y0182366D02*
X0087567Y0182366D01*
X0090647Y0182369D02*
X0090647Y0178619D01*
X0090647Y0182369D02*
X0091897Y0182369D01*
X0091897Y0178619D01*
X0090647Y0178619D01*
X0090647Y0179868D02*
X0091897Y0179868D01*
X0091897Y0181117D02*
X0090647Y0181117D01*
X0090647Y0182366D02*
X0091897Y0182366D01*
X0094978Y0182369D02*
X0094978Y0178619D01*
X0094978Y0182369D02*
X0096228Y0182369D01*
X0096228Y0178619D01*
X0094978Y0178619D01*
X0094978Y0179868D02*
X0096228Y0179868D01*
X0096228Y0181117D02*
X0094978Y0181117D01*
X0094978Y0182366D02*
X0096228Y0182366D01*
X0099309Y0182369D02*
X0099309Y0178619D01*
X0099309Y0182369D02*
X0100559Y0182369D01*
X0100559Y0178619D01*
X0099309Y0178619D01*
X0099309Y0179868D02*
X0100559Y0179868D01*
X0100559Y0181117D02*
X0099309Y0181117D01*
X0099309Y0182366D02*
X0100559Y0182366D01*
X0103639Y0182369D02*
X0103639Y0178619D01*
X0103639Y0182369D02*
X0104889Y0182369D01*
X0104889Y0178619D01*
X0103639Y0178619D01*
X0103639Y0179868D02*
X0104889Y0179868D01*
X0104889Y0181117D02*
X0103639Y0181117D01*
X0103639Y0182366D02*
X0104889Y0182366D01*
X0107970Y0182369D02*
X0107970Y0178619D01*
X0107970Y0182369D02*
X0109220Y0182369D01*
X0109220Y0178619D01*
X0107970Y0178619D01*
X0107970Y0179868D02*
X0109220Y0179868D01*
X0109220Y0181117D02*
X0107970Y0181117D01*
X0107970Y0182366D02*
X0109220Y0182366D01*
X0112301Y0182369D02*
X0112301Y0178619D01*
X0112301Y0182369D02*
X0113551Y0182369D01*
X0113551Y0178619D01*
X0112301Y0178619D01*
X0112301Y0179868D02*
X0113551Y0179868D01*
X0113551Y0181117D02*
X0112301Y0181117D01*
X0112301Y0182366D02*
X0113551Y0182366D01*
X0112301Y0144181D02*
X0112301Y0140431D01*
X0112301Y0144181D02*
X0113551Y0144181D01*
X0113551Y0140431D01*
X0112301Y0140431D01*
X0112301Y0141680D02*
X0113551Y0141680D01*
X0113551Y0142929D02*
X0112301Y0142929D01*
X0112301Y0144178D02*
X0113551Y0144178D01*
X0107970Y0144181D02*
X0107970Y0140431D01*
X0107970Y0144181D02*
X0109220Y0144181D01*
X0109220Y0140431D01*
X0107970Y0140431D01*
X0107970Y0141680D02*
X0109220Y0141680D01*
X0109220Y0142929D02*
X0107970Y0142929D01*
X0107970Y0144178D02*
X0109220Y0144178D01*
X0103639Y0144181D02*
X0103639Y0140431D01*
X0103639Y0144181D02*
X0104889Y0144181D01*
X0104889Y0140431D01*
X0103639Y0140431D01*
X0103639Y0141680D02*
X0104889Y0141680D01*
X0104889Y0142929D02*
X0103639Y0142929D01*
X0103639Y0144178D02*
X0104889Y0144178D01*
X0099309Y0144181D02*
X0099309Y0140431D01*
X0099309Y0144181D02*
X0100559Y0144181D01*
X0100559Y0140431D01*
X0099309Y0140431D01*
X0099309Y0141680D02*
X0100559Y0141680D01*
X0100559Y0142929D02*
X0099309Y0142929D01*
X0099309Y0144178D02*
X0100559Y0144178D01*
X0094978Y0144181D02*
X0094978Y0140431D01*
X0094978Y0144181D02*
X0096228Y0144181D01*
X0096228Y0140431D01*
X0094978Y0140431D01*
X0094978Y0141680D02*
X0096228Y0141680D01*
X0096228Y0142929D02*
X0094978Y0142929D01*
X0094978Y0144178D02*
X0096228Y0144178D01*
X0090647Y0144181D02*
X0090647Y0140431D01*
X0090647Y0144181D02*
X0091897Y0144181D01*
X0091897Y0140431D01*
X0090647Y0140431D01*
X0090647Y0141680D02*
X0091897Y0141680D01*
X0091897Y0142929D02*
X0090647Y0142929D01*
X0090647Y0144178D02*
X0091897Y0144178D01*
X0086317Y0144181D02*
X0086317Y0140431D01*
X0086317Y0144181D02*
X0087567Y0144181D01*
X0087567Y0140431D01*
X0086317Y0140431D01*
X0086317Y0141680D02*
X0087567Y0141680D01*
X0087567Y0142929D02*
X0086317Y0142929D01*
X0086317Y0144178D02*
X0087567Y0144178D01*
X0081986Y0144181D02*
X0081986Y0140431D01*
X0081986Y0144181D02*
X0083236Y0144181D01*
X0083236Y0140431D01*
X0081986Y0140431D01*
X0081986Y0141680D02*
X0083236Y0141680D01*
X0083236Y0142929D02*
X0081986Y0142929D01*
X0081986Y0144178D02*
X0083236Y0144178D01*
X0077655Y0144181D02*
X0077655Y0140431D01*
X0077655Y0144181D02*
X0078905Y0144181D01*
X0078905Y0140431D01*
X0077655Y0140431D01*
X0077655Y0141680D02*
X0078905Y0141680D01*
X0078905Y0142929D02*
X0077655Y0142929D01*
X0077655Y0144178D02*
X0078905Y0144178D01*
X0049478Y0084562D02*
X0049478Y0080812D01*
X0045228Y0080812D01*
X0045228Y0084562D01*
X0049478Y0084562D01*
X0049478Y0082061D02*
X0045228Y0082061D01*
X0045228Y0083310D02*
X0049478Y0083310D01*
X0049478Y0084559D02*
X0045228Y0084559D01*
X0049478Y0077988D02*
X0049478Y0074238D01*
X0045228Y0074238D01*
X0045228Y0077988D01*
X0049478Y0077988D01*
X0049478Y0075487D02*
X0045228Y0075487D01*
X0045228Y0076736D02*
X0049478Y0076736D01*
X0049478Y0077985D02*
X0045228Y0077985D01*
D22*
X0066634Y0212681D03*
X0066634Y0214650D03*
X0066634Y0216619D03*
X0070572Y0216619D03*
X0070572Y0214650D03*
X0070572Y0212681D03*
D23*
X0026857Y0169156D03*
D24*
X0020853Y0177128D03*
X0020853Y0155672D03*
D25*
X0059703Y0210275D02*
X0059703Y0210825D01*
X0059703Y0210275D02*
X0059003Y0210275D01*
X0059003Y0210825D01*
X0059703Y0210825D01*
X0059703Y0210824D02*
X0059003Y0210824D01*
X0059703Y0212475D02*
X0059703Y0213025D01*
X0059703Y0212475D02*
X0059003Y0212475D01*
X0059003Y0213025D01*
X0059703Y0213025D01*
X0059703Y0213024D02*
X0059003Y0213024D01*
D26*
X0044353Y0283150D02*
X0044353Y0289150D01*
X0097353Y0289150D02*
X0097353Y0283150D01*
D27*
X0070853Y0286150D03*
D28*
X0018849Y0110861D03*
X0018849Y0055939D03*
D29*
X0030503Y0066176D03*
X0030503Y0071097D03*
X0030503Y0076018D03*
X0030503Y0080939D03*
X0030503Y0085861D03*
X0030503Y0090782D03*
X0030503Y0095703D03*
X0030503Y0100624D03*
D30*
X0023973Y0026754D02*
X0020233Y0026754D01*
X0020233Y0030494D01*
X0023973Y0030494D01*
X0023973Y0026754D01*
X0023973Y0030493D02*
X0020233Y0030493D01*
X0020233Y0017306D02*
X0023973Y0017306D01*
X0020233Y0017306D02*
X0020233Y0021046D01*
X0023973Y0021046D01*
X0023973Y0017306D01*
X0023973Y0021045D02*
X0020233Y0021045D01*
D31*
X0033422Y0021341D03*
X0033422Y0023900D03*
X0033422Y0026459D03*
X0033422Y0029018D03*
X0033422Y0018782D03*
D32*
X0032851Y0014353D03*
X0032851Y0033447D03*
D33*
X0024003Y0038172D03*
X0023103Y0038150D03*
X0022003Y0038172D03*
X0020853Y0038150D03*
X0020003Y0038172D03*
X0021103Y0009650D03*
X0022003Y0009628D03*
X0023103Y0009650D03*
X0024003Y0009628D03*
X0020003Y0009628D03*
D34*
X0040353Y0009400D02*
X0040353Y0024400D01*
X0041353Y0025400D01*
X0044103Y0025400D01*
X0044103Y0028150D01*
X0047353Y0031400D01*
X0047353Y0042400D01*
X0050396Y0045443D01*
X0054081Y0045443D01*
X0054081Y0042884D02*
X0050837Y0042884D01*
X0049353Y0041400D01*
X0049353Y0031400D01*
X0052603Y0028150D01*
X0052603Y0025400D01*
X0055353Y0025400D01*
X0057353Y0023400D01*
X0057353Y0009400D01*
X0073353Y0027400D02*
X0076566Y0027400D01*
X0078066Y0025900D02*
X0075066Y0025900D01*
X0075066Y0028900D01*
X0078066Y0028900D01*
X0078066Y0025900D01*
X0078066Y0026899D02*
X0075066Y0026899D01*
X0075066Y0027898D02*
X0078066Y0027898D01*
X0078066Y0028897D02*
X0075066Y0028897D01*
X0073353Y0027400D02*
X0071353Y0029400D01*
X0071353Y0051400D01*
X0064514Y0058239D01*
X0054081Y0058239D01*
X0054081Y0060798D02*
X0065955Y0060798D01*
X0076566Y0050187D01*
X0076566Y0034400D01*
X0075066Y0035900D02*
X0078066Y0035900D01*
X0078066Y0032900D01*
X0075066Y0032900D01*
X0075066Y0035900D01*
X0075066Y0033899D02*
X0078066Y0033899D01*
X0078066Y0034898D02*
X0075066Y0034898D01*
X0075066Y0035897D02*
X0078066Y0035897D01*
X0080640Y0035900D02*
X0083640Y0035900D01*
X0083640Y0032900D01*
X0080640Y0032900D01*
X0080640Y0035900D01*
X0080640Y0033899D02*
X0083640Y0033899D01*
X0083640Y0034898D02*
X0080640Y0034898D01*
X0080640Y0035897D02*
X0083640Y0035897D01*
X0082140Y0034400D02*
X0086353Y0034400D01*
X0088353Y0036400D01*
X0088353Y0048400D01*
X0091168Y0051215D01*
X0095138Y0051215D01*
X0095323Y0056400D02*
X0099353Y0056400D01*
X0106353Y0063400D01*
X0106353Y0080400D01*
X0103353Y0078400D02*
X0103353Y0070400D01*
X0099353Y0066400D01*
X0095323Y0066400D01*
X0095138Y0071215D02*
X0098168Y0071215D01*
X0100353Y0073400D01*
X0100353Y0076400D01*
X0109353Y0082400D02*
X0109353Y0051400D01*
X0099353Y0041400D01*
X0095323Y0041400D01*
X0095138Y0046215D02*
X0092168Y0046215D01*
X0090353Y0044400D01*
X0090353Y0030400D01*
X0087353Y0027400D01*
X0082140Y0027400D01*
X0083640Y0025900D02*
X0080640Y0025900D01*
X0080640Y0028900D01*
X0083640Y0028900D01*
X0083640Y0025900D01*
X0083640Y0026899D02*
X0080640Y0026899D01*
X0080640Y0027898D02*
X0083640Y0027898D01*
X0083640Y0028897D02*
X0080640Y0028897D01*
X0095138Y0036215D02*
X0099168Y0036215D01*
X0112353Y0049400D01*
X0112353Y0084400D01*
X0115531Y0084400D02*
X0124531Y0075400D01*
X0139353Y0075400D01*
X0158353Y0056400D01*
X0161883Y0056400D01*
X0162068Y0056215D01*
X0162068Y0046215D02*
X0167133Y0046150D01*
X0172603Y0046150D01*
X0175603Y0041150D02*
X0162133Y0041150D01*
X0162068Y0041215D01*
X0162003Y0041150D01*
X0132353Y0041150D01*
X0082625Y0053120D02*
X0078883Y0053120D01*
X0077923Y0054080D01*
X0077911Y0054080D01*
X0070503Y0061487D01*
X0070503Y0069250D01*
X0070353Y0069400D01*
X0070353Y0081400D01*
X0068353Y0083400D01*
X0065853Y0083400D01*
X0065353Y0083900D01*
X0062853Y0083900D01*
X0059816Y0086937D01*
X0059816Y0094400D01*
X0061316Y0092900D02*
X0058316Y0092900D01*
X0058316Y0095900D01*
X0061316Y0095900D01*
X0061316Y0092900D01*
X0061316Y0093899D02*
X0058316Y0093899D01*
X0058316Y0094898D02*
X0061316Y0094898D01*
X0061316Y0095897D02*
X0058316Y0095897D01*
X0056353Y0097400D02*
X0058353Y0099400D01*
X0086353Y0099400D01*
X0089538Y0096215D01*
X0095138Y0096215D01*
X0101643Y0095400D02*
X0082603Y0114440D01*
X0082603Y0122363D01*
X0081103Y0120863D02*
X0081103Y0123863D01*
X0084103Y0123863D01*
X0084103Y0120863D01*
X0081103Y0120863D01*
X0081103Y0121862D02*
X0084103Y0121862D01*
X0084103Y0122861D02*
X0081103Y0122861D01*
X0081103Y0123860D02*
X0084103Y0123860D01*
X0081103Y0126437D02*
X0081103Y0129437D01*
X0084103Y0129437D01*
X0084103Y0126437D01*
X0081103Y0126437D01*
X0081103Y0127436D02*
X0084103Y0127436D01*
X0084103Y0128435D02*
X0081103Y0128435D01*
X0081103Y0129434D02*
X0084103Y0129434D01*
X0082611Y0127945D02*
X0082603Y0127937D01*
X0082611Y0127945D02*
X0082611Y0142306D01*
X0082640Y0141306D01*
X0086890Y0142254D02*
X0086942Y0142306D01*
X0086942Y0133811D01*
X0089603Y0131150D01*
X0089603Y0127937D01*
X0088103Y0126437D02*
X0088103Y0129437D01*
X0091103Y0129437D01*
X0091103Y0126437D01*
X0088103Y0126437D01*
X0088103Y0127436D02*
X0091103Y0127436D01*
X0091103Y0128435D02*
X0088103Y0128435D01*
X0088103Y0129434D02*
X0091103Y0129434D01*
X0088103Y0123863D02*
X0088103Y0120863D01*
X0088103Y0123863D02*
X0091103Y0123863D01*
X0091103Y0120863D01*
X0088103Y0120863D01*
X0088103Y0121862D02*
X0091103Y0121862D01*
X0091103Y0122861D02*
X0088103Y0122861D01*
X0088103Y0123860D02*
X0091103Y0123860D01*
X0089603Y0122363D02*
X0089603Y0109900D01*
X0102103Y0097400D01*
X0135353Y0097400D01*
X0136044Y0098091D01*
X0136044Y0101687D01*
X0141044Y0101687D02*
X0141044Y0097091D01*
X0139353Y0095400D01*
X0101643Y0095400D01*
X0088353Y0092400D02*
X0087353Y0093400D01*
X0082853Y0093400D01*
X0082353Y0093900D01*
X0078353Y0093400D02*
X0078353Y0090900D01*
X0082353Y0086900D01*
X0076566Y0083187D02*
X0076566Y0077400D01*
X0078066Y0075900D02*
X0075066Y0075900D01*
X0075066Y0078900D01*
X0078066Y0078900D01*
X0078066Y0075900D01*
X0078066Y0076899D02*
X0075066Y0076899D01*
X0075066Y0077898D02*
X0078066Y0077898D01*
X0078066Y0078897D02*
X0075066Y0078897D01*
X0076566Y0077400D02*
X0072103Y0072937D01*
X0072103Y0062150D01*
X0078573Y0055680D01*
X0082625Y0055680D01*
X0082625Y0063357D02*
X0082581Y0063400D01*
X0074603Y0063400D01*
X0079353Y0070400D02*
X0082140Y0073187D01*
X0082140Y0077400D01*
X0083640Y0075900D02*
X0080640Y0075900D01*
X0080640Y0078900D01*
X0083640Y0078900D01*
X0083640Y0075900D01*
X0083640Y0076899D02*
X0080640Y0076899D01*
X0080640Y0077898D02*
X0083640Y0077898D01*
X0083640Y0078897D02*
X0080640Y0078897D01*
X0076566Y0083187D02*
X0074353Y0085400D01*
X0074353Y0090400D01*
X0078353Y0093400D02*
X0074353Y0097400D01*
X0067353Y0097400D01*
X0065390Y0095437D01*
X0065390Y0094400D01*
X0066890Y0092900D02*
X0063890Y0092900D01*
X0063890Y0095900D01*
X0066890Y0095900D01*
X0066890Y0092900D01*
X0066890Y0093899D02*
X0063890Y0093899D01*
X0063890Y0094898D02*
X0066890Y0094898D01*
X0066890Y0095897D02*
X0063890Y0095897D01*
X0056353Y0097400D02*
X0056353Y0081400D01*
X0057353Y0080400D01*
X0065353Y0076900D02*
X0065353Y0073400D01*
X0067353Y0071400D01*
X0062573Y0055680D02*
X0054081Y0055680D01*
X0062573Y0055680D02*
X0062603Y0055650D01*
X0044267Y0042396D02*
X0044267Y0039396D01*
X0039767Y0039396D01*
X0039767Y0042396D01*
X0044267Y0042396D01*
X0044267Y0040395D02*
X0039767Y0040395D01*
X0039767Y0041394D02*
X0044267Y0041394D01*
X0044267Y0042393D02*
X0039767Y0042393D01*
X0044267Y0035396D02*
X0044267Y0032396D01*
X0039767Y0032396D01*
X0039767Y0035396D01*
X0044267Y0035396D01*
X0044267Y0033395D02*
X0039767Y0033395D01*
X0039767Y0034394D02*
X0044267Y0034394D01*
X0044267Y0035393D02*
X0039767Y0035393D01*
X0027353Y0041863D02*
X0027353Y0044863D01*
X0030353Y0044863D01*
X0030353Y0041863D01*
X0027353Y0041863D01*
X0027353Y0042862D02*
X0030353Y0042862D01*
X0030353Y0043861D02*
X0027353Y0043861D01*
X0027353Y0044860D02*
X0030353Y0044860D01*
X0027353Y0047437D02*
X0027353Y0050437D01*
X0030353Y0050437D01*
X0030353Y0047437D01*
X0027353Y0047437D01*
X0027353Y0048436D02*
X0030353Y0048436D01*
X0030353Y0049435D02*
X0027353Y0049435D01*
X0027353Y0050434D02*
X0030353Y0050434D01*
X0029066Y0111900D02*
X0032066Y0111900D01*
X0029066Y0111900D02*
X0029066Y0114900D01*
X0032066Y0114900D01*
X0032066Y0111900D01*
X0032066Y0112899D02*
X0029066Y0112899D01*
X0029066Y0113898D02*
X0032066Y0113898D01*
X0032066Y0114897D02*
X0029066Y0114897D01*
X0034640Y0111900D02*
X0037640Y0111900D01*
X0034640Y0111900D02*
X0034640Y0114900D01*
X0037640Y0114900D01*
X0037640Y0111900D01*
X0037640Y0112899D02*
X0034640Y0112899D01*
X0034640Y0113898D02*
X0037640Y0113898D01*
X0037640Y0114897D02*
X0034640Y0114897D01*
X0089353Y0165400D02*
X0078280Y0176473D01*
X0078280Y0180494D01*
X0082611Y0180494D02*
X0082611Y0184142D01*
X0078353Y0188400D01*
X0073140Y0188400D01*
X0074640Y0186900D02*
X0071640Y0186900D01*
X0071640Y0189900D01*
X0074640Y0189900D01*
X0074640Y0186900D01*
X0074640Y0187899D02*
X0071640Y0187899D01*
X0071640Y0188898D02*
X0074640Y0188898D01*
X0074640Y0189897D02*
X0071640Y0189897D01*
X0071640Y0193900D02*
X0074640Y0193900D01*
X0071640Y0193900D02*
X0071640Y0196900D01*
X0074640Y0196900D01*
X0074640Y0193900D01*
X0074640Y0194899D02*
X0071640Y0194899D01*
X0071640Y0195898D02*
X0074640Y0195898D01*
X0074640Y0196897D02*
X0071640Y0196897D01*
X0073140Y0195400D02*
X0080353Y0195400D01*
X0086942Y0188811D01*
X0086942Y0180494D01*
X0089353Y0165400D02*
X0125353Y0165400D01*
X0129353Y0161400D01*
X0127353Y0158400D02*
X0100353Y0158400D01*
X0091272Y0149319D01*
X0091272Y0142306D01*
X0095603Y0142306D02*
X0095603Y0148650D01*
X0102353Y0155400D01*
X0124353Y0155400D01*
X0126353Y0153400D01*
X0127353Y0158400D02*
X0132353Y0153400D01*
X0131103Y0106400D02*
X0131044Y0106341D01*
X0131044Y0101687D01*
X0126044Y0101687D02*
X0126044Y0106341D01*
X0126103Y0106400D01*
X0121353Y0106400D02*
X0121353Y0101996D01*
X0121044Y0101687D01*
X0117920Y0106400D02*
X0116044Y0104524D01*
X0116044Y0101687D01*
X0184853Y0023900D02*
X0184853Y0018900D01*
X0189353Y0014400D01*
X0220353Y0014400D01*
X0222353Y0016400D01*
X0222353Y0019613D01*
X0223853Y0021113D02*
X0223853Y0018113D01*
X0220853Y0018113D01*
X0220853Y0021113D01*
X0223853Y0021113D01*
X0223853Y0019112D02*
X0220853Y0019112D01*
X0220853Y0020111D02*
X0223853Y0020111D01*
X0223853Y0021110D02*
X0220853Y0021110D01*
X0223853Y0023687D02*
X0223853Y0026687D01*
X0223853Y0023687D02*
X0220853Y0023687D01*
X0220853Y0026687D01*
X0223853Y0026687D01*
X0223853Y0024686D02*
X0220853Y0024686D01*
X0220853Y0025685D02*
X0223853Y0025685D01*
X0223853Y0026684D02*
X0220853Y0026684D01*
X0230853Y0026687D02*
X0230853Y0023687D01*
X0227853Y0023687D01*
X0227853Y0026687D01*
X0230853Y0026687D01*
X0230853Y0024686D02*
X0227853Y0024686D01*
X0227853Y0025685D02*
X0230853Y0025685D01*
X0230853Y0026684D02*
X0227853Y0026684D01*
X0230853Y0021113D02*
X0230853Y0018113D01*
X0227853Y0018113D01*
X0227853Y0021113D01*
X0230853Y0021113D01*
X0230853Y0019112D02*
X0227853Y0019112D01*
X0227853Y0020111D02*
X0230853Y0020111D01*
X0230853Y0021110D02*
X0227853Y0021110D01*
X0229353Y0019613D02*
X0234566Y0019613D01*
X0238853Y0023900D01*
X0262853Y0031900D02*
X0265853Y0031900D01*
X0267853Y0029900D01*
X0267853Y0023900D01*
X0216603Y0079863D02*
X0216603Y0082863D01*
X0216603Y0079863D02*
X0213603Y0079863D01*
X0213603Y0082863D01*
X0216603Y0082863D01*
X0216603Y0080862D02*
X0213603Y0080862D01*
X0213603Y0081861D02*
X0216603Y0081861D01*
X0216603Y0082860D02*
X0213603Y0082860D01*
X0216603Y0085437D02*
X0216603Y0088437D01*
X0216603Y0085437D02*
X0213603Y0085437D01*
X0213603Y0088437D01*
X0216603Y0088437D01*
X0216603Y0086436D02*
X0213603Y0086436D01*
X0213603Y0087435D02*
X0216603Y0087435D01*
X0216603Y0088434D02*
X0213603Y0088434D01*
X0243066Y0116150D02*
X0246066Y0116150D01*
X0246066Y0113150D01*
X0243066Y0113150D01*
X0243066Y0116150D01*
X0243066Y0114149D02*
X0246066Y0114149D01*
X0246066Y0115148D02*
X0243066Y0115148D01*
X0243066Y0116147D02*
X0246066Y0116147D01*
X0248640Y0116150D02*
X0251640Y0116150D01*
X0251640Y0113150D01*
X0248640Y0113150D01*
X0248640Y0116150D01*
X0248640Y0114149D02*
X0251640Y0114149D01*
X0251640Y0115148D02*
X0248640Y0115148D01*
X0248640Y0116147D02*
X0251640Y0116147D01*
X0251890Y0127650D02*
X0248890Y0127650D01*
X0251890Y0127650D02*
X0251890Y0124650D01*
X0248890Y0124650D01*
X0248890Y0127650D01*
X0248890Y0125649D02*
X0251890Y0125649D01*
X0251890Y0126648D02*
X0248890Y0126648D01*
X0248890Y0127647D02*
X0251890Y0127647D01*
X0246316Y0127650D02*
X0243316Y0127650D01*
X0246316Y0127650D02*
X0246316Y0124650D01*
X0243316Y0124650D01*
X0243316Y0127650D01*
X0243316Y0125649D02*
X0246316Y0125649D01*
X0246316Y0126648D02*
X0243316Y0126648D01*
X0243316Y0127647D02*
X0246316Y0127647D01*
X0219103Y0149363D02*
X0219103Y0152363D01*
X0222103Y0152363D01*
X0222103Y0149363D01*
X0219103Y0149363D01*
X0219103Y0150362D02*
X0222103Y0150362D01*
X0222103Y0151361D02*
X0219103Y0151361D01*
X0219103Y0152360D02*
X0222103Y0152360D01*
X0219103Y0154937D02*
X0219103Y0157937D01*
X0222103Y0157937D01*
X0222103Y0154937D01*
X0219103Y0154937D01*
X0219103Y0155936D02*
X0222103Y0155936D01*
X0222103Y0156935D02*
X0219103Y0156935D01*
X0219103Y0157934D02*
X0222103Y0157934D01*
X0219353Y0166613D02*
X0219353Y0169613D01*
X0222353Y0169613D01*
X0222353Y0166613D01*
X0219353Y0166613D01*
X0219353Y0167612D02*
X0222353Y0167612D01*
X0222353Y0168611D02*
X0219353Y0168611D01*
X0219353Y0169610D02*
X0222353Y0169610D01*
X0219353Y0172187D02*
X0219353Y0175187D01*
X0222353Y0175187D01*
X0222353Y0172187D01*
X0219353Y0172187D01*
X0219353Y0173186D02*
X0222353Y0173186D01*
X0222353Y0174185D02*
X0219353Y0174185D01*
X0219353Y0175184D02*
X0222353Y0175184D01*
X0207853Y0176437D02*
X0207853Y0179437D01*
X0210853Y0179437D01*
X0210853Y0176437D01*
X0207853Y0176437D01*
X0207853Y0177436D02*
X0210853Y0177436D01*
X0210853Y0178435D02*
X0207853Y0178435D01*
X0207853Y0179434D02*
X0210853Y0179434D01*
X0207853Y0173863D02*
X0207853Y0170863D01*
X0207853Y0173863D02*
X0210853Y0173863D01*
X0210853Y0170863D01*
X0207853Y0170863D01*
X0207853Y0171862D02*
X0210853Y0171862D01*
X0210853Y0172861D02*
X0207853Y0172861D01*
X0207853Y0173860D02*
X0210853Y0173860D01*
X0207853Y0166437D02*
X0207853Y0163437D01*
X0207853Y0166437D02*
X0210853Y0166437D01*
X0210853Y0163437D01*
X0207853Y0163437D01*
X0207853Y0164436D02*
X0210853Y0164436D01*
X0210853Y0165435D02*
X0207853Y0165435D01*
X0207853Y0166434D02*
X0210853Y0166434D01*
X0207853Y0160863D02*
X0207853Y0157863D01*
X0207853Y0160863D02*
X0210853Y0160863D01*
X0210853Y0157863D01*
X0207853Y0157863D01*
X0207853Y0158862D02*
X0210853Y0158862D01*
X0210853Y0159861D02*
X0207853Y0159861D01*
X0207853Y0160860D02*
X0210853Y0160860D01*
X0210853Y0152437D02*
X0210853Y0149437D01*
X0207853Y0149437D01*
X0207853Y0152437D01*
X0210853Y0152437D01*
X0210853Y0150436D02*
X0207853Y0150436D01*
X0207853Y0151435D02*
X0210853Y0151435D01*
X0210853Y0152434D02*
X0207853Y0152434D01*
X0210853Y0146863D02*
X0210853Y0143863D01*
X0207853Y0143863D01*
X0207853Y0146863D01*
X0210853Y0146863D01*
X0210853Y0144862D02*
X0207853Y0144862D01*
X0207853Y0145861D02*
X0210853Y0145861D01*
X0210853Y0146860D02*
X0207853Y0146860D01*
X0252103Y0089437D02*
X0252103Y0086437D01*
X0252103Y0089437D02*
X0255103Y0089437D01*
X0255103Y0086437D01*
X0252103Y0086437D01*
X0252103Y0087436D02*
X0255103Y0087436D01*
X0255103Y0088435D02*
X0252103Y0088435D01*
X0252103Y0089434D02*
X0255103Y0089434D01*
X0252103Y0083863D02*
X0252103Y0080863D01*
X0252103Y0083863D02*
X0255103Y0083863D01*
X0255103Y0080863D01*
X0252103Y0080863D01*
X0252103Y0081862D02*
X0255103Y0081862D01*
X0255103Y0082861D02*
X0252103Y0082861D01*
X0252103Y0083860D02*
X0255103Y0083860D01*
X0211853Y0031900D02*
X0209103Y0031900D01*
X0211853Y0031900D02*
X0213853Y0029900D01*
X0213853Y0023900D01*
X0069066Y0186900D02*
X0066066Y0186900D01*
X0066066Y0189900D01*
X0069066Y0189900D01*
X0069066Y0186900D01*
X0069066Y0187899D02*
X0066066Y0187899D01*
X0066066Y0188898D02*
X0069066Y0188898D01*
X0069066Y0189897D02*
X0066066Y0189897D01*
X0066066Y0193900D02*
X0069066Y0193900D01*
X0066066Y0193900D02*
X0066066Y0196900D01*
X0069066Y0196900D01*
X0069066Y0193900D01*
X0069066Y0194899D02*
X0066066Y0194899D01*
X0066066Y0195898D02*
X0069066Y0195898D01*
X0069066Y0196897D02*
X0066066Y0196897D01*
X0064640Y0225900D02*
X0067640Y0225900D01*
X0064640Y0225900D02*
X0064640Y0228900D01*
X0067640Y0228900D01*
X0067640Y0225900D01*
X0067640Y0226899D02*
X0064640Y0226899D01*
X0064640Y0227898D02*
X0067640Y0227898D01*
X0067640Y0228897D02*
X0064640Y0228897D01*
X0066140Y0227400D02*
X0106353Y0227400D01*
X0105353Y0232400D02*
X0053140Y0232400D01*
X0054640Y0230900D02*
X0051640Y0230900D01*
X0051640Y0233900D01*
X0054640Y0233900D01*
X0054640Y0230900D01*
X0054640Y0231899D02*
X0051640Y0231899D01*
X0051640Y0232898D02*
X0054640Y0232898D01*
X0054640Y0233897D02*
X0051640Y0233897D01*
X0049066Y0230900D02*
X0046066Y0230900D01*
X0046066Y0233900D01*
X0049066Y0233900D01*
X0049066Y0230900D01*
X0049066Y0231899D02*
X0046066Y0231899D01*
X0046066Y0232898D02*
X0049066Y0232898D01*
X0049066Y0233897D02*
X0046066Y0233897D01*
X0045353Y0232400D02*
X0047566Y0232400D01*
X0045353Y0232400D02*
X0023353Y0210400D01*
X0023353Y0201400D02*
X0049353Y0227400D01*
X0060566Y0227400D01*
X0062066Y0225900D02*
X0059066Y0225900D01*
X0059066Y0228900D01*
X0062066Y0228900D01*
X0062066Y0225900D01*
X0062066Y0226899D02*
X0059066Y0226899D01*
X0059066Y0227898D02*
X0062066Y0227898D01*
X0062066Y0228897D02*
X0059066Y0228897D01*
X0041640Y0235900D02*
X0038640Y0235900D01*
X0038640Y0238900D01*
X0041640Y0238900D01*
X0041640Y0235900D01*
X0041640Y0236899D02*
X0038640Y0236899D01*
X0038640Y0237898D02*
X0041640Y0237898D01*
X0041640Y0238897D02*
X0038640Y0238897D01*
X0040140Y0237400D02*
X0105353Y0237400D01*
X0104853Y0214187D02*
X0104853Y0211187D01*
X0101853Y0211187D01*
X0101853Y0214187D01*
X0104853Y0214187D01*
X0104853Y0212186D02*
X0101853Y0212186D01*
X0101853Y0213185D02*
X0104853Y0213185D01*
X0104853Y0214184D02*
X0101853Y0214184D01*
X0097103Y0214187D02*
X0097103Y0211187D01*
X0094103Y0211187D01*
X0094103Y0214187D01*
X0097103Y0214187D01*
X0097103Y0212186D02*
X0094103Y0212186D01*
X0094103Y0213185D02*
X0097103Y0213185D01*
X0097103Y0214184D02*
X0094103Y0214184D01*
X0097103Y0208613D02*
X0097103Y0205613D01*
X0094103Y0205613D01*
X0094103Y0208613D01*
X0097103Y0208613D01*
X0097103Y0206612D02*
X0094103Y0206612D01*
X0094103Y0207611D02*
X0097103Y0207611D01*
X0097103Y0208610D02*
X0094103Y0208610D01*
X0104853Y0208613D02*
X0104853Y0205613D01*
X0101853Y0205613D01*
X0101853Y0208613D01*
X0104853Y0208613D01*
X0104853Y0206612D02*
X0101853Y0206612D01*
X0101853Y0207611D02*
X0104853Y0207611D01*
X0104853Y0208610D02*
X0101853Y0208610D01*
X0034566Y0230613D02*
X0034566Y0237400D01*
X0036066Y0235900D02*
X0033066Y0235900D01*
X0033066Y0238900D01*
X0036066Y0238900D01*
X0036066Y0235900D01*
X0036066Y0236899D02*
X0033066Y0236899D01*
X0033066Y0237898D02*
X0036066Y0237898D01*
X0036066Y0238897D02*
X0033066Y0238897D01*
X0034566Y0230613D02*
X0023353Y0219400D01*
D35*
X0048290Y0202713D02*
X0048290Y0200087D01*
X0048290Y0202713D02*
X0050916Y0202713D01*
X0050916Y0200087D01*
X0048290Y0200087D01*
X0048290Y0200961D02*
X0050916Y0200961D01*
X0050916Y0201835D02*
X0048290Y0201835D01*
X0048290Y0202709D02*
X0050916Y0202709D01*
X0048290Y0196713D02*
X0048290Y0194087D01*
X0048290Y0196713D02*
X0050916Y0196713D01*
X0050916Y0194087D01*
X0048290Y0194087D01*
X0048290Y0194961D02*
X0050916Y0194961D01*
X0050916Y0195835D02*
X0048290Y0195835D01*
X0048290Y0196709D02*
X0050916Y0196709D01*
X0050916Y0189963D02*
X0048290Y0189963D01*
X0050916Y0189963D02*
X0050916Y0187337D01*
X0048290Y0187337D01*
X0048290Y0189963D01*
X0048290Y0188211D02*
X0050916Y0188211D01*
X0050916Y0189085D02*
X0048290Y0189085D01*
X0048290Y0189959D02*
X0050916Y0189959D01*
X0054290Y0189963D02*
X0056916Y0189963D01*
X0056916Y0187337D01*
X0054290Y0187337D01*
X0054290Y0189963D01*
X0054290Y0188211D02*
X0056916Y0188211D01*
X0056916Y0189085D02*
X0054290Y0189085D01*
X0054290Y0189959D02*
X0056916Y0189959D01*
X0048290Y0183213D02*
X0048290Y0180587D01*
X0048290Y0183213D02*
X0050916Y0183213D01*
X0050916Y0180587D01*
X0048290Y0180587D01*
X0048290Y0181461D02*
X0050916Y0181461D01*
X0050916Y0182335D02*
X0048290Y0182335D01*
X0048290Y0183209D02*
X0050916Y0183209D01*
X0048290Y0177213D02*
X0048290Y0174587D01*
X0048290Y0177213D02*
X0050916Y0177213D01*
X0050916Y0174587D01*
X0048290Y0174587D01*
X0048290Y0175461D02*
X0050916Y0175461D01*
X0050916Y0176335D02*
X0048290Y0176335D01*
X0048290Y0177209D02*
X0050916Y0177209D01*
X0050916Y0170463D02*
X0048290Y0170463D01*
X0050916Y0170463D02*
X0050916Y0167837D01*
X0048290Y0167837D01*
X0048290Y0170463D01*
X0048290Y0168711D02*
X0050916Y0168711D01*
X0050916Y0169585D02*
X0048290Y0169585D01*
X0048290Y0170459D02*
X0050916Y0170459D01*
X0054290Y0170463D02*
X0056916Y0170463D01*
X0056916Y0167837D01*
X0054290Y0167837D01*
X0054290Y0170463D01*
X0054290Y0168711D02*
X0056916Y0168711D01*
X0056916Y0169585D02*
X0054290Y0169585D01*
X0054290Y0170459D02*
X0056916Y0170459D01*
X0080166Y0205337D02*
X0080166Y0207963D01*
X0080166Y0205337D02*
X0077540Y0205337D01*
X0077540Y0207963D01*
X0080166Y0207963D01*
X0080166Y0206211D02*
X0077540Y0206211D01*
X0077540Y0207085D02*
X0080166Y0207085D01*
X0080166Y0207959D02*
X0077540Y0207959D01*
X0080166Y0211337D02*
X0080166Y0213963D01*
X0080166Y0211337D02*
X0077540Y0211337D01*
X0077540Y0213963D01*
X0080166Y0213963D01*
X0080166Y0212211D02*
X0077540Y0212211D01*
X0077540Y0213085D02*
X0080166Y0213085D01*
X0080166Y0213959D02*
X0077540Y0213959D01*
X0087916Y0213963D02*
X0087916Y0211337D01*
X0085290Y0211337D01*
X0085290Y0213963D01*
X0087916Y0213963D01*
X0087916Y0212211D02*
X0085290Y0212211D01*
X0085290Y0213085D02*
X0087916Y0213085D01*
X0087916Y0213959D02*
X0085290Y0213959D01*
X0087916Y0207963D02*
X0087916Y0205337D01*
X0085290Y0205337D01*
X0085290Y0207963D01*
X0087916Y0207963D01*
X0087916Y0206211D02*
X0085290Y0206211D01*
X0085290Y0207085D02*
X0087916Y0207085D01*
X0087916Y0207959D02*
X0085290Y0207959D01*
X0146540Y0184713D02*
X0149166Y0184713D01*
X0149166Y0182087D01*
X0146540Y0182087D01*
X0146540Y0184713D01*
X0146540Y0182961D02*
X0149166Y0182961D01*
X0149166Y0183835D02*
X0146540Y0183835D01*
X0146540Y0184709D02*
X0149166Y0184709D01*
X0152540Y0184713D02*
X0155166Y0184713D01*
X0155166Y0182087D01*
X0152540Y0182087D01*
X0152540Y0184713D01*
X0152540Y0182961D02*
X0155166Y0182961D01*
X0155166Y0183835D02*
X0152540Y0183835D01*
X0152540Y0184709D02*
X0155166Y0184709D01*
X0171540Y0184713D02*
X0174166Y0184713D01*
X0174166Y0182087D01*
X0171540Y0182087D01*
X0171540Y0184713D01*
X0171540Y0182961D02*
X0174166Y0182961D01*
X0174166Y0183835D02*
X0171540Y0183835D01*
X0171540Y0184709D02*
X0174166Y0184709D01*
X0177540Y0184713D02*
X0180166Y0184713D01*
X0180166Y0182087D01*
X0177540Y0182087D01*
X0177540Y0184713D01*
X0177540Y0182961D02*
X0180166Y0182961D01*
X0180166Y0183835D02*
X0177540Y0183835D01*
X0177540Y0184709D02*
X0180166Y0184709D01*
X0187666Y0161713D02*
X0187666Y0159087D01*
X0185040Y0159087D01*
X0185040Y0161713D01*
X0187666Y0161713D01*
X0187666Y0159961D02*
X0185040Y0159961D01*
X0185040Y0160835D02*
X0187666Y0160835D01*
X0187666Y0161709D02*
X0185040Y0161709D01*
X0187666Y0155713D02*
X0187666Y0153087D01*
X0185040Y0153087D01*
X0185040Y0155713D01*
X0187666Y0155713D01*
X0187666Y0153961D02*
X0185040Y0153961D01*
X0185040Y0154835D02*
X0187666Y0154835D01*
X0187666Y0155709D02*
X0185040Y0155709D01*
X0195666Y0155713D02*
X0195666Y0153087D01*
X0193040Y0153087D01*
X0193040Y0155713D01*
X0195666Y0155713D01*
X0195666Y0153961D02*
X0193040Y0153961D01*
X0193040Y0154835D02*
X0195666Y0154835D01*
X0195666Y0155709D02*
X0193040Y0155709D01*
X0195666Y0159087D02*
X0195666Y0161713D01*
X0195666Y0159087D02*
X0193040Y0159087D01*
X0193040Y0161713D01*
X0195666Y0161713D01*
X0195666Y0159961D02*
X0193040Y0159961D01*
X0193040Y0160835D02*
X0195666Y0160835D01*
X0195666Y0161709D02*
X0193040Y0161709D01*
X0223040Y0125087D02*
X0225666Y0125087D01*
X0223040Y0125087D02*
X0223040Y0127713D01*
X0225666Y0127713D01*
X0225666Y0125087D01*
X0225666Y0125961D02*
X0223040Y0125961D01*
X0223040Y0126835D02*
X0225666Y0126835D01*
X0225666Y0127709D02*
X0223040Y0127709D01*
X0229040Y0125087D02*
X0231666Y0125087D01*
X0229040Y0125087D02*
X0229040Y0127713D01*
X0231666Y0127713D01*
X0231666Y0125087D01*
X0231666Y0125961D02*
X0229040Y0125961D01*
X0229040Y0126835D02*
X0231666Y0126835D01*
X0231666Y0127709D02*
X0229040Y0127709D01*
X0243040Y0101713D02*
X0245666Y0101713D01*
X0245666Y0099087D01*
X0243040Y0099087D01*
X0243040Y0101713D01*
X0243040Y0099961D02*
X0245666Y0099961D01*
X0245666Y0100835D02*
X0243040Y0100835D01*
X0243040Y0101709D02*
X0245666Y0101709D01*
X0249040Y0101713D02*
X0251666Y0101713D01*
X0251666Y0099087D01*
X0249040Y0099087D01*
X0249040Y0101713D01*
X0249040Y0099961D02*
X0251666Y0099961D01*
X0251666Y0100835D02*
X0249040Y0100835D01*
X0249040Y0101709D02*
X0251666Y0101709D01*
X0277040Y0133713D02*
X0279666Y0133713D01*
X0279666Y0131087D01*
X0277040Y0131087D01*
X0277040Y0133713D01*
X0277040Y0131961D02*
X0279666Y0131961D01*
X0279666Y0132835D02*
X0277040Y0132835D01*
X0277040Y0133709D02*
X0279666Y0133709D01*
X0283040Y0133713D02*
X0285666Y0133713D01*
X0285666Y0131087D01*
X0283040Y0131087D01*
X0283040Y0133713D01*
X0283040Y0131961D02*
X0285666Y0131961D01*
X0285666Y0132835D02*
X0283040Y0132835D01*
X0283040Y0133709D02*
X0285666Y0133709D01*
X0260666Y0052713D02*
X0260666Y0050087D01*
X0258040Y0050087D01*
X0258040Y0052713D01*
X0260666Y0052713D01*
X0260666Y0050961D02*
X0258040Y0050961D01*
X0258040Y0051835D02*
X0260666Y0051835D01*
X0260666Y0052709D02*
X0258040Y0052709D01*
X0260666Y0046713D02*
X0260666Y0044087D01*
X0258040Y0044087D01*
X0258040Y0046713D01*
X0260666Y0046713D01*
X0260666Y0044961D02*
X0258040Y0044961D01*
X0258040Y0045835D02*
X0260666Y0045835D01*
X0260666Y0046709D02*
X0258040Y0046709D01*
X0258166Y0030587D02*
X0255540Y0030587D01*
X0255540Y0033213D01*
X0258166Y0033213D01*
X0258166Y0030587D01*
X0258166Y0031461D02*
X0255540Y0031461D01*
X0255540Y0032335D02*
X0258166Y0032335D01*
X0258166Y0033209D02*
X0255540Y0033209D01*
X0261540Y0030587D02*
X0264166Y0030587D01*
X0261540Y0030587D02*
X0261540Y0033213D01*
X0264166Y0033213D01*
X0264166Y0030587D01*
X0264166Y0031461D02*
X0261540Y0031461D01*
X0261540Y0032335D02*
X0264166Y0032335D01*
X0264166Y0033209D02*
X0261540Y0033209D01*
X0210416Y0030587D02*
X0207790Y0030587D01*
X0207790Y0033213D01*
X0210416Y0033213D01*
X0210416Y0030587D01*
X0210416Y0031461D02*
X0207790Y0031461D01*
X0207790Y0032335D02*
X0210416Y0032335D01*
X0210416Y0033209D02*
X0207790Y0033209D01*
X0204416Y0030587D02*
X0201790Y0030587D01*
X0201790Y0033213D01*
X0204416Y0033213D01*
X0204416Y0030587D01*
X0204416Y0031461D02*
X0201790Y0031461D01*
X0201790Y0032335D02*
X0204416Y0032335D01*
X0204416Y0033209D02*
X0201790Y0033209D01*
X0179666Y0031713D02*
X0179666Y0029087D01*
X0177040Y0029087D01*
X0177040Y0031713D01*
X0179666Y0031713D01*
X0179666Y0029961D02*
X0177040Y0029961D01*
X0177040Y0030835D02*
X0179666Y0030835D01*
X0179666Y0031709D02*
X0177040Y0031709D01*
X0179666Y0035087D02*
X0179666Y0037713D01*
X0179666Y0035087D02*
X0177040Y0035087D01*
X0177040Y0037713D01*
X0179666Y0037713D01*
X0179666Y0035961D02*
X0177040Y0035961D01*
X0177040Y0036835D02*
X0179666Y0036835D01*
X0179666Y0037709D02*
X0177040Y0037709D01*
X0171666Y0037713D02*
X0171666Y0035087D01*
X0169040Y0035087D01*
X0169040Y0037713D01*
X0171666Y0037713D01*
X0171666Y0035961D02*
X0169040Y0035961D01*
X0169040Y0036835D02*
X0171666Y0036835D01*
X0171666Y0037709D02*
X0169040Y0037709D01*
X0171666Y0031713D02*
X0171666Y0029087D01*
X0169040Y0029087D01*
X0169040Y0031713D01*
X0171666Y0031713D01*
X0171666Y0029961D02*
X0169040Y0029961D01*
X0169040Y0030835D02*
X0171666Y0030835D01*
X0171666Y0031709D02*
X0169040Y0031709D01*
X0121666Y0136713D02*
X0119040Y0136713D01*
X0121666Y0136713D02*
X0121666Y0134087D01*
X0119040Y0134087D01*
X0119040Y0136713D01*
X0119040Y0134961D02*
X0121666Y0134961D01*
X0121666Y0135835D02*
X0119040Y0135835D01*
X0119040Y0136709D02*
X0121666Y0136709D01*
X0115666Y0136713D02*
X0113040Y0136713D01*
X0115666Y0136713D02*
X0115666Y0134087D01*
X0113040Y0134087D01*
X0113040Y0136713D01*
X0113040Y0134961D02*
X0115666Y0134961D01*
X0115666Y0135835D02*
X0113040Y0135835D01*
X0113040Y0136709D02*
X0115666Y0136709D01*
X0109666Y0134087D02*
X0107040Y0134087D01*
X0107040Y0136713D01*
X0109666Y0136713D01*
X0109666Y0134087D01*
X0109666Y0134961D02*
X0107040Y0134961D01*
X0107040Y0135835D02*
X0109666Y0135835D01*
X0109666Y0136709D02*
X0107040Y0136709D01*
X0103666Y0134087D02*
X0101040Y0134087D01*
X0101040Y0136713D01*
X0103666Y0136713D01*
X0103666Y0134087D01*
X0103666Y0134961D02*
X0101040Y0134961D01*
X0101040Y0135835D02*
X0103666Y0135835D01*
X0103666Y0136709D02*
X0101040Y0136709D01*
X0047040Y0101713D02*
X0047040Y0099087D01*
X0047040Y0101713D02*
X0049666Y0101713D01*
X0049666Y0099087D01*
X0047040Y0099087D01*
X0047040Y0099961D02*
X0049666Y0099961D01*
X0049666Y0100835D02*
X0047040Y0100835D01*
X0047040Y0101709D02*
X0049666Y0101709D01*
X0047040Y0095713D02*
X0047040Y0093087D01*
X0047040Y0095713D02*
X0049666Y0095713D01*
X0049666Y0093087D01*
X0047040Y0093087D01*
X0047040Y0093961D02*
X0049666Y0093961D01*
X0049666Y0094835D02*
X0047040Y0094835D01*
X0047040Y0095709D02*
X0049666Y0095709D01*
X0038166Y0059587D02*
X0035540Y0059587D01*
X0035540Y0062213D01*
X0038166Y0062213D01*
X0038166Y0059587D01*
X0038166Y0060461D02*
X0035540Y0060461D01*
X0035540Y0061335D02*
X0038166Y0061335D01*
X0038166Y0062209D02*
X0035540Y0062209D01*
X0032166Y0059587D02*
X0029540Y0059587D01*
X0029540Y0062213D01*
X0032166Y0062213D01*
X0032166Y0059587D01*
X0032166Y0060461D02*
X0029540Y0060461D01*
X0029540Y0061335D02*
X0032166Y0061335D01*
X0032166Y0062209D02*
X0029540Y0062209D01*
X0029540Y0053587D02*
X0032166Y0053587D01*
X0029540Y0053587D02*
X0029540Y0056213D01*
X0032166Y0056213D01*
X0032166Y0053587D01*
X0032166Y0054461D02*
X0029540Y0054461D01*
X0029540Y0055335D02*
X0032166Y0055335D01*
X0032166Y0056209D02*
X0029540Y0056209D01*
X0035540Y0053587D02*
X0038166Y0053587D01*
X0035540Y0053587D02*
X0035540Y0056213D01*
X0038166Y0056213D01*
X0038166Y0053587D01*
X0038166Y0054461D02*
X0035540Y0054461D01*
X0035540Y0055335D02*
X0038166Y0055335D01*
X0038166Y0056209D02*
X0035540Y0056209D01*
X0036666Y0047837D02*
X0034040Y0047837D01*
X0034040Y0050463D01*
X0036666Y0050463D01*
X0036666Y0047837D01*
X0036666Y0048711D02*
X0034040Y0048711D01*
X0034040Y0049585D02*
X0036666Y0049585D01*
X0036666Y0050459D02*
X0034040Y0050459D01*
X0040040Y0047837D02*
X0042666Y0047837D01*
X0040040Y0047837D02*
X0040040Y0050463D01*
X0042666Y0050463D01*
X0042666Y0047837D01*
X0042666Y0048711D02*
X0040040Y0048711D01*
X0040040Y0049585D02*
X0042666Y0049585D01*
X0042666Y0050459D02*
X0040040Y0050459D01*
X0045416Y0026713D02*
X0045416Y0024087D01*
X0042790Y0024087D01*
X0042790Y0026713D01*
X0045416Y0026713D01*
X0045416Y0024961D02*
X0042790Y0024961D01*
X0042790Y0025835D02*
X0045416Y0025835D01*
X0045416Y0026709D02*
X0042790Y0026709D01*
X0045416Y0020713D02*
X0045416Y0018087D01*
X0042790Y0018087D01*
X0042790Y0020713D01*
X0045416Y0020713D01*
X0045416Y0018961D02*
X0042790Y0018961D01*
X0042790Y0019835D02*
X0045416Y0019835D01*
X0045416Y0020709D02*
X0042790Y0020709D01*
X0053916Y0020713D02*
X0053916Y0018087D01*
X0051290Y0018087D01*
X0051290Y0020713D01*
X0053916Y0020713D01*
X0053916Y0018961D02*
X0051290Y0018961D01*
X0051290Y0019835D02*
X0053916Y0019835D01*
X0053916Y0020709D02*
X0051290Y0020709D01*
X0053916Y0024087D02*
X0053916Y0026713D01*
X0053916Y0024087D02*
X0051290Y0024087D01*
X0051290Y0026713D01*
X0053916Y0026713D01*
X0053916Y0024961D02*
X0051290Y0024961D01*
X0051290Y0025835D02*
X0053916Y0025835D01*
X0053916Y0026709D02*
X0051290Y0026709D01*
D36*
X0213853Y0006900D03*
X0267853Y0006900D03*
D37*
X0267853Y0023900D03*
X0238853Y0023900D03*
X0238853Y0006900D03*
X0213853Y0023900D03*
X0184853Y0023900D03*
X0184853Y0006900D03*
D38*
X0049603Y0207591D03*
X0049603Y0212709D03*
D39*
X0082353Y0093900D03*
X0082353Y0086900D03*
X0074353Y0090400D03*
X0065353Y0083900D03*
X0065353Y0076900D03*
X0057353Y0080400D03*
X0188603Y0078650D03*
X0188603Y0071650D03*
X0188853Y0063150D03*
X0196853Y0059650D03*
X0188853Y0056150D03*
X0196603Y0075150D03*
D40*
X0147853Y0192400D03*
X0147853Y0201400D03*
X0147853Y0210400D03*
D41*
X0172853Y0201400D03*
D42*
X0082625Y0065916D03*
X0082625Y0063357D03*
X0082625Y0060798D03*
X0082625Y0058239D03*
X0082625Y0055680D03*
X0082625Y0053120D03*
X0082625Y0050561D03*
X0082625Y0048002D03*
X0082625Y0045443D03*
X0082625Y0042884D03*
X0054081Y0042884D03*
X0054081Y0045443D03*
X0054081Y0048002D03*
X0054081Y0050561D03*
X0054081Y0053120D03*
X0054081Y0055680D03*
X0054081Y0058239D03*
X0054081Y0060798D03*
X0054081Y0063357D03*
X0054081Y0065916D03*
D43*
X0057353Y0009400D03*
X0040353Y0009400D03*
D44*
X0219770Y0055400D03*
X0219770Y0065400D03*
X0246936Y0065400D03*
X0246936Y0055400D03*
D45*
X0238353Y0050754D03*
X0233353Y0050754D03*
X0228353Y0050754D03*
X0228353Y0070046D03*
X0233353Y0070046D03*
X0238353Y0070046D03*
D46*
X0267603Y0051996D03*
X0267603Y0045304D03*
X0206353Y0056804D03*
X0206353Y0063496D03*
D47*
X0196949Y0049400D03*
X0190257Y0049400D03*
D48*
X0022478Y0042025D02*
X0020228Y0042025D01*
X0020228Y0044775D01*
X0022478Y0044775D01*
X0022478Y0042025D01*
X0022478Y0042774D02*
X0020228Y0042774D01*
X0020228Y0043523D02*
X0022478Y0043523D01*
X0022478Y0044272D02*
X0020228Y0044272D01*
X0016478Y0042025D02*
X0014228Y0042025D01*
X0014228Y0044775D01*
X0016478Y0044775D01*
X0016478Y0042025D01*
X0016478Y0042774D02*
X0014228Y0042774D01*
X0014228Y0043523D02*
X0016478Y0043523D01*
X0016478Y0044272D02*
X0014228Y0044272D01*
X0016228Y0202775D02*
X0018478Y0202775D01*
X0018478Y0200025D01*
X0016228Y0200025D01*
X0016228Y0202775D01*
X0016228Y0200774D02*
X0018478Y0200774D01*
X0018478Y0201523D02*
X0016228Y0201523D01*
X0016228Y0202272D02*
X0018478Y0202272D01*
X0022228Y0202775D02*
X0024478Y0202775D01*
X0024478Y0200025D01*
X0022228Y0200025D01*
X0022228Y0202775D01*
X0022228Y0200774D02*
X0024478Y0200774D01*
X0024478Y0201523D02*
X0022228Y0201523D01*
X0022228Y0202272D02*
X0024478Y0202272D01*
X0024478Y0211775D02*
X0022228Y0211775D01*
X0024478Y0211775D02*
X0024478Y0209025D01*
X0022228Y0209025D01*
X0022228Y0211775D01*
X0022228Y0209774D02*
X0024478Y0209774D01*
X0024478Y0210523D02*
X0022228Y0210523D01*
X0022228Y0211272D02*
X0024478Y0211272D01*
X0024478Y0220775D02*
X0022228Y0220775D01*
X0024478Y0220775D02*
X0024478Y0218025D01*
X0022228Y0218025D01*
X0022228Y0220775D01*
X0022228Y0218774D02*
X0024478Y0218774D01*
X0024478Y0219523D02*
X0022228Y0219523D01*
X0022228Y0220272D02*
X0024478Y0220272D01*
X0018478Y0220775D02*
X0016228Y0220775D01*
X0018478Y0220775D02*
X0018478Y0218025D01*
X0016228Y0218025D01*
X0016228Y0220775D01*
X0016228Y0218774D02*
X0018478Y0218774D01*
X0018478Y0219523D02*
X0016228Y0219523D01*
X0016228Y0220272D02*
X0018478Y0220272D01*
X0018478Y0211775D02*
X0016228Y0211775D01*
X0018478Y0211775D02*
X0018478Y0209025D01*
X0016228Y0209025D01*
X0016228Y0211775D01*
X0016228Y0209774D02*
X0018478Y0209774D01*
X0018478Y0210523D02*
X0016228Y0210523D01*
X0016228Y0211272D02*
X0018478Y0211272D01*
D49*
X0227207Y0089963D03*
X0227207Y0087404D03*
X0227207Y0084845D03*
X0227207Y0082286D03*
X0244530Y0082286D03*
X0244530Y0084845D03*
X0244530Y0087404D03*
X0244530Y0089963D03*
D50*
X0161353Y0170400D03*
X0046353Y0252400D03*
D51*
X0056353Y0252400D03*
X0066353Y0252400D03*
X0076353Y0252400D03*
X0086353Y0252400D03*
X0096353Y0252400D03*
X0161353Y0160400D03*
X0161353Y0150400D03*
X0161353Y0140400D03*
D52*
X0172853Y0137400D03*
X0181353Y0154400D03*
X0200603Y0164900D03*
X0200603Y0177900D03*
X0215353Y0173650D03*
X0224353Y0182150D03*
X0229353Y0200900D03*
X0239353Y0200900D03*
X0265353Y0204400D03*
X0272103Y0209400D03*
X0239353Y0160650D03*
X0226353Y0148400D03*
X0229353Y0142400D03*
X0240353Y0142400D03*
X0238353Y0126400D03*
X0238353Y0114650D03*
X0238353Y0100400D03*
X0253662Y0093058D03*
X0255353Y0100400D03*
X0244353Y0077400D03*
X0238353Y0063400D03*
X0222353Y0074400D03*
X0221853Y0082400D03*
X0209353Y0081400D03*
X0201353Y0063400D03*
X0185853Y0049400D03*
X0184103Y0056150D03*
X0172603Y0046150D03*
X0175603Y0041150D03*
X0185353Y0036400D03*
X0188353Y0031400D03*
X0178353Y0025150D03*
X0170353Y0025150D03*
X0155853Y0031150D03*
X0135353Y0051400D03*
X0133353Y0055400D03*
X0137353Y0055400D03*
X0135353Y0059400D03*
X0131353Y0059400D03*
X0127353Y0059400D03*
X0125353Y0055400D03*
X0121353Y0055400D03*
X0119353Y0051400D03*
X0123353Y0051400D03*
X0127353Y0051400D03*
X0131353Y0051400D03*
X0129353Y0055400D03*
X0123353Y0059400D03*
X0119353Y0059400D03*
X0117353Y0055400D03*
X0117353Y0063400D03*
X0119353Y0067400D03*
X0123353Y0067400D03*
X0121353Y0063400D03*
X0125353Y0063400D03*
X0129353Y0063400D03*
X0127353Y0067400D03*
X0131353Y0067400D03*
X0129353Y0071400D03*
X0125353Y0071400D03*
X0121353Y0071400D03*
X0117353Y0071400D03*
X0106353Y0080400D03*
X0103353Y0078400D03*
X0100353Y0076400D03*
X0109353Y0082400D03*
X0112353Y0084400D03*
X0115531Y0084400D03*
X0133353Y0071400D03*
X0137353Y0071400D03*
X0135353Y0067400D03*
X0133353Y0063400D03*
X0137353Y0063400D03*
X0132353Y0041150D03*
X0100603Y0031150D03*
X0088353Y0065900D03*
X0079353Y0070400D03*
X0074603Y0063400D03*
X0067353Y0071400D03*
X0062603Y0055650D03*
X0060103Y0048150D03*
X0049225Y0050528D03*
X0046353Y0053150D03*
X0037014Y0039889D03*
X0035020Y0037400D03*
X0023853Y0026900D03*
X0020353Y0030400D03*
X0023853Y0021150D03*
X0028603Y0018900D03*
X0020103Y0017400D03*
X0048353Y0019400D03*
X0023353Y0048900D03*
X0026853Y0054900D03*
X0015353Y0049400D03*
X0025103Y0071150D03*
X0023353Y0081400D03*
X0036853Y0076150D03*
X0036103Y0071150D03*
X0047353Y0089400D03*
X0048353Y0105400D03*
X0055353Y0122400D03*
X0066353Y0127400D03*
X0040353Y0127400D03*
X0036353Y0124400D03*
X0030353Y0124400D03*
X0024353Y0124400D03*
X0019353Y0124400D03*
X0014353Y0124400D03*
X0030603Y0105650D03*
X0040353Y0132400D03*
X0040353Y0138400D03*
X0040353Y0144400D03*
X0040353Y0150400D03*
X0040353Y0156400D03*
X0040353Y0162400D03*
X0045353Y0162400D03*
X0051353Y0162400D03*
X0056353Y0162400D03*
X0061353Y0162400D03*
X0061353Y0168400D03*
X0061353Y0174400D03*
X0061353Y0180400D03*
X0061353Y0186400D03*
X0061353Y0192400D03*
X0061353Y0198400D03*
X0061353Y0204400D03*
X0066353Y0208400D03*
X0071353Y0208400D03*
X0074353Y0221900D03*
X0080353Y0221900D03*
X0086353Y0221900D03*
X0093353Y0221900D03*
X0099353Y0221900D03*
X0105353Y0221900D03*
X0109103Y0218900D03*
X0112353Y0214900D03*
X0112353Y0208900D03*
X0112353Y0202900D03*
X0112353Y0196900D03*
X0112353Y0191650D03*
X0112353Y0186650D03*
X0105103Y0186650D03*
X0105103Y0191650D03*
X0105103Y0196900D03*
X0106353Y0227400D03*
X0105353Y0232400D03*
X0105353Y0237400D03*
X0070853Y0268400D03*
X0071353Y0304400D03*
X0067353Y0221900D03*
X0061353Y0219400D03*
X0054353Y0219400D03*
X0047353Y0219400D03*
X0042353Y0214400D03*
X0042353Y0208400D03*
X0042353Y0202400D03*
X0042353Y0196400D03*
X0042353Y0190400D03*
X0037353Y0190400D03*
X0031353Y0190400D03*
X0025353Y0190400D03*
X0020353Y0190400D03*
X0014353Y0190400D03*
X0042353Y0183400D03*
X0042353Y0176400D03*
X0095353Y0122400D03*
X0099353Y0127400D03*
X0117920Y0106400D03*
X0121353Y0106400D03*
X0126103Y0106400D03*
X0131103Y0106400D03*
X0140353Y0109400D03*
X0146353Y0112400D03*
X0153353Y0115400D03*
X0162103Y0118150D03*
X0168353Y0112400D03*
X0156103Y0101650D03*
X0152353Y0092400D03*
X0154353Y0088400D03*
X0183353Y0071650D03*
X0183353Y0108400D03*
X0205353Y0141400D03*
X0204103Y0150900D03*
X0224353Y0121400D03*
X0265353Y0142400D03*
X0272103Y0137400D03*
X0284353Y0137400D03*
X0281353Y0121900D03*
X0281353Y0118900D03*
X0275353Y0118900D03*
X0275353Y0121900D03*
X0278353Y0111400D03*
X0267353Y0040400D03*
X0259353Y0040400D03*
X0251353Y0031400D03*
X0152353Y0127400D03*
X0132353Y0153400D03*
X0126353Y0153400D03*
X0129353Y0161400D03*
X0153853Y0178150D03*
X0155353Y0191400D03*
X0155353Y0196400D03*
X0160353Y0196400D03*
X0160353Y0191400D03*
X0165353Y0191400D03*
X0165353Y0196400D03*
X0165353Y0206400D03*
X0165353Y0211400D03*
X0160353Y0211400D03*
X0160353Y0206400D03*
X0155353Y0206400D03*
X0155353Y0211400D03*
X0147853Y0214900D03*
X0147853Y0205900D03*
X0178853Y0178150D03*
X0088353Y0092400D03*
X0088103Y0086150D03*
X0088353Y0081400D03*
X0088853Y0076150D03*
D53*
X0053353Y0079400D02*
X0053353Y0094400D01*
X0048353Y0094400D01*
X0053353Y0094400D02*
X0053353Y0114400D01*
X0066353Y0127400D01*
X0099934Y0142306D02*
X0100353Y0142725D01*
X0100353Y0146400D01*
X0104353Y0150400D01*
X0134353Y0150400D01*
X0138353Y0154400D01*
X0138353Y0245150D01*
X0097353Y0286150D01*
X0020853Y0155672D02*
X0019389Y0154208D01*
X0015010Y0154208D01*
X0053353Y0079400D02*
X0050066Y0076113D01*
X0047353Y0076113D01*
X0047353Y0065400D01*
X0162068Y0066215D02*
X0172168Y0066215D01*
X0184603Y0078650D01*
X0188603Y0078650D01*
X0196853Y0059650D02*
X0197103Y0059400D01*
X0196949Y0059554D02*
X0196853Y0059650D01*
X0206257Y0063400D02*
X0206353Y0063496D01*
X0221967Y0082286D02*
X0221853Y0082400D01*
X0221967Y0082286D02*
X0227207Y0082286D01*
X0244353Y0077400D02*
X0244530Y0077577D01*
X0278353Y0114750D02*
X0278353Y0120400D01*
X0162133Y0061150D02*
X0162068Y0061215D01*
D54*
X0184103Y0056150D02*
X0188853Y0056150D01*
X0190257Y0049400D02*
X0185853Y0049400D01*
X0185353Y0036400D02*
X0178353Y0036400D01*
X0170353Y0036400D01*
X0162253Y0036400D01*
X0162068Y0036215D01*
X0162068Y0031215D02*
X0162068Y0031150D01*
X0155853Y0031150D01*
X0170353Y0030400D02*
X0170353Y0025150D01*
X0178353Y0025150D02*
X0178353Y0030400D01*
X0185353Y0036400D02*
X0223353Y0036400D01*
X0229353Y0030400D01*
X0229353Y0025187D01*
X0222353Y0025187D01*
X0203103Y0031400D02*
X0188353Y0031400D01*
X0203103Y0031400D02*
X0203103Y0031900D01*
X0188603Y0071650D02*
X0183353Y0071650D01*
X0209353Y0081400D02*
X0215066Y0081400D01*
X0215103Y0081363D01*
X0238353Y0100400D02*
X0244353Y0100400D01*
X0244530Y0100223D01*
X0244530Y0089963D01*
X0253603Y0087937D02*
X0253603Y0092998D01*
X0253662Y0093058D01*
X0255353Y0100400D02*
X0250353Y0100400D01*
X0244566Y0114650D02*
X0238353Y0114650D01*
X0238353Y0126400D02*
X0230353Y0126400D01*
X0230353Y0129400D01*
X0222353Y0137400D01*
X0255353Y0137400D01*
X0260353Y0132400D01*
X0278353Y0132400D01*
X0284353Y0132400D02*
X0284353Y0137400D01*
X0272117Y0137400D02*
X0272103Y0137400D01*
X0272117Y0137400D02*
X0272117Y0142494D01*
X0272117Y0142400D01*
X0265353Y0142400D01*
X0244816Y0126150D02*
X0244566Y0126400D01*
X0238353Y0126400D01*
X0224353Y0126400D02*
X0224353Y0121400D01*
X0222353Y0137400D02*
X0214353Y0137400D01*
X0172853Y0137400D01*
X0172853Y0183400D01*
X0172853Y0201400D01*
X0178353Y0201400D01*
X0186353Y0193400D01*
X0186353Y0160400D01*
X0194353Y0160400D01*
X0194353Y0167400D01*
X0199353Y0172400D01*
X0201353Y0172400D01*
X0201390Y0172363D01*
X0209353Y0172363D01*
X0213603Y0168113D01*
X0220853Y0168113D01*
X0227066Y0168113D01*
X0228219Y0169266D01*
X0232353Y0169266D01*
X0232353Y0160605D02*
X0239353Y0160605D01*
X0239353Y0160650D01*
X0240353Y0142400D02*
X0234715Y0142400D01*
X0229353Y0142400D01*
X0234715Y0142494D02*
X0234715Y0142400D01*
X0220603Y0143650D02*
X0220603Y0150863D01*
X0220603Y0143650D02*
X0214353Y0137400D01*
X0194353Y0154400D02*
X0186353Y0154400D01*
X0181353Y0154400D01*
X0194353Y0160400D02*
X0200353Y0160400D01*
X0201390Y0159363D01*
X0209353Y0159363D01*
X0178853Y0178150D02*
X0178853Y0183400D01*
X0173353Y0182900D02*
X0172853Y0183400D01*
X0153853Y0183400D02*
X0153853Y0178150D01*
X0147853Y0183400D02*
X0147853Y0192400D01*
X0147853Y0183400D02*
X0147853Y0138900D01*
X0164353Y0122400D01*
X0175353Y0122400D01*
X0183353Y0114400D01*
X0183353Y0108400D01*
X0164353Y0122400D02*
X0095353Y0122400D01*
X0099353Y0127400D02*
X0103353Y0127400D01*
X0152353Y0127400D01*
X0151044Y0101687D02*
X0151044Y0101650D01*
X0156103Y0101650D01*
X0127264Y0061530D02*
X0127353Y0061441D01*
X0127353Y0059400D01*
X0100603Y0031215D02*
X0100603Y0031150D01*
X0100603Y0031215D02*
X0095138Y0031215D01*
X0052603Y0019400D02*
X0048353Y0019400D01*
X0044103Y0019400D01*
X0023853Y0019176D02*
X0023853Y0021150D01*
X0023853Y0019176D02*
X0022103Y0019176D01*
X0022103Y0028624D02*
X0020353Y0028624D01*
X0020353Y0030400D01*
X0021353Y0043400D02*
X0028816Y0043400D01*
X0028853Y0043363D01*
X0028853Y0048937D02*
X0023390Y0048937D01*
X0023353Y0048900D01*
X0028853Y0048937D02*
X0035140Y0048937D01*
X0035353Y0049150D01*
X0036853Y0054900D02*
X0036853Y0060900D01*
X0041353Y0060900D01*
X0041353Y0049150D01*
X0041350Y0049147D01*
X0041350Y0041563D01*
X0042017Y0040896D01*
X0030853Y0054900D02*
X0026853Y0054900D01*
X0030853Y0054900D02*
X0030853Y0060900D01*
X0030503Y0066176D02*
X0034577Y0066176D01*
X0036853Y0063900D01*
X0036853Y0060900D01*
X0041353Y0060900D02*
X0041353Y0108400D01*
X0055353Y0122400D01*
X0048353Y0105400D02*
X0048353Y0100400D01*
X0047353Y0089400D02*
X0047353Y0082687D01*
X0036103Y0071150D02*
X0036103Y0071097D01*
X0030503Y0071097D01*
X0025103Y0071097D01*
X0025103Y0071150D01*
X0015353Y0049400D02*
X0015353Y0043400D01*
X0014353Y0124400D02*
X0014353Y0127391D01*
X0014341Y0127403D01*
X0014341Y0153822D01*
X0014927Y0154408D01*
X0019589Y0154408D01*
X0020853Y0155672D01*
X0020853Y0177128D02*
X0020853Y0178400D01*
X0014353Y0178400D01*
X0014353Y0183297D01*
X0014341Y0183309D01*
X0014341Y0187287D01*
X0014353Y0187298D01*
X0014353Y0190400D01*
X0070853Y0268400D02*
X0070853Y0286150D01*
X0071353Y0286650D01*
X0071353Y0304400D01*
X0147853Y0214900D02*
X0147853Y0210400D01*
X0147853Y0205900D01*
X0112926Y0142306D02*
X0108595Y0142306D01*
X0108595Y0135642D01*
X0108353Y0135400D01*
X0108353Y0132400D01*
X0103353Y0127400D01*
X0112926Y0136827D02*
X0114353Y0135400D01*
X0112926Y0136827D02*
X0112926Y0142306D01*
X0112926Y0140973D01*
X0229103Y0200762D02*
X0229353Y0200900D01*
X0229103Y0200762D02*
X0234322Y0200762D01*
X0239353Y0200762D01*
X0239353Y0200900D01*
X0265353Y0204306D02*
X0265353Y0204400D01*
X0265353Y0204306D02*
X0272117Y0204306D01*
X0272117Y0209400D01*
X0272103Y0209400D01*
X0267603Y0045304D02*
X0267603Y0040650D01*
X0267353Y0040400D01*
X0259353Y0040400D02*
X0259353Y0045400D01*
X0256853Y0031900D02*
X0256853Y0031400D01*
X0251353Y0031400D01*
D55*
X0244707Y0050754D02*
X0238353Y0050754D01*
X0233353Y0050754D01*
X0228353Y0050754D01*
X0226999Y0049400D01*
X0216353Y0049400D01*
X0213353Y0052400D01*
X0213353Y0070400D01*
X0208603Y0075150D01*
X0196603Y0075150D01*
X0192353Y0082400D02*
X0183353Y0082400D01*
X0172168Y0071215D01*
X0162068Y0071215D01*
X0162068Y0076215D02*
X0173168Y0076215D01*
X0181353Y0084400D01*
X0191353Y0084400D01*
X0200353Y0093400D01*
X0231353Y0093400D01*
X0239908Y0084845D01*
X0244530Y0084845D01*
X0244530Y0087404D01*
X0244530Y0082286D02*
X0253526Y0082286D01*
X0253603Y0082363D01*
X0244530Y0082286D02*
X0244530Y0077577D01*
X0238353Y0070046D02*
X0238353Y0063400D01*
X0233353Y0070046D02*
X0233353Y0082400D01*
X0230908Y0084845D01*
X0227207Y0084845D01*
X0222928Y0084845D01*
X0222884Y0084889D01*
X0222864Y0084889D01*
X0220816Y0086937D01*
X0215103Y0086937D01*
X0219353Y0091400D02*
X0220790Y0089963D01*
X0227207Y0089963D01*
X0227207Y0087404D01*
X0219353Y0091400D02*
X0201353Y0091400D01*
X0192353Y0082400D01*
X0188853Y0063150D02*
X0178103Y0063150D01*
X0176103Y0061150D01*
X0162133Y0061150D01*
X0162068Y0081215D02*
X0171168Y0081215D01*
X0196353Y0106400D01*
X0246353Y0106400D01*
X0250140Y0110187D01*
X0250140Y0114650D01*
X0274316Y0114650D01*
X0274416Y0114750D01*
X0278353Y0114750D02*
X0278353Y0111400D01*
X0278353Y0126050D02*
X0278353Y0132400D01*
X0274316Y0126150D02*
X0274416Y0126050D01*
X0274316Y0126150D02*
X0250390Y0126150D01*
X0250390Y0122437D01*
X0248353Y0120400D01*
X0238353Y0120400D01*
X0227353Y0109400D01*
X0194353Y0109400D01*
X0171168Y0086215D01*
X0162068Y0086215D01*
X0162068Y0091215D02*
X0166168Y0091215D01*
X0168353Y0093400D01*
X0168353Y0112400D01*
X0162068Y0113115D02*
X0162103Y0118150D01*
X0162068Y0113115D02*
X0162068Y0096215D01*
X0162353Y0096500D01*
X0162253Y0091400D02*
X0162068Y0091215D01*
X0154353Y0088400D02*
X0100353Y0088400D01*
X0098353Y0090400D01*
X0095953Y0090400D01*
X0095138Y0091215D01*
X0095138Y0086215D02*
X0088168Y0086215D01*
X0088103Y0086150D01*
X0088353Y0081400D02*
X0094953Y0081400D01*
X0095138Y0081215D01*
X0095138Y0076215D02*
X0088918Y0076215D01*
X0088853Y0076150D01*
X0095323Y0066400D02*
X0095138Y0066215D01*
X0088353Y0065916D02*
X0088353Y0065900D01*
X0088353Y0065916D02*
X0082625Y0065916D01*
X0095138Y0056215D02*
X0095323Y0056400D01*
X0095323Y0041400D02*
X0095138Y0041215D01*
X0060103Y0048002D02*
X0060103Y0048150D01*
X0060103Y0048002D02*
X0054081Y0048002D01*
X0053871Y0050528D02*
X0053993Y0050650D01*
X0054081Y0050561D01*
X0053871Y0050528D02*
X0049225Y0050528D01*
X0052052Y0053150D02*
X0046353Y0053150D01*
X0051073Y0055680D02*
X0047353Y0059400D01*
X0047353Y0065400D01*
X0051073Y0055680D02*
X0054081Y0055680D01*
X0054081Y0053120D02*
X0052052Y0053150D01*
X0037014Y0039889D02*
X0031409Y0039889D01*
X0027276Y0035756D01*
X0027276Y0026477D01*
X0029853Y0023900D01*
X0033422Y0023900D01*
X0033422Y0026459D02*
X0030294Y0026459D01*
X0029076Y0027677D01*
X0029076Y0035011D01*
X0031465Y0037400D01*
X0035020Y0037400D01*
X0033422Y0029018D02*
X0039638Y0029018D01*
X0042017Y0031397D01*
X0042017Y0033896D01*
X0033422Y0018782D02*
X0028721Y0018782D01*
X0028603Y0018900D01*
X0030503Y0076018D02*
X0036721Y0076018D01*
X0036853Y0076150D01*
X0033814Y0085861D02*
X0030503Y0085861D01*
X0033814Y0085861D02*
X0036140Y0088187D01*
X0036140Y0113400D01*
X0030566Y0113400D02*
X0030566Y0105687D01*
X0030603Y0105650D01*
X0030503Y0090782D02*
X0026735Y0090782D01*
X0023353Y0087400D01*
X0023353Y0081400D01*
X0095138Y0096215D02*
X0095953Y0095400D01*
X0098353Y0095400D01*
X0101353Y0092400D01*
X0152353Y0092400D01*
X0146044Y0101687D02*
X0146044Y0106091D01*
X0153353Y0115400D01*
X0146353Y0112400D02*
X0146353Y0111400D01*
X0140353Y0105400D01*
X0137353Y0105400D01*
X0133353Y0109400D01*
X0115353Y0109400D01*
X0111044Y0105091D01*
X0111044Y0101687D01*
X0106044Y0101687D02*
X0106044Y0105091D01*
X0113353Y0112400D01*
X0137353Y0112400D01*
X0140353Y0109400D01*
X0196949Y0059554D02*
X0196949Y0049400D01*
X0202949Y0056804D02*
X0206353Y0056804D01*
X0202949Y0056804D02*
X0200353Y0059400D01*
X0197103Y0059400D01*
X0201353Y0063400D02*
X0206257Y0063400D01*
X0219770Y0065400D02*
X0219770Y0071817D01*
X0222353Y0074400D01*
X0228353Y0070046D02*
X0228353Y0064400D01*
X0232353Y0060400D01*
X0253353Y0060400D01*
X0256353Y0057400D01*
X0263353Y0057400D01*
X0267603Y0053150D01*
X0267603Y0051996D01*
X0259353Y0051400D02*
X0256353Y0051400D01*
X0252353Y0055400D01*
X0246936Y0055400D01*
X0246936Y0052983D01*
X0244707Y0050754D01*
X0205353Y0141400D02*
X0205353Y0143400D01*
X0207316Y0145363D01*
X0209353Y0145363D01*
X0209353Y0150937D02*
X0212890Y0150937D01*
X0218390Y0156437D01*
X0220603Y0156437D01*
X0220640Y0156400D01*
X0232227Y0156400D01*
X0232353Y0156274D01*
X0232146Y0152150D02*
X0232353Y0151943D01*
X0227896Y0151943D01*
X0226353Y0150400D01*
X0226353Y0148400D01*
X0231810Y0151400D02*
X0232353Y0151943D01*
X0224353Y0162400D02*
X0226888Y0164935D01*
X0232353Y0164935D01*
X0224353Y0162400D02*
X0217353Y0162400D01*
X0214816Y0164937D01*
X0209353Y0164937D01*
X0209316Y0164900D01*
X0200603Y0164900D01*
X0200603Y0177900D02*
X0209316Y0177900D01*
X0209353Y0177937D01*
X0232344Y0177937D01*
X0232353Y0177928D01*
X0232263Y0173687D02*
X0232353Y0173597D01*
X0232263Y0173687D02*
X0220853Y0173687D01*
X0220816Y0173650D01*
X0215353Y0173650D01*
X0224353Y0182150D02*
X0224461Y0182258D01*
X0232353Y0182258D01*
X0232211Y0182400D01*
X0209353Y0150937D02*
X0204140Y0150937D01*
X0204103Y0150900D01*
X0108595Y0180494D02*
X0108595Y0214158D01*
X0104353Y0218400D01*
X0075353Y0218400D01*
X0073572Y0216619D01*
X0070572Y0216619D01*
X0070572Y0214650D02*
X0074603Y0214650D01*
X0076353Y0216400D01*
X0099640Y0216400D01*
X0103353Y0212687D01*
X0103353Y0207113D02*
X0103353Y0201400D01*
X0099934Y0197981D01*
X0099934Y0180494D01*
X0095603Y0180494D02*
X0095603Y0207113D01*
X0095603Y0212650D02*
X0095603Y0212687D01*
X0095603Y0212650D02*
X0086603Y0212650D01*
X0078853Y0212650D01*
X0070572Y0212650D01*
X0070572Y0212681D01*
X0066634Y0212750D02*
X0066634Y0212681D01*
X0066634Y0212750D02*
X0059353Y0212750D01*
X0059353Y0212709D01*
X0049603Y0212709D01*
X0049603Y0212750D01*
X0049603Y0207591D02*
X0049603Y0201400D01*
X0049603Y0195400D02*
X0049603Y0188650D01*
X0049603Y0181900D01*
X0049603Y0175900D02*
X0049603Y0169150D01*
X0049603Y0169156D01*
X0026857Y0169156D01*
D56*
X0147853Y0201400D02*
X0172853Y0201400D01*
D57*
X0276353Y0298900D03*
X0261353Y0067900D03*
X0068853Y0016400D03*
X0026353Y0273900D03*
M02*
