%
M48
M72
T01C0.01378
T02C0.02000
T03C0.02500
T04C0.03150
T05C0.03500
T06C0.03543
T07C0.04500
T08C0.11024
%
T01
X14353Y124400
X19353Y124400
X24353Y124400
X30353Y124400
X36353Y124400
X40353Y127400
X40353Y132400
X40353Y138400
X40353Y144400
X40353Y150400
X40353Y156400
X40353Y162400
X45353Y162400
X51353Y162400
X56353Y162400
X61353Y162400
X61353Y168400
X61353Y174400
X61353Y180400
X61353Y186400
X61353Y192400
X61353Y198400
X61353Y204400
X66353Y208400
X71353Y208400
X74353Y221900
X80353Y221900
X86353Y221900
X93353Y221900
X99353Y221900
X105353Y221900
X109103Y218900
X112353Y214900
X112353Y208900
X112353Y202900
X112353Y196900
X112353Y191650
X112353Y186650
X105103Y186650
X105103Y191650
X105103Y196900
X106353Y227400
X105353Y232400
X105353Y237400
X70853Y268400
X71353Y304400
X20103Y17400
X23853Y21150
X28603Y18900
X23853Y26900
X20353Y30400
X35020Y37400
X37014Y39889
X49225Y50528
X46353Y53150
X60103Y48150
X62603Y55650
X74603Y63400
X79353Y70400
X88353Y65900
X88853Y76150
X88353Y81400
X88103Y86150
X88353Y92400
X100353Y76400
X103353Y78400
X106353Y80400
X109353Y82400
X112353Y84400
X115531Y84400
X117353Y71400
X119353Y67400
X123353Y67400
X121353Y63400
X125353Y63400
X129353Y63400
X127353Y67400
X131353Y67400
X129353Y71400
X125353Y71400
X121353Y71400
X117353Y63400
X119353Y59400
X123353Y59400
X121353Y55400
X125353Y55400
X129353Y55400
X127353Y51400
X131353Y51400
X133353Y55400
X137353Y55400
X135353Y51400
X135353Y59400
X131353Y59400
X127353Y59400
X133353Y63400
X137353Y63400
X135353Y67400
X133353Y71400
X137353Y71400
X154353Y88400
X152353Y92400
X156103Y101650
X153353Y115400
X146353Y112400
X140353Y109400
X131103Y106400
X126103Y106400
X121353Y106400
X117920Y106400
X99353Y127400
X95353Y122400
X66353Y127400
X55353Y122400
X48353Y105400
X47353Y89400
X36853Y76150
X36103Y71150
X25103Y71150
X23353Y81400
X30603Y105650
X67353Y71400
X26853Y54900
X23353Y48900
X15353Y49400
X48353Y19400
X100603Y31150
X119353Y51400
X123353Y51400
X117353Y55400
X132353Y41150
X155853Y31150
X170353Y25150
X178353Y25150
X188353Y31400
X185353Y36400
X175603Y41150
X172603Y46150
X184103Y56150
X185853Y49400
X201353Y63400
X209353Y81400
X221853Y82400
X222353Y74400
X238353Y63400
X244353Y77400
X253662Y93058
X255353Y100400
X238353Y100400
X238353Y114650
X238353Y126400
X224353Y121400
X229353Y142400
X226353Y148400
X240353Y142400
X239353Y160650
X224353Y182150
X215353Y173650
X200603Y177900
X200603Y164900
X204103Y150900
X205353Y141400
X181353Y154400
X172853Y137400
X162103Y118150
X168353Y112400
X183353Y108400
X152353Y127400
X132353Y153400
X126353Y153400
X129353Y161400
X153853Y178150
X155353Y191400
X155353Y196400
X160353Y196400
X160353Y191400
X165353Y191400
X165353Y196400
X165353Y206400
X165353Y211400
X160353Y211400
X160353Y206400
X155353Y206400
X155353Y211400
X147853Y214900
X147853Y205900
X178853Y178150
X229353Y200900
X239353Y200900
X265353Y204400
X272103Y209400
X265353Y142400
X272103Y137400
X284353Y137400
X281353Y121900
X281353Y118900
X275353Y118900
X275353Y121900
X278353Y111400
X267353Y40400
X259353Y40400
X251353Y31400
X183353Y71650
X61353Y219400
X67353Y221900
X54353Y219400
X47353Y219400
X42353Y214400
X42353Y208400
X42353Y202400
X42353Y196400
X42353Y190400
X37353Y190400
X31353Y190400
X25353Y190400
X20353Y190400
X14353Y190400
X42353Y176400
X42353Y183400
T02
X20003Y9628
X21103Y9650
X22003Y9628
X23103Y9650
X24003Y9628
X23103Y38150
X24003Y38172
X22003Y38172
X20853Y38150
X20003Y38172
T03
X44353Y286150
X97353Y286150
T04
X32851Y14353
X32851Y33447
T05
X161353Y140400
X161353Y150400
X161353Y160400
X161353Y170400
X96353Y252400
X86353Y252400
X76353Y252400
X66353Y252400
X56353Y252400
X46353Y252400
T06
X273692Y153912
X273692Y185408
T07
X184853Y6900
X184853Y23900
X213853Y23900
X213853Y6900
X238853Y6900
X238853Y23900
X267853Y23900
X267853Y6900
T08
X68853Y16400
X261353Y67900
X276353Y298900
X26353Y273900
M30
