G75*
%MOIN*%
%OFA0B0*%
%FSLAX25Y25*%
%IPPOS*%
%LPD*%
%AMOC8*
5,1,8,0,0,1.08239X$1,22.5*
%
%ADD10C,0.00600*%
%ADD11C,0.00300*%
%ADD12R,0.01330X0.00333*%
%ADD13R,0.16670X0.00334*%
%ADD14R,0.04340X0.00334*%
%ADD15R,0.03660X0.00334*%
%ADD16R,0.04000X0.00334*%
%ADD17R,0.03670X0.00334*%
%ADD18R,0.03000X0.00334*%
%ADD19R,0.03340X0.00334*%
%ADD20R,0.17330X0.00333*%
%ADD21R,0.05660X0.00333*%
%ADD22R,0.02000X0.00333*%
%ADD23R,0.04670X0.00333*%
%ADD24R,0.02330X0.00333*%
%ADD25R,0.02340X0.00333*%
%ADD26R,0.18000X0.00333*%
%ADD27R,0.01670X0.00333*%
%ADD28R,0.01660X0.00333*%
%ADD29R,0.18670X0.00334*%
%ADD30R,0.02330X0.00334*%
%ADD31R,0.01330X0.00334*%
%ADD32R,0.01660X0.00334*%
%ADD33R,0.01340X0.00334*%
%ADD34R,0.01000X0.00334*%
%ADD35R,0.01670X0.00334*%
%ADD36R,0.19330X0.00333*%
%ADD37R,0.01000X0.00333*%
%ADD38R,0.01340X0.00333*%
%ADD39R,0.20000X0.00333*%
%ADD40R,0.20670X0.00334*%
%ADD41R,0.21330X0.00333*%
%ADD42R,0.22000X0.00333*%
%ADD43R,0.22670X0.00334*%
%ADD44R,0.23330X0.00333*%
%ADD45R,0.24000X0.00333*%
%ADD46R,0.00330X0.00333*%
%ADD47R,0.05000X0.00333*%
%ADD48R,0.24670X0.00334*%
%ADD49R,0.00670X0.00334*%
%ADD50R,0.05000X0.00334*%
%ADD51R,0.25330X0.00333*%
%ADD52R,0.00670X0.00333*%
%ADD53R,0.26000X0.00333*%
%ADD54R,0.26670X0.00334*%
%ADD55R,0.04330X0.00334*%
%ADD56R,0.08000X0.00334*%
%ADD57R,0.27330X0.00333*%
%ADD58R,0.04330X0.00333*%
%ADD59R,0.08000X0.00333*%
%ADD60R,0.28000X0.00333*%
%ADD61R,0.28670X0.00334*%
%ADD62R,0.29330X0.00333*%
%ADD63R,0.29330X0.00334*%
%ADD64R,0.00660X0.00334*%
%ADD65R,0.00330X0.00334*%
%ADD66R,0.00660X0.00333*%
%ADD67R,0.02000X0.00334*%
%ADD68R,0.04660X0.00334*%
%ADD69R,0.05330X0.00333*%
%ADD70R,0.03330X0.00333*%
%ADD71R,0.03340X0.00333*%
%ADD72R,0.03660X0.00333*%
%ADD73R,0.10000X0.00334*%
%ADD74R,0.10000X0.00333*%
%ADD75R,0.03670X0.00333*%
%ADD76R,0.03000X0.00333*%
%ADD77R,0.02670X0.00333*%
%ADD78R,0.04660X0.00333*%
%ADD79R,0.05340X0.00333*%
%ADD80R,0.02660X0.00333*%
%ADD81R,0.04340X0.00333*%
%ADD82R,0.00340X0.00333*%
%ADD83R,0.02340X0.00334*%
%ADD84R,0.00340X0.00334*%
%ADD85R,0.04000X0.00333*%
%ADD86R,0.02660X0.00334*%
%ADD87R,0.16670X0.00333*%
%ADD88R,0.16330X0.00333*%
%ADD89R,0.16330X0.00334*%
%ADD90R,0.03330X0.00334*%
%ADD91R,0.05660X0.00334*%
%ADD92R,0.04670X0.00334*%
%ADD93R,0.02670X0.00334*%
%ADD94R,0.05330X0.00334*%
%ADD95R,0.06000X0.00334*%
%ADD96R,0.06670X0.00333*%
%ADD97R,0.07000X0.00334*%
%ADD98C,0.00500*%
%ADD99C,0.00787*%
%ADD100C,0.00000*%
%ADD101C,0.00400*%
%ADD102C,0.02000*%
%ADD103R,0.10000X0.05000*%
%ADD104R,0.02835X0.10000*%
%ADD105C,0.00800*%
%ADD106C,0.03150*%
%ADD107C,0.01000*%
D10*
X0011353Y0001400D02*
X0011353Y0161900D01*
X0022103Y0161900D01*
X0022103Y0170900D01*
X0011353Y0170900D01*
X0011353Y0313900D01*
X0291353Y0313900D01*
X0291353Y0001400D01*
X0011353Y0001400D01*
X0019346Y0046862D02*
X0019346Y0049798D01*
X0021547Y0049064D02*
X0017144Y0049064D01*
X0019346Y0046862D01*
X0028887Y0199200D02*
X0028153Y0199934D01*
X0028887Y0199200D02*
X0030355Y0199200D01*
X0031089Y0199934D01*
X0031089Y0200668D01*
X0030355Y0201402D01*
X0029621Y0201402D01*
X0030355Y0201402D02*
X0031089Y0202136D01*
X0031089Y0202870D01*
X0030355Y0203604D01*
X0028887Y0203604D01*
X0028153Y0202870D01*
X0028153Y0208200D02*
X0031089Y0211136D01*
X0031089Y0211870D01*
X0030355Y0212604D01*
X0028887Y0212604D01*
X0028153Y0211870D01*
X0028153Y0208200D02*
X0031089Y0208200D01*
X0031089Y0217200D02*
X0028153Y0217200D01*
X0029621Y0217200D02*
X0029621Y0221604D01*
X0028153Y0220136D01*
X0174649Y0025552D02*
X0174649Y0022616D01*
X0174649Y0024084D02*
X0179053Y0024084D01*
X0179053Y0020948D02*
X0179053Y0018012D01*
X0174649Y0018012D01*
X0174649Y0020948D01*
X0176851Y0019480D02*
X0176851Y0018012D01*
X0177585Y0016344D02*
X0178319Y0016344D01*
X0179053Y0015610D01*
X0179053Y0014142D01*
X0178319Y0013408D01*
X0176851Y0014142D02*
X0176851Y0015610D01*
X0177585Y0016344D01*
X0175383Y0016344D02*
X0174649Y0015610D01*
X0174649Y0014142D01*
X0175383Y0013408D01*
X0176117Y0013408D01*
X0176851Y0014142D01*
X0174649Y0011740D02*
X0174649Y0008804D01*
X0179053Y0008804D01*
X0179053Y0011740D01*
X0176851Y0010272D02*
X0176851Y0008804D01*
X0176851Y0007136D02*
X0177585Y0006402D01*
X0177585Y0004200D01*
X0177585Y0005668D02*
X0179053Y0007136D01*
X0176851Y0007136D02*
X0175383Y0007136D01*
X0174649Y0006402D01*
X0174649Y0004200D01*
X0179053Y0004200D01*
X0274649Y0004576D02*
X0274649Y0006778D01*
X0275383Y0007512D01*
X0276851Y0007512D01*
X0277585Y0006778D01*
X0277585Y0004576D01*
X0279053Y0004576D02*
X0274649Y0004576D01*
X0277585Y0006044D02*
X0279053Y0007512D01*
X0279053Y0009180D02*
X0279053Y0012116D01*
X0279053Y0013784D02*
X0274649Y0013784D01*
X0274649Y0012116D02*
X0274649Y0009180D01*
X0279053Y0009180D01*
X0276851Y0009180D02*
X0276851Y0010648D01*
X0279053Y0013784D02*
X0279053Y0016720D01*
X0278319Y0018388D02*
X0279053Y0019122D01*
X0279053Y0020590D01*
X0278319Y0021324D01*
X0275383Y0021324D01*
X0274649Y0020590D01*
X0274649Y0019122D01*
X0275383Y0018388D01*
X0278319Y0018388D01*
X0279053Y0022992D02*
X0276117Y0022992D01*
X0274649Y0024460D01*
X0276117Y0025928D01*
X0279053Y0025928D01*
X0279053Y0027596D02*
X0279053Y0029798D01*
X0278319Y0030532D01*
X0275383Y0030532D01*
X0274649Y0029798D01*
X0274649Y0027596D01*
X0279053Y0027596D01*
X0276851Y0025928D02*
X0276851Y0022992D01*
D11*
X0273953Y0044300D02*
X0271051Y0044300D01*
X0271051Y0045751D01*
X0271534Y0046235D01*
X0272502Y0046235D01*
X0272986Y0045751D01*
X0272986Y0044300D01*
X0272986Y0045267D02*
X0273953Y0046235D01*
X0273953Y0047247D02*
X0272018Y0049181D01*
X0271534Y0049181D01*
X0271051Y0048698D01*
X0271051Y0047730D01*
X0271534Y0047247D01*
X0273953Y0047247D02*
X0273953Y0049181D01*
X0273953Y0050193D02*
X0273953Y0052128D01*
X0273953Y0051161D02*
X0271051Y0051161D01*
X0272018Y0050193D01*
X0272972Y0061550D02*
X0272972Y0065253D01*
X0274186Y0064019D02*
X0275421Y0065253D01*
X0275421Y0061550D01*
X0276655Y0061550D02*
X0274186Y0061550D01*
X0272972Y0063402D02*
X0270503Y0063402D01*
X0270503Y0065253D02*
X0270503Y0061550D01*
X0235290Y0093632D02*
X0234806Y0093148D01*
X0233839Y0093148D01*
X0233355Y0093632D01*
X0233355Y0094116D01*
X0233839Y0094600D01*
X0234806Y0094600D01*
X0235290Y0094116D01*
X0235290Y0093632D01*
X0234806Y0094600D02*
X0235290Y0095083D01*
X0235290Y0095567D01*
X0234806Y0096051D01*
X0233839Y0096051D01*
X0233355Y0095567D01*
X0233355Y0095083D01*
X0233839Y0094600D01*
X0232343Y0093632D02*
X0232343Y0096051D01*
X0230409Y0096051D02*
X0230409Y0093632D01*
X0230892Y0093148D01*
X0231860Y0093148D01*
X0232343Y0093632D01*
X0267421Y0116701D02*
X0269840Y0116701D01*
X0270324Y0117185D01*
X0270324Y0118152D01*
X0269840Y0118636D01*
X0267421Y0118636D01*
X0268389Y0119647D02*
X0267421Y0120615D01*
X0270324Y0120615D01*
X0270324Y0121582D02*
X0270324Y0119647D01*
X0207419Y0052788D02*
X0207903Y0052305D01*
X0207903Y0051337D01*
X0207419Y0050853D01*
X0207903Y0049842D02*
X0207903Y0047907D01*
X0205968Y0049842D01*
X0205484Y0049842D01*
X0205001Y0049358D01*
X0205001Y0048391D01*
X0205484Y0047907D01*
X0205484Y0046895D02*
X0206452Y0046895D01*
X0206936Y0046412D01*
X0206936Y0044960D01*
X0207903Y0044960D02*
X0205001Y0044960D01*
X0205001Y0046412D01*
X0205484Y0046895D01*
X0206936Y0045928D02*
X0207903Y0046895D01*
X0205484Y0050853D02*
X0205001Y0051337D01*
X0205001Y0052305D01*
X0205484Y0052788D01*
X0205968Y0052788D01*
X0206452Y0052305D01*
X0206936Y0052788D01*
X0207419Y0052788D01*
X0206452Y0052305D02*
X0206452Y0051821D01*
X0196597Y0045952D02*
X0196597Y0043050D01*
X0197081Y0044501D02*
X0195146Y0044501D01*
X0196597Y0045952D01*
X0194134Y0045469D02*
X0193651Y0045952D01*
X0192683Y0045952D01*
X0192200Y0045469D01*
X0191188Y0045469D02*
X0191188Y0044501D01*
X0190704Y0044017D01*
X0189253Y0044017D01*
X0189253Y0043050D02*
X0189253Y0045952D01*
X0190704Y0045952D01*
X0191188Y0045469D01*
X0190220Y0044017D02*
X0191188Y0043050D01*
X0192200Y0043050D02*
X0194134Y0044985D01*
X0194134Y0045469D01*
X0194134Y0043050D02*
X0192200Y0043050D01*
X0218484Y0043034D02*
X0218968Y0042550D01*
X0219935Y0042550D01*
X0220419Y0043034D01*
X0220419Y0045452D01*
X0221430Y0044969D02*
X0221430Y0044485D01*
X0221914Y0044001D01*
X0223365Y0044001D01*
X0223365Y0043034D02*
X0223365Y0044969D01*
X0222882Y0045452D01*
X0221914Y0045452D01*
X0221430Y0044969D01*
X0221430Y0043034D02*
X0221914Y0042550D01*
X0222882Y0042550D01*
X0223365Y0043034D01*
X0218484Y0043034D02*
X0218484Y0045452D01*
X0082655Y0009636D02*
X0082655Y0009019D01*
X0082038Y0008402D01*
X0082655Y0007784D01*
X0082655Y0007167D01*
X0082038Y0006550D01*
X0080803Y0006550D01*
X0080186Y0007167D01*
X0078972Y0006550D02*
X0078972Y0010253D01*
X0080186Y0009636D02*
X0080803Y0010253D01*
X0082038Y0010253D01*
X0082655Y0009636D01*
X0082038Y0008402D02*
X0081421Y0008402D01*
X0078972Y0008402D02*
X0076503Y0008402D01*
X0076503Y0010253D02*
X0076503Y0006550D01*
X0053895Y0068050D02*
X0051960Y0068050D01*
X0053895Y0069985D01*
X0053895Y0070469D01*
X0053411Y0070952D01*
X0052444Y0070952D01*
X0051960Y0070469D01*
X0050949Y0070952D02*
X0050949Y0068534D01*
X0050465Y0068050D01*
X0049497Y0068050D01*
X0049014Y0068534D01*
X0049014Y0070952D01*
X0018139Y0117180D02*
X0017172Y0117180D01*
X0016688Y0117664D01*
X0016688Y0118631D01*
X0018139Y0118631D01*
X0018623Y0118147D01*
X0018623Y0117664D01*
X0018139Y0117180D01*
X0016688Y0118631D02*
X0017656Y0119599D01*
X0018623Y0120082D01*
X0015677Y0120082D02*
X0015677Y0117664D01*
X0015193Y0117180D01*
X0014225Y0117180D01*
X0013742Y0117664D01*
X0013742Y0120082D01*
X0031579Y0158676D02*
X0030612Y0159643D01*
X0031579Y0160611D01*
X0033514Y0160611D01*
X0033514Y0161623D02*
X0030612Y0161623D01*
X0033514Y0163557D01*
X0030612Y0163557D01*
X0030612Y0164569D02*
X0030612Y0166504D01*
X0030612Y0165537D02*
X0033514Y0165537D01*
X0033514Y0167516D02*
X0033514Y0169451D01*
X0033514Y0168483D02*
X0030612Y0168483D01*
X0031579Y0167516D01*
X0032063Y0160611D02*
X0032063Y0158676D01*
X0031579Y0158676D02*
X0033514Y0158676D01*
X0071266Y0174318D02*
X0073685Y0174318D01*
X0074169Y0174802D01*
X0074169Y0175770D01*
X0073685Y0176253D01*
X0071266Y0176253D01*
X0071266Y0177265D02*
X0072718Y0177265D01*
X0072234Y0178232D01*
X0072234Y0178716D01*
X0072718Y0179200D01*
X0073685Y0179200D01*
X0074169Y0178716D01*
X0074169Y0177749D01*
X0073685Y0177265D01*
X0071266Y0177265D02*
X0071266Y0179200D01*
X0046953Y0206800D02*
X0046953Y0208735D01*
X0046953Y0209747D02*
X0045018Y0211681D01*
X0044534Y0211681D01*
X0044051Y0211198D01*
X0044051Y0210230D01*
X0044534Y0209747D01*
X0046953Y0209747D02*
X0046953Y0211681D01*
X0046953Y0206800D02*
X0044051Y0206800D01*
X0039038Y0263550D02*
X0039038Y0267253D01*
X0037186Y0265402D01*
X0039655Y0265402D01*
X0035972Y0265402D02*
X0033503Y0265402D01*
X0033503Y0267253D02*
X0033503Y0263550D01*
X0035972Y0263550D02*
X0035972Y0267253D01*
X0134824Y0267857D02*
X0137293Y0267857D01*
X0138507Y0268474D02*
X0139124Y0269091D01*
X0140976Y0269091D01*
X0140976Y0269708D02*
X0140976Y0267857D01*
X0139124Y0267857D01*
X0138507Y0268474D01*
X0139124Y0270325D02*
X0140359Y0270325D01*
X0140976Y0269708D01*
X0142190Y0270325D02*
X0144042Y0270325D01*
X0144659Y0269708D01*
X0144659Y0268474D01*
X0144042Y0267857D01*
X0142190Y0267857D01*
X0142190Y0271560D01*
X0145873Y0269708D02*
X0145873Y0268474D01*
X0146491Y0267857D01*
X0147725Y0267857D01*
X0148342Y0268474D01*
X0148342Y0269708D01*
X0147725Y0270325D01*
X0146491Y0270325D01*
X0145873Y0269708D01*
X0149557Y0269091D02*
X0150791Y0270325D01*
X0151408Y0270325D01*
X0153243Y0270325D02*
X0154477Y0270325D01*
X0155095Y0269708D01*
X0155095Y0267857D01*
X0153243Y0267857D01*
X0152626Y0268474D01*
X0153243Y0269091D01*
X0155095Y0269091D01*
X0156309Y0270325D02*
X0157543Y0270325D01*
X0156926Y0270943D02*
X0156926Y0268474D01*
X0157543Y0267857D01*
X0158764Y0268474D02*
X0159382Y0267857D01*
X0160616Y0267857D01*
X0161233Y0268474D01*
X0161233Y0269708D01*
X0160616Y0270325D01*
X0159382Y0270325D01*
X0158764Y0269708D01*
X0158764Y0268474D01*
X0162448Y0269091D02*
X0163682Y0270325D01*
X0164299Y0270325D01*
X0165517Y0270325D02*
X0165517Y0268474D01*
X0166134Y0267857D01*
X0167986Y0267857D01*
X0167986Y0267240D02*
X0167368Y0266622D01*
X0166751Y0266622D01*
X0167986Y0267240D02*
X0167986Y0270325D01*
X0172883Y0269708D02*
X0174118Y0269708D01*
X0175339Y0269708D02*
X0175339Y0268474D01*
X0175956Y0267857D01*
X0177190Y0267857D01*
X0177807Y0268474D01*
X0177807Y0269708D01*
X0177190Y0270325D01*
X0175956Y0270325D01*
X0175339Y0269708D01*
X0173500Y0270943D02*
X0173500Y0267857D01*
X0173500Y0270943D02*
X0174118Y0271560D01*
X0179022Y0270325D02*
X0179022Y0267857D01*
X0179022Y0269091D02*
X0180256Y0270325D01*
X0180873Y0270325D01*
X0185774Y0271560D02*
X0188243Y0267857D01*
X0188243Y0271560D01*
X0190074Y0270325D02*
X0191309Y0270325D01*
X0191926Y0269708D01*
X0191926Y0267857D01*
X0190074Y0267857D01*
X0189457Y0268474D01*
X0190074Y0269091D01*
X0191926Y0269091D01*
X0193140Y0267857D02*
X0193140Y0270325D01*
X0194992Y0270325D01*
X0195609Y0269708D01*
X0195609Y0267857D01*
X0196824Y0268474D02*
X0197441Y0267857D01*
X0198675Y0267857D01*
X0199292Y0268474D01*
X0199292Y0269708D01*
X0198675Y0270325D01*
X0197441Y0270325D01*
X0196824Y0269708D01*
X0196824Y0268474D01*
X0200507Y0269708D02*
X0202975Y0269708D01*
X0204190Y0267857D02*
X0205424Y0267857D01*
X0204807Y0267857D02*
X0204807Y0271560D01*
X0204190Y0271560D02*
X0205424Y0271560D01*
X0206645Y0270325D02*
X0208497Y0270325D01*
X0209114Y0269708D01*
X0209114Y0267857D01*
X0210946Y0268474D02*
X0211563Y0267857D01*
X0210946Y0268474D02*
X0210946Y0270943D01*
X0210328Y0270325D02*
X0211563Y0270325D01*
X0212784Y0269708D02*
X0213401Y0270325D01*
X0214635Y0270325D01*
X0215253Y0269708D01*
X0215253Y0269091D01*
X0212784Y0269091D01*
X0212784Y0268474D02*
X0212784Y0269708D01*
X0212784Y0268474D02*
X0213401Y0267857D01*
X0214635Y0267857D01*
X0216467Y0268474D02*
X0217084Y0267857D01*
X0218936Y0267857D01*
X0218936Y0267240D02*
X0218936Y0270325D01*
X0217084Y0270325D01*
X0216467Y0269708D01*
X0216467Y0268474D01*
X0217701Y0266622D02*
X0218319Y0266622D01*
X0218936Y0267240D01*
X0220150Y0267857D02*
X0220150Y0270325D01*
X0220150Y0269091D02*
X0221385Y0270325D01*
X0222002Y0270325D01*
X0223837Y0270325D02*
X0225071Y0270325D01*
X0225688Y0269708D01*
X0225688Y0267857D01*
X0223837Y0267857D01*
X0223219Y0268474D01*
X0223837Y0269091D01*
X0225688Y0269091D01*
X0226903Y0270325D02*
X0228137Y0270325D01*
X0227520Y0270943D02*
X0227520Y0268474D01*
X0228137Y0267857D01*
X0229358Y0268474D02*
X0229358Y0269708D01*
X0229975Y0270325D01*
X0231210Y0270325D01*
X0231827Y0269708D01*
X0231827Y0269091D01*
X0229358Y0269091D01*
X0229358Y0268474D02*
X0229975Y0267857D01*
X0231210Y0267857D01*
X0233041Y0268474D02*
X0233041Y0269708D01*
X0233658Y0270325D01*
X0235510Y0270325D01*
X0235510Y0271560D02*
X0235510Y0267857D01*
X0233658Y0267857D01*
X0233041Y0268474D01*
X0240407Y0268474D02*
X0241025Y0267857D01*
X0242259Y0267857D01*
X0242876Y0268474D01*
X0242876Y0269091D01*
X0242259Y0269708D01*
X0241025Y0269708D01*
X0240407Y0270325D01*
X0240407Y0270943D01*
X0241025Y0271560D01*
X0242259Y0271560D01*
X0242876Y0270943D01*
X0244091Y0270325D02*
X0244091Y0268474D01*
X0244708Y0267857D01*
X0246559Y0267857D01*
X0246559Y0267240D02*
X0245942Y0266622D01*
X0245325Y0266622D01*
X0246559Y0267240D02*
X0246559Y0270325D01*
X0247774Y0269708D02*
X0248391Y0270325D01*
X0250242Y0270325D01*
X0251457Y0270325D02*
X0252691Y0270325D01*
X0252074Y0270943D02*
X0252074Y0268474D01*
X0252691Y0267857D01*
X0253912Y0268474D02*
X0253912Y0269708D01*
X0254529Y0270325D01*
X0255764Y0270325D01*
X0256381Y0269708D01*
X0256381Y0269091D01*
X0253912Y0269091D01*
X0253912Y0268474D02*
X0254529Y0267857D01*
X0255764Y0267857D01*
X0257595Y0267857D02*
X0257595Y0270325D01*
X0258213Y0270325D01*
X0258830Y0269708D01*
X0259447Y0270325D01*
X0260064Y0269708D01*
X0260064Y0267857D01*
X0261279Y0267857D02*
X0263130Y0267857D01*
X0263747Y0268474D01*
X0263130Y0269091D01*
X0261896Y0269091D01*
X0261279Y0269708D01*
X0261896Y0270325D01*
X0263747Y0270325D01*
X0258830Y0269708D02*
X0258830Y0267857D01*
X0250242Y0268474D02*
X0249625Y0269091D01*
X0248391Y0269091D01*
X0247774Y0269708D01*
X0247774Y0267857D02*
X0249625Y0267857D01*
X0250242Y0268474D01*
X0278472Y0251828D02*
X0279089Y0252445D01*
X0281558Y0249976D01*
X0282175Y0250594D01*
X0282175Y0251828D01*
X0281558Y0252445D01*
X0279089Y0252445D01*
X0278472Y0251828D02*
X0278472Y0250594D01*
X0279089Y0249976D01*
X0281558Y0249976D01*
X0281558Y0248752D02*
X0282175Y0248752D01*
X0282175Y0248135D01*
X0281558Y0248135D01*
X0281558Y0248752D01*
X0282175Y0246920D02*
X0282175Y0244452D01*
X0279707Y0246920D01*
X0279089Y0246920D01*
X0278472Y0246303D01*
X0278472Y0245069D01*
X0279089Y0244452D01*
X0279707Y0243237D02*
X0282175Y0242003D01*
X0279707Y0240769D01*
X0284472Y0240161D02*
X0288175Y0240161D01*
X0288175Y0238927D02*
X0288175Y0241396D01*
X0288175Y0242610D02*
X0284472Y0245079D01*
X0285707Y0246293D02*
X0284472Y0247528D01*
X0288175Y0247528D01*
X0288175Y0248762D02*
X0288175Y0246293D01*
X0287558Y0249976D02*
X0286941Y0249976D01*
X0286324Y0250594D01*
X0286324Y0251828D01*
X0286941Y0252445D01*
X0287558Y0252445D01*
X0288175Y0251828D01*
X0288175Y0250594D01*
X0287558Y0249976D01*
X0286324Y0250594D02*
X0285707Y0249976D01*
X0285089Y0249976D01*
X0284472Y0250594D01*
X0284472Y0251828D01*
X0285089Y0252445D01*
X0285707Y0252445D01*
X0286324Y0251828D01*
X0284472Y0240161D02*
X0285707Y0238927D01*
X0285707Y0237713D02*
X0285089Y0237713D01*
X0284472Y0237095D01*
X0284472Y0235861D01*
X0285089Y0235244D01*
X0284472Y0234029D02*
X0288175Y0231561D01*
X0287558Y0230346D02*
X0285089Y0230346D01*
X0284472Y0229729D01*
X0284472Y0228495D01*
X0285089Y0227878D01*
X0285707Y0227878D01*
X0286324Y0228495D01*
X0286324Y0230346D01*
X0287558Y0230346D02*
X0288175Y0229729D01*
X0288175Y0228495D01*
X0287558Y0227878D01*
X0287558Y0226663D02*
X0285089Y0226663D01*
X0287558Y0224194D01*
X0288175Y0224812D01*
X0288175Y0226046D01*
X0287558Y0226663D01*
X0287558Y0224194D02*
X0285089Y0224194D01*
X0284472Y0224812D01*
X0284472Y0226046D01*
X0285089Y0226663D01*
X0282175Y0226663D02*
X0279707Y0226663D01*
X0278472Y0225429D01*
X0279707Y0224194D01*
X0282175Y0224194D01*
X0280324Y0224194D02*
X0280324Y0226663D01*
X0279707Y0227878D02*
X0279707Y0228495D01*
X0282175Y0228495D01*
X0282175Y0227878D02*
X0282175Y0229112D01*
X0282175Y0230333D02*
X0279707Y0230333D01*
X0280941Y0230333D02*
X0279707Y0231567D01*
X0279707Y0232185D01*
X0278472Y0233402D02*
X0281558Y0233402D01*
X0282175Y0234019D01*
X0282175Y0235254D01*
X0281558Y0235871D01*
X0278472Y0235871D01*
X0278472Y0228495D02*
X0277855Y0228495D01*
X0285707Y0237713D02*
X0288175Y0235244D01*
X0288175Y0237713D01*
X0287655Y0286550D02*
X0285186Y0286550D01*
X0287655Y0289019D01*
X0287655Y0289636D01*
X0287038Y0290253D01*
X0285803Y0290253D01*
X0285186Y0289636D01*
X0283972Y0290253D02*
X0283972Y0286550D01*
X0283972Y0288402D02*
X0281503Y0288402D01*
X0281503Y0290253D02*
X0281503Y0286550D01*
X0221391Y0256377D02*
X0221391Y0254526D01*
X0221391Y0256377D02*
X0220774Y0256995D01*
X0218922Y0256995D01*
X0218922Y0254526D01*
X0217708Y0255143D02*
X0217708Y0256377D01*
X0217091Y0256995D01*
X0215856Y0256995D01*
X0215239Y0256377D01*
X0215239Y0255143D01*
X0215856Y0254526D01*
X0217091Y0254526D01*
X0217708Y0255143D01*
X0214025Y0254526D02*
X0212173Y0254526D01*
X0211556Y0255143D01*
X0211556Y0256377D01*
X0212173Y0256995D01*
X0214025Y0256995D01*
X0214025Y0258229D02*
X0214025Y0254526D01*
X0210338Y0256995D02*
X0209721Y0256995D01*
X0208487Y0255760D01*
X0207273Y0255760D02*
X0205421Y0255760D01*
X0204804Y0255143D01*
X0205421Y0254526D01*
X0207273Y0254526D01*
X0207273Y0256377D01*
X0206655Y0256995D01*
X0205421Y0256995D01*
X0202965Y0258229D02*
X0202965Y0254526D01*
X0202348Y0254526D02*
X0203583Y0254526D01*
X0201127Y0254526D02*
X0199893Y0254526D01*
X0200510Y0254526D02*
X0200510Y0258229D01*
X0199893Y0258229D01*
X0198055Y0258229D02*
X0198055Y0258846D01*
X0198055Y0256995D02*
X0198055Y0254526D01*
X0198672Y0254526D02*
X0197437Y0254526D01*
X0196223Y0254526D02*
X0196223Y0256377D01*
X0195606Y0256995D01*
X0194371Y0256995D01*
X0194371Y0255760D02*
X0196223Y0255760D01*
X0196223Y0254526D02*
X0194371Y0254526D01*
X0193754Y0255143D01*
X0194371Y0255760D01*
X0192540Y0255143D02*
X0192540Y0256377D01*
X0191306Y0256377D01*
X0192540Y0255143D02*
X0191923Y0254526D01*
X0190688Y0254526D01*
X0190071Y0255143D01*
X0190071Y0257612D01*
X0190688Y0258229D01*
X0191923Y0258229D01*
X0192540Y0257612D01*
X0197437Y0256995D02*
X0198055Y0256995D01*
X0202348Y0258229D02*
X0202965Y0258229D01*
X0208487Y0256995D02*
X0208487Y0254526D01*
X0206645Y0267857D02*
X0206645Y0270325D01*
X0185774Y0271560D02*
X0185774Y0267857D01*
X0184550Y0258229D02*
X0184550Y0254526D01*
X0183933Y0254526D02*
X0185167Y0254526D01*
X0182718Y0255760D02*
X0180249Y0255760D01*
X0180249Y0255143D02*
X0180249Y0256377D01*
X0180867Y0256995D01*
X0182101Y0256995D01*
X0182718Y0256377D01*
X0182718Y0255760D01*
X0182101Y0254526D02*
X0180867Y0254526D01*
X0180249Y0255143D01*
X0179035Y0254526D02*
X0179035Y0256995D01*
X0176566Y0256995D02*
X0176566Y0255143D01*
X0177183Y0254526D01*
X0179035Y0254526D01*
X0175352Y0254526D02*
X0175352Y0256377D01*
X0174735Y0256995D01*
X0172883Y0256995D01*
X0172883Y0254526D01*
X0171669Y0254526D02*
X0169817Y0254526D01*
X0169200Y0255143D01*
X0169817Y0255760D01*
X0171669Y0255760D01*
X0171669Y0256377D02*
X0171669Y0254526D01*
X0171669Y0256377D02*
X0171052Y0256995D01*
X0169817Y0256995D01*
X0167986Y0256377D02*
X0167986Y0254526D01*
X0166751Y0254526D02*
X0166751Y0256377D01*
X0167368Y0256995D01*
X0167986Y0256377D01*
X0166751Y0256377D02*
X0166134Y0256995D01*
X0165517Y0256995D01*
X0165517Y0254526D01*
X0164302Y0254526D02*
X0164302Y0256377D01*
X0163685Y0256995D01*
X0163068Y0256377D01*
X0163068Y0254526D01*
X0161834Y0254526D02*
X0161834Y0256995D01*
X0162451Y0256995D01*
X0163068Y0256377D01*
X0160619Y0254526D02*
X0158151Y0254526D01*
X0158151Y0258229D01*
X0160619Y0258229D01*
X0159385Y0256377D02*
X0158151Y0256377D01*
X0156936Y0256377D02*
X0154467Y0256377D01*
X0153253Y0256377D02*
X0153253Y0255760D01*
X0150784Y0255760D01*
X0150784Y0255143D02*
X0150784Y0256377D01*
X0151401Y0256995D01*
X0152636Y0256995D01*
X0153253Y0256377D01*
X0152636Y0254526D02*
X0151401Y0254526D01*
X0150784Y0255143D01*
X0149567Y0256995D02*
X0148949Y0256995D01*
X0147715Y0255760D01*
X0147715Y0254526D02*
X0147715Y0256995D01*
X0146497Y0256995D02*
X0145880Y0256995D01*
X0144646Y0255760D01*
X0143431Y0255760D02*
X0140963Y0255760D01*
X0140963Y0255143D02*
X0140963Y0256377D01*
X0141580Y0256995D01*
X0142814Y0256995D01*
X0143431Y0256377D01*
X0143431Y0255760D01*
X0142814Y0254526D02*
X0141580Y0254526D01*
X0140963Y0255143D01*
X0139742Y0254526D02*
X0138507Y0254526D01*
X0139124Y0254526D02*
X0139124Y0256995D01*
X0138507Y0256995D01*
X0137293Y0257612D02*
X0137293Y0256377D01*
X0136676Y0255760D01*
X0134824Y0255760D01*
X0134824Y0254526D02*
X0134824Y0258229D01*
X0136676Y0258229D01*
X0137293Y0257612D01*
X0139124Y0258229D02*
X0139124Y0258846D01*
X0144646Y0256995D02*
X0144646Y0254526D01*
X0144042Y0250995D02*
X0144659Y0250377D01*
X0144659Y0248526D01*
X0143425Y0248526D02*
X0143425Y0250377D01*
X0144042Y0250995D01*
X0143425Y0250377D02*
X0142807Y0250995D01*
X0142190Y0250995D01*
X0142190Y0248526D01*
X0140976Y0249143D02*
X0140976Y0250377D01*
X0140359Y0250995D01*
X0139124Y0250995D01*
X0138507Y0250377D01*
X0138507Y0249143D01*
X0139124Y0248526D01*
X0140359Y0248526D01*
X0140976Y0249143D01*
X0137293Y0246229D02*
X0134824Y0246229D01*
X0136058Y0246229D02*
X0136058Y0242526D01*
X0138507Y0242526D02*
X0138507Y0244995D01*
X0139742Y0244995D02*
X0140359Y0244995D01*
X0139742Y0244995D02*
X0138507Y0243760D01*
X0141576Y0243760D02*
X0144045Y0243760D01*
X0144045Y0244377D01*
X0143428Y0244995D01*
X0142194Y0244995D01*
X0141576Y0244377D01*
X0141576Y0243143D01*
X0142194Y0242526D01*
X0143428Y0242526D01*
X0145260Y0242526D02*
X0145260Y0244995D01*
X0147111Y0244995D01*
X0147728Y0244377D01*
X0147728Y0242526D01*
X0149560Y0243143D02*
X0150177Y0242526D01*
X0149560Y0243143D02*
X0149560Y0245612D01*
X0148943Y0244995D02*
X0150177Y0244995D01*
X0151398Y0244377D02*
X0151398Y0243143D01*
X0152015Y0242526D01*
X0153250Y0242526D01*
X0153867Y0243143D01*
X0153867Y0244377D01*
X0153250Y0244995D01*
X0152015Y0244995D01*
X0151398Y0244377D01*
X0155081Y0244995D02*
X0155081Y0242526D01*
X0155081Y0244995D02*
X0156933Y0244995D01*
X0157550Y0244377D01*
X0157550Y0242526D01*
X0157540Y0248526D02*
X0159392Y0248526D01*
X0160606Y0248526D02*
X0160606Y0250995D01*
X0162458Y0250995D01*
X0163075Y0250377D01*
X0163075Y0248526D01*
X0164289Y0249143D02*
X0164289Y0250377D01*
X0164906Y0250995D01*
X0166141Y0250995D01*
X0166758Y0250377D01*
X0166758Y0249760D01*
X0164289Y0249760D01*
X0164289Y0249143D02*
X0164906Y0248526D01*
X0166141Y0248526D01*
X0167972Y0248526D02*
X0169207Y0248526D01*
X0168590Y0248526D02*
X0168590Y0252229D01*
X0167972Y0252229D01*
X0164916Y0246229D02*
X0162448Y0246229D01*
X0163682Y0246229D02*
X0163682Y0242526D01*
X0166131Y0243143D02*
X0166748Y0243760D01*
X0168600Y0243760D01*
X0168600Y0244377D02*
X0168600Y0242526D01*
X0166748Y0242526D01*
X0166131Y0243143D01*
X0166748Y0244995D02*
X0167982Y0244995D01*
X0168600Y0244377D01*
X0169814Y0244995D02*
X0169814Y0243143D01*
X0170431Y0242526D01*
X0172283Y0242526D01*
X0172283Y0241909D02*
X0171665Y0241292D01*
X0171048Y0241292D01*
X0172283Y0241909D02*
X0172283Y0244995D01*
X0173497Y0246229D02*
X0174114Y0246229D01*
X0174114Y0242526D01*
X0173497Y0242526D02*
X0174731Y0242526D01*
X0175952Y0243143D02*
X0176570Y0242526D01*
X0177804Y0242526D01*
X0178421Y0243143D01*
X0178421Y0244377D01*
X0177804Y0244995D01*
X0176570Y0244995D01*
X0175952Y0244377D01*
X0175952Y0243143D01*
X0179636Y0242526D02*
X0179636Y0244995D01*
X0180870Y0244995D02*
X0181487Y0244995D01*
X0180870Y0244995D02*
X0179636Y0243760D01*
X0175956Y0232329D02*
X0175956Y0231712D01*
X0175339Y0231712D01*
X0175339Y0232329D01*
X0175956Y0232329D01*
X0175956Y0230478D02*
X0175956Y0229860D01*
X0175339Y0229860D01*
X0175339Y0230478D01*
X0175956Y0230478D01*
X0174124Y0229860D02*
X0174124Y0231712D01*
X0173507Y0232329D01*
X0172890Y0231712D01*
X0172890Y0229860D01*
X0171655Y0229860D02*
X0171655Y0232329D01*
X0172273Y0232329D01*
X0172890Y0231712D01*
X0170441Y0231712D02*
X0169824Y0232329D01*
X0168589Y0232329D01*
X0167972Y0231712D01*
X0167972Y0230478D01*
X0168589Y0229860D01*
X0169824Y0229860D01*
X0170441Y0230478D01*
X0170441Y0231712D01*
X0166755Y0232329D02*
X0166137Y0232329D01*
X0164903Y0231095D01*
X0164903Y0232329D02*
X0164903Y0229860D01*
X0163065Y0229860D02*
X0163065Y0232946D01*
X0163682Y0233564D01*
X0163682Y0231712D02*
X0162448Y0231712D01*
X0157543Y0232329D02*
X0156309Y0232329D01*
X0156926Y0232946D02*
X0156926Y0230478D01*
X0157543Y0229860D01*
X0155091Y0232329D02*
X0154474Y0232329D01*
X0153240Y0231095D01*
X0153240Y0232329D02*
X0153240Y0229860D01*
X0152025Y0230478D02*
X0152025Y0231712D01*
X0151408Y0232329D01*
X0150174Y0232329D01*
X0149557Y0231712D01*
X0149557Y0230478D01*
X0150174Y0229860D01*
X0151408Y0229860D01*
X0152025Y0230478D01*
X0148342Y0230478D02*
X0147725Y0229860D01*
X0145873Y0229860D01*
X0145873Y0228626D02*
X0145873Y0232329D01*
X0147725Y0232329D01*
X0148342Y0231712D01*
X0148342Y0230478D01*
X0144659Y0230478D02*
X0144042Y0229860D01*
X0142190Y0229860D01*
X0140976Y0229860D02*
X0140976Y0232329D01*
X0142190Y0232329D02*
X0142190Y0228626D01*
X0140976Y0229860D02*
X0139124Y0229860D01*
X0138507Y0230478D01*
X0138507Y0232329D01*
X0137293Y0232946D02*
X0136676Y0233564D01*
X0135441Y0233564D01*
X0134824Y0232946D01*
X0134824Y0232329D01*
X0135441Y0231712D01*
X0136676Y0231712D01*
X0137293Y0231095D01*
X0137293Y0230478D01*
X0136676Y0229860D01*
X0135441Y0229860D01*
X0134824Y0230478D01*
X0142190Y0232329D02*
X0144042Y0232329D01*
X0144659Y0231712D01*
X0144659Y0230478D01*
X0149557Y0248526D02*
X0151408Y0248526D01*
X0152025Y0249143D01*
X0152025Y0249760D01*
X0151408Y0250377D01*
X0149557Y0250377D01*
X0149557Y0248526D02*
X0149557Y0252229D01*
X0151408Y0252229D01*
X0152025Y0251612D01*
X0152025Y0250995D01*
X0151408Y0250377D01*
X0153240Y0250377D02*
X0153857Y0250995D01*
X0155091Y0250995D01*
X0155709Y0250377D01*
X0155709Y0249760D01*
X0153240Y0249760D01*
X0153240Y0249143D02*
X0153240Y0250377D01*
X0153240Y0249143D02*
X0153857Y0248526D01*
X0155091Y0248526D01*
X0156923Y0249143D02*
X0157540Y0248526D01*
X0156923Y0249143D02*
X0156923Y0250377D01*
X0157540Y0250995D01*
X0159392Y0250995D01*
X0162448Y0267857D02*
X0162448Y0270325D01*
X0149557Y0270325D02*
X0149557Y0267857D01*
X0134824Y0267857D02*
X0134824Y0271560D01*
X0134824Y0252229D02*
X0137293Y0252229D01*
X0136058Y0252229D02*
X0136058Y0248526D01*
X0183933Y0258229D02*
X0184550Y0258229D01*
D12*
X0177176Y0276706D03*
X0180506Y0278373D03*
X0181176Y0279373D03*
X0181506Y0279706D03*
X0181506Y0280373D03*
X0186176Y0280373D03*
X0186176Y0280706D03*
X0186176Y0281373D03*
X0186176Y0281706D03*
X0186176Y0282706D03*
X0186176Y0283373D03*
X0186176Y0283706D03*
X0186176Y0284373D03*
X0186176Y0284706D03*
X0186176Y0285373D03*
X0186176Y0285706D03*
X0186176Y0279706D03*
X0186176Y0279373D03*
X0186176Y0278706D03*
X0186176Y0278373D03*
X0186176Y0277706D03*
X0198506Y0279373D03*
X0198506Y0279706D03*
X0198506Y0280373D03*
X0198506Y0280706D03*
X0198506Y0281373D03*
X0198506Y0281706D03*
X0198506Y0282373D03*
X0198506Y0282706D03*
X0198506Y0283373D03*
X0198506Y0283706D03*
X0198506Y0284373D03*
X0198506Y0284706D03*
X0198506Y0285373D03*
X0198176Y0291373D03*
X0198176Y0291706D03*
X0198176Y0292373D03*
X0198176Y0292706D03*
X0198176Y0293373D03*
X0198176Y0293706D03*
X0198176Y0294373D03*
X0198176Y0294706D03*
X0198176Y0295373D03*
X0198176Y0295706D03*
X0198176Y0296373D03*
X0198176Y0296706D03*
X0198176Y0297373D03*
X0198176Y0297706D03*
X0198176Y0298373D03*
X0198176Y0298706D03*
X0198176Y0299373D03*
X0192506Y0299373D03*
X0185176Y0299373D03*
X0180176Y0299373D03*
X0180176Y0298706D03*
X0180176Y0298373D03*
X0180176Y0297706D03*
X0180176Y0297373D03*
X0180176Y0296706D03*
X0180176Y0296373D03*
X0180176Y0295706D03*
X0180176Y0295373D03*
X0180176Y0294706D03*
X0180176Y0294373D03*
X0179506Y0291706D03*
X0179176Y0291373D03*
X0173506Y0294373D03*
X0173506Y0294706D03*
X0173506Y0295373D03*
X0173506Y0295706D03*
X0173506Y0296373D03*
X0173506Y0296706D03*
X0173506Y0297373D03*
X0173506Y0297706D03*
X0173506Y0298373D03*
X0173506Y0298706D03*
X0174176Y0304373D03*
X0174176Y0304706D03*
X0179176Y0304706D03*
X0179176Y0304373D03*
X0179176Y0305373D03*
X0179176Y0305706D03*
X0179176Y0308706D03*
X0183176Y0304373D03*
X0186176Y0309706D03*
X0204176Y0296706D03*
X0205176Y0294373D03*
X0205506Y0293373D03*
X0209176Y0297706D03*
X0209506Y0298373D03*
X0214506Y0298373D03*
X0214506Y0298706D03*
X0214506Y0297706D03*
X0214506Y0297373D03*
X0214506Y0296706D03*
X0214506Y0296373D03*
X0214506Y0294706D03*
X0214506Y0294373D03*
X0214506Y0293706D03*
X0214506Y0293373D03*
X0214506Y0292706D03*
X0214506Y0292373D03*
X0214506Y0291706D03*
X0214506Y0291373D03*
X0221506Y0283706D03*
X0221506Y0283373D03*
X0222176Y0281706D03*
X0223506Y0278373D03*
X0228506Y0278373D03*
X0228506Y0278706D03*
X0228506Y0279373D03*
X0228506Y0279706D03*
X0228506Y0280373D03*
X0228506Y0280706D03*
X0228506Y0281373D03*
X0228506Y0281706D03*
X0228506Y0283373D03*
X0228506Y0283706D03*
X0228506Y0284373D03*
X0228506Y0284706D03*
X0228506Y0285373D03*
X0228506Y0285706D03*
X0235176Y0285706D03*
X0235176Y0285373D03*
X0235176Y0284706D03*
X0235176Y0284373D03*
X0235176Y0283706D03*
X0235176Y0283373D03*
X0235176Y0281706D03*
X0235176Y0281373D03*
X0235176Y0280706D03*
X0235176Y0280373D03*
X0235176Y0279706D03*
X0235176Y0279373D03*
X0235176Y0278706D03*
X0235176Y0278373D03*
X0235506Y0291706D03*
X0235506Y0293373D03*
X0232506Y0299373D03*
X0232176Y0298706D03*
X0232176Y0297706D03*
X0232176Y0297373D03*
X0226176Y0295373D03*
X0217506Y0277706D03*
X0204506Y0278706D03*
X0201506Y0276706D03*
X0174176Y0285373D03*
X0173506Y0284373D03*
X0173176Y0283706D03*
X0173176Y0283373D03*
X0173176Y0280373D03*
X0192501Y0230047D03*
X0197171Y0227047D03*
X0200171Y0227047D03*
X0204501Y0229714D03*
X0210171Y0226714D03*
X0210501Y0227047D03*
X0213171Y0216047D03*
X0213171Y0213714D03*
X0201501Y0212714D03*
X0199171Y0210714D03*
X0198171Y0211047D03*
X0194171Y0212047D03*
X0197501Y0216714D03*
X0185501Y0221714D03*
X0184171Y0216047D03*
X0184171Y0213714D03*
X0185501Y0208047D03*
X0187171Y0203047D03*
X0197171Y0202714D03*
X0200171Y0202714D03*
X0248506Y0291373D03*
X0248506Y0291706D03*
X0248506Y0292373D03*
X0248506Y0292706D03*
X0248506Y0293373D03*
X0248506Y0293706D03*
X0248506Y0294373D03*
X0248506Y0294706D03*
X0248506Y0295373D03*
X0248506Y0295706D03*
X0248506Y0296373D03*
X0248506Y0296706D03*
X0248506Y0297373D03*
X0248506Y0297706D03*
X0248506Y0298373D03*
X0248506Y0298706D03*
X0256176Y0297706D03*
X0258176Y0293706D03*
X0258176Y0293373D03*
X0258176Y0292706D03*
X0258176Y0292373D03*
X0258176Y0291706D03*
X0261176Y0299373D03*
D13*
X0149176Y0277039D03*
X0139506Y0300039D03*
X0139506Y0301039D03*
X0139506Y0302039D03*
X0139506Y0303039D03*
X0139506Y0304039D03*
X0139506Y0305039D03*
X0139506Y0306039D03*
X0139506Y0307039D03*
X0139506Y0308039D03*
X0139506Y0309039D03*
D14*
X0177341Y0277039D03*
D15*
X0186341Y0277039D03*
X0235341Y0277039D03*
X0188336Y0226380D03*
X0184336Y0221380D03*
X0184336Y0208380D03*
D16*
X0185836Y0209380D03*
X0184506Y0214380D03*
X0184506Y0215380D03*
X0185836Y0220380D03*
X0189166Y0205380D03*
X0208166Y0224380D03*
X0211506Y0220380D03*
X0212836Y0214380D03*
X0201511Y0277039D03*
D17*
X0212006Y0277039D03*
X0203006Y0300039D03*
X0187676Y0304039D03*
X0213001Y0221380D03*
X0213001Y0208380D03*
X0209001Y0203380D03*
X0199001Y0215380D03*
D18*
X0204336Y0228380D03*
X0204336Y0201380D03*
X0217341Y0277039D03*
X0224341Y0277039D03*
X0210011Y0300039D03*
X0192341Y0300039D03*
X0187671Y0307039D03*
X0180011Y0300039D03*
X0240671Y0300039D03*
X0254671Y0300039D03*
D19*
X0228841Y0277039D03*
X0208836Y0226380D03*
X0188836Y0224380D03*
X0185836Y0219380D03*
X0185836Y0210380D03*
D20*
X0149176Y0277373D03*
D21*
X0177341Y0277373D03*
X0187341Y0286373D03*
X0187341Y0286706D03*
D22*
X0181171Y0284373D03*
X0180511Y0285373D03*
X0180171Y0285706D03*
X0186171Y0277373D03*
X0191841Y0291706D03*
X0190841Y0292706D03*
X0190511Y0293373D03*
X0190171Y0293706D03*
X0189511Y0294373D03*
X0189171Y0294706D03*
X0188511Y0295373D03*
X0188171Y0295706D03*
X0187511Y0296373D03*
X0187171Y0296706D03*
X0186511Y0297706D03*
X0185511Y0298706D03*
X0203171Y0299373D03*
X0225841Y0299373D03*
X0227171Y0292373D03*
X0224171Y0277373D03*
X0217511Y0277373D03*
X0198836Y0228714D03*
X0203506Y0227047D03*
X0204836Y0218047D03*
X0204836Y0211714D03*
X0207836Y0206047D03*
X0203836Y0202714D03*
X0203506Y0203047D03*
X0198836Y0201047D03*
X0193836Y0202714D03*
X0193836Y0212714D03*
X0189506Y0223714D03*
X0193836Y0227047D03*
X0213166Y0214047D03*
D23*
X0201506Y0277373D03*
D24*
X0212006Y0277373D03*
X0220676Y0284373D03*
X0220676Y0284706D03*
X0228676Y0277373D03*
X0235006Y0294373D03*
X0234676Y0294706D03*
X0234006Y0295373D03*
X0233676Y0295706D03*
X0233006Y0296373D03*
X0210006Y0299706D03*
X0185676Y0298373D03*
X0185006Y0290706D03*
X0175006Y0277706D03*
X0179006Y0309373D03*
X0258006Y0295373D03*
X0209001Y0225714D03*
X0201001Y0213714D03*
X0194671Y0218714D03*
X0191671Y0215714D03*
X0191001Y0216714D03*
X0190001Y0217714D03*
X0189671Y0218047D03*
X0193001Y0214047D03*
X0193671Y0213047D03*
D25*
X0192336Y0214714D03*
X0192336Y0215047D03*
X0191336Y0216047D03*
X0188336Y0204047D03*
X0235341Y0277373D03*
X0225341Y0294373D03*
X0206341Y0292373D03*
X0192341Y0299706D03*
X0261341Y0299706D03*
D26*
X0149171Y0277706D03*
D27*
X0173006Y0280706D03*
X0173006Y0281373D03*
X0173006Y0281706D03*
X0173006Y0282373D03*
X0173006Y0282706D03*
X0173676Y0279373D03*
X0174006Y0278706D03*
X0179676Y0277706D03*
X0181676Y0280706D03*
X0181676Y0281373D03*
X0181676Y0281706D03*
X0181676Y0282373D03*
X0181676Y0282706D03*
X0181676Y0283373D03*
X0181006Y0284706D03*
X0174676Y0285706D03*
X0174676Y0291373D03*
X0173676Y0293373D03*
X0173676Y0293706D03*
X0173676Y0299373D03*
X0186676Y0297373D03*
X0187006Y0304373D03*
X0192006Y0291373D03*
X0204676Y0295373D03*
X0204676Y0295706D03*
X0205006Y0294706D03*
X0205676Y0292706D03*
X0204006Y0297373D03*
X0203676Y0298373D03*
X0199006Y0278373D03*
X0199676Y0277706D03*
X0203676Y0277706D03*
X0212006Y0277706D03*
X0222676Y0280373D03*
X0223006Y0279706D03*
X0223006Y0279373D03*
X0223676Y0277706D03*
X0222006Y0282373D03*
X0220676Y0285373D03*
X0220676Y0285706D03*
X0227676Y0291706D03*
X0228006Y0291373D03*
X0227006Y0292706D03*
X0226676Y0298373D03*
X0226676Y0298706D03*
X0232676Y0296706D03*
X0240676Y0299373D03*
X0240676Y0291373D03*
X0228676Y0277706D03*
X0255676Y0298373D03*
X0255676Y0298706D03*
X0255006Y0299373D03*
X0257006Y0296373D03*
X0258006Y0294706D03*
X0258006Y0294373D03*
X0258006Y0291373D03*
X0198671Y0230714D03*
X0198671Y0228047D03*
X0198671Y0227714D03*
X0207671Y0223714D03*
X0205001Y0217714D03*
X0205001Y0217047D03*
X0205001Y0216714D03*
X0205001Y0216047D03*
X0205001Y0215714D03*
X0205001Y0214714D03*
X0205001Y0214047D03*
X0205001Y0213714D03*
X0205001Y0213047D03*
X0205001Y0212714D03*
X0205001Y0212047D03*
X0198671Y0202047D03*
X0198671Y0201714D03*
X0198671Y0199047D03*
X0204671Y0200047D03*
X0189671Y0206047D03*
X0212001Y0221714D03*
D28*
X0201336Y0213047D03*
X0223341Y0278706D03*
X0222341Y0281373D03*
X0226341Y0293373D03*
X0226341Y0293706D03*
X0235341Y0293706D03*
X0235341Y0277706D03*
X0217341Y0299373D03*
X0214341Y0299373D03*
X0206341Y0291706D03*
X0206341Y0291373D03*
X0205341Y0293706D03*
X0204341Y0296373D03*
X0203341Y0298706D03*
X0198341Y0285706D03*
X0181341Y0283706D03*
X0174341Y0278373D03*
X0173341Y0279706D03*
X0174341Y0291706D03*
X0256341Y0297373D03*
X0257341Y0295706D03*
D29*
X0149176Y0278039D03*
D30*
X0174676Y0278039D03*
X0191676Y0292039D03*
X0214676Y0291039D03*
X0204001Y0229380D03*
X0198671Y0227380D03*
X0191001Y0216380D03*
X0192001Y0215380D03*
X0192671Y0214380D03*
X0193671Y0213380D03*
X0205001Y0211380D03*
X0209001Y0204380D03*
X0204001Y0202380D03*
D31*
X0201501Y0212380D03*
X0201171Y0218380D03*
X0189501Y0223380D03*
X0189501Y0206380D03*
X0186176Y0278039D03*
X0186176Y0279039D03*
X0186176Y0280039D03*
X0186176Y0281039D03*
X0186176Y0283039D03*
X0186176Y0284039D03*
X0186176Y0285039D03*
X0181506Y0280039D03*
X0181176Y0279039D03*
X0180176Y0278039D03*
X0173176Y0283039D03*
X0173506Y0284039D03*
X0173506Y0294039D03*
X0173506Y0295039D03*
X0173506Y0296039D03*
X0173506Y0297039D03*
X0173506Y0298039D03*
X0174176Y0305039D03*
X0179176Y0305039D03*
X0179176Y0309039D03*
X0188506Y0309039D03*
X0180176Y0299039D03*
X0180176Y0298039D03*
X0180176Y0297039D03*
X0180176Y0296039D03*
X0180176Y0295039D03*
X0180176Y0294039D03*
X0192176Y0291039D03*
X0198176Y0291039D03*
X0198176Y0292039D03*
X0198176Y0293039D03*
X0198176Y0294039D03*
X0198176Y0295039D03*
X0198176Y0296039D03*
X0198176Y0297039D03*
X0198176Y0298039D03*
X0198176Y0299039D03*
X0204506Y0296039D03*
X0205176Y0294039D03*
X0206176Y0291039D03*
X0214506Y0292039D03*
X0214506Y0293039D03*
X0214506Y0294039D03*
X0214506Y0295039D03*
X0214506Y0296039D03*
X0214506Y0297039D03*
X0214506Y0298039D03*
X0214506Y0299039D03*
X0222176Y0282039D03*
X0223176Y0279039D03*
X0218506Y0280039D03*
X0228506Y0280039D03*
X0228506Y0279039D03*
X0228506Y0281039D03*
X0228506Y0283039D03*
X0228506Y0284039D03*
X0228506Y0285039D03*
X0235176Y0285039D03*
X0235176Y0284039D03*
X0235176Y0283039D03*
X0235176Y0281039D03*
X0235176Y0280039D03*
X0235176Y0279039D03*
X0235176Y0278039D03*
X0235176Y0291039D03*
X0248506Y0292039D03*
X0248506Y0293039D03*
X0248506Y0294039D03*
X0248506Y0295039D03*
X0248506Y0296039D03*
X0248506Y0297039D03*
X0248506Y0298039D03*
X0248506Y0299039D03*
X0256506Y0297039D03*
X0257176Y0296039D03*
X0258176Y0294039D03*
X0258176Y0293039D03*
X0258176Y0292039D03*
X0204176Y0278039D03*
X0198506Y0280039D03*
X0198506Y0281039D03*
X0198506Y0282039D03*
X0198506Y0283039D03*
X0198506Y0284039D03*
X0198506Y0285039D03*
D32*
X0198341Y0286039D03*
X0199341Y0278039D03*
X0181341Y0284039D03*
X0173341Y0280039D03*
X0185341Y0299039D03*
X0203341Y0299039D03*
X0221341Y0284039D03*
X0235341Y0286039D03*
X0232341Y0297039D03*
X0226341Y0299039D03*
X0255341Y0299039D03*
X0197336Y0211380D03*
D33*
X0207836Y0206380D03*
X0208836Y0218380D03*
X0207836Y0223380D03*
X0211841Y0278039D03*
X0211841Y0279039D03*
X0211841Y0280039D03*
X0211841Y0281039D03*
X0211841Y0282039D03*
X0211841Y0283039D03*
X0211841Y0284039D03*
X0211841Y0285039D03*
X0217841Y0291039D03*
X0222841Y0292039D03*
X0222841Y0293039D03*
X0222841Y0294039D03*
X0222841Y0296039D03*
X0222841Y0297039D03*
X0222841Y0298039D03*
X0222841Y0299039D03*
X0226841Y0298039D03*
X0226841Y0297039D03*
X0231841Y0291039D03*
X0235841Y0293039D03*
X0240841Y0293039D03*
X0240841Y0292039D03*
X0240841Y0294039D03*
X0240841Y0295039D03*
X0240841Y0296039D03*
X0240841Y0297039D03*
X0240841Y0298039D03*
X0240841Y0299039D03*
X0222841Y0280039D03*
X0204841Y0280039D03*
X0204841Y0286039D03*
X0204841Y0295039D03*
X0186841Y0305039D03*
X0186841Y0306039D03*
X0186841Y0308039D03*
X0186841Y0309039D03*
X0184841Y0291039D03*
X0173841Y0293039D03*
X0173841Y0285039D03*
X0260841Y0299039D03*
D34*
X0260341Y0298039D03*
X0259671Y0297039D03*
X0259011Y0296039D03*
X0235671Y0292039D03*
X0232011Y0298039D03*
X0232341Y0299039D03*
X0226671Y0296039D03*
X0220671Y0286039D03*
X0219011Y0282039D03*
X0218011Y0279039D03*
X0217671Y0278039D03*
X0205011Y0281039D03*
X0205011Y0282039D03*
X0205011Y0283039D03*
X0205011Y0284039D03*
X0205011Y0285039D03*
X0204671Y0279039D03*
X0207341Y0293039D03*
X0207671Y0294039D03*
X0208011Y0295039D03*
X0208671Y0296039D03*
X0209011Y0297039D03*
X0209341Y0298039D03*
X0209671Y0299039D03*
X0192341Y0299039D03*
X0192341Y0298039D03*
X0192341Y0297039D03*
X0185011Y0296039D03*
X0185011Y0295039D03*
X0185011Y0294039D03*
X0185011Y0293039D03*
X0185011Y0292039D03*
X0180011Y0293039D03*
X0179671Y0292039D03*
X0183011Y0305039D03*
X0183011Y0306039D03*
X0183011Y0308039D03*
X0183011Y0309039D03*
X0179011Y0308039D03*
X0179011Y0306039D03*
X0174341Y0306039D03*
X0174341Y0307039D03*
X0174341Y0308039D03*
X0192336Y0230380D03*
X0198666Y0231380D03*
X0205006Y0230380D03*
X0206336Y0227380D03*
X0197666Y0218380D03*
X0197336Y0217380D03*
X0194666Y0218380D03*
X0189006Y0211380D03*
X0191336Y0202380D03*
X0192336Y0199380D03*
X0198666Y0198380D03*
X0205006Y0199380D03*
X0201006Y0211380D03*
X0207336Y0215380D03*
D35*
X0205001Y0215380D03*
X0205001Y0214380D03*
X0205001Y0213380D03*
X0205001Y0212380D03*
X0205001Y0216380D03*
X0205001Y0217380D03*
X0203671Y0226380D03*
X0198671Y0228380D03*
X0193671Y0226380D03*
X0194001Y0212380D03*
X0193671Y0203380D03*
X0198671Y0201380D03*
X0203671Y0203380D03*
X0198676Y0279039D03*
X0205676Y0293039D03*
X0204006Y0297039D03*
X0203676Y0298039D03*
X0190676Y0293039D03*
X0180676Y0285039D03*
X0181676Y0283039D03*
X0181676Y0282039D03*
X0181676Y0281039D03*
X0173676Y0279039D03*
X0173006Y0281039D03*
X0173006Y0282039D03*
X0174006Y0292039D03*
X0178676Y0291039D03*
X0173676Y0299039D03*
X0220676Y0285039D03*
X0221676Y0283039D03*
X0223676Y0278039D03*
X0228676Y0278039D03*
X0228676Y0286039D03*
X0226676Y0293039D03*
X0226006Y0294039D03*
X0225676Y0295039D03*
X0222676Y0291039D03*
X0240676Y0291039D03*
X0248676Y0291039D03*
X0258006Y0291039D03*
X0258006Y0295039D03*
X0256006Y0298039D03*
D36*
X0149176Y0278373D03*
D37*
X0174341Y0305373D03*
X0174341Y0305706D03*
X0174341Y0306373D03*
X0174341Y0306706D03*
X0174341Y0307373D03*
X0174341Y0307706D03*
X0174341Y0308373D03*
X0174341Y0308706D03*
X0172341Y0309706D03*
X0178341Y0309706D03*
X0179671Y0309706D03*
X0179011Y0308373D03*
X0179011Y0307706D03*
X0179011Y0307373D03*
X0179011Y0306373D03*
X0182341Y0309706D03*
X0183011Y0308706D03*
X0183011Y0308373D03*
X0183011Y0307706D03*
X0183011Y0307373D03*
X0183011Y0306373D03*
X0183011Y0305706D03*
X0183011Y0305373D03*
X0183011Y0304706D03*
X0185011Y0299706D03*
X0185011Y0296373D03*
X0185011Y0295706D03*
X0185011Y0295373D03*
X0185011Y0294706D03*
X0185011Y0294373D03*
X0185011Y0293706D03*
X0185011Y0293373D03*
X0185011Y0292706D03*
X0185011Y0292373D03*
X0185011Y0291706D03*
X0185011Y0291373D03*
X0180011Y0292706D03*
X0180011Y0293373D03*
X0180011Y0293706D03*
X0192341Y0296373D03*
X0192341Y0296706D03*
X0192341Y0297373D03*
X0192341Y0297706D03*
X0192341Y0298373D03*
X0192341Y0298706D03*
X0192341Y0290706D03*
X0189341Y0281706D03*
X0204341Y0278373D03*
X0204671Y0279373D03*
X0205011Y0280373D03*
X0205011Y0280706D03*
X0205011Y0281373D03*
X0205011Y0281706D03*
X0205011Y0282373D03*
X0205011Y0282706D03*
X0205011Y0283373D03*
X0205011Y0283706D03*
X0205011Y0284373D03*
X0205011Y0284706D03*
X0205011Y0285373D03*
X0205011Y0285706D03*
X0206341Y0290373D03*
X0206341Y0290706D03*
X0207341Y0292706D03*
X0207341Y0293373D03*
X0207671Y0293706D03*
X0208011Y0294373D03*
X0208011Y0294706D03*
X0208341Y0295373D03*
X0208341Y0295706D03*
X0208671Y0296373D03*
X0209011Y0297373D03*
X0209671Y0298706D03*
X0220671Y0286373D03*
X0219671Y0283706D03*
X0219671Y0283373D03*
X0219341Y0282706D03*
X0219341Y0282373D03*
X0219011Y0281706D03*
X0219011Y0281373D03*
X0218671Y0280373D03*
X0218341Y0279706D03*
X0218341Y0279373D03*
X0218011Y0278706D03*
X0231671Y0291373D03*
X0235341Y0291373D03*
X0235671Y0292373D03*
X0235671Y0299373D03*
X0232011Y0298373D03*
X0226341Y0295706D03*
X0259011Y0295706D03*
X0259341Y0296373D03*
X0259341Y0296706D03*
X0259671Y0297373D03*
X0260011Y0297706D03*
X0260341Y0298373D03*
X0260671Y0298706D03*
X0198666Y0232047D03*
X0198666Y0231714D03*
X0198666Y0231047D03*
X0190666Y0227047D03*
X0190006Y0226714D03*
X0186666Y0227047D03*
X0197336Y0217714D03*
X0197336Y0217047D03*
X0199336Y0219047D03*
X0200336Y0218714D03*
X0201336Y0218047D03*
X0201336Y0212047D03*
X0201336Y0211714D03*
X0200336Y0211047D03*
X0197006Y0211714D03*
X0197006Y0212047D03*
X0194336Y0211714D03*
X0186666Y0210714D03*
X0184666Y0210714D03*
X0184666Y0211047D03*
X0186666Y0202714D03*
X0190006Y0203047D03*
X0190666Y0202714D03*
X0192666Y0199714D03*
X0198666Y0198714D03*
X0205006Y0199714D03*
X0207336Y0203047D03*
X0210336Y0203047D03*
X0210666Y0202714D03*
X0211336Y0207714D03*
X0210666Y0210714D03*
X0212666Y0210714D03*
X0207336Y0214714D03*
X0212666Y0218714D03*
X0212666Y0219047D03*
X0214336Y0221714D03*
X0207336Y0226714D03*
X0204006Y0203714D03*
X0189011Y0309706D03*
X0183671Y0309706D03*
D38*
X0186841Y0308706D03*
X0186841Y0308373D03*
X0186841Y0307706D03*
X0186841Y0307373D03*
X0186841Y0306373D03*
X0186841Y0305706D03*
X0186841Y0305373D03*
X0186841Y0304706D03*
X0179841Y0292373D03*
X0173841Y0292373D03*
X0173841Y0292706D03*
X0173841Y0284706D03*
X0180841Y0278706D03*
X0198841Y0278706D03*
X0204841Y0279706D03*
X0211841Y0279706D03*
X0211841Y0279373D03*
X0211841Y0278706D03*
X0211841Y0278373D03*
X0211841Y0280373D03*
X0211841Y0280706D03*
X0211841Y0281373D03*
X0211841Y0281706D03*
X0211841Y0282373D03*
X0211841Y0282706D03*
X0211841Y0283373D03*
X0211841Y0283706D03*
X0211841Y0284373D03*
X0211841Y0284706D03*
X0211841Y0285373D03*
X0211841Y0285706D03*
X0217841Y0278373D03*
X0221841Y0282706D03*
X0222841Y0291373D03*
X0222841Y0291706D03*
X0222841Y0292373D03*
X0222841Y0292706D03*
X0222841Y0293373D03*
X0222841Y0293706D03*
X0222841Y0294373D03*
X0222841Y0295373D03*
X0222841Y0295706D03*
X0222841Y0296373D03*
X0222841Y0296706D03*
X0222841Y0297373D03*
X0222841Y0297706D03*
X0222841Y0298373D03*
X0222841Y0298706D03*
X0222841Y0299373D03*
X0226841Y0297706D03*
X0226841Y0297373D03*
X0226841Y0296706D03*
X0226841Y0296373D03*
X0235841Y0292706D03*
X0240841Y0292706D03*
X0240841Y0292373D03*
X0240841Y0291706D03*
X0240841Y0293373D03*
X0240841Y0293706D03*
X0240841Y0294373D03*
X0240841Y0294706D03*
X0240841Y0295373D03*
X0240841Y0295706D03*
X0240841Y0296373D03*
X0240841Y0296706D03*
X0240841Y0297373D03*
X0240841Y0297706D03*
X0240841Y0298373D03*
X0240841Y0298706D03*
X0256841Y0296706D03*
X0209841Y0299373D03*
X0208841Y0296706D03*
X0203841Y0297706D03*
X0204836Y0230047D03*
X0192836Y0229714D03*
X0186836Y0226714D03*
X0192836Y0200047D03*
X0211836Y0208047D03*
D39*
X0149171Y0278706D03*
D40*
X0149176Y0279039D03*
D41*
X0149176Y0279373D03*
D42*
X0149171Y0279706D03*
D43*
X0149176Y0280039D03*
D44*
X0149176Y0280373D03*
D45*
X0149171Y0280706D03*
D46*
X0176676Y0308373D03*
X0176676Y0308706D03*
X0189006Y0308706D03*
X0189006Y0308373D03*
X0189006Y0307373D03*
X0189006Y0306373D03*
X0189676Y0282706D03*
X0189676Y0280706D03*
X0215676Y0285373D03*
X0220676Y0286706D03*
X0217676Y0294373D03*
X0217676Y0294706D03*
X0244676Y0298706D03*
X0206001Y0224714D03*
X0208001Y0222714D03*
X0208671Y0222047D03*
X0208671Y0221714D03*
X0210671Y0223047D03*
X0213001Y0217714D03*
X0213001Y0217047D03*
X0210671Y0217047D03*
X0210671Y0216714D03*
X0207671Y0216047D03*
X0207671Y0214047D03*
X0207671Y0213714D03*
X0210671Y0213047D03*
X0210671Y0212714D03*
X0213001Y0212714D03*
X0213001Y0212047D03*
X0212671Y0211047D03*
X0214671Y0208047D03*
X0210671Y0206714D03*
X0208671Y0207714D03*
X0208671Y0208047D03*
X0208001Y0207047D03*
X0206001Y0205047D03*
X0201671Y0216714D03*
X0201671Y0217047D03*
X0201671Y0219047D03*
X0194671Y0218047D03*
X0194671Y0217714D03*
X0194671Y0217047D03*
X0194671Y0216714D03*
X0194671Y0216047D03*
X0194671Y0215714D03*
X0194671Y0215047D03*
X0194671Y0214714D03*
X0194671Y0214047D03*
X0196671Y0213047D03*
X0196671Y0210714D03*
X0194671Y0210714D03*
X0189001Y0211714D03*
X0189001Y0212047D03*
X0189001Y0212714D03*
X0189001Y0213047D03*
X0189001Y0213714D03*
X0189001Y0214047D03*
X0189001Y0214714D03*
X0189001Y0215047D03*
X0189001Y0215714D03*
X0189001Y0216047D03*
X0189001Y0216714D03*
X0186671Y0216714D03*
X0186671Y0217047D03*
X0187001Y0218047D03*
X0187001Y0218714D03*
X0188001Y0220714D03*
X0188671Y0221714D03*
X0188671Y0222047D03*
X0192001Y0225047D03*
X0193001Y0225714D03*
X0184671Y0218714D03*
X0186671Y0213047D03*
X0186671Y0212714D03*
X0187001Y0211714D03*
X0187001Y0211047D03*
X0188001Y0209047D03*
X0188671Y0208047D03*
X0188671Y0207714D03*
X0186671Y0206714D03*
X0192001Y0204714D03*
X0193001Y0204047D03*
D47*
X0220671Y0280706D03*
X0224011Y0299706D03*
X0181011Y0306706D03*
D48*
X0149176Y0281039D03*
D49*
X0189506Y0281039D03*
X0192506Y0293039D03*
X0192506Y0294039D03*
X0192506Y0295039D03*
X0192506Y0296039D03*
X0217506Y0295039D03*
X0219506Y0283039D03*
X0231506Y0292039D03*
X0252176Y0299039D03*
X0198501Y0232380D03*
X0191171Y0227380D03*
X0186171Y0222380D03*
X0184171Y0216380D03*
X0184171Y0213380D03*
X0184501Y0211380D03*
X0186171Y0207380D03*
X0194501Y0211380D03*
X0201501Y0217380D03*
X0207501Y0214380D03*
X0213171Y0213380D03*
X0213171Y0216380D03*
X0211171Y0222380D03*
X0210501Y0223380D03*
X0211171Y0207380D03*
X0210501Y0206380D03*
X0206171Y0202380D03*
D50*
X0220671Y0281039D03*
X0181011Y0307039D03*
D51*
X0149176Y0281373D03*
D52*
X0176506Y0309706D03*
X0189176Y0304373D03*
X0192506Y0295706D03*
X0192506Y0295373D03*
X0192506Y0294706D03*
X0192506Y0294373D03*
X0192506Y0293706D03*
X0192506Y0293373D03*
X0192506Y0292706D03*
X0192506Y0290373D03*
X0189506Y0281373D03*
X0208176Y0285706D03*
X0215506Y0285706D03*
X0218176Y0291373D03*
X0231506Y0291706D03*
X0231506Y0292373D03*
X0205171Y0231047D03*
X0205171Y0230714D03*
X0210171Y0223714D03*
X0211501Y0222047D03*
X0210501Y0219047D03*
X0209171Y0218047D03*
X0209171Y0217714D03*
X0207501Y0215714D03*
X0211171Y0214047D03*
X0213171Y0213047D03*
X0213171Y0216714D03*
X0210171Y0206047D03*
X0205501Y0204714D03*
X0205171Y0199047D03*
X0194501Y0211047D03*
X0189501Y0206714D03*
X0187171Y0206047D03*
X0186501Y0207047D03*
X0184501Y0211714D03*
X0184171Y0213047D03*
X0184171Y0216714D03*
X0184171Y0217047D03*
X0184501Y0218047D03*
X0186501Y0223047D03*
X0187171Y0223714D03*
X0189501Y0223047D03*
X0193501Y0226047D03*
X0192171Y0230714D03*
X0192171Y0231047D03*
X0198171Y0218714D03*
X0197501Y0218047D03*
X0201501Y0217714D03*
X0201501Y0218714D03*
X0193501Y0203714D03*
X0192171Y0199047D03*
X0192171Y0198714D03*
D53*
X0149171Y0281706D03*
D54*
X0149176Y0282039D03*
D55*
X0187676Y0282039D03*
X0213001Y0215380D03*
X0211671Y0209380D03*
D56*
X0231841Y0282039D03*
X0211841Y0286039D03*
X0248511Y0300039D03*
D57*
X0149176Y0282373D03*
D58*
X0187676Y0282373D03*
X0205001Y0211047D03*
D59*
X0231841Y0282373D03*
X0231841Y0282706D03*
X0211841Y0286373D03*
X0211841Y0286706D03*
X0248511Y0299373D03*
X0248511Y0299706D03*
D60*
X0149171Y0282706D03*
D61*
X0149176Y0283039D03*
D62*
X0149176Y0283373D03*
X0149176Y0283706D03*
X0149176Y0284373D03*
X0149176Y0284706D03*
X0149176Y0285373D03*
X0149176Y0285706D03*
X0149176Y0286373D03*
X0149176Y0286706D03*
D63*
X0149176Y0286039D03*
X0149176Y0285039D03*
X0149176Y0284039D03*
D64*
X0184841Y0297039D03*
X0184841Y0300039D03*
X0189841Y0285039D03*
X0219841Y0284039D03*
X0217841Y0296039D03*
X0217841Y0299039D03*
X0235841Y0299039D03*
X0244841Y0299039D03*
X0186836Y0223380D03*
X0196836Y0212380D03*
X0186836Y0206380D03*
X0198836Y0197380D03*
X0212836Y0211380D03*
X0212836Y0218380D03*
D65*
X0213001Y0217380D03*
X0210671Y0217380D03*
X0210671Y0216380D03*
X0210671Y0213380D03*
X0210671Y0212380D03*
X0213001Y0212380D03*
X0209001Y0208380D03*
X0207671Y0213380D03*
X0207671Y0216380D03*
X0209001Y0221380D03*
X0205001Y0225380D03*
X0210671Y0227380D03*
X0194671Y0217380D03*
X0194671Y0216380D03*
X0194671Y0215380D03*
X0194671Y0214380D03*
X0196671Y0213380D03*
X0189001Y0213380D03*
X0189001Y0212380D03*
X0189001Y0214380D03*
X0189001Y0215380D03*
X0189001Y0216380D03*
X0186671Y0216380D03*
X0186671Y0217380D03*
X0187001Y0218380D03*
X0184671Y0218380D03*
X0186671Y0213380D03*
X0186671Y0212380D03*
X0187001Y0211380D03*
X0189001Y0207380D03*
X0186671Y0202380D03*
X0205001Y0204380D03*
X0210671Y0202380D03*
X0189001Y0222380D03*
X0191001Y0224380D03*
X0186671Y0227380D03*
X0208006Y0285039D03*
X0215676Y0285039D03*
X0189006Y0306039D03*
D66*
X0184841Y0297706D03*
X0184841Y0297373D03*
X0184841Y0296706D03*
X0189841Y0285706D03*
X0189841Y0285373D03*
X0207841Y0285373D03*
X0217841Y0298373D03*
X0217841Y0298706D03*
X0235841Y0298706D03*
X0235841Y0298373D03*
X0171841Y0308706D03*
X0206836Y0227047D03*
X0203836Y0226047D03*
X0207836Y0223047D03*
X0210836Y0222714D03*
X0212836Y0218047D03*
X0212836Y0211714D03*
X0210836Y0207047D03*
X0207836Y0206714D03*
X0206836Y0202714D03*
X0201836Y0203047D03*
X0198836Y0198047D03*
X0198836Y0197714D03*
X0196836Y0211047D03*
X0196836Y0212714D03*
X0186836Y0219047D03*
X0184836Y0219047D03*
X0185836Y0222047D03*
X0182836Y0221714D03*
X0182836Y0208047D03*
X0185836Y0207714D03*
D67*
X0193506Y0202380D03*
X0193166Y0200380D03*
X0198836Y0199380D03*
X0198836Y0202380D03*
X0201166Y0213380D03*
X0197836Y0216380D03*
X0204836Y0218380D03*
X0203836Y0227380D03*
X0198836Y0230380D03*
X0193506Y0227380D03*
X0179511Y0286039D03*
X0175171Y0286039D03*
X0174841Y0291039D03*
X0186841Y0297039D03*
X0187841Y0296039D03*
X0188841Y0295039D03*
X0189841Y0294039D03*
X0227511Y0292039D03*
X0228511Y0291039D03*
X0235171Y0294039D03*
D68*
X0187841Y0286039D03*
D69*
X0177506Y0286373D03*
X0174176Y0309373D03*
X0215506Y0299706D03*
X0215506Y0290373D03*
X0213501Y0215047D03*
X0213501Y0214714D03*
D70*
X0211501Y0219714D03*
X0212501Y0221047D03*
X0208501Y0224714D03*
X0198501Y0215714D03*
X0211501Y0210047D03*
X0198176Y0286373D03*
X0198176Y0286706D03*
X0228506Y0286706D03*
X0228506Y0286373D03*
X0233176Y0290373D03*
X0235176Y0286706D03*
X0235176Y0286373D03*
X0258176Y0290373D03*
D71*
X0248841Y0290373D03*
X0240841Y0290373D03*
X0222841Y0290373D03*
X0204841Y0286706D03*
X0204841Y0286373D03*
X0192836Y0227714D03*
X0185836Y0219714D03*
X0184836Y0215714D03*
X0184836Y0214047D03*
X0185836Y0210047D03*
X0192836Y0202047D03*
X0212836Y0208714D03*
D72*
X0212336Y0209047D03*
X0211336Y0220047D03*
X0199336Y0215047D03*
X0185336Y0220714D03*
X0185336Y0209047D03*
X0177341Y0286706D03*
X0198341Y0290373D03*
D73*
X0158841Y0290039D03*
X0158841Y0289039D03*
X0158841Y0288039D03*
X0158841Y0287039D03*
X0158841Y0291039D03*
X0158841Y0292039D03*
X0158841Y0293039D03*
X0158841Y0294039D03*
X0158841Y0295039D03*
X0158841Y0296039D03*
X0158841Y0297039D03*
X0158841Y0298039D03*
X0158841Y0299039D03*
X0139511Y0299039D03*
X0139511Y0298039D03*
X0139511Y0297039D03*
X0139511Y0296039D03*
X0139511Y0295039D03*
X0139511Y0294039D03*
X0139511Y0293039D03*
X0139511Y0292039D03*
X0139511Y0291039D03*
X0139511Y0290039D03*
X0139511Y0289039D03*
X0139511Y0288039D03*
X0139511Y0287039D03*
D74*
X0139511Y0287373D03*
X0139511Y0287706D03*
X0139511Y0288373D03*
X0139511Y0288706D03*
X0139511Y0289373D03*
X0139511Y0289706D03*
X0139511Y0290373D03*
X0139511Y0290706D03*
X0139511Y0291373D03*
X0139511Y0291706D03*
X0139511Y0292373D03*
X0139511Y0292706D03*
X0139511Y0293373D03*
X0139511Y0293706D03*
X0139511Y0294373D03*
X0139511Y0294706D03*
X0139511Y0295373D03*
X0139511Y0295706D03*
X0139511Y0296373D03*
X0139511Y0296706D03*
X0139511Y0297373D03*
X0139511Y0297706D03*
X0139511Y0298373D03*
X0139511Y0298706D03*
X0139511Y0299373D03*
X0158841Y0299373D03*
X0158841Y0298706D03*
X0158841Y0298373D03*
X0158841Y0297706D03*
X0158841Y0297373D03*
X0158841Y0296706D03*
X0158841Y0296373D03*
X0158841Y0295706D03*
X0158841Y0295373D03*
X0158841Y0294706D03*
X0158841Y0294373D03*
X0158841Y0293706D03*
X0158841Y0293373D03*
X0158841Y0292706D03*
X0158841Y0292373D03*
X0158841Y0291706D03*
X0158841Y0291373D03*
X0158841Y0290706D03*
X0158841Y0290373D03*
X0158841Y0289706D03*
X0158841Y0289373D03*
X0158841Y0288706D03*
X0158841Y0288373D03*
X0158841Y0287706D03*
X0158841Y0287373D03*
D75*
X0176676Y0290373D03*
X0204671Y0227714D03*
X0212001Y0220714D03*
X0212671Y0215714D03*
X0206001Y0215047D03*
X0199671Y0214714D03*
X0186001Y0209714D03*
X0184671Y0208714D03*
X0184671Y0221047D03*
D76*
X0188666Y0224714D03*
X0188336Y0226047D03*
X0193336Y0228714D03*
X0194336Y0226714D03*
X0198666Y0230047D03*
X0203006Y0226714D03*
X0204666Y0228047D03*
X0204006Y0228714D03*
X0209006Y0226047D03*
X0208666Y0205047D03*
X0209006Y0203714D03*
X0204666Y0202047D03*
X0204006Y0201047D03*
X0194336Y0203047D03*
X0193336Y0201047D03*
X0188336Y0203714D03*
X0188666Y0205047D03*
X0190336Y0217047D03*
X0185011Y0290373D03*
X0187671Y0306706D03*
X0203011Y0299706D03*
D77*
X0198176Y0299706D03*
X0198176Y0290706D03*
X0191506Y0292373D03*
X0180176Y0299706D03*
X0179176Y0303706D03*
X0174506Y0303706D03*
X0173506Y0299706D03*
X0183176Y0303706D03*
X0229176Y0290706D03*
X0229506Y0290373D03*
X0258176Y0290706D03*
X0188501Y0225047D03*
X0188171Y0225714D03*
X0189171Y0218714D03*
X0193501Y0213714D03*
X0189171Y0211047D03*
X0188501Y0204714D03*
X0198501Y0200714D03*
X0204501Y0201714D03*
X0209171Y0204047D03*
X0200501Y0214047D03*
X0198171Y0216047D03*
D78*
X0176841Y0290706D03*
D79*
X0215841Y0290706D03*
X0183836Y0215047D03*
X0183836Y0214714D03*
D80*
X0192836Y0228047D03*
X0198836Y0229047D03*
X0208836Y0225047D03*
X0208836Y0204714D03*
X0198836Y0199714D03*
X0192836Y0201714D03*
X0222841Y0290706D03*
X0240841Y0290706D03*
X0248841Y0290706D03*
X0254841Y0299706D03*
X0240841Y0299706D03*
X0182841Y0309373D03*
D81*
X0233341Y0290706D03*
D82*
X0218341Y0291706D03*
X0189341Y0304706D03*
X0252341Y0298706D03*
X0252341Y0298373D03*
X0204336Y0225714D03*
X0205336Y0225047D03*
X0209336Y0220714D03*
X0210336Y0218714D03*
X0210336Y0218047D03*
X0209336Y0217047D03*
X0210336Y0211714D03*
X0210336Y0211047D03*
X0209336Y0209047D03*
X0204336Y0204047D03*
X0205336Y0198714D03*
X0191336Y0205047D03*
X0189336Y0207047D03*
X0184336Y0212047D03*
X0184336Y0212714D03*
X0184336Y0217714D03*
X0186336Y0222714D03*
X0189336Y0222714D03*
X0191336Y0224714D03*
D83*
X0188336Y0225380D03*
X0193336Y0229380D03*
X0189336Y0218380D03*
X0204336Y0200380D03*
X0206341Y0292039D03*
X0223341Y0295039D03*
X0233341Y0296039D03*
X0234341Y0295039D03*
X0174341Y0304039D03*
D84*
X0189341Y0305039D03*
X0218341Y0292039D03*
X0192336Y0225380D03*
X0188336Y0221380D03*
X0184336Y0217380D03*
X0184336Y0212380D03*
X0188336Y0208380D03*
X0192336Y0204380D03*
X0206336Y0205380D03*
X0208336Y0207380D03*
X0210336Y0211380D03*
X0209336Y0217380D03*
X0210336Y0218380D03*
X0208336Y0222380D03*
D85*
X0208506Y0224047D03*
X0203506Y0229047D03*
X0198836Y0229714D03*
X0193836Y0229047D03*
X0188836Y0224047D03*
X0185836Y0220047D03*
X0188836Y0205714D03*
X0193836Y0200714D03*
X0198506Y0200047D03*
X0203506Y0200714D03*
X0208506Y0205714D03*
X0211506Y0209714D03*
X0215841Y0295373D03*
X0215841Y0295706D03*
X0224171Y0294706D03*
X0234171Y0299706D03*
X0187511Y0303706D03*
X0187511Y0309373D03*
D86*
X0185841Y0298039D03*
X0208836Y0225380D03*
D87*
X0139506Y0299706D03*
X0139506Y0300373D03*
X0139506Y0300706D03*
X0139506Y0301373D03*
X0139506Y0301706D03*
X0139506Y0302373D03*
X0139506Y0302706D03*
X0139506Y0303373D03*
X0139506Y0303706D03*
X0139506Y0304373D03*
X0139506Y0304706D03*
X0139506Y0305373D03*
X0139506Y0305706D03*
X0139506Y0306373D03*
X0139506Y0306706D03*
X0139506Y0307373D03*
X0139506Y0307706D03*
X0139506Y0308373D03*
X0139506Y0308706D03*
X0139506Y0309373D03*
D88*
X0159006Y0309373D03*
X0159006Y0308706D03*
X0159006Y0308373D03*
X0159006Y0307706D03*
X0159006Y0307373D03*
X0159006Y0306706D03*
X0159006Y0306373D03*
X0159006Y0305706D03*
X0159006Y0305373D03*
X0159006Y0304706D03*
X0159006Y0304373D03*
X0159006Y0303706D03*
X0159006Y0303373D03*
X0159006Y0302706D03*
X0159006Y0302373D03*
X0159006Y0301706D03*
X0159006Y0301373D03*
X0159006Y0300706D03*
X0159006Y0300373D03*
X0159006Y0299706D03*
D89*
X0159006Y0300039D03*
X0159006Y0301039D03*
X0159006Y0302039D03*
X0159006Y0303039D03*
X0159006Y0304039D03*
X0159006Y0305039D03*
X0159006Y0306039D03*
X0159006Y0307039D03*
X0159006Y0308039D03*
X0159006Y0309039D03*
D90*
X0173506Y0300039D03*
X0198176Y0300039D03*
X0234506Y0300039D03*
X0211501Y0219380D03*
X0211501Y0210380D03*
X0208501Y0205380D03*
X0200171Y0214380D03*
X0188501Y0203380D03*
D91*
X0215341Y0300039D03*
D92*
X0223506Y0300039D03*
D93*
X0261506Y0300039D03*
X0193171Y0228380D03*
X0190171Y0217380D03*
X0188501Y0204380D03*
X0193171Y0201380D03*
X0183176Y0304039D03*
X0179176Y0304039D03*
D94*
X0174176Y0309039D03*
D95*
X0198836Y0200380D03*
D96*
X0206171Y0218714D03*
D97*
X0198666Y0229380D03*
D98*
X0232353Y0196628D02*
X0232353Y0184424D01*
X0232353Y0180487D02*
X0232353Y0179699D01*
X0232353Y0176156D02*
X0232353Y0175369D01*
X0232353Y0171825D02*
X0232353Y0171038D01*
X0232353Y0167494D02*
X0232353Y0166707D01*
X0232353Y0163164D02*
X0232353Y0162376D01*
X0232353Y0158833D02*
X0232353Y0158046D01*
X0232353Y0154502D02*
X0232353Y0153715D01*
X0232353Y0150172D02*
X0232353Y0149384D01*
X0223603Y0148150D02*
X0217603Y0148150D01*
X0217603Y0159150D01*
X0223603Y0159150D01*
X0223603Y0148150D01*
X0212353Y0142650D02*
X0206353Y0142650D01*
X0206353Y0153650D01*
X0212353Y0153650D01*
X0212353Y0142650D01*
X0212353Y0156650D02*
X0206353Y0156650D01*
X0206353Y0167650D01*
X0212353Y0167650D01*
X0212353Y0156650D01*
X0217853Y0165400D02*
X0217853Y0176400D01*
X0223853Y0176400D01*
X0223853Y0165400D01*
X0217853Y0165400D01*
X0212353Y0169650D02*
X0206353Y0169650D01*
X0206353Y0180650D01*
X0212353Y0180650D01*
X0212353Y0169650D01*
X0196853Y0162900D02*
X0196853Y0151900D01*
X0191853Y0151900D01*
X0191853Y0162900D01*
X0196853Y0162900D01*
X0188853Y0162900D02*
X0188853Y0151900D01*
X0183853Y0151900D01*
X0183853Y0162900D01*
X0188853Y0162900D01*
X0181353Y0180900D02*
X0181353Y0185900D01*
X0170353Y0185900D01*
X0170353Y0180900D01*
X0181353Y0180900D01*
X0166353Y0175400D02*
X0166353Y0135400D01*
X0156353Y0135400D01*
X0156353Y0175400D01*
X0166353Y0175400D01*
X0156353Y0180900D02*
X0156353Y0185900D01*
X0145353Y0185900D01*
X0145353Y0180900D01*
X0156353Y0180900D01*
X0115485Y0180494D02*
X0115485Y0142306D01*
X0114697Y0142306D01*
X0111154Y0142306D02*
X0110367Y0142306D01*
X0106823Y0142306D02*
X0106036Y0142306D01*
X0102493Y0142306D02*
X0101705Y0142306D01*
X0098162Y0142306D02*
X0097375Y0142306D01*
X0093831Y0142306D02*
X0093044Y0142306D01*
X0089501Y0142306D02*
X0088713Y0142306D01*
X0085170Y0142306D02*
X0084383Y0142306D01*
X0080839Y0142306D02*
X0080052Y0142306D01*
X0076509Y0142306D02*
X0075721Y0142306D01*
X0075721Y0180494D01*
X0076509Y0180494D01*
X0080052Y0180494D02*
X0080839Y0180494D01*
X0084383Y0180494D02*
X0085170Y0180494D01*
X0088713Y0180494D02*
X0089501Y0180494D01*
X0093044Y0180494D02*
X0093831Y0180494D01*
X0097375Y0180494D02*
X0098162Y0180494D01*
X0101705Y0180494D02*
X0102493Y0180494D01*
X0106036Y0180494D02*
X0106823Y0180494D01*
X0110367Y0180494D02*
X0111154Y0180494D01*
X0114697Y0180494D02*
X0115485Y0180494D01*
X0106353Y0204400D02*
X0100353Y0204400D01*
X0100353Y0215400D01*
X0106353Y0215400D01*
X0106353Y0204400D01*
X0098603Y0204400D02*
X0092603Y0204400D01*
X0092603Y0215400D01*
X0098603Y0215400D01*
X0098603Y0204400D01*
X0089103Y0204150D02*
X0084103Y0204150D01*
X0084103Y0215150D01*
X0089103Y0215150D01*
X0089103Y0204150D01*
X0081353Y0204150D02*
X0076353Y0204150D01*
X0076353Y0215150D01*
X0081353Y0215150D01*
X0081353Y0204150D01*
X0075853Y0198400D02*
X0075853Y0192400D01*
X0064853Y0192400D01*
X0064853Y0198400D01*
X0075853Y0198400D01*
X0075853Y0191400D02*
X0075853Y0185400D01*
X0064853Y0185400D01*
X0064853Y0191400D01*
X0075853Y0191400D01*
X0058103Y0191150D02*
X0058103Y0186150D01*
X0047103Y0186150D01*
X0047103Y0191150D01*
X0058103Y0191150D01*
X0052103Y0192900D02*
X0047103Y0192900D01*
X0047103Y0203900D01*
X0052103Y0203900D01*
X0052103Y0192900D01*
X0052103Y0184400D02*
X0047103Y0184400D01*
X0047103Y0173400D01*
X0052103Y0173400D01*
X0052103Y0184400D01*
X0047103Y0171650D02*
X0058103Y0171650D01*
X0058103Y0166650D01*
X0047103Y0166650D01*
X0047103Y0171650D01*
X0028136Y0171912D02*
X0028136Y0174274D01*
X0028136Y0166203D02*
X0028136Y0158329D01*
X0013570Y0158526D02*
X0013570Y0174471D01*
X0015103Y0198900D02*
X0015103Y0203900D01*
X0025603Y0203900D01*
X0025603Y0198900D01*
X0015103Y0198900D01*
X0019853Y0201400D02*
X0020353Y0202150D01*
X0020353Y0200650D01*
X0020853Y0199900D01*
X0020853Y0202900D01*
X0020353Y0202150D01*
X0020603Y0202400D02*
X0020603Y0200400D01*
X0020353Y0200650D02*
X0019853Y0201400D01*
X0015103Y0207900D02*
X0015103Y0212900D01*
X0025603Y0212900D01*
X0025603Y0207900D01*
X0015103Y0207900D01*
X0019853Y0210400D02*
X0020353Y0209650D01*
X0020353Y0211150D01*
X0019853Y0210400D01*
X0020353Y0209650D02*
X0020853Y0208900D01*
X0020853Y0211900D01*
X0020353Y0211150D01*
X0020603Y0211400D02*
X0020603Y0209400D01*
X0025603Y0216900D02*
X0015103Y0216900D01*
X0015103Y0221900D01*
X0025603Y0221900D01*
X0025603Y0216900D01*
X0020853Y0217900D02*
X0020353Y0218650D01*
X0020353Y0220150D01*
X0019853Y0219400D01*
X0020353Y0218650D01*
X0020603Y0218400D02*
X0020603Y0220400D01*
X0020353Y0220150D02*
X0020853Y0220900D01*
X0020853Y0217900D01*
X0031853Y0234400D02*
X0031853Y0240400D01*
X0042853Y0240400D01*
X0042853Y0234400D01*
X0031853Y0234400D01*
X0041353Y0247400D02*
X0101353Y0247400D01*
X0101353Y0257400D01*
X0041353Y0257400D01*
X0041353Y0247400D01*
X0044853Y0235400D02*
X0044853Y0229400D01*
X0055853Y0229400D01*
X0055853Y0235400D01*
X0044853Y0235400D01*
X0057853Y0230400D02*
X0057853Y0224400D01*
X0068853Y0224400D01*
X0068853Y0230400D01*
X0057853Y0230400D01*
X0065603Y0219150D02*
X0065605Y0219194D01*
X0065611Y0219238D01*
X0065621Y0219281D01*
X0065634Y0219323D01*
X0065651Y0219364D01*
X0065672Y0219403D01*
X0065696Y0219440D01*
X0065723Y0219475D01*
X0065753Y0219507D01*
X0065786Y0219537D01*
X0065822Y0219563D01*
X0065859Y0219587D01*
X0065899Y0219606D01*
X0065940Y0219623D01*
X0065983Y0219635D01*
X0066026Y0219644D01*
X0066070Y0219649D01*
X0066114Y0219650D01*
X0066158Y0219647D01*
X0066202Y0219640D01*
X0066245Y0219629D01*
X0066287Y0219615D01*
X0066327Y0219597D01*
X0066366Y0219575D01*
X0066402Y0219551D01*
X0066436Y0219523D01*
X0066468Y0219492D01*
X0066497Y0219458D01*
X0066523Y0219422D01*
X0066545Y0219384D01*
X0066564Y0219344D01*
X0066579Y0219302D01*
X0066591Y0219260D01*
X0066599Y0219216D01*
X0066603Y0219172D01*
X0066603Y0219128D01*
X0066599Y0219084D01*
X0066591Y0219040D01*
X0066579Y0218998D01*
X0066564Y0218956D01*
X0066545Y0218916D01*
X0066523Y0218878D01*
X0066497Y0218842D01*
X0066468Y0218808D01*
X0066436Y0218777D01*
X0066402Y0218749D01*
X0066366Y0218725D01*
X0066327Y0218703D01*
X0066287Y0218685D01*
X0066245Y0218671D01*
X0066202Y0218660D01*
X0066158Y0218653D01*
X0066114Y0218650D01*
X0066070Y0218651D01*
X0066026Y0218656D01*
X0065983Y0218665D01*
X0065940Y0218677D01*
X0065899Y0218694D01*
X0065859Y0218713D01*
X0065822Y0218737D01*
X0065786Y0218763D01*
X0065753Y0218793D01*
X0065723Y0218825D01*
X0065696Y0218860D01*
X0065672Y0218897D01*
X0065651Y0218936D01*
X0065634Y0218977D01*
X0065621Y0219019D01*
X0065611Y0219062D01*
X0065605Y0219106D01*
X0065603Y0219150D01*
X0066634Y0217603D02*
X0070572Y0217603D01*
X0070572Y0211697D01*
X0066634Y0211697D01*
X0066634Y0217603D01*
X0073950Y0140337D02*
X0073952Y0140399D01*
X0073958Y0140462D01*
X0073968Y0140523D01*
X0073982Y0140584D01*
X0073999Y0140644D01*
X0074020Y0140703D01*
X0074046Y0140760D01*
X0074074Y0140815D01*
X0074106Y0140869D01*
X0074142Y0140920D01*
X0074180Y0140970D01*
X0074222Y0141016D01*
X0074266Y0141060D01*
X0074314Y0141101D01*
X0074363Y0141139D01*
X0074415Y0141173D01*
X0074469Y0141204D01*
X0074525Y0141232D01*
X0074583Y0141256D01*
X0074642Y0141277D01*
X0074702Y0141293D01*
X0074763Y0141306D01*
X0074825Y0141315D01*
X0074887Y0141320D01*
X0074950Y0141321D01*
X0075012Y0141318D01*
X0075074Y0141311D01*
X0075136Y0141300D01*
X0075196Y0141285D01*
X0075256Y0141267D01*
X0075314Y0141245D01*
X0075371Y0141219D01*
X0075426Y0141189D01*
X0075479Y0141156D01*
X0075530Y0141120D01*
X0075578Y0141081D01*
X0075624Y0141038D01*
X0075667Y0140993D01*
X0075707Y0140945D01*
X0075744Y0140895D01*
X0075778Y0140842D01*
X0075809Y0140788D01*
X0075835Y0140732D01*
X0075859Y0140674D01*
X0075878Y0140614D01*
X0075894Y0140554D01*
X0075906Y0140492D01*
X0075914Y0140431D01*
X0075918Y0140368D01*
X0075918Y0140306D01*
X0075914Y0140243D01*
X0075906Y0140182D01*
X0075894Y0140120D01*
X0075878Y0140060D01*
X0075859Y0140000D01*
X0075835Y0139942D01*
X0075809Y0139886D01*
X0075778Y0139832D01*
X0075744Y0139779D01*
X0075707Y0139729D01*
X0075667Y0139681D01*
X0075624Y0139636D01*
X0075578Y0139593D01*
X0075530Y0139554D01*
X0075479Y0139518D01*
X0075426Y0139485D01*
X0075371Y0139455D01*
X0075314Y0139429D01*
X0075256Y0139407D01*
X0075196Y0139389D01*
X0075136Y0139374D01*
X0075074Y0139363D01*
X0075012Y0139356D01*
X0074950Y0139353D01*
X0074887Y0139354D01*
X0074825Y0139359D01*
X0074763Y0139368D01*
X0074702Y0139381D01*
X0074642Y0139397D01*
X0074583Y0139418D01*
X0074525Y0139442D01*
X0074469Y0139470D01*
X0074415Y0139501D01*
X0074363Y0139535D01*
X0074314Y0139573D01*
X0074266Y0139614D01*
X0074222Y0139658D01*
X0074180Y0139704D01*
X0074142Y0139754D01*
X0074106Y0139805D01*
X0074074Y0139859D01*
X0074046Y0139914D01*
X0074020Y0139971D01*
X0073999Y0140030D01*
X0073982Y0140090D01*
X0073968Y0140151D01*
X0073958Y0140212D01*
X0073952Y0140275D01*
X0073950Y0140337D01*
X0079603Y0130650D02*
X0085603Y0130650D01*
X0085603Y0119650D01*
X0079603Y0119650D01*
X0079603Y0130650D01*
X0086603Y0130650D02*
X0092603Y0130650D01*
X0092603Y0119650D01*
X0086603Y0119650D01*
X0086603Y0130650D01*
X0099853Y0132900D02*
X0099853Y0137900D01*
X0110853Y0137900D01*
X0110853Y0132900D01*
X0099853Y0132900D01*
X0111853Y0132900D02*
X0111853Y0137900D01*
X0122853Y0137900D01*
X0122853Y0132900D01*
X0111853Y0132900D01*
X0079353Y0096150D02*
X0075853Y0096150D01*
X0075853Y0093150D01*
X0080853Y0091150D02*
X0080853Y0089650D01*
X0079353Y0084650D02*
X0075853Y0084650D01*
X0075853Y0087650D01*
X0073853Y0080400D02*
X0073853Y0074400D01*
X0084853Y0074400D01*
X0084853Y0080400D01*
X0073853Y0080400D01*
X0078491Y0069459D02*
X0078491Y0069361D01*
X0062353Y0074650D02*
X0058853Y0074650D01*
X0058853Y0077650D01*
X0063853Y0079650D02*
X0063853Y0081150D01*
X0058853Y0083150D02*
X0058853Y0086150D01*
X0062353Y0086150D01*
X0057103Y0091400D02*
X0057103Y0097400D01*
X0068103Y0097400D01*
X0068103Y0091400D01*
X0057103Y0091400D01*
X0050853Y0091900D02*
X0045853Y0091900D01*
X0045853Y0102900D01*
X0050853Y0102900D01*
X0050853Y0091900D01*
X0050853Y0085900D02*
X0050853Y0072900D01*
X0043853Y0072900D01*
X0043853Y0085900D01*
X0050853Y0085900D01*
X0039353Y0063400D02*
X0039353Y0058400D01*
X0028353Y0058400D01*
X0028353Y0063400D01*
X0039353Y0063400D01*
X0039353Y0057400D02*
X0039353Y0052400D01*
X0028353Y0052400D01*
X0028353Y0057400D01*
X0039353Y0057400D01*
X0043853Y0051650D02*
X0032853Y0051650D01*
X0032853Y0046650D01*
X0043853Y0046650D01*
X0043853Y0051650D01*
X0045517Y0043896D02*
X0038517Y0043896D01*
X0038517Y0030896D01*
X0045517Y0030896D01*
X0045517Y0043896D01*
X0033323Y0038467D02*
X0033323Y0036892D01*
X0033323Y0038467D02*
X0027221Y0038467D01*
X0025853Y0040650D02*
X0025853Y0051650D01*
X0031853Y0051650D01*
X0031853Y0040650D01*
X0025853Y0040650D01*
X0023603Y0040900D02*
X0013103Y0040900D01*
X0013103Y0045900D01*
X0023603Y0045900D01*
X0023603Y0040900D01*
X0018853Y0043400D02*
X0018353Y0044150D01*
X0018353Y0042650D01*
X0018853Y0043400D01*
X0018353Y0042650D02*
X0017853Y0041900D01*
X0017853Y0044900D01*
X0018353Y0044150D01*
X0018103Y0044400D02*
X0018103Y0042400D01*
X0017379Y0038467D02*
X0013835Y0038467D01*
X0013638Y0038467D02*
X0013638Y0009333D01*
X0011276Y0007955D01*
X0011276Y0039845D01*
X0013638Y0038467D01*
X0016103Y0038400D02*
X0016103Y0009400D01*
X0017379Y0009333D02*
X0013835Y0009333D01*
X0026827Y0009333D02*
X0033323Y0009333D01*
X0033323Y0011302D01*
X0039010Y0014124D02*
X0039010Y0015699D01*
X0058696Y0015699D01*
X0058696Y0014124D01*
X0055103Y0016900D02*
X0050103Y0016900D01*
X0050103Y0027900D01*
X0055103Y0027900D01*
X0055103Y0016900D01*
X0051353Y0014400D02*
X0051353Y0009400D01*
X0053353Y0009400D01*
X0051353Y0009400D02*
X0051353Y0004400D01*
X0049853Y0005400D02*
X0047853Y0005400D01*
X0047853Y0013400D01*
X0049853Y0013400D01*
X0049853Y0005400D01*
X0046353Y0004400D02*
X0046353Y0009400D01*
X0044353Y0009400D01*
X0046353Y0009400D02*
X0046353Y0014400D01*
X0046603Y0016900D02*
X0041603Y0016900D01*
X0041603Y0027900D01*
X0046603Y0027900D01*
X0046603Y0016900D01*
X0039010Y0004676D02*
X0039010Y0003101D01*
X0058696Y0003101D01*
X0058696Y0004676D01*
X0073853Y0024400D02*
X0073853Y0030400D01*
X0084853Y0030400D01*
X0084853Y0024400D01*
X0073853Y0024400D01*
X0073853Y0031400D02*
X0073853Y0037400D01*
X0084853Y0037400D01*
X0084853Y0031400D01*
X0073853Y0031400D01*
X0027353Y0060565D02*
X0011211Y0060565D01*
X0011211Y0106235D01*
X0027353Y0106235D01*
X0027353Y0060565D01*
X0027853Y0110400D02*
X0027853Y0116400D01*
X0038853Y0116400D01*
X0038853Y0110400D01*
X0027853Y0110400D01*
X0167853Y0038900D02*
X0167853Y0027900D01*
X0172853Y0027900D01*
X0172853Y0038900D01*
X0167853Y0038900D01*
X0175853Y0038900D02*
X0180853Y0038900D01*
X0180853Y0027900D01*
X0175853Y0027900D01*
X0175853Y0038900D01*
X0187148Y0027605D02*
X0211558Y0027605D01*
X0211558Y0003195D01*
X0187148Y0003195D01*
X0187148Y0027605D01*
X0200603Y0029400D02*
X0200603Y0034400D01*
X0211603Y0034400D01*
X0211603Y0029400D01*
X0200603Y0029400D01*
X0219353Y0027900D02*
X0219353Y0016900D01*
X0225353Y0016900D01*
X0225353Y0027900D01*
X0219353Y0027900D01*
X0226353Y0027900D02*
X0232353Y0027900D01*
X0232353Y0016900D01*
X0226353Y0016900D01*
X0226353Y0027900D01*
X0241148Y0027605D02*
X0265558Y0027605D01*
X0265558Y0003195D01*
X0241148Y0003195D01*
X0241148Y0027605D01*
X0254353Y0029400D02*
X0254353Y0034400D01*
X0265353Y0034400D01*
X0265353Y0029400D01*
X0254353Y0029400D01*
X0256853Y0042900D02*
X0261853Y0042900D01*
X0261853Y0053900D01*
X0256853Y0053900D01*
X0256853Y0042900D01*
X0256603Y0079650D02*
X0250603Y0079650D01*
X0250603Y0090650D01*
X0256603Y0090650D01*
X0256603Y0079650D01*
X0241381Y0080120D02*
X0241381Y0092128D01*
X0230357Y0092128D01*
X0230357Y0080120D01*
X0241381Y0080120D01*
X0241853Y0097900D02*
X0241853Y0102900D01*
X0252853Y0102900D01*
X0252853Y0097900D01*
X0241853Y0097900D01*
X0241853Y0111650D02*
X0241853Y0117650D01*
X0252853Y0117650D01*
X0252853Y0111650D01*
X0241853Y0111650D01*
X0242103Y0123150D02*
X0242103Y0129150D01*
X0253103Y0129150D01*
X0253103Y0123150D01*
X0242103Y0123150D01*
X0232853Y0123900D02*
X0221853Y0123900D01*
X0221853Y0128900D01*
X0232853Y0128900D01*
X0232853Y0123900D01*
X0238652Y0143636D02*
X0266999Y0143636D01*
X0275853Y0134900D02*
X0286853Y0134900D01*
X0286853Y0129900D01*
X0275853Y0129900D01*
X0275853Y0134900D01*
X0272447Y0126306D02*
X0272447Y0114494D01*
X0284259Y0114494D02*
X0284259Y0126306D01*
X0287353Y0143636D02*
X0277235Y0143636D01*
X0287353Y0143648D02*
X0287353Y0170947D01*
X0287368Y0172160D01*
X0287412Y0173373D01*
X0287485Y0174584D01*
X0287588Y0175792D01*
X0287721Y0176998D01*
X0287882Y0178201D01*
X0288073Y0179399D01*
X0288292Y0180592D01*
X0288541Y0181780D01*
X0288818Y0182961D01*
X0289124Y0184135D01*
X0289458Y0185301D01*
X0289820Y0186459D01*
X0290210Y0187608D01*
X0290629Y0188747D01*
X0291353Y0192683D02*
X0291353Y0202648D01*
X0291408Y0202652D02*
X0277235Y0202652D01*
X0291353Y0192683D02*
X0291350Y0192415D01*
X0291340Y0192147D01*
X0291324Y0191879D01*
X0291301Y0191612D01*
X0291272Y0191345D01*
X0291236Y0191079D01*
X0291194Y0190814D01*
X0291145Y0190550D01*
X0291090Y0190287D01*
X0291029Y0190026D01*
X0290961Y0189767D01*
X0290888Y0189509D01*
X0290807Y0189253D01*
X0290721Y0188999D01*
X0290629Y0188747D01*
X0266999Y0202652D02*
X0237865Y0202652D01*
X0218103Y0089650D02*
X0212103Y0089650D01*
X0212103Y0078650D01*
X0218103Y0078650D01*
X0218103Y0089650D01*
X0195103Y0080900D02*
X0195103Y0077900D01*
X0195103Y0080900D02*
X0191603Y0080900D01*
X0190103Y0075900D02*
X0190103Y0074400D01*
X0191603Y0069400D02*
X0195103Y0069400D01*
X0195103Y0072400D01*
X0195353Y0065400D02*
X0191853Y0065400D01*
X0195353Y0065400D02*
X0195353Y0062400D01*
X0195353Y0056900D02*
X0195353Y0053900D01*
X0191853Y0053900D01*
X0190353Y0058900D02*
X0190353Y0060400D01*
D99*
X0272053Y0110557D02*
X0272055Y0110596D01*
X0272061Y0110635D01*
X0272071Y0110673D01*
X0272084Y0110710D01*
X0272101Y0110745D01*
X0272121Y0110779D01*
X0272145Y0110810D01*
X0272172Y0110839D01*
X0272201Y0110865D01*
X0272233Y0110888D01*
X0272267Y0110908D01*
X0272303Y0110924D01*
X0272340Y0110936D01*
X0272379Y0110945D01*
X0272418Y0110950D01*
X0272457Y0110951D01*
X0272496Y0110948D01*
X0272535Y0110941D01*
X0272572Y0110930D01*
X0272609Y0110916D01*
X0272644Y0110898D01*
X0272677Y0110877D01*
X0272708Y0110852D01*
X0272736Y0110825D01*
X0272761Y0110795D01*
X0272783Y0110762D01*
X0272802Y0110728D01*
X0272817Y0110692D01*
X0272829Y0110654D01*
X0272837Y0110616D01*
X0272841Y0110577D01*
X0272841Y0110537D01*
X0272837Y0110498D01*
X0272829Y0110460D01*
X0272817Y0110422D01*
X0272802Y0110386D01*
X0272783Y0110352D01*
X0272761Y0110319D01*
X0272736Y0110289D01*
X0272708Y0110262D01*
X0272677Y0110237D01*
X0272644Y0110216D01*
X0272609Y0110198D01*
X0272572Y0110184D01*
X0272535Y0110173D01*
X0272496Y0110166D01*
X0272457Y0110163D01*
X0272418Y0110164D01*
X0272379Y0110169D01*
X0272340Y0110178D01*
X0272303Y0110190D01*
X0272267Y0110206D01*
X0272233Y0110226D01*
X0272201Y0110249D01*
X0272172Y0110275D01*
X0272145Y0110304D01*
X0272121Y0110335D01*
X0272101Y0110369D01*
X0272084Y0110404D01*
X0272071Y0110441D01*
X0272061Y0110479D01*
X0272055Y0110518D01*
X0272053Y0110557D01*
D100*
X0271920Y0153912D02*
X0271922Y0153996D01*
X0271928Y0154079D01*
X0271938Y0154162D01*
X0271952Y0154245D01*
X0271969Y0154327D01*
X0271991Y0154408D01*
X0272016Y0154487D01*
X0272045Y0154566D01*
X0272078Y0154643D01*
X0272114Y0154718D01*
X0272154Y0154792D01*
X0272197Y0154864D01*
X0272244Y0154933D01*
X0272294Y0155000D01*
X0272347Y0155065D01*
X0272403Y0155127D01*
X0272461Y0155187D01*
X0272523Y0155244D01*
X0272587Y0155297D01*
X0272654Y0155348D01*
X0272723Y0155395D01*
X0272794Y0155440D01*
X0272867Y0155480D01*
X0272942Y0155517D01*
X0273019Y0155551D01*
X0273097Y0155581D01*
X0273176Y0155607D01*
X0273257Y0155630D01*
X0273339Y0155648D01*
X0273421Y0155663D01*
X0273504Y0155674D01*
X0273587Y0155681D01*
X0273671Y0155684D01*
X0273755Y0155683D01*
X0273838Y0155678D01*
X0273922Y0155669D01*
X0274004Y0155656D01*
X0274086Y0155640D01*
X0274167Y0155619D01*
X0274248Y0155595D01*
X0274326Y0155567D01*
X0274404Y0155535D01*
X0274480Y0155499D01*
X0274554Y0155460D01*
X0274626Y0155418D01*
X0274696Y0155372D01*
X0274764Y0155323D01*
X0274829Y0155271D01*
X0274892Y0155216D01*
X0274952Y0155158D01*
X0275010Y0155097D01*
X0275064Y0155033D01*
X0275116Y0154967D01*
X0275164Y0154899D01*
X0275209Y0154828D01*
X0275250Y0154755D01*
X0275289Y0154681D01*
X0275323Y0154605D01*
X0275354Y0154527D01*
X0275381Y0154448D01*
X0275405Y0154367D01*
X0275424Y0154286D01*
X0275440Y0154204D01*
X0275452Y0154121D01*
X0275460Y0154037D01*
X0275464Y0153954D01*
X0275464Y0153870D01*
X0275460Y0153787D01*
X0275452Y0153703D01*
X0275440Y0153620D01*
X0275424Y0153538D01*
X0275405Y0153457D01*
X0275381Y0153376D01*
X0275354Y0153297D01*
X0275323Y0153219D01*
X0275289Y0153143D01*
X0275250Y0153069D01*
X0275209Y0152996D01*
X0275164Y0152925D01*
X0275116Y0152857D01*
X0275064Y0152791D01*
X0275010Y0152727D01*
X0274952Y0152666D01*
X0274892Y0152608D01*
X0274829Y0152553D01*
X0274764Y0152501D01*
X0274696Y0152452D01*
X0274626Y0152406D01*
X0274554Y0152364D01*
X0274480Y0152325D01*
X0274404Y0152289D01*
X0274326Y0152257D01*
X0274248Y0152229D01*
X0274167Y0152205D01*
X0274086Y0152184D01*
X0274004Y0152168D01*
X0273922Y0152155D01*
X0273838Y0152146D01*
X0273755Y0152141D01*
X0273671Y0152140D01*
X0273587Y0152143D01*
X0273504Y0152150D01*
X0273421Y0152161D01*
X0273339Y0152176D01*
X0273257Y0152194D01*
X0273176Y0152217D01*
X0273097Y0152243D01*
X0273019Y0152273D01*
X0272942Y0152307D01*
X0272867Y0152344D01*
X0272794Y0152384D01*
X0272723Y0152429D01*
X0272654Y0152476D01*
X0272587Y0152527D01*
X0272523Y0152580D01*
X0272461Y0152637D01*
X0272403Y0152697D01*
X0272347Y0152759D01*
X0272294Y0152824D01*
X0272244Y0152891D01*
X0272197Y0152960D01*
X0272154Y0153032D01*
X0272114Y0153106D01*
X0272078Y0153181D01*
X0272045Y0153258D01*
X0272016Y0153337D01*
X0271991Y0153416D01*
X0271969Y0153497D01*
X0271952Y0153579D01*
X0271938Y0153662D01*
X0271928Y0153745D01*
X0271922Y0153828D01*
X0271920Y0153912D01*
X0271920Y0185408D02*
X0271922Y0185492D01*
X0271928Y0185575D01*
X0271938Y0185658D01*
X0271952Y0185741D01*
X0271969Y0185823D01*
X0271991Y0185904D01*
X0272016Y0185983D01*
X0272045Y0186062D01*
X0272078Y0186139D01*
X0272114Y0186214D01*
X0272154Y0186288D01*
X0272197Y0186360D01*
X0272244Y0186429D01*
X0272294Y0186496D01*
X0272347Y0186561D01*
X0272403Y0186623D01*
X0272461Y0186683D01*
X0272523Y0186740D01*
X0272587Y0186793D01*
X0272654Y0186844D01*
X0272723Y0186891D01*
X0272794Y0186936D01*
X0272867Y0186976D01*
X0272942Y0187013D01*
X0273019Y0187047D01*
X0273097Y0187077D01*
X0273176Y0187103D01*
X0273257Y0187126D01*
X0273339Y0187144D01*
X0273421Y0187159D01*
X0273504Y0187170D01*
X0273587Y0187177D01*
X0273671Y0187180D01*
X0273755Y0187179D01*
X0273838Y0187174D01*
X0273922Y0187165D01*
X0274004Y0187152D01*
X0274086Y0187136D01*
X0274167Y0187115D01*
X0274248Y0187091D01*
X0274326Y0187063D01*
X0274404Y0187031D01*
X0274480Y0186995D01*
X0274554Y0186956D01*
X0274626Y0186914D01*
X0274696Y0186868D01*
X0274764Y0186819D01*
X0274829Y0186767D01*
X0274892Y0186712D01*
X0274952Y0186654D01*
X0275010Y0186593D01*
X0275064Y0186529D01*
X0275116Y0186463D01*
X0275164Y0186395D01*
X0275209Y0186324D01*
X0275250Y0186251D01*
X0275289Y0186177D01*
X0275323Y0186101D01*
X0275354Y0186023D01*
X0275381Y0185944D01*
X0275405Y0185863D01*
X0275424Y0185782D01*
X0275440Y0185700D01*
X0275452Y0185617D01*
X0275460Y0185533D01*
X0275464Y0185450D01*
X0275464Y0185366D01*
X0275460Y0185283D01*
X0275452Y0185199D01*
X0275440Y0185116D01*
X0275424Y0185034D01*
X0275405Y0184953D01*
X0275381Y0184872D01*
X0275354Y0184793D01*
X0275323Y0184715D01*
X0275289Y0184639D01*
X0275250Y0184565D01*
X0275209Y0184492D01*
X0275164Y0184421D01*
X0275116Y0184353D01*
X0275064Y0184287D01*
X0275010Y0184223D01*
X0274952Y0184162D01*
X0274892Y0184104D01*
X0274829Y0184049D01*
X0274764Y0183997D01*
X0274696Y0183948D01*
X0274626Y0183902D01*
X0274554Y0183860D01*
X0274480Y0183821D01*
X0274404Y0183785D01*
X0274326Y0183753D01*
X0274248Y0183725D01*
X0274167Y0183701D01*
X0274086Y0183680D01*
X0274004Y0183664D01*
X0273922Y0183651D01*
X0273838Y0183642D01*
X0273755Y0183637D01*
X0273671Y0183636D01*
X0273587Y0183639D01*
X0273504Y0183646D01*
X0273421Y0183657D01*
X0273339Y0183672D01*
X0273257Y0183690D01*
X0273176Y0183713D01*
X0273097Y0183739D01*
X0273019Y0183769D01*
X0272942Y0183803D01*
X0272867Y0183840D01*
X0272794Y0183880D01*
X0272723Y0183925D01*
X0272654Y0183972D01*
X0272587Y0184023D01*
X0272523Y0184076D01*
X0272461Y0184133D01*
X0272403Y0184193D01*
X0272347Y0184255D01*
X0272294Y0184320D01*
X0272244Y0184387D01*
X0272197Y0184456D01*
X0272154Y0184528D01*
X0272114Y0184602D01*
X0272078Y0184677D01*
X0272045Y0184754D01*
X0272016Y0184833D01*
X0271991Y0184912D01*
X0271969Y0184993D01*
X0271952Y0185075D01*
X0271938Y0185158D01*
X0271928Y0185241D01*
X0271922Y0185324D01*
X0271920Y0185408D01*
X0022034Y0170928D02*
X0022034Y0161872D01*
X0011404Y0161872D01*
X0011404Y0127817D01*
X0011404Y0170928D02*
X0022034Y0170928D01*
X0011404Y0170928D02*
X0011404Y0186872D01*
D101*
X0038803Y0187817D02*
X0039270Y0187350D01*
X0040204Y0187350D01*
X0040671Y0187817D01*
X0041750Y0187350D02*
X0043618Y0187350D01*
X0042684Y0187350D02*
X0042684Y0190152D01*
X0041750Y0189218D01*
X0040671Y0189685D02*
X0040204Y0190152D01*
X0039270Y0190152D01*
X0038803Y0189685D01*
X0038803Y0187817D01*
X0044696Y0187350D02*
X0046564Y0187350D01*
X0045630Y0187350D02*
X0045630Y0190152D01*
X0044696Y0189218D01*
X0045436Y0193100D02*
X0043568Y0193100D01*
X0043101Y0193567D01*
X0043101Y0194501D01*
X0043568Y0194968D01*
X0043101Y0196047D02*
X0044502Y0196047D01*
X0044035Y0196981D01*
X0044035Y0197448D01*
X0044502Y0197915D01*
X0045436Y0197915D01*
X0045903Y0197448D01*
X0045903Y0196514D01*
X0045436Y0196047D01*
X0045436Y0194968D02*
X0045903Y0194501D01*
X0045903Y0193567D01*
X0045436Y0193100D01*
X0043101Y0196047D02*
X0043101Y0197915D01*
X0057803Y0214100D02*
X0059671Y0214100D01*
X0060750Y0214100D02*
X0062618Y0214100D01*
X0061684Y0214100D02*
X0061684Y0216902D01*
X0060750Y0215968D01*
X0057803Y0216902D02*
X0057803Y0214100D01*
X0067136Y0218817D02*
X0067136Y0221152D01*
X0069004Y0221152D02*
X0069004Y0218817D01*
X0068537Y0218350D01*
X0067603Y0218350D01*
X0067136Y0218817D01*
X0070083Y0219751D02*
X0071951Y0219751D01*
X0071484Y0218350D02*
X0071484Y0221152D01*
X0070083Y0219751D01*
X0077351Y0219731D02*
X0080153Y0219731D01*
X0080153Y0218797D02*
X0080153Y0220665D01*
X0079686Y0221743D02*
X0080153Y0222210D01*
X0080153Y0223144D01*
X0079686Y0223611D01*
X0078752Y0223611D01*
X0078285Y0223144D01*
X0078285Y0222677D01*
X0078752Y0221743D01*
X0077351Y0221743D01*
X0077351Y0223611D01*
X0077351Y0219731D02*
X0078285Y0218797D01*
X0077818Y0217718D02*
X0077351Y0217251D01*
X0077351Y0216317D01*
X0077818Y0215850D01*
X0079686Y0215850D01*
X0080153Y0216317D01*
X0080153Y0217251D01*
X0079686Y0217718D01*
X0085101Y0217251D02*
X0085101Y0216317D01*
X0085568Y0215850D01*
X0087436Y0215850D01*
X0087903Y0216317D01*
X0087903Y0217251D01*
X0087436Y0217718D01*
X0087903Y0218797D02*
X0087903Y0220665D01*
X0087903Y0219731D02*
X0085101Y0219731D01*
X0086035Y0218797D01*
X0085568Y0217718D02*
X0085101Y0217251D01*
X0085568Y0221743D02*
X0085101Y0222210D01*
X0085101Y0223144D01*
X0085568Y0223611D01*
X0086035Y0223611D01*
X0087903Y0221743D01*
X0087903Y0223611D01*
X0094301Y0202522D02*
X0094301Y0200653D01*
X0095702Y0200653D01*
X0095235Y0201588D01*
X0095235Y0202055D01*
X0095702Y0202522D01*
X0096636Y0202522D01*
X0097103Y0202055D01*
X0097103Y0201121D01*
X0096636Y0200653D01*
X0097103Y0199575D02*
X0096169Y0198641D01*
X0096169Y0199108D02*
X0096169Y0197707D01*
X0097103Y0197707D02*
X0094301Y0197707D01*
X0094301Y0199108D01*
X0094768Y0199575D01*
X0095702Y0199575D01*
X0096169Y0199108D01*
X0102551Y0199108D02*
X0102551Y0197707D01*
X0105353Y0197707D01*
X0104419Y0197707D02*
X0104419Y0199108D01*
X0103952Y0199575D01*
X0103018Y0199575D01*
X0102551Y0199108D01*
X0104419Y0198641D02*
X0105353Y0199575D01*
X0104886Y0200653D02*
X0105353Y0201121D01*
X0105353Y0202055D01*
X0104886Y0202522D01*
X0104419Y0202522D01*
X0103952Y0202055D01*
X0103952Y0200653D01*
X0104886Y0200653D01*
X0103952Y0200653D02*
X0103018Y0201588D01*
X0102551Y0202522D01*
X0084814Y0195935D02*
X0084814Y0195468D01*
X0084347Y0195001D01*
X0083413Y0195001D01*
X0082946Y0195468D01*
X0082946Y0195935D01*
X0083413Y0196402D01*
X0084347Y0196402D01*
X0084814Y0195935D01*
X0084347Y0195001D02*
X0084814Y0194534D01*
X0084814Y0194067D01*
X0084347Y0193600D01*
X0083413Y0193600D01*
X0082946Y0194067D01*
X0082946Y0194534D01*
X0083413Y0195001D01*
X0081868Y0193600D02*
X0080000Y0193600D01*
X0080934Y0193600D02*
X0080934Y0196402D01*
X0080000Y0195468D01*
X0078921Y0195935D02*
X0078921Y0195001D01*
X0078454Y0194534D01*
X0077053Y0194534D01*
X0077053Y0193600D02*
X0077053Y0196402D01*
X0078454Y0196402D01*
X0078921Y0195935D01*
X0077987Y0194534D02*
X0078921Y0193600D01*
X0078454Y0189402D02*
X0078921Y0188935D01*
X0078921Y0188001D01*
X0078454Y0187534D01*
X0077053Y0187534D01*
X0077053Y0186600D02*
X0077053Y0189402D01*
X0078454Y0189402D01*
X0080000Y0188468D02*
X0080934Y0189402D01*
X0080934Y0186600D01*
X0080000Y0186600D02*
X0081868Y0186600D01*
X0082946Y0187067D02*
X0083413Y0186600D01*
X0084347Y0186600D01*
X0084814Y0187067D01*
X0084814Y0188935D01*
X0084347Y0189402D01*
X0083413Y0189402D01*
X0082946Y0188935D01*
X0082946Y0188468D01*
X0083413Y0188001D01*
X0084814Y0188001D01*
X0078921Y0186600D02*
X0077987Y0187534D01*
X0055097Y0164652D02*
X0055564Y0164185D01*
X0053696Y0162317D01*
X0054163Y0161850D01*
X0055097Y0161850D01*
X0055564Y0162317D01*
X0055564Y0164185D01*
X0055097Y0164652D02*
X0054163Y0164652D01*
X0053696Y0164185D01*
X0053696Y0162317D01*
X0052618Y0161850D02*
X0050750Y0161850D01*
X0051684Y0161850D02*
X0051684Y0164652D01*
X0050750Y0163718D01*
X0049671Y0164185D02*
X0049204Y0164652D01*
X0048270Y0164652D01*
X0047803Y0164185D01*
X0047803Y0162317D01*
X0048270Y0161850D01*
X0049204Y0161850D01*
X0049671Y0162317D01*
X0045436Y0174100D02*
X0043568Y0174100D01*
X0043101Y0174567D01*
X0043101Y0175501D01*
X0043568Y0175968D01*
X0043568Y0177047D02*
X0044035Y0177047D01*
X0044502Y0177514D01*
X0044502Y0178915D01*
X0045436Y0178915D02*
X0043568Y0178915D01*
X0043101Y0178448D01*
X0043101Y0177514D01*
X0043568Y0177047D01*
X0045436Y0177047D02*
X0045903Y0177514D01*
X0045903Y0178448D01*
X0045436Y0178915D01*
X0045436Y0175968D02*
X0045903Y0175501D01*
X0045903Y0174567D01*
X0045436Y0174100D01*
X0050608Y0224100D02*
X0050608Y0227203D01*
X0052159Y0227203D01*
X0052676Y0226686D01*
X0052676Y0225651D01*
X0052159Y0225134D01*
X0050608Y0225134D01*
X0051642Y0225134D02*
X0052676Y0224100D01*
X0053830Y0224100D02*
X0055899Y0226168D01*
X0055899Y0226686D01*
X0055382Y0227203D01*
X0054347Y0227203D01*
X0053830Y0226686D01*
X0053830Y0224100D02*
X0055899Y0224100D01*
X0042899Y0229617D02*
X0042899Y0230134D01*
X0042382Y0230651D01*
X0040830Y0230651D01*
X0040830Y0229617D01*
X0041347Y0229100D01*
X0042382Y0229100D01*
X0042899Y0229617D01*
X0040830Y0230651D02*
X0041864Y0231686D01*
X0042899Y0232203D01*
X0038642Y0232203D02*
X0038642Y0229100D01*
X0039676Y0229100D02*
X0037607Y0229100D01*
X0036453Y0229100D02*
X0035419Y0230134D01*
X0035936Y0230134D02*
X0034385Y0230134D01*
X0034385Y0229100D02*
X0034385Y0232203D01*
X0035936Y0232203D01*
X0036453Y0231686D01*
X0036453Y0230651D01*
X0035936Y0230134D01*
X0037607Y0231168D02*
X0038642Y0232203D01*
X0029975Y0235801D02*
X0028106Y0235801D01*
X0029508Y0237202D01*
X0029508Y0234400D01*
X0027028Y0234400D02*
X0025160Y0234400D01*
X0026094Y0234400D02*
X0026094Y0237202D01*
X0025160Y0236268D01*
X0024082Y0235801D02*
X0023615Y0235334D01*
X0022213Y0235334D01*
X0022213Y0234400D02*
X0022213Y0237202D01*
X0023615Y0237202D01*
X0024082Y0236735D01*
X0024082Y0235801D01*
X0023148Y0235334D02*
X0024082Y0234400D01*
X0032767Y0303650D02*
X0034168Y0303650D01*
X0034635Y0304117D01*
X0034635Y0304584D01*
X0034168Y0305051D01*
X0032767Y0305051D01*
X0032767Y0303650D02*
X0032767Y0306452D01*
X0034168Y0306452D01*
X0034635Y0305985D01*
X0034635Y0305518D01*
X0034168Y0305051D01*
X0035713Y0305051D02*
X0037582Y0305051D01*
X0037582Y0305518D02*
X0037582Y0303650D01*
X0037582Y0305518D02*
X0036648Y0306452D01*
X0035713Y0305518D01*
X0035713Y0303650D01*
X0039594Y0303650D02*
X0039594Y0306452D01*
X0038660Y0306452D02*
X0040528Y0306452D01*
X0041606Y0305518D02*
X0042541Y0306452D01*
X0042541Y0303650D01*
X0043475Y0303650D02*
X0041606Y0303650D01*
X0096094Y0245702D02*
X0097028Y0245702D01*
X0096561Y0245702D02*
X0096561Y0243367D01*
X0096094Y0242900D01*
X0095627Y0242900D01*
X0095160Y0243367D01*
X0098106Y0242900D02*
X0099975Y0242900D01*
X0099041Y0242900D02*
X0099041Y0245702D01*
X0098106Y0244768D01*
X0143553Y0219402D02*
X0143553Y0217067D01*
X0144020Y0216600D01*
X0144954Y0216600D01*
X0145421Y0217067D01*
X0145421Y0219402D01*
X0146500Y0218935D02*
X0146967Y0219402D01*
X0147901Y0219402D01*
X0148368Y0218935D01*
X0148368Y0218468D01*
X0147901Y0218001D01*
X0148368Y0217534D01*
X0148368Y0217067D01*
X0147901Y0216600D01*
X0146967Y0216600D01*
X0146500Y0217067D01*
X0147434Y0218001D02*
X0147901Y0218001D01*
X0147454Y0179902D02*
X0146520Y0179902D01*
X0146053Y0179435D01*
X0146053Y0177567D01*
X0146520Y0177100D01*
X0147454Y0177100D01*
X0147921Y0177567D01*
X0149000Y0177100D02*
X0150868Y0177100D01*
X0149934Y0177100D02*
X0149934Y0179902D01*
X0149000Y0178968D01*
X0147921Y0179435D02*
X0147454Y0179902D01*
X0171053Y0179435D02*
X0171053Y0177567D01*
X0171520Y0177100D01*
X0172454Y0177100D01*
X0172921Y0177567D01*
X0174000Y0177567D02*
X0174467Y0177100D01*
X0175401Y0177100D01*
X0175868Y0177567D01*
X0175868Y0178034D01*
X0175401Y0178501D01*
X0174000Y0178501D01*
X0174000Y0177567D01*
X0174000Y0178501D02*
X0174934Y0179435D01*
X0175868Y0179902D01*
X0172921Y0179435D02*
X0172454Y0179902D01*
X0171520Y0179902D01*
X0171053Y0179435D01*
X0185518Y0149522D02*
X0185051Y0149055D01*
X0185051Y0148121D01*
X0185518Y0147653D01*
X0186452Y0148588D02*
X0186452Y0149055D01*
X0186919Y0149522D01*
X0187386Y0149522D01*
X0187853Y0149055D01*
X0187853Y0148121D01*
X0187386Y0147653D01*
X0187853Y0146575D02*
X0187853Y0144707D01*
X0187853Y0145641D02*
X0185051Y0145641D01*
X0185985Y0144707D01*
X0185518Y0143629D02*
X0185051Y0143162D01*
X0185051Y0142228D01*
X0185518Y0141760D01*
X0187386Y0141760D01*
X0187853Y0142228D01*
X0187853Y0143162D01*
X0187386Y0143629D01*
X0186452Y0149055D02*
X0185985Y0149522D01*
X0185518Y0149522D01*
X0193051Y0149055D02*
X0193051Y0148121D01*
X0193518Y0147653D01*
X0193518Y0146575D02*
X0193051Y0146108D01*
X0193051Y0145174D01*
X0193518Y0144707D01*
X0193518Y0143629D02*
X0193051Y0143162D01*
X0193051Y0142228D01*
X0193518Y0141760D01*
X0195386Y0141760D01*
X0195853Y0142228D01*
X0195853Y0143162D01*
X0195386Y0143629D01*
X0195853Y0144707D02*
X0193985Y0146575D01*
X0193518Y0146575D01*
X0195853Y0146575D02*
X0195853Y0144707D01*
X0195853Y0147653D02*
X0193985Y0149522D01*
X0193518Y0149522D01*
X0193051Y0149055D01*
X0195853Y0149522D02*
X0195853Y0147653D01*
X0202351Y0157350D02*
X0202351Y0158751D01*
X0202818Y0159218D01*
X0203752Y0159218D01*
X0204219Y0158751D01*
X0204219Y0157350D01*
X0205153Y0157350D02*
X0202351Y0157350D01*
X0204219Y0158284D02*
X0205153Y0159218D01*
X0205153Y0160297D02*
X0205153Y0162165D01*
X0205153Y0161231D02*
X0202351Y0161231D01*
X0203285Y0160297D01*
X0203752Y0163243D02*
X0202351Y0163243D01*
X0202351Y0165111D01*
X0203285Y0164644D02*
X0203752Y0165111D01*
X0204686Y0165111D01*
X0205153Y0164644D01*
X0205153Y0163710D01*
X0204686Y0163243D01*
X0203752Y0163243D02*
X0203285Y0164177D01*
X0203285Y0164644D01*
X0204219Y0170350D02*
X0204219Y0171751D01*
X0203752Y0172218D01*
X0202818Y0172218D01*
X0202351Y0171751D01*
X0202351Y0170350D01*
X0205153Y0170350D01*
X0204219Y0171284D02*
X0205153Y0172218D01*
X0204686Y0173297D02*
X0204219Y0173297D01*
X0203752Y0173764D01*
X0203752Y0174698D01*
X0204219Y0175165D01*
X0204686Y0175165D01*
X0205153Y0174698D01*
X0205153Y0173764D01*
X0204686Y0173297D01*
X0203752Y0173764D02*
X0203285Y0173297D01*
X0202818Y0173297D01*
X0202351Y0173764D01*
X0202351Y0174698D01*
X0202818Y0175165D01*
X0203285Y0175165D01*
X0203752Y0174698D01*
X0219351Y0177600D02*
X0219351Y0179001D01*
X0219818Y0179468D01*
X0220752Y0179468D01*
X0221219Y0179001D01*
X0221219Y0177600D01*
X0222153Y0177600D02*
X0219351Y0177600D01*
X0221219Y0178534D02*
X0222153Y0179468D01*
X0222153Y0180547D02*
X0222153Y0182415D01*
X0222153Y0181481D02*
X0219351Y0181481D01*
X0220285Y0180547D01*
X0219351Y0183493D02*
X0219351Y0185361D01*
X0219818Y0185361D01*
X0221686Y0183493D01*
X0222153Y0183493D01*
X0232022Y0206100D02*
X0231555Y0206567D01*
X0232022Y0206100D02*
X0232956Y0206100D01*
X0233423Y0206567D01*
X0233423Y0207034D01*
X0232956Y0207501D01*
X0232022Y0207501D01*
X0231555Y0207968D01*
X0231555Y0208435D01*
X0232022Y0208902D01*
X0232956Y0208902D01*
X0233423Y0208435D01*
X0234502Y0208902D02*
X0235903Y0208902D01*
X0236370Y0208435D01*
X0236370Y0206567D01*
X0235903Y0206100D01*
X0234502Y0206100D01*
X0234502Y0208902D01*
X0237448Y0207968D02*
X0238382Y0208902D01*
X0238382Y0206100D01*
X0237448Y0206100D02*
X0239316Y0206100D01*
X0221136Y0146272D02*
X0219268Y0146272D01*
X0218801Y0145805D01*
X0218801Y0144871D01*
X0219268Y0144403D01*
X0219735Y0144403D01*
X0220202Y0144871D01*
X0220202Y0146272D01*
X0221136Y0146272D02*
X0221603Y0145805D01*
X0221603Y0144871D01*
X0221136Y0144403D01*
X0221603Y0143325D02*
X0220669Y0142391D01*
X0220669Y0142858D02*
X0220669Y0141457D01*
X0221603Y0141457D02*
X0218801Y0141457D01*
X0218801Y0142858D01*
X0219268Y0143325D01*
X0220202Y0143325D01*
X0220669Y0142858D01*
X0210353Y0140772D02*
X0210353Y0138903D01*
X0208485Y0140772D01*
X0208018Y0140772D01*
X0207551Y0140305D01*
X0207551Y0139371D01*
X0208018Y0138903D01*
X0207551Y0136891D02*
X0210353Y0136891D01*
X0210353Y0135957D02*
X0210353Y0137825D01*
X0208485Y0135957D02*
X0207551Y0136891D01*
X0208018Y0134879D02*
X0208952Y0134879D01*
X0209419Y0134412D01*
X0209419Y0133010D01*
X0210353Y0133010D02*
X0207551Y0133010D01*
X0207551Y0134412D01*
X0208018Y0134879D01*
X0209419Y0133945D02*
X0210353Y0134879D01*
X0213181Y0127702D02*
X0212713Y0127235D01*
X0212713Y0125367D01*
X0213181Y0124900D01*
X0214115Y0124900D01*
X0214582Y0125367D01*
X0215660Y0124900D02*
X0217528Y0126768D01*
X0217528Y0127235D01*
X0217061Y0127702D01*
X0216127Y0127702D01*
X0215660Y0127235D01*
X0214582Y0127235D02*
X0214115Y0127702D01*
X0213181Y0127702D01*
X0215660Y0124900D02*
X0217528Y0124900D01*
X0218606Y0125367D02*
X0219074Y0124900D01*
X0220008Y0124900D01*
X0220475Y0125367D01*
X0220475Y0126301D01*
X0220008Y0126768D01*
X0219541Y0126768D01*
X0218606Y0126301D01*
X0218606Y0127702D01*
X0220475Y0127702D01*
X0242553Y0106435D02*
X0242553Y0104567D01*
X0243020Y0104100D01*
X0243954Y0104100D01*
X0244421Y0104567D01*
X0245500Y0104100D02*
X0247368Y0105968D01*
X0247368Y0106435D01*
X0246901Y0106902D01*
X0245967Y0106902D01*
X0245500Y0106435D01*
X0244421Y0106435D02*
X0243954Y0106902D01*
X0243020Y0106902D01*
X0242553Y0106435D01*
X0245500Y0104100D02*
X0247368Y0104100D01*
X0248446Y0104567D02*
X0248913Y0104100D01*
X0249847Y0104100D01*
X0250314Y0104567D01*
X0250314Y0105034D01*
X0249847Y0105501D01*
X0249380Y0105501D01*
X0249847Y0105501D02*
X0250314Y0105968D01*
X0250314Y0106435D01*
X0249847Y0106902D01*
X0248913Y0106902D01*
X0248446Y0106435D01*
X0254053Y0112850D02*
X0254053Y0115652D01*
X0255454Y0115652D01*
X0255921Y0115185D01*
X0255921Y0114251D01*
X0255454Y0113784D01*
X0254053Y0113784D01*
X0254987Y0113784D02*
X0255921Y0112850D01*
X0257000Y0112850D02*
X0258868Y0112850D01*
X0257934Y0112850D02*
X0257934Y0115652D01*
X0257000Y0114718D01*
X0259946Y0115185D02*
X0259946Y0113317D01*
X0261814Y0115185D01*
X0261814Y0113317D01*
X0261347Y0112850D01*
X0260413Y0112850D01*
X0259946Y0113317D01*
X0259946Y0115185D02*
X0260413Y0115652D01*
X0261347Y0115652D01*
X0261814Y0115185D01*
X0262064Y0124350D02*
X0260196Y0124350D01*
X0262064Y0126218D01*
X0262064Y0126685D01*
X0261597Y0127152D01*
X0260663Y0127152D01*
X0260196Y0126685D01*
X0259118Y0126685D02*
X0258651Y0127152D01*
X0257717Y0127152D01*
X0257250Y0126685D01*
X0256171Y0126685D02*
X0256171Y0125751D01*
X0255704Y0125284D01*
X0254303Y0125284D01*
X0254303Y0124350D02*
X0254303Y0127152D01*
X0255704Y0127152D01*
X0256171Y0126685D01*
X0255237Y0125284D02*
X0256171Y0124350D01*
X0257250Y0124350D02*
X0259118Y0126218D01*
X0259118Y0126685D01*
X0259118Y0124350D02*
X0257250Y0124350D01*
X0268660Y0131367D02*
X0269127Y0130900D01*
X0270061Y0130900D01*
X0270528Y0131367D01*
X0271606Y0130900D02*
X0273475Y0132768D01*
X0273475Y0133235D01*
X0273008Y0133702D01*
X0272074Y0133702D01*
X0271606Y0133235D01*
X0270528Y0133235D02*
X0270061Y0133702D01*
X0269127Y0133702D01*
X0268660Y0133235D01*
X0268660Y0131367D01*
X0271606Y0130900D02*
X0273475Y0130900D01*
X0261069Y0088365D02*
X0261069Y0086297D01*
X0261069Y0087331D02*
X0257966Y0087331D01*
X0259001Y0086297D01*
X0261069Y0085142D02*
X0261069Y0083074D01*
X0261069Y0084108D02*
X0257966Y0084108D01*
X0259001Y0083074D01*
X0258484Y0081920D02*
X0259518Y0081920D01*
X0260035Y0081403D01*
X0260035Y0079851D01*
X0261069Y0079851D02*
X0257966Y0079851D01*
X0257966Y0081403D01*
X0258484Y0081920D01*
X0260035Y0080885D02*
X0261069Y0081920D01*
X0255186Y0051361D02*
X0254719Y0051361D01*
X0254252Y0050894D01*
X0254252Y0049493D01*
X0255186Y0049493D01*
X0255653Y0049960D01*
X0255653Y0050894D01*
X0255186Y0051361D01*
X0253318Y0050427D02*
X0254252Y0049493D01*
X0253785Y0048415D02*
X0253318Y0048415D01*
X0252851Y0047948D01*
X0252851Y0047014D01*
X0253318Y0046547D01*
X0253318Y0045468D02*
X0252851Y0045001D01*
X0252851Y0044067D01*
X0253318Y0043600D01*
X0255186Y0043600D01*
X0255653Y0044067D01*
X0255653Y0045001D01*
X0255186Y0045468D01*
X0255653Y0046547D02*
X0253785Y0048415D01*
X0255653Y0048415D02*
X0255653Y0046547D01*
X0253318Y0050427D02*
X0252851Y0051361D01*
X0252174Y0033036D02*
X0250773Y0031634D01*
X0252641Y0031634D01*
X0252174Y0030233D02*
X0252174Y0033036D01*
X0249695Y0032569D02*
X0249228Y0033036D01*
X0248294Y0033036D01*
X0247827Y0032569D01*
X0247827Y0030700D01*
X0248294Y0030233D01*
X0249228Y0030233D01*
X0249695Y0030700D01*
X0231153Y0030968D02*
X0230219Y0030034D01*
X0230219Y0030501D02*
X0230219Y0029100D01*
X0231153Y0029100D02*
X0228351Y0029100D01*
X0228351Y0030501D01*
X0228818Y0030968D01*
X0229752Y0030968D01*
X0230219Y0030501D01*
X0231153Y0032047D02*
X0231153Y0033915D01*
X0231153Y0032981D02*
X0228351Y0032981D01*
X0229285Y0032047D01*
X0228818Y0034993D02*
X0228351Y0035460D01*
X0228351Y0036394D01*
X0228818Y0036861D01*
X0229285Y0036861D01*
X0229752Y0036394D01*
X0230219Y0036861D01*
X0230686Y0036861D01*
X0231153Y0036394D01*
X0231153Y0035460D01*
X0230686Y0034993D01*
X0229752Y0035927D02*
X0229752Y0036394D01*
X0223653Y0033198D02*
X0220851Y0033198D01*
X0222252Y0031797D01*
X0222252Y0033665D01*
X0222252Y0030718D02*
X0222719Y0030251D01*
X0222719Y0028850D01*
X0223653Y0028850D02*
X0220851Y0028850D01*
X0220851Y0030251D01*
X0221318Y0030718D01*
X0222252Y0030718D01*
X0222719Y0029784D02*
X0223653Y0030718D01*
X0198225Y0030867D02*
X0197758Y0030400D01*
X0196824Y0030400D01*
X0196356Y0030867D01*
X0195278Y0030867D02*
X0194811Y0030400D01*
X0193877Y0030400D01*
X0193410Y0030867D01*
X0193410Y0032735D01*
X0193877Y0033202D01*
X0194811Y0033202D01*
X0195278Y0032735D01*
X0196356Y0032735D02*
X0196824Y0033202D01*
X0197758Y0033202D01*
X0198225Y0032735D01*
X0198225Y0032268D01*
X0197758Y0031801D01*
X0198225Y0031334D01*
X0198225Y0030867D01*
X0197758Y0031801D02*
X0197291Y0031801D01*
X0179653Y0040067D02*
X0179653Y0041001D01*
X0179186Y0041468D01*
X0179653Y0042547D02*
X0179653Y0044415D01*
X0179653Y0043481D02*
X0176851Y0043481D01*
X0177785Y0042547D01*
X0177318Y0041468D02*
X0176851Y0041001D01*
X0176851Y0040067D01*
X0177318Y0039600D01*
X0179186Y0039600D01*
X0179653Y0040067D01*
X0179653Y0045493D02*
X0179186Y0045493D01*
X0177318Y0047361D01*
X0176851Y0047361D01*
X0176851Y0045493D01*
X0171653Y0042547D02*
X0171186Y0042547D01*
X0169318Y0044415D01*
X0168851Y0044415D01*
X0168851Y0042547D01*
X0169318Y0041468D02*
X0168851Y0041001D01*
X0168851Y0040067D01*
X0169318Y0039600D01*
X0171186Y0039600D01*
X0171653Y0040067D01*
X0171653Y0041001D01*
X0171186Y0041468D01*
X0182984Y0060266D02*
X0182517Y0060734D01*
X0182517Y0061668D01*
X0182984Y0062135D01*
X0184853Y0062135D01*
X0185320Y0061668D01*
X0185320Y0060734D01*
X0184853Y0060266D01*
X0182984Y0060266D01*
X0184386Y0061201D02*
X0185320Y0062135D01*
X0185320Y0063213D02*
X0185320Y0065081D01*
X0185320Y0064147D02*
X0182517Y0064147D01*
X0183451Y0063213D01*
X0182734Y0075350D02*
X0182267Y0075817D01*
X0182267Y0076751D01*
X0182734Y0077218D01*
X0184603Y0077218D01*
X0185070Y0076751D01*
X0185070Y0075817D01*
X0184603Y0075350D01*
X0182734Y0075350D01*
X0184136Y0076284D02*
X0185070Y0077218D01*
X0184603Y0078296D02*
X0185070Y0078763D01*
X0185070Y0079698D01*
X0184603Y0080165D01*
X0183669Y0080165D01*
X0183201Y0079698D01*
X0183201Y0079230D01*
X0183669Y0078296D01*
X0182267Y0078296D01*
X0182267Y0080165D01*
X0213260Y0090667D02*
X0213260Y0092218D01*
X0213777Y0092735D01*
X0214811Y0092735D01*
X0215328Y0092218D01*
X0215328Y0090667D01*
X0215328Y0091701D02*
X0216362Y0092735D01*
X0216362Y0093890D02*
X0214294Y0095958D01*
X0213777Y0095958D01*
X0213260Y0095441D01*
X0213260Y0094407D01*
X0213777Y0093890D01*
X0216362Y0093890D02*
X0216362Y0095958D01*
X0215845Y0097112D02*
X0213777Y0099181D01*
X0215845Y0099181D01*
X0216362Y0098664D01*
X0216362Y0097629D01*
X0215845Y0097112D01*
X0213777Y0097112D01*
X0213260Y0097629D01*
X0213260Y0098664D01*
X0213777Y0099181D01*
X0213260Y0090667D02*
X0216362Y0090667D01*
X0231046Y0090652D02*
X0231048Y0090696D01*
X0231054Y0090740D01*
X0231064Y0090783D01*
X0231077Y0090825D01*
X0231095Y0090865D01*
X0231116Y0090904D01*
X0231140Y0090941D01*
X0231167Y0090976D01*
X0231198Y0091008D01*
X0231231Y0091037D01*
X0231267Y0091063D01*
X0231305Y0091085D01*
X0231345Y0091104D01*
X0231386Y0091120D01*
X0231429Y0091132D01*
X0231472Y0091140D01*
X0231516Y0091144D01*
X0231560Y0091144D01*
X0231604Y0091140D01*
X0231647Y0091132D01*
X0231690Y0091120D01*
X0231731Y0091104D01*
X0231771Y0091085D01*
X0231809Y0091063D01*
X0231845Y0091037D01*
X0231878Y0091008D01*
X0231909Y0090976D01*
X0231936Y0090941D01*
X0231960Y0090904D01*
X0231981Y0090865D01*
X0231999Y0090825D01*
X0232012Y0090783D01*
X0232022Y0090740D01*
X0232028Y0090696D01*
X0232030Y0090652D01*
X0232028Y0090608D01*
X0232022Y0090564D01*
X0232012Y0090521D01*
X0231999Y0090479D01*
X0231981Y0090439D01*
X0231960Y0090400D01*
X0231936Y0090363D01*
X0231909Y0090328D01*
X0231878Y0090296D01*
X0231845Y0090267D01*
X0231809Y0090241D01*
X0231771Y0090219D01*
X0231731Y0090200D01*
X0231690Y0090184D01*
X0231647Y0090172D01*
X0231604Y0090164D01*
X0231560Y0090160D01*
X0231516Y0090160D01*
X0231472Y0090164D01*
X0231429Y0090172D01*
X0231386Y0090184D01*
X0231345Y0090200D01*
X0231305Y0090219D01*
X0231267Y0090241D01*
X0231231Y0090267D01*
X0231198Y0090296D01*
X0231167Y0090328D01*
X0231140Y0090363D01*
X0231116Y0090400D01*
X0231095Y0090439D01*
X0231077Y0090479D01*
X0231064Y0090521D01*
X0231054Y0090564D01*
X0231048Y0090608D01*
X0231046Y0090652D01*
X0154653Y0136567D02*
X0154653Y0137034D01*
X0154186Y0137501D01*
X0151851Y0137501D01*
X0151851Y0137034D02*
X0151851Y0137968D01*
X0152318Y0139047D02*
X0151851Y0139514D01*
X0151851Y0140448D01*
X0152318Y0140915D01*
X0152785Y0140915D01*
X0154653Y0139047D01*
X0154653Y0140915D01*
X0154653Y0136567D02*
X0154186Y0136100D01*
X0120314Y0130501D02*
X0118446Y0130501D01*
X0119847Y0131902D01*
X0119847Y0129100D01*
X0117368Y0129100D02*
X0115500Y0129100D01*
X0116434Y0129100D02*
X0116434Y0131902D01*
X0115500Y0130968D01*
X0114421Y0131435D02*
X0113954Y0131902D01*
X0113020Y0131902D01*
X0112553Y0131435D01*
X0112553Y0129567D01*
X0113020Y0129100D01*
X0113954Y0129100D01*
X0114421Y0129567D01*
X0108314Y0129567D02*
X0107847Y0129100D01*
X0106913Y0129100D01*
X0106446Y0129567D01*
X0106446Y0130501D01*
X0107847Y0130501D01*
X0108314Y0130034D01*
X0108314Y0129567D01*
X0107380Y0131435D02*
X0106446Y0130501D01*
X0107380Y0131435D02*
X0108314Y0131902D01*
X0104434Y0131902D02*
X0104434Y0129100D01*
X0103500Y0129100D02*
X0105368Y0129100D01*
X0103500Y0130968D02*
X0104434Y0131902D01*
X0102421Y0131435D02*
X0101954Y0131902D01*
X0101020Y0131902D01*
X0100553Y0131435D01*
X0100553Y0129567D01*
X0101020Y0129100D01*
X0101954Y0129100D01*
X0102421Y0129567D01*
X0090603Y0117305D02*
X0090603Y0116371D01*
X0090136Y0115903D01*
X0089202Y0115903D02*
X0088735Y0116838D01*
X0088735Y0117305D01*
X0089202Y0117772D01*
X0090136Y0117772D01*
X0090603Y0117305D01*
X0089202Y0115903D02*
X0087801Y0115903D01*
X0087801Y0117772D01*
X0088268Y0114825D02*
X0087801Y0114358D01*
X0087801Y0113424D01*
X0088268Y0112957D01*
X0088268Y0111879D02*
X0089202Y0111879D01*
X0089669Y0111412D01*
X0089669Y0110010D01*
X0090603Y0110010D02*
X0087801Y0110010D01*
X0087801Y0111412D01*
X0088268Y0111879D01*
X0089669Y0110945D02*
X0090603Y0111879D01*
X0090136Y0112957D02*
X0090603Y0113424D01*
X0090603Y0114358D01*
X0090136Y0114825D01*
X0089669Y0114825D01*
X0089202Y0114358D01*
X0089202Y0113891D01*
X0089202Y0114358D02*
X0088735Y0114825D01*
X0088268Y0114825D01*
X0083603Y0114358D02*
X0083603Y0113424D01*
X0083136Y0112957D01*
X0083603Y0111879D02*
X0082669Y0110945D01*
X0082669Y0111412D02*
X0082669Y0110010D01*
X0083603Y0110010D02*
X0080801Y0110010D01*
X0080801Y0111412D01*
X0081268Y0111879D01*
X0082202Y0111879D01*
X0082669Y0111412D01*
X0081268Y0112957D02*
X0080801Y0113424D01*
X0080801Y0114358D01*
X0081268Y0114825D01*
X0081735Y0114825D01*
X0082202Y0114358D01*
X0082669Y0114825D01*
X0083136Y0114825D01*
X0083603Y0114358D01*
X0082202Y0114358D02*
X0082202Y0113891D01*
X0082669Y0115903D02*
X0082202Y0116371D01*
X0082202Y0117305D01*
X0082669Y0117772D01*
X0083136Y0117772D01*
X0083603Y0117305D01*
X0083603Y0116371D01*
X0083136Y0115903D01*
X0082669Y0115903D01*
X0082202Y0116371D02*
X0081735Y0115903D01*
X0081268Y0115903D01*
X0080801Y0116371D01*
X0080801Y0117305D01*
X0081268Y0117772D01*
X0081735Y0117772D01*
X0082202Y0117305D01*
X0076401Y0099902D02*
X0076868Y0099435D01*
X0076868Y0098968D01*
X0076401Y0098501D01*
X0076868Y0098034D01*
X0076868Y0097567D01*
X0076401Y0097100D01*
X0075467Y0097100D01*
X0075000Y0097567D01*
X0073921Y0097567D02*
X0073454Y0097100D01*
X0072520Y0097100D01*
X0072053Y0097567D01*
X0072053Y0099435D01*
X0072520Y0099902D01*
X0073454Y0099902D01*
X0073921Y0099435D01*
X0073921Y0097567D01*
X0073921Y0097100D02*
X0072987Y0098034D01*
X0075000Y0099435D02*
X0075467Y0099902D01*
X0076401Y0099902D01*
X0076401Y0098501D02*
X0075934Y0098501D01*
X0062118Y0099067D02*
X0061651Y0098600D01*
X0060717Y0098600D01*
X0060250Y0099067D01*
X0059171Y0098600D02*
X0058237Y0099534D01*
X0058704Y0099534D02*
X0057303Y0099534D01*
X0057303Y0098600D02*
X0057303Y0101402D01*
X0058704Y0101402D01*
X0059171Y0100935D01*
X0059171Y0100001D01*
X0058704Y0099534D01*
X0060250Y0100935D02*
X0060717Y0101402D01*
X0061651Y0101402D01*
X0062118Y0100935D01*
X0062118Y0100468D01*
X0061651Y0100001D01*
X0062118Y0099534D01*
X0062118Y0099067D01*
X0061651Y0100001D02*
X0061184Y0100001D01*
X0059401Y0089902D02*
X0058467Y0089902D01*
X0058000Y0089435D01*
X0056921Y0089435D02*
X0056921Y0087567D01*
X0056454Y0087100D01*
X0055520Y0087100D01*
X0055053Y0087567D01*
X0055053Y0089435D01*
X0055520Y0089902D01*
X0056454Y0089902D01*
X0056921Y0089435D01*
X0055987Y0088034D02*
X0056921Y0087100D01*
X0058000Y0087100D02*
X0059868Y0088968D01*
X0059868Y0089435D01*
X0059401Y0089902D01*
X0059868Y0087100D02*
X0058000Y0087100D01*
X0044653Y0093067D02*
X0044653Y0094001D01*
X0044186Y0094468D01*
X0044653Y0095547D02*
X0042785Y0097415D01*
X0042318Y0097415D01*
X0041851Y0096948D01*
X0041851Y0096014D01*
X0042318Y0095547D01*
X0042318Y0094468D02*
X0041851Y0094001D01*
X0041851Y0093067D01*
X0042318Y0092600D01*
X0044186Y0092600D01*
X0044653Y0093067D01*
X0044653Y0095547D02*
X0044653Y0097415D01*
X0044186Y0098493D02*
X0042318Y0100361D01*
X0044186Y0100361D01*
X0044653Y0099894D01*
X0044653Y0098960D01*
X0044186Y0098493D01*
X0042318Y0098493D01*
X0041851Y0098960D01*
X0041851Y0099894D01*
X0042318Y0100361D01*
X0041921Y0111600D02*
X0040987Y0112534D01*
X0041454Y0112534D02*
X0040053Y0112534D01*
X0040053Y0111600D02*
X0040053Y0114402D01*
X0041454Y0114402D01*
X0041921Y0113935D01*
X0041921Y0113001D01*
X0041454Y0112534D01*
X0043000Y0112067D02*
X0043467Y0111600D01*
X0044401Y0111600D01*
X0044868Y0112067D01*
X0044868Y0112534D01*
X0044401Y0113001D01*
X0043934Y0113001D01*
X0044401Y0113001D02*
X0044868Y0113468D01*
X0044868Y0113935D01*
X0044401Y0114402D01*
X0043467Y0114402D01*
X0043000Y0113935D01*
X0045946Y0114402D02*
X0047814Y0114402D01*
X0047814Y0113935D01*
X0045946Y0112067D01*
X0045946Y0111600D01*
X0042653Y0080861D02*
X0042653Y0078993D01*
X0042653Y0079927D02*
X0039851Y0079927D01*
X0040785Y0078993D01*
X0040785Y0077915D02*
X0040318Y0077915D01*
X0039851Y0077448D01*
X0039851Y0076514D01*
X0040318Y0076047D01*
X0040318Y0074968D02*
X0039851Y0074501D01*
X0039851Y0073567D01*
X0040318Y0073100D01*
X0042186Y0073100D01*
X0042653Y0073567D01*
X0042653Y0074501D01*
X0042186Y0074968D01*
X0042653Y0076047D02*
X0040785Y0077915D01*
X0042653Y0077915D02*
X0042653Y0076047D01*
X0041788Y0062736D02*
X0040853Y0062736D01*
X0040386Y0062269D01*
X0040386Y0060400D01*
X0040853Y0059933D01*
X0041788Y0059933D01*
X0042255Y0060400D01*
X0043333Y0059933D02*
X0045201Y0061802D01*
X0045201Y0062269D01*
X0044734Y0062736D01*
X0043800Y0062736D01*
X0043333Y0062269D01*
X0042255Y0062269D02*
X0041788Y0062736D01*
X0043333Y0059933D02*
X0045201Y0059933D01*
X0046279Y0060400D02*
X0046279Y0060867D01*
X0046746Y0061334D01*
X0047681Y0061334D01*
X0048148Y0060867D01*
X0048148Y0060400D01*
X0047681Y0059933D01*
X0046746Y0059933D01*
X0046279Y0060400D01*
X0046746Y0061334D02*
X0046279Y0061802D01*
X0046279Y0062269D01*
X0046746Y0062736D01*
X0047681Y0062736D01*
X0048148Y0062269D01*
X0048148Y0061802D01*
X0047681Y0061334D01*
X0048148Y0057069D02*
X0046279Y0057069D01*
X0045201Y0056602D02*
X0044734Y0057069D01*
X0043800Y0057069D01*
X0043333Y0056602D01*
X0042255Y0056602D02*
X0041788Y0057069D01*
X0040853Y0057069D01*
X0040386Y0056602D01*
X0040386Y0054734D01*
X0040853Y0054267D01*
X0041788Y0054267D01*
X0042255Y0054734D01*
X0043333Y0054267D02*
X0045201Y0056135D01*
X0045201Y0056602D01*
X0046279Y0054734D02*
X0046279Y0054267D01*
X0046279Y0054734D02*
X0048148Y0056602D01*
X0048148Y0057069D01*
X0045201Y0054267D02*
X0043333Y0054267D01*
X0044759Y0052225D02*
X0046160Y0050824D01*
X0046160Y0052692D01*
X0047561Y0052225D02*
X0044759Y0052225D01*
X0045226Y0049746D02*
X0044759Y0049279D01*
X0044759Y0048345D01*
X0045226Y0047878D01*
X0045226Y0046799D02*
X0044759Y0046332D01*
X0044759Y0045398D01*
X0045226Y0044931D01*
X0047094Y0044931D01*
X0047561Y0045398D01*
X0047561Y0046332D01*
X0047094Y0046799D01*
X0047561Y0047878D02*
X0045693Y0049746D01*
X0045226Y0049746D01*
X0047561Y0049746D02*
X0047561Y0047878D01*
X0037445Y0044230D02*
X0037445Y0043763D01*
X0035577Y0041895D01*
X0035577Y0041428D01*
X0034499Y0041428D02*
X0033565Y0042362D01*
X0034032Y0042362D02*
X0032631Y0042362D01*
X0032631Y0041428D02*
X0032631Y0044230D01*
X0034032Y0044230D01*
X0034499Y0043763D01*
X0034499Y0042829D01*
X0034032Y0042362D01*
X0035577Y0044230D02*
X0037445Y0044230D01*
X0046846Y0035777D02*
X0047313Y0036244D01*
X0047780Y0036244D01*
X0048248Y0035777D01*
X0048715Y0036244D01*
X0049182Y0036244D01*
X0049649Y0035777D01*
X0049649Y0034843D01*
X0049182Y0034376D01*
X0049649Y0033298D02*
X0049649Y0031430D01*
X0046846Y0031430D01*
X0047313Y0034376D02*
X0046846Y0034843D01*
X0046846Y0035777D01*
X0048248Y0035777D02*
X0048248Y0035310D01*
X0039936Y0025361D02*
X0040403Y0024894D01*
X0040403Y0023960D01*
X0039936Y0023493D01*
X0039469Y0023493D01*
X0039002Y0023960D01*
X0039002Y0024894D01*
X0039469Y0025361D01*
X0039936Y0025361D01*
X0039002Y0024894D02*
X0038535Y0025361D01*
X0038068Y0025361D01*
X0037601Y0024894D01*
X0037601Y0023960D01*
X0038068Y0023493D01*
X0038535Y0023493D01*
X0039002Y0023960D01*
X0040403Y0022415D02*
X0040403Y0020547D01*
X0040403Y0021481D02*
X0037601Y0021481D01*
X0038535Y0020547D01*
X0038068Y0019468D02*
X0037601Y0019001D01*
X0037601Y0018067D01*
X0038068Y0017600D01*
X0039936Y0017600D01*
X0040403Y0018067D01*
X0040403Y0019001D01*
X0039936Y0019468D01*
X0027541Y0006452D02*
X0027541Y0003650D01*
X0028475Y0003650D02*
X0026606Y0003650D01*
X0025528Y0004117D02*
X0025061Y0003650D01*
X0023660Y0003650D01*
X0023660Y0006452D01*
X0025061Y0006452D01*
X0025528Y0005985D01*
X0025528Y0005518D01*
X0025061Y0005051D01*
X0023660Y0005051D01*
X0022582Y0004584D02*
X0022582Y0004117D01*
X0022115Y0003650D01*
X0021181Y0003650D01*
X0020713Y0004117D01*
X0021181Y0005051D02*
X0022115Y0005051D01*
X0022582Y0004584D01*
X0022582Y0005985D02*
X0022115Y0006452D01*
X0021181Y0006452D01*
X0020713Y0005985D01*
X0020713Y0005518D01*
X0021181Y0005051D01*
X0019635Y0004117D02*
X0019635Y0006452D01*
X0017767Y0006452D02*
X0017767Y0004117D01*
X0018234Y0003650D01*
X0019168Y0003650D01*
X0019635Y0004117D01*
X0025061Y0005051D02*
X0025528Y0004584D01*
X0025528Y0004117D01*
X0026606Y0005518D02*
X0027541Y0006452D01*
X0056101Y0018067D02*
X0056568Y0017600D01*
X0058436Y0017600D01*
X0058903Y0018067D01*
X0058903Y0019001D01*
X0058436Y0019468D01*
X0058903Y0020547D02*
X0058903Y0022415D01*
X0058903Y0021481D02*
X0056101Y0021481D01*
X0057035Y0020547D01*
X0056568Y0019468D02*
X0056101Y0019001D01*
X0056101Y0018067D01*
X0056568Y0023493D02*
X0057035Y0023493D01*
X0057502Y0023960D01*
X0057502Y0025361D01*
X0058436Y0025361D02*
X0056568Y0025361D01*
X0056101Y0024894D01*
X0056101Y0023960D01*
X0056568Y0023493D01*
X0058436Y0023493D02*
X0058903Y0023960D01*
X0058903Y0024894D01*
X0058436Y0025361D01*
X0064213Y0025400D02*
X0064213Y0028202D01*
X0065615Y0028202D01*
X0066082Y0027735D01*
X0066082Y0026801D01*
X0065615Y0026334D01*
X0064213Y0026334D01*
X0065148Y0026334D02*
X0066082Y0025400D01*
X0067160Y0025867D02*
X0067627Y0025400D01*
X0068561Y0025400D01*
X0069028Y0025867D01*
X0069028Y0026334D01*
X0068561Y0026801D01*
X0068094Y0026801D01*
X0068561Y0026801D02*
X0069028Y0027268D01*
X0069028Y0027735D01*
X0068561Y0028202D01*
X0067627Y0028202D01*
X0067160Y0027735D01*
X0070106Y0026801D02*
X0071975Y0026801D01*
X0071508Y0025400D02*
X0071508Y0028202D01*
X0070106Y0026801D01*
X0070574Y0032400D02*
X0070106Y0032867D01*
X0070574Y0032400D02*
X0071508Y0032400D01*
X0071975Y0032867D01*
X0071975Y0033334D01*
X0071508Y0033801D01*
X0071041Y0033801D01*
X0071508Y0033801D02*
X0071975Y0034268D01*
X0071975Y0034735D01*
X0071508Y0035202D01*
X0070574Y0035202D01*
X0070106Y0034735D01*
X0069028Y0034735D02*
X0069028Y0034268D01*
X0068561Y0033801D01*
X0069028Y0033334D01*
X0069028Y0032867D01*
X0068561Y0032400D01*
X0067627Y0032400D01*
X0067160Y0032867D01*
X0066082Y0032400D02*
X0065148Y0033334D01*
X0065615Y0033334D02*
X0064213Y0033334D01*
X0064213Y0032400D02*
X0064213Y0035202D01*
X0065615Y0035202D01*
X0066082Y0034735D01*
X0066082Y0033801D01*
X0065615Y0033334D01*
X0067160Y0034735D02*
X0067627Y0035202D01*
X0068561Y0035202D01*
X0069028Y0034735D01*
X0068561Y0033801D02*
X0068094Y0033801D01*
X0065434Y0006902D02*
X0065434Y0004100D01*
X0064500Y0004100D02*
X0066368Y0004100D01*
X0064500Y0005968D02*
X0065434Y0006902D01*
X0063421Y0006902D02*
X0063421Y0006435D01*
X0062487Y0005501D01*
X0062487Y0004100D01*
X0062487Y0005501D02*
X0061553Y0006435D01*
X0061553Y0006902D01*
X0080160Y0070400D02*
X0080160Y0073202D01*
X0081561Y0073202D01*
X0082028Y0072735D01*
X0082028Y0071801D01*
X0081561Y0071334D01*
X0080160Y0071334D01*
X0081094Y0071334D02*
X0082028Y0070400D01*
X0083106Y0070400D02*
X0084975Y0070400D01*
X0084041Y0070400D02*
X0084041Y0073202D01*
X0083106Y0072268D01*
D102*
X0020853Y0159900D03*
D103*
X0070853Y0263650D03*
D104*
X0092270Y0286150D03*
X0049436Y0286150D03*
D105*
X0153353Y0214302D02*
X0153353Y0188498D01*
X0167353Y0188498D01*
X0167353Y0214302D01*
X0153353Y0214302D01*
X0078589Y0069361D02*
X0078589Y0039439D01*
X0058117Y0039439D01*
X0058117Y0066861D01*
X0060617Y0069361D01*
X0078491Y0069361D01*
D106*
X0056353Y0071400D03*
D107*
X0219573Y0070243D02*
X0219573Y0068274D01*
X0219573Y0070243D02*
X0225479Y0070243D01*
X0241227Y0070243D02*
X0247133Y0070243D01*
X0247133Y0068274D01*
X0241503Y0072487D02*
X0241505Y0072543D01*
X0241511Y0072598D01*
X0241521Y0072652D01*
X0241534Y0072706D01*
X0241552Y0072759D01*
X0241573Y0072810D01*
X0241597Y0072860D01*
X0241625Y0072908D01*
X0241657Y0072954D01*
X0241691Y0072998D01*
X0241729Y0073039D01*
X0241769Y0073077D01*
X0241812Y0073112D01*
X0241857Y0073144D01*
X0241905Y0073173D01*
X0241954Y0073199D01*
X0242005Y0073221D01*
X0242057Y0073239D01*
X0242111Y0073253D01*
X0242166Y0073264D01*
X0242221Y0073271D01*
X0242276Y0073274D01*
X0242332Y0073273D01*
X0242387Y0073268D01*
X0242442Y0073259D01*
X0242496Y0073247D01*
X0242549Y0073230D01*
X0242601Y0073210D01*
X0242651Y0073186D01*
X0242699Y0073159D01*
X0242746Y0073129D01*
X0242790Y0073095D01*
X0242832Y0073058D01*
X0242870Y0073018D01*
X0242907Y0072976D01*
X0242940Y0072931D01*
X0242969Y0072885D01*
X0242996Y0072836D01*
X0243018Y0072785D01*
X0243038Y0072733D01*
X0243053Y0072679D01*
X0243065Y0072625D01*
X0243073Y0072570D01*
X0243077Y0072515D01*
X0243077Y0072459D01*
X0243073Y0072404D01*
X0243065Y0072349D01*
X0243053Y0072295D01*
X0243038Y0072241D01*
X0243018Y0072189D01*
X0242996Y0072138D01*
X0242969Y0072089D01*
X0242940Y0072043D01*
X0242907Y0071998D01*
X0242870Y0071956D01*
X0242832Y0071916D01*
X0242790Y0071879D01*
X0242746Y0071845D01*
X0242699Y0071815D01*
X0242651Y0071788D01*
X0242601Y0071764D01*
X0242549Y0071744D01*
X0242496Y0071727D01*
X0242442Y0071715D01*
X0242387Y0071706D01*
X0242332Y0071701D01*
X0242276Y0071700D01*
X0242221Y0071703D01*
X0242166Y0071710D01*
X0242111Y0071721D01*
X0242057Y0071735D01*
X0242005Y0071753D01*
X0241954Y0071775D01*
X0241905Y0071801D01*
X0241857Y0071830D01*
X0241812Y0071862D01*
X0241769Y0071897D01*
X0241729Y0071935D01*
X0241691Y0071976D01*
X0241657Y0072020D01*
X0241625Y0072066D01*
X0241597Y0072114D01*
X0241573Y0072164D01*
X0241552Y0072215D01*
X0241534Y0072268D01*
X0241521Y0072322D01*
X0241511Y0072376D01*
X0241505Y0072431D01*
X0241503Y0072487D01*
X0247133Y0052526D02*
X0247133Y0050557D01*
X0241227Y0050557D01*
X0225479Y0050557D02*
X0219573Y0050557D01*
X0219573Y0052526D01*
M02*
