G75*
%MOIN*%
%OFA0B0*%
%FSLAX25Y25*%
%IPPOS*%
%LPD*%
%AMOC8*
5,1,8,0,0,1.08239X$1,22.5*
%
%ADD10C,0.00600*%
%ADD11R,0.05124X0.03943*%
%ADD12R,0.03943X0.05124*%
%ADD13R,0.24022X0.24022*%
%ADD14C,0.01027*%
%ADD15R,0.09849X0.06306*%
%ADD16R,0.06699X0.03156*%
%ADD17R,0.06699X0.05912*%
%ADD18R,0.09061X0.05912*%
%ADD19R,0.05912X0.07487*%
%ADD20C,0.00000*%
%ADD21C,0.03943*%
%ADD22C,0.01450*%
%ADD23R,0.03353X0.01581*%
%ADD24R,0.03353X0.05124*%
%ADD25R,0.15361X0.04928*%
%ADD26C,0.00750*%
%ADD27C,0.06400*%
%ADD28C,0.30400*%
%ADD29R,0.12605X0.09061*%
%ADD30R,0.06699X0.03550*%
%ADD31C,0.03940*%
%ADD32R,0.05715X0.01975*%
%ADD33C,0.05550*%
%ADD34C,0.04400*%
%ADD35C,0.01100*%
%ADD36C,0.00975*%
%ADD37R,0.07900X0.07900*%
%ADD38C,0.07900*%
%ADD39R,0.03943X0.03156*%
%ADD40R,0.04900X0.04400*%
%ADD41R,0.09400X0.05400*%
%ADD42R,0.08900X0.14400*%
%ADD43R,0.06306X0.01975*%
%ADD44R,0.07400X0.08400*%
%ADD45C,0.01350*%
%ADD46R,0.08274X0.03156*%
%ADD47R,0.03156X0.08274*%
%ADD48R,0.04731X0.04337*%
%ADD49R,0.04337X0.04731*%
%ADD50C,0.00850*%
%ADD51R,0.06109X0.02172*%
%ADD52R,0.06900X0.06900*%
%ADD53C,0.06900*%
%ADD54C,0.15424*%
D10*
X0011353Y0001400D02*
X0011353Y0161900D01*
X0022103Y0161900D01*
X0022103Y0170900D01*
X0011353Y0170900D01*
X0011353Y0313900D01*
X0291353Y0313900D01*
X0291353Y0001400D01*
X0011353Y0001400D01*
D11*
X0095138Y0031215D03*
X0095138Y0036215D03*
X0095138Y0041215D03*
X0095138Y0046215D03*
X0095138Y0051215D03*
X0095138Y0056215D03*
X0095138Y0061215D03*
X0095138Y0066215D03*
X0095138Y0071215D03*
X0095138Y0076215D03*
X0095138Y0081215D03*
X0095138Y0086215D03*
X0095138Y0091215D03*
X0095138Y0096215D03*
X0162068Y0096215D03*
X0162068Y0091215D03*
X0162068Y0086215D03*
X0162068Y0081215D03*
X0162068Y0076215D03*
X0162068Y0071215D03*
X0162068Y0066215D03*
X0162068Y0061215D03*
X0162068Y0056215D03*
X0162068Y0051215D03*
X0162068Y0046215D03*
X0162068Y0041215D03*
X0162068Y0036215D03*
X0162068Y0031215D03*
D12*
X0151044Y0101687D03*
X0146044Y0101687D03*
X0141044Y0101687D03*
X0136044Y0101687D03*
X0131044Y0101687D03*
X0126044Y0101687D03*
X0121044Y0101687D03*
X0116044Y0101687D03*
X0111044Y0101687D03*
X0106044Y0101687D03*
D13*
X0127264Y0061530D03*
D14*
X0274930Y0113370D02*
X0274930Y0116130D01*
X0274930Y0113370D02*
X0273902Y0113370D01*
X0273902Y0116130D01*
X0274930Y0116130D01*
X0274930Y0114396D02*
X0273902Y0114396D01*
X0273902Y0115422D02*
X0274930Y0115422D01*
X0278867Y0116130D02*
X0278867Y0113370D01*
X0277839Y0113370D01*
X0277839Y0116130D01*
X0278867Y0116130D01*
X0278867Y0114396D02*
X0277839Y0114396D01*
X0277839Y0115422D02*
X0278867Y0115422D01*
X0282804Y0116130D02*
X0282804Y0113370D01*
X0281776Y0113370D01*
X0281776Y0116130D01*
X0282804Y0116130D01*
X0282804Y0114396D02*
X0281776Y0114396D01*
X0281776Y0115422D02*
X0282804Y0115422D01*
X0281776Y0124670D02*
X0281776Y0127430D01*
X0282804Y0127430D01*
X0282804Y0124670D01*
X0281776Y0124670D01*
X0281776Y0125696D02*
X0282804Y0125696D01*
X0282804Y0126722D02*
X0281776Y0126722D01*
X0277839Y0127430D02*
X0277839Y0124670D01*
X0277839Y0127430D02*
X0278867Y0127430D01*
X0278867Y0124670D01*
X0277839Y0124670D01*
X0277839Y0125696D02*
X0278867Y0125696D01*
X0278867Y0126722D02*
X0277839Y0126722D01*
X0273902Y0127430D02*
X0273902Y0124670D01*
X0273902Y0127430D02*
X0274930Y0127430D01*
X0274930Y0124670D01*
X0273902Y0124670D01*
X0273902Y0125696D02*
X0274930Y0125696D01*
X0274930Y0126722D02*
X0273902Y0126722D01*
D15*
X0278353Y0120400D03*
D16*
X0232353Y0147613D03*
X0232353Y0151943D03*
X0232353Y0156274D03*
X0232353Y0160605D03*
X0232353Y0164935D03*
X0232353Y0169266D03*
X0232353Y0173597D03*
X0232353Y0177928D03*
X0232353Y0182258D03*
D17*
X0234715Y0142494D03*
D18*
X0272117Y0142494D03*
X0272117Y0204306D03*
D19*
X0234322Y0200762D03*
D20*
X0271920Y0185408D02*
X0271922Y0185492D01*
X0271928Y0185575D01*
X0271938Y0185658D01*
X0271952Y0185741D01*
X0271969Y0185823D01*
X0271991Y0185904D01*
X0272016Y0185983D01*
X0272045Y0186062D01*
X0272078Y0186139D01*
X0272114Y0186214D01*
X0272154Y0186288D01*
X0272197Y0186360D01*
X0272244Y0186429D01*
X0272294Y0186496D01*
X0272347Y0186561D01*
X0272403Y0186623D01*
X0272461Y0186683D01*
X0272523Y0186740D01*
X0272587Y0186793D01*
X0272654Y0186844D01*
X0272723Y0186891D01*
X0272794Y0186936D01*
X0272867Y0186976D01*
X0272942Y0187013D01*
X0273019Y0187047D01*
X0273097Y0187077D01*
X0273176Y0187103D01*
X0273257Y0187126D01*
X0273339Y0187144D01*
X0273421Y0187159D01*
X0273504Y0187170D01*
X0273587Y0187177D01*
X0273671Y0187180D01*
X0273755Y0187179D01*
X0273838Y0187174D01*
X0273922Y0187165D01*
X0274004Y0187152D01*
X0274086Y0187136D01*
X0274167Y0187115D01*
X0274248Y0187091D01*
X0274326Y0187063D01*
X0274404Y0187031D01*
X0274480Y0186995D01*
X0274554Y0186956D01*
X0274626Y0186914D01*
X0274696Y0186868D01*
X0274764Y0186819D01*
X0274829Y0186767D01*
X0274892Y0186712D01*
X0274952Y0186654D01*
X0275010Y0186593D01*
X0275064Y0186529D01*
X0275116Y0186463D01*
X0275164Y0186395D01*
X0275209Y0186324D01*
X0275250Y0186251D01*
X0275289Y0186177D01*
X0275323Y0186101D01*
X0275354Y0186023D01*
X0275381Y0185944D01*
X0275405Y0185863D01*
X0275424Y0185782D01*
X0275440Y0185700D01*
X0275452Y0185617D01*
X0275460Y0185533D01*
X0275464Y0185450D01*
X0275464Y0185366D01*
X0275460Y0185283D01*
X0275452Y0185199D01*
X0275440Y0185116D01*
X0275424Y0185034D01*
X0275405Y0184953D01*
X0275381Y0184872D01*
X0275354Y0184793D01*
X0275323Y0184715D01*
X0275289Y0184639D01*
X0275250Y0184565D01*
X0275209Y0184492D01*
X0275164Y0184421D01*
X0275116Y0184353D01*
X0275064Y0184287D01*
X0275010Y0184223D01*
X0274952Y0184162D01*
X0274892Y0184104D01*
X0274829Y0184049D01*
X0274764Y0183997D01*
X0274696Y0183948D01*
X0274626Y0183902D01*
X0274554Y0183860D01*
X0274480Y0183821D01*
X0274404Y0183785D01*
X0274326Y0183753D01*
X0274248Y0183725D01*
X0274167Y0183701D01*
X0274086Y0183680D01*
X0274004Y0183664D01*
X0273922Y0183651D01*
X0273838Y0183642D01*
X0273755Y0183637D01*
X0273671Y0183636D01*
X0273587Y0183639D01*
X0273504Y0183646D01*
X0273421Y0183657D01*
X0273339Y0183672D01*
X0273257Y0183690D01*
X0273176Y0183713D01*
X0273097Y0183739D01*
X0273019Y0183769D01*
X0272942Y0183803D01*
X0272867Y0183840D01*
X0272794Y0183880D01*
X0272723Y0183925D01*
X0272654Y0183972D01*
X0272587Y0184023D01*
X0272523Y0184076D01*
X0272461Y0184133D01*
X0272403Y0184193D01*
X0272347Y0184255D01*
X0272294Y0184320D01*
X0272244Y0184387D01*
X0272197Y0184456D01*
X0272154Y0184528D01*
X0272114Y0184602D01*
X0272078Y0184677D01*
X0272045Y0184754D01*
X0272016Y0184833D01*
X0271991Y0184912D01*
X0271969Y0184993D01*
X0271952Y0185075D01*
X0271938Y0185158D01*
X0271928Y0185241D01*
X0271922Y0185324D01*
X0271920Y0185408D01*
X0271920Y0153912D02*
X0271922Y0153996D01*
X0271928Y0154079D01*
X0271938Y0154162D01*
X0271952Y0154245D01*
X0271969Y0154327D01*
X0271991Y0154408D01*
X0272016Y0154487D01*
X0272045Y0154566D01*
X0272078Y0154643D01*
X0272114Y0154718D01*
X0272154Y0154792D01*
X0272197Y0154864D01*
X0272244Y0154933D01*
X0272294Y0155000D01*
X0272347Y0155065D01*
X0272403Y0155127D01*
X0272461Y0155187D01*
X0272523Y0155244D01*
X0272587Y0155297D01*
X0272654Y0155348D01*
X0272723Y0155395D01*
X0272794Y0155440D01*
X0272867Y0155480D01*
X0272942Y0155517D01*
X0273019Y0155551D01*
X0273097Y0155581D01*
X0273176Y0155607D01*
X0273257Y0155630D01*
X0273339Y0155648D01*
X0273421Y0155663D01*
X0273504Y0155674D01*
X0273587Y0155681D01*
X0273671Y0155684D01*
X0273755Y0155683D01*
X0273838Y0155678D01*
X0273922Y0155669D01*
X0274004Y0155656D01*
X0274086Y0155640D01*
X0274167Y0155619D01*
X0274248Y0155595D01*
X0274326Y0155567D01*
X0274404Y0155535D01*
X0274480Y0155499D01*
X0274554Y0155460D01*
X0274626Y0155418D01*
X0274696Y0155372D01*
X0274764Y0155323D01*
X0274829Y0155271D01*
X0274892Y0155216D01*
X0274952Y0155158D01*
X0275010Y0155097D01*
X0275064Y0155033D01*
X0275116Y0154967D01*
X0275164Y0154899D01*
X0275209Y0154828D01*
X0275250Y0154755D01*
X0275289Y0154681D01*
X0275323Y0154605D01*
X0275354Y0154527D01*
X0275381Y0154448D01*
X0275405Y0154367D01*
X0275424Y0154286D01*
X0275440Y0154204D01*
X0275452Y0154121D01*
X0275460Y0154037D01*
X0275464Y0153954D01*
X0275464Y0153870D01*
X0275460Y0153787D01*
X0275452Y0153703D01*
X0275440Y0153620D01*
X0275424Y0153538D01*
X0275405Y0153457D01*
X0275381Y0153376D01*
X0275354Y0153297D01*
X0275323Y0153219D01*
X0275289Y0153143D01*
X0275250Y0153069D01*
X0275209Y0152996D01*
X0275164Y0152925D01*
X0275116Y0152857D01*
X0275064Y0152791D01*
X0275010Y0152727D01*
X0274952Y0152666D01*
X0274892Y0152608D01*
X0274829Y0152553D01*
X0274764Y0152501D01*
X0274696Y0152452D01*
X0274626Y0152406D01*
X0274554Y0152364D01*
X0274480Y0152325D01*
X0274404Y0152289D01*
X0274326Y0152257D01*
X0274248Y0152229D01*
X0274167Y0152205D01*
X0274086Y0152184D01*
X0274004Y0152168D01*
X0273922Y0152155D01*
X0273838Y0152146D01*
X0273755Y0152141D01*
X0273671Y0152140D01*
X0273587Y0152143D01*
X0273504Y0152150D01*
X0273421Y0152161D01*
X0273339Y0152176D01*
X0273257Y0152194D01*
X0273176Y0152217D01*
X0273097Y0152243D01*
X0273019Y0152273D01*
X0272942Y0152307D01*
X0272867Y0152344D01*
X0272794Y0152384D01*
X0272723Y0152429D01*
X0272654Y0152476D01*
X0272587Y0152527D01*
X0272523Y0152580D01*
X0272461Y0152637D01*
X0272403Y0152697D01*
X0272347Y0152759D01*
X0272294Y0152824D01*
X0272244Y0152891D01*
X0272197Y0152960D01*
X0272154Y0153032D01*
X0272114Y0153106D01*
X0272078Y0153181D01*
X0272045Y0153258D01*
X0272016Y0153337D01*
X0271991Y0153416D01*
X0271969Y0153497D01*
X0271952Y0153579D01*
X0271938Y0153662D01*
X0271928Y0153745D01*
X0271922Y0153828D01*
X0271920Y0153912D01*
X0022034Y0161872D02*
X0011404Y0161872D01*
X0011404Y0127817D01*
X0022034Y0161872D02*
X0022034Y0170928D01*
X0011404Y0170928D01*
X0011404Y0186872D01*
D21*
X0273692Y0185408D03*
X0273692Y0153912D03*
D22*
X0112201Y0144281D02*
X0112201Y0140331D01*
X0112201Y0144281D02*
X0113651Y0144281D01*
X0113651Y0140331D01*
X0112201Y0140331D01*
X0112201Y0141780D02*
X0113651Y0141780D01*
X0113651Y0143229D02*
X0112201Y0143229D01*
X0107870Y0144281D02*
X0107870Y0140331D01*
X0107870Y0144281D02*
X0109320Y0144281D01*
X0109320Y0140331D01*
X0107870Y0140331D01*
X0107870Y0141780D02*
X0109320Y0141780D01*
X0109320Y0143229D02*
X0107870Y0143229D01*
X0103539Y0144281D02*
X0103539Y0140331D01*
X0103539Y0144281D02*
X0104989Y0144281D01*
X0104989Y0140331D01*
X0103539Y0140331D01*
X0103539Y0141780D02*
X0104989Y0141780D01*
X0104989Y0143229D02*
X0103539Y0143229D01*
X0099209Y0144281D02*
X0099209Y0140331D01*
X0099209Y0144281D02*
X0100659Y0144281D01*
X0100659Y0140331D01*
X0099209Y0140331D01*
X0099209Y0141780D02*
X0100659Y0141780D01*
X0100659Y0143229D02*
X0099209Y0143229D01*
X0094878Y0144281D02*
X0094878Y0140331D01*
X0094878Y0144281D02*
X0096328Y0144281D01*
X0096328Y0140331D01*
X0094878Y0140331D01*
X0094878Y0141780D02*
X0096328Y0141780D01*
X0096328Y0143229D02*
X0094878Y0143229D01*
X0090547Y0144281D02*
X0090547Y0140331D01*
X0090547Y0144281D02*
X0091997Y0144281D01*
X0091997Y0140331D01*
X0090547Y0140331D01*
X0090547Y0141780D02*
X0091997Y0141780D01*
X0091997Y0143229D02*
X0090547Y0143229D01*
X0086217Y0144281D02*
X0086217Y0140331D01*
X0086217Y0144281D02*
X0087667Y0144281D01*
X0087667Y0140331D01*
X0086217Y0140331D01*
X0086217Y0141780D02*
X0087667Y0141780D01*
X0087667Y0143229D02*
X0086217Y0143229D01*
X0081886Y0144281D02*
X0081886Y0140331D01*
X0081886Y0144281D02*
X0083336Y0144281D01*
X0083336Y0140331D01*
X0081886Y0140331D01*
X0081886Y0141780D02*
X0083336Y0141780D01*
X0083336Y0143229D02*
X0081886Y0143229D01*
X0077555Y0144281D02*
X0077555Y0140331D01*
X0077555Y0144281D02*
X0079005Y0144281D01*
X0079005Y0140331D01*
X0077555Y0140331D01*
X0077555Y0141780D02*
X0079005Y0141780D01*
X0079005Y0143229D02*
X0077555Y0143229D01*
X0077555Y0178519D02*
X0077555Y0182469D01*
X0079005Y0182469D01*
X0079005Y0178519D01*
X0077555Y0178519D01*
X0077555Y0179968D02*
X0079005Y0179968D01*
X0079005Y0181417D02*
X0077555Y0181417D01*
X0081886Y0182469D02*
X0081886Y0178519D01*
X0081886Y0182469D02*
X0083336Y0182469D01*
X0083336Y0178519D01*
X0081886Y0178519D01*
X0081886Y0179968D02*
X0083336Y0179968D01*
X0083336Y0181417D02*
X0081886Y0181417D01*
X0086217Y0182469D02*
X0086217Y0178519D01*
X0086217Y0182469D02*
X0087667Y0182469D01*
X0087667Y0178519D01*
X0086217Y0178519D01*
X0086217Y0179968D02*
X0087667Y0179968D01*
X0087667Y0181417D02*
X0086217Y0181417D01*
X0090547Y0182469D02*
X0090547Y0178519D01*
X0090547Y0182469D02*
X0091997Y0182469D01*
X0091997Y0178519D01*
X0090547Y0178519D01*
X0090547Y0179968D02*
X0091997Y0179968D01*
X0091997Y0181417D02*
X0090547Y0181417D01*
X0094878Y0182469D02*
X0094878Y0178519D01*
X0094878Y0182469D02*
X0096328Y0182469D01*
X0096328Y0178519D01*
X0094878Y0178519D01*
X0094878Y0179968D02*
X0096328Y0179968D01*
X0096328Y0181417D02*
X0094878Y0181417D01*
X0099209Y0182469D02*
X0099209Y0178519D01*
X0099209Y0182469D02*
X0100659Y0182469D01*
X0100659Y0178519D01*
X0099209Y0178519D01*
X0099209Y0179968D02*
X0100659Y0179968D01*
X0100659Y0181417D02*
X0099209Y0181417D01*
X0103539Y0182469D02*
X0103539Y0178519D01*
X0103539Y0182469D02*
X0104989Y0182469D01*
X0104989Y0178519D01*
X0103539Y0178519D01*
X0103539Y0179968D02*
X0104989Y0179968D01*
X0104989Y0181417D02*
X0103539Y0181417D01*
X0107870Y0182469D02*
X0107870Y0178519D01*
X0107870Y0182469D02*
X0109320Y0182469D01*
X0109320Y0178519D01*
X0107870Y0178519D01*
X0107870Y0179968D02*
X0109320Y0179968D01*
X0109320Y0181417D02*
X0107870Y0181417D01*
X0112201Y0182469D02*
X0112201Y0178519D01*
X0112201Y0182469D02*
X0113651Y0182469D01*
X0113651Y0178519D01*
X0112201Y0178519D01*
X0112201Y0179968D02*
X0113651Y0179968D01*
X0113651Y0181417D02*
X0112201Y0181417D01*
D23*
X0070572Y0212681D03*
X0070572Y0214650D03*
X0070572Y0216619D03*
X0066634Y0216619D03*
X0066634Y0214650D03*
X0066634Y0212681D03*
D24*
X0026857Y0169156D03*
D25*
X0020853Y0177128D03*
X0020853Y0155672D03*
D26*
X0059803Y0210175D02*
X0059803Y0210925D01*
X0059803Y0210175D02*
X0058903Y0210175D01*
X0058903Y0210925D01*
X0059803Y0210925D01*
X0059803Y0210924D02*
X0058903Y0210924D01*
X0059803Y0212375D02*
X0059803Y0213125D01*
X0059803Y0212375D02*
X0058903Y0212375D01*
X0058903Y0213125D01*
X0059803Y0213125D01*
X0059803Y0213124D02*
X0058903Y0213124D01*
D27*
X0044353Y0283150D02*
X0044353Y0289150D01*
X0097353Y0289150D02*
X0097353Y0283150D01*
D28*
X0070853Y0286150D03*
D29*
X0018849Y0110861D03*
X0018849Y0055939D03*
D30*
X0030503Y0066176D03*
X0030503Y0071097D03*
X0030503Y0076018D03*
X0030503Y0080939D03*
X0030503Y0085861D03*
X0030503Y0090782D03*
X0030503Y0095703D03*
X0030503Y0100624D03*
D31*
X0024073Y0026654D02*
X0020133Y0026654D01*
X0020133Y0030594D01*
X0024073Y0030594D01*
X0024073Y0026654D01*
X0024073Y0030593D02*
X0020133Y0030593D01*
X0020133Y0017206D02*
X0024073Y0017206D01*
X0020133Y0017206D02*
X0020133Y0021146D01*
X0024073Y0021146D01*
X0024073Y0017206D01*
X0024073Y0021145D02*
X0020133Y0021145D01*
D32*
X0033422Y0021341D03*
X0033422Y0023900D03*
X0033422Y0026459D03*
X0033422Y0029018D03*
X0033422Y0018782D03*
D33*
X0032851Y0014353D03*
X0032851Y0033447D03*
D34*
X0024003Y0038172D03*
X0022003Y0038172D03*
X0020003Y0038172D03*
X0020003Y0009628D03*
X0022003Y0009628D03*
X0024003Y0009628D03*
D35*
X0044417Y0032246D02*
X0044417Y0035546D01*
X0044417Y0032246D02*
X0039617Y0032246D01*
X0039617Y0035546D01*
X0044417Y0035546D01*
X0044417Y0033345D02*
X0039617Y0033345D01*
X0039617Y0034444D02*
X0044417Y0034444D01*
X0044417Y0035543D02*
X0039617Y0035543D01*
X0044417Y0039246D02*
X0044417Y0042546D01*
X0044417Y0039246D02*
X0039617Y0039246D01*
X0039617Y0042546D01*
X0044417Y0042546D01*
X0044417Y0040345D02*
X0039617Y0040345D01*
X0039617Y0041444D02*
X0044417Y0041444D01*
X0044417Y0042543D02*
X0039617Y0042543D01*
X0027203Y0041713D02*
X0027203Y0045013D01*
X0030503Y0045013D01*
X0030503Y0041713D01*
X0027203Y0041713D01*
X0027203Y0042812D02*
X0030503Y0042812D01*
X0030503Y0043911D02*
X0027203Y0043911D01*
X0027203Y0045010D02*
X0030503Y0045010D01*
X0027203Y0047287D02*
X0027203Y0050587D01*
X0030503Y0050587D01*
X0030503Y0047287D01*
X0027203Y0047287D01*
X0027203Y0048386D02*
X0030503Y0048386D01*
X0030503Y0049485D02*
X0027203Y0049485D01*
X0027203Y0050584D02*
X0030503Y0050584D01*
X0058166Y0092750D02*
X0061466Y0092750D01*
X0058166Y0092750D02*
X0058166Y0096050D01*
X0061466Y0096050D01*
X0061466Y0092750D01*
X0061466Y0093849D02*
X0058166Y0093849D01*
X0058166Y0094948D02*
X0061466Y0094948D01*
X0061466Y0096047D02*
X0058166Y0096047D01*
X0063740Y0092750D02*
X0067040Y0092750D01*
X0063740Y0092750D02*
X0063740Y0096050D01*
X0067040Y0096050D01*
X0067040Y0092750D01*
X0067040Y0093849D02*
X0063740Y0093849D01*
X0063740Y0094948D02*
X0067040Y0094948D01*
X0067040Y0096047D02*
X0063740Y0096047D01*
X0074916Y0075750D02*
X0078216Y0075750D01*
X0074916Y0075750D02*
X0074916Y0079050D01*
X0078216Y0079050D01*
X0078216Y0075750D01*
X0078216Y0076849D02*
X0074916Y0076849D01*
X0074916Y0077948D02*
X0078216Y0077948D01*
X0078216Y0079047D02*
X0074916Y0079047D01*
X0080490Y0075750D02*
X0083790Y0075750D01*
X0080490Y0075750D02*
X0080490Y0079050D01*
X0083790Y0079050D01*
X0083790Y0075750D01*
X0083790Y0076849D02*
X0080490Y0076849D01*
X0080490Y0077948D02*
X0083790Y0077948D01*
X0083790Y0079047D02*
X0080490Y0079047D01*
X0080953Y0120713D02*
X0080953Y0124013D01*
X0084253Y0124013D01*
X0084253Y0120713D01*
X0080953Y0120713D01*
X0080953Y0121812D02*
X0084253Y0121812D01*
X0084253Y0122911D02*
X0080953Y0122911D01*
X0080953Y0124010D02*
X0084253Y0124010D01*
X0080953Y0126287D02*
X0080953Y0129587D01*
X0084253Y0129587D01*
X0084253Y0126287D01*
X0080953Y0126287D01*
X0080953Y0127386D02*
X0084253Y0127386D01*
X0084253Y0128485D02*
X0080953Y0128485D01*
X0080953Y0129584D02*
X0084253Y0129584D01*
X0087953Y0129587D02*
X0087953Y0126287D01*
X0087953Y0129587D02*
X0091253Y0129587D01*
X0091253Y0126287D01*
X0087953Y0126287D01*
X0087953Y0127386D02*
X0091253Y0127386D01*
X0091253Y0128485D02*
X0087953Y0128485D01*
X0087953Y0129584D02*
X0091253Y0129584D01*
X0087953Y0124013D02*
X0087953Y0120713D01*
X0087953Y0124013D02*
X0091253Y0124013D01*
X0091253Y0120713D01*
X0087953Y0120713D01*
X0087953Y0121812D02*
X0091253Y0121812D01*
X0091253Y0122911D02*
X0087953Y0122911D01*
X0087953Y0124010D02*
X0091253Y0124010D01*
X0037790Y0111750D02*
X0034490Y0111750D01*
X0034490Y0115050D01*
X0037790Y0115050D01*
X0037790Y0111750D01*
X0037790Y0112849D02*
X0034490Y0112849D01*
X0034490Y0113948D02*
X0037790Y0113948D01*
X0037790Y0115047D02*
X0034490Y0115047D01*
X0032216Y0111750D02*
X0028916Y0111750D01*
X0028916Y0115050D01*
X0032216Y0115050D01*
X0032216Y0111750D01*
X0032216Y0112849D02*
X0028916Y0112849D01*
X0028916Y0113948D02*
X0032216Y0113948D01*
X0032216Y0115047D02*
X0028916Y0115047D01*
X0065916Y0186750D02*
X0069216Y0186750D01*
X0065916Y0186750D02*
X0065916Y0190050D01*
X0069216Y0190050D01*
X0069216Y0186750D01*
X0069216Y0187849D02*
X0065916Y0187849D01*
X0065916Y0188948D02*
X0069216Y0188948D01*
X0069216Y0190047D02*
X0065916Y0190047D01*
X0065916Y0193750D02*
X0069216Y0193750D01*
X0065916Y0193750D02*
X0065916Y0197050D01*
X0069216Y0197050D01*
X0069216Y0193750D01*
X0069216Y0194849D02*
X0065916Y0194849D01*
X0065916Y0195948D02*
X0069216Y0195948D01*
X0069216Y0197047D02*
X0065916Y0197047D01*
X0071490Y0193750D02*
X0074790Y0193750D01*
X0071490Y0193750D02*
X0071490Y0197050D01*
X0074790Y0197050D01*
X0074790Y0193750D01*
X0074790Y0194849D02*
X0071490Y0194849D01*
X0071490Y0195948D02*
X0074790Y0195948D01*
X0074790Y0197047D02*
X0071490Y0197047D01*
X0071490Y0186750D02*
X0074790Y0186750D01*
X0071490Y0186750D02*
X0071490Y0190050D01*
X0074790Y0190050D01*
X0074790Y0186750D01*
X0074790Y0187849D02*
X0071490Y0187849D01*
X0071490Y0188948D02*
X0074790Y0188948D01*
X0074790Y0190047D02*
X0071490Y0190047D01*
X0097253Y0205463D02*
X0097253Y0208763D01*
X0097253Y0205463D02*
X0093953Y0205463D01*
X0093953Y0208763D01*
X0097253Y0208763D01*
X0097253Y0206562D02*
X0093953Y0206562D01*
X0093953Y0207661D02*
X0097253Y0207661D01*
X0097253Y0208760D02*
X0093953Y0208760D01*
X0097253Y0211037D02*
X0097253Y0214337D01*
X0097253Y0211037D02*
X0093953Y0211037D01*
X0093953Y0214337D01*
X0097253Y0214337D01*
X0097253Y0212136D02*
X0093953Y0212136D01*
X0093953Y0213235D02*
X0097253Y0213235D01*
X0097253Y0214334D02*
X0093953Y0214334D01*
X0105003Y0214337D02*
X0105003Y0211037D01*
X0101703Y0211037D01*
X0101703Y0214337D01*
X0105003Y0214337D01*
X0105003Y0212136D02*
X0101703Y0212136D01*
X0101703Y0213235D02*
X0105003Y0213235D01*
X0105003Y0214334D02*
X0101703Y0214334D01*
X0105003Y0208763D02*
X0105003Y0205463D01*
X0101703Y0205463D01*
X0101703Y0208763D01*
X0105003Y0208763D01*
X0105003Y0206562D02*
X0101703Y0206562D01*
X0101703Y0207661D02*
X0105003Y0207661D01*
X0105003Y0208760D02*
X0101703Y0208760D01*
X0067790Y0225750D02*
X0064490Y0225750D01*
X0064490Y0229050D01*
X0067790Y0229050D01*
X0067790Y0225750D01*
X0067790Y0226849D02*
X0064490Y0226849D01*
X0064490Y0227948D02*
X0067790Y0227948D01*
X0067790Y0229047D02*
X0064490Y0229047D01*
X0062216Y0225750D02*
X0058916Y0225750D01*
X0058916Y0229050D01*
X0062216Y0229050D01*
X0062216Y0225750D01*
X0062216Y0226849D02*
X0058916Y0226849D01*
X0058916Y0227948D02*
X0062216Y0227948D01*
X0062216Y0229047D02*
X0058916Y0229047D01*
X0054790Y0230750D02*
X0051490Y0230750D01*
X0051490Y0234050D01*
X0054790Y0234050D01*
X0054790Y0230750D01*
X0054790Y0231849D02*
X0051490Y0231849D01*
X0051490Y0232948D02*
X0054790Y0232948D01*
X0054790Y0234047D02*
X0051490Y0234047D01*
X0049216Y0230750D02*
X0045916Y0230750D01*
X0045916Y0234050D01*
X0049216Y0234050D01*
X0049216Y0230750D01*
X0049216Y0231849D02*
X0045916Y0231849D01*
X0045916Y0232948D02*
X0049216Y0232948D01*
X0049216Y0234047D02*
X0045916Y0234047D01*
X0041790Y0235750D02*
X0038490Y0235750D01*
X0038490Y0239050D01*
X0041790Y0239050D01*
X0041790Y0235750D01*
X0041790Y0236849D02*
X0038490Y0236849D01*
X0038490Y0237948D02*
X0041790Y0237948D01*
X0041790Y0239047D02*
X0038490Y0239047D01*
X0036216Y0235750D02*
X0032916Y0235750D01*
X0032916Y0239050D01*
X0036216Y0239050D01*
X0036216Y0235750D01*
X0036216Y0236849D02*
X0032916Y0236849D01*
X0032916Y0237948D02*
X0036216Y0237948D01*
X0036216Y0239047D02*
X0032916Y0239047D01*
X0207703Y0179587D02*
X0207703Y0176287D01*
X0207703Y0179587D02*
X0211003Y0179587D01*
X0211003Y0176287D01*
X0207703Y0176287D01*
X0207703Y0177386D02*
X0211003Y0177386D01*
X0211003Y0178485D02*
X0207703Y0178485D01*
X0207703Y0179584D02*
X0211003Y0179584D01*
X0207703Y0174013D02*
X0207703Y0170713D01*
X0207703Y0174013D02*
X0211003Y0174013D01*
X0211003Y0170713D01*
X0207703Y0170713D01*
X0207703Y0171812D02*
X0211003Y0171812D01*
X0211003Y0172911D02*
X0207703Y0172911D01*
X0207703Y0174010D02*
X0211003Y0174010D01*
X0207703Y0166587D02*
X0207703Y0163287D01*
X0207703Y0166587D02*
X0211003Y0166587D01*
X0211003Y0163287D01*
X0207703Y0163287D01*
X0207703Y0164386D02*
X0211003Y0164386D01*
X0211003Y0165485D02*
X0207703Y0165485D01*
X0207703Y0166584D02*
X0211003Y0166584D01*
X0207703Y0161013D02*
X0207703Y0157713D01*
X0207703Y0161013D02*
X0211003Y0161013D01*
X0211003Y0157713D01*
X0207703Y0157713D01*
X0207703Y0158812D02*
X0211003Y0158812D01*
X0211003Y0159911D02*
X0207703Y0159911D01*
X0207703Y0161010D02*
X0211003Y0161010D01*
X0218953Y0158087D02*
X0218953Y0154787D01*
X0218953Y0158087D02*
X0222253Y0158087D01*
X0222253Y0154787D01*
X0218953Y0154787D01*
X0218953Y0155886D02*
X0222253Y0155886D01*
X0222253Y0156985D02*
X0218953Y0156985D01*
X0218953Y0158084D02*
X0222253Y0158084D01*
X0218953Y0152513D02*
X0218953Y0149213D01*
X0218953Y0152513D02*
X0222253Y0152513D01*
X0222253Y0149213D01*
X0218953Y0149213D01*
X0218953Y0150312D02*
X0222253Y0150312D01*
X0222253Y0151411D02*
X0218953Y0151411D01*
X0218953Y0152510D02*
X0222253Y0152510D01*
X0211003Y0152587D02*
X0211003Y0149287D01*
X0207703Y0149287D01*
X0207703Y0152587D01*
X0211003Y0152587D01*
X0211003Y0150386D02*
X0207703Y0150386D01*
X0207703Y0151485D02*
X0211003Y0151485D01*
X0211003Y0152584D02*
X0207703Y0152584D01*
X0211003Y0147013D02*
X0211003Y0143713D01*
X0207703Y0143713D01*
X0207703Y0147013D01*
X0211003Y0147013D01*
X0211003Y0144812D02*
X0207703Y0144812D01*
X0207703Y0145911D02*
X0211003Y0145911D01*
X0211003Y0147010D02*
X0207703Y0147010D01*
X0219203Y0166463D02*
X0219203Y0169763D01*
X0222503Y0169763D01*
X0222503Y0166463D01*
X0219203Y0166463D01*
X0219203Y0167562D02*
X0222503Y0167562D01*
X0222503Y0168661D02*
X0219203Y0168661D01*
X0219203Y0169760D02*
X0222503Y0169760D01*
X0219203Y0172037D02*
X0219203Y0175337D01*
X0222503Y0175337D01*
X0222503Y0172037D01*
X0219203Y0172037D01*
X0219203Y0173136D02*
X0222503Y0173136D01*
X0222503Y0174235D02*
X0219203Y0174235D01*
X0219203Y0175334D02*
X0222503Y0175334D01*
X0243166Y0127800D02*
X0246466Y0127800D01*
X0246466Y0124500D01*
X0243166Y0124500D01*
X0243166Y0127800D01*
X0243166Y0125599D02*
X0246466Y0125599D01*
X0246466Y0126698D02*
X0243166Y0126698D01*
X0243166Y0127797D02*
X0246466Y0127797D01*
X0248740Y0127800D02*
X0252040Y0127800D01*
X0252040Y0124500D01*
X0248740Y0124500D01*
X0248740Y0127800D01*
X0248740Y0125599D02*
X0252040Y0125599D01*
X0252040Y0126698D02*
X0248740Y0126698D01*
X0248740Y0127797D02*
X0252040Y0127797D01*
X0251790Y0116300D02*
X0248490Y0116300D01*
X0251790Y0116300D02*
X0251790Y0113000D01*
X0248490Y0113000D01*
X0248490Y0116300D01*
X0248490Y0114099D02*
X0251790Y0114099D01*
X0251790Y0115198D02*
X0248490Y0115198D01*
X0248490Y0116297D02*
X0251790Y0116297D01*
X0246216Y0116300D02*
X0242916Y0116300D01*
X0246216Y0116300D02*
X0246216Y0113000D01*
X0242916Y0113000D01*
X0242916Y0116300D01*
X0242916Y0114099D02*
X0246216Y0114099D01*
X0246216Y0115198D02*
X0242916Y0115198D01*
X0242916Y0116297D02*
X0246216Y0116297D01*
X0251953Y0089587D02*
X0251953Y0086287D01*
X0251953Y0089587D02*
X0255253Y0089587D01*
X0255253Y0086287D01*
X0251953Y0086287D01*
X0251953Y0087386D02*
X0255253Y0087386D01*
X0255253Y0088485D02*
X0251953Y0088485D01*
X0251953Y0089584D02*
X0255253Y0089584D01*
X0251953Y0084013D02*
X0251953Y0080713D01*
X0251953Y0084013D02*
X0255253Y0084013D01*
X0255253Y0080713D01*
X0251953Y0080713D01*
X0251953Y0081812D02*
X0255253Y0081812D01*
X0255253Y0082911D02*
X0251953Y0082911D01*
X0251953Y0084010D02*
X0255253Y0084010D01*
X0216753Y0083013D02*
X0216753Y0079713D01*
X0213453Y0079713D01*
X0213453Y0083013D01*
X0216753Y0083013D01*
X0216753Y0080812D02*
X0213453Y0080812D01*
X0213453Y0081911D02*
X0216753Y0081911D01*
X0216753Y0083010D02*
X0213453Y0083010D01*
X0216753Y0085287D02*
X0216753Y0088587D01*
X0216753Y0085287D02*
X0213453Y0085287D01*
X0213453Y0088587D01*
X0216753Y0088587D01*
X0216753Y0086386D02*
X0213453Y0086386D01*
X0213453Y0087485D02*
X0216753Y0087485D01*
X0216753Y0088584D02*
X0213453Y0088584D01*
X0224003Y0026837D02*
X0224003Y0023537D01*
X0220703Y0023537D01*
X0220703Y0026837D01*
X0224003Y0026837D01*
X0224003Y0024636D02*
X0220703Y0024636D01*
X0220703Y0025735D02*
X0224003Y0025735D01*
X0224003Y0026834D02*
X0220703Y0026834D01*
X0224003Y0021263D02*
X0224003Y0017963D01*
X0220703Y0017963D01*
X0220703Y0021263D01*
X0224003Y0021263D01*
X0224003Y0019062D02*
X0220703Y0019062D01*
X0220703Y0020161D02*
X0224003Y0020161D01*
X0224003Y0021260D02*
X0220703Y0021260D01*
X0231003Y0021263D02*
X0231003Y0017963D01*
X0227703Y0017963D01*
X0227703Y0021263D01*
X0231003Y0021263D01*
X0231003Y0019062D02*
X0227703Y0019062D01*
X0227703Y0020161D02*
X0231003Y0020161D01*
X0231003Y0021260D02*
X0227703Y0021260D01*
X0231003Y0023537D02*
X0231003Y0026837D01*
X0231003Y0023537D02*
X0227703Y0023537D01*
X0227703Y0026837D01*
X0231003Y0026837D01*
X0231003Y0024636D02*
X0227703Y0024636D01*
X0227703Y0025735D02*
X0231003Y0025735D01*
X0231003Y0026834D02*
X0227703Y0026834D01*
X0083790Y0025750D02*
X0080490Y0025750D01*
X0080490Y0029050D01*
X0083790Y0029050D01*
X0083790Y0025750D01*
X0083790Y0026849D02*
X0080490Y0026849D01*
X0080490Y0027948D02*
X0083790Y0027948D01*
X0083790Y0029047D02*
X0080490Y0029047D01*
X0078216Y0025750D02*
X0074916Y0025750D01*
X0074916Y0029050D01*
X0078216Y0029050D01*
X0078216Y0025750D01*
X0078216Y0026849D02*
X0074916Y0026849D01*
X0074916Y0027948D02*
X0078216Y0027948D01*
X0078216Y0029047D02*
X0074916Y0029047D01*
X0074916Y0036050D02*
X0078216Y0036050D01*
X0078216Y0032750D01*
X0074916Y0032750D01*
X0074916Y0036050D01*
X0074916Y0033849D02*
X0078216Y0033849D01*
X0078216Y0034948D02*
X0074916Y0034948D01*
X0074916Y0036047D02*
X0078216Y0036047D01*
X0080490Y0036050D02*
X0083790Y0036050D01*
X0083790Y0032750D01*
X0080490Y0032750D01*
X0080490Y0036050D01*
X0080490Y0033849D02*
X0083790Y0033849D01*
X0083790Y0034948D02*
X0080490Y0034948D01*
X0080490Y0036047D02*
X0083790Y0036047D01*
D36*
X0054066Y0026863D02*
X0054066Y0023937D01*
X0051140Y0023937D01*
X0051140Y0026863D01*
X0054066Y0026863D01*
X0054066Y0024911D02*
X0051140Y0024911D01*
X0051140Y0025885D02*
X0054066Y0025885D01*
X0054066Y0026859D02*
X0051140Y0026859D01*
X0054066Y0020863D02*
X0054066Y0017937D01*
X0051140Y0017937D01*
X0051140Y0020863D01*
X0054066Y0020863D01*
X0054066Y0018911D02*
X0051140Y0018911D01*
X0051140Y0019885D02*
X0054066Y0019885D01*
X0054066Y0020859D02*
X0051140Y0020859D01*
X0045566Y0020863D02*
X0045566Y0017937D01*
X0042640Y0017937D01*
X0042640Y0020863D01*
X0045566Y0020863D01*
X0045566Y0018911D02*
X0042640Y0018911D01*
X0042640Y0019885D02*
X0045566Y0019885D01*
X0045566Y0020859D02*
X0042640Y0020859D01*
X0045566Y0023937D02*
X0045566Y0026863D01*
X0045566Y0023937D02*
X0042640Y0023937D01*
X0042640Y0026863D01*
X0045566Y0026863D01*
X0045566Y0024911D02*
X0042640Y0024911D01*
X0042640Y0025885D02*
X0045566Y0025885D01*
X0045566Y0026859D02*
X0042640Y0026859D01*
X0042816Y0047687D02*
X0039890Y0047687D01*
X0039890Y0050613D01*
X0042816Y0050613D01*
X0042816Y0047687D01*
X0042816Y0048661D02*
X0039890Y0048661D01*
X0039890Y0049635D02*
X0042816Y0049635D01*
X0042816Y0050609D02*
X0039890Y0050609D01*
X0036816Y0047687D02*
X0033890Y0047687D01*
X0033890Y0050613D01*
X0036816Y0050613D01*
X0036816Y0047687D01*
X0036816Y0048661D02*
X0033890Y0048661D01*
X0033890Y0049635D02*
X0036816Y0049635D01*
X0036816Y0050609D02*
X0033890Y0050609D01*
X0035390Y0053437D02*
X0038316Y0053437D01*
X0035390Y0053437D02*
X0035390Y0056363D01*
X0038316Y0056363D01*
X0038316Y0053437D01*
X0038316Y0054411D02*
X0035390Y0054411D01*
X0035390Y0055385D02*
X0038316Y0055385D01*
X0038316Y0056359D02*
X0035390Y0056359D01*
X0032316Y0053437D02*
X0029390Y0053437D01*
X0029390Y0056363D01*
X0032316Y0056363D01*
X0032316Y0053437D01*
X0032316Y0054411D02*
X0029390Y0054411D01*
X0029390Y0055385D02*
X0032316Y0055385D01*
X0032316Y0056359D02*
X0029390Y0056359D01*
X0029390Y0059437D02*
X0032316Y0059437D01*
X0029390Y0059437D02*
X0029390Y0062363D01*
X0032316Y0062363D01*
X0032316Y0059437D01*
X0032316Y0060411D02*
X0029390Y0060411D01*
X0029390Y0061385D02*
X0032316Y0061385D01*
X0032316Y0062359D02*
X0029390Y0062359D01*
X0035390Y0059437D02*
X0038316Y0059437D01*
X0035390Y0059437D02*
X0035390Y0062363D01*
X0038316Y0062363D01*
X0038316Y0059437D01*
X0038316Y0060411D02*
X0035390Y0060411D01*
X0035390Y0061385D02*
X0038316Y0061385D01*
X0038316Y0062359D02*
X0035390Y0062359D01*
X0046890Y0092937D02*
X0046890Y0095863D01*
X0049816Y0095863D01*
X0049816Y0092937D01*
X0046890Y0092937D01*
X0046890Y0093911D02*
X0049816Y0093911D01*
X0049816Y0094885D02*
X0046890Y0094885D01*
X0046890Y0095859D02*
X0049816Y0095859D01*
X0046890Y0098937D02*
X0046890Y0101863D01*
X0049816Y0101863D01*
X0049816Y0098937D01*
X0046890Y0098937D01*
X0046890Y0099911D02*
X0049816Y0099911D01*
X0049816Y0100885D02*
X0046890Y0100885D01*
X0046890Y0101859D02*
X0049816Y0101859D01*
X0100890Y0133937D02*
X0103816Y0133937D01*
X0100890Y0133937D02*
X0100890Y0136863D01*
X0103816Y0136863D01*
X0103816Y0133937D01*
X0103816Y0134911D02*
X0100890Y0134911D01*
X0100890Y0135885D02*
X0103816Y0135885D01*
X0103816Y0136859D02*
X0100890Y0136859D01*
X0106890Y0133937D02*
X0109816Y0133937D01*
X0106890Y0133937D02*
X0106890Y0136863D01*
X0109816Y0136863D01*
X0109816Y0133937D01*
X0109816Y0134911D02*
X0106890Y0134911D01*
X0106890Y0135885D02*
X0109816Y0135885D01*
X0109816Y0136859D02*
X0106890Y0136859D01*
X0112890Y0136863D02*
X0115816Y0136863D01*
X0115816Y0133937D01*
X0112890Y0133937D01*
X0112890Y0136863D01*
X0112890Y0134911D02*
X0115816Y0134911D01*
X0115816Y0135885D02*
X0112890Y0135885D01*
X0112890Y0136859D02*
X0115816Y0136859D01*
X0118890Y0136863D02*
X0121816Y0136863D01*
X0121816Y0133937D01*
X0118890Y0133937D01*
X0118890Y0136863D01*
X0118890Y0134911D02*
X0121816Y0134911D01*
X0121816Y0135885D02*
X0118890Y0135885D01*
X0118890Y0136859D02*
X0121816Y0136859D01*
X0146390Y0184863D02*
X0149316Y0184863D01*
X0149316Y0181937D01*
X0146390Y0181937D01*
X0146390Y0184863D01*
X0146390Y0182911D02*
X0149316Y0182911D01*
X0149316Y0183885D02*
X0146390Y0183885D01*
X0146390Y0184859D02*
X0149316Y0184859D01*
X0152390Y0184863D02*
X0155316Y0184863D01*
X0155316Y0181937D01*
X0152390Y0181937D01*
X0152390Y0184863D01*
X0152390Y0182911D02*
X0155316Y0182911D01*
X0155316Y0183885D02*
X0152390Y0183885D01*
X0152390Y0184859D02*
X0155316Y0184859D01*
X0171390Y0184863D02*
X0174316Y0184863D01*
X0174316Y0181937D01*
X0171390Y0181937D01*
X0171390Y0184863D01*
X0171390Y0182911D02*
X0174316Y0182911D01*
X0174316Y0183885D02*
X0171390Y0183885D01*
X0171390Y0184859D02*
X0174316Y0184859D01*
X0177390Y0184863D02*
X0180316Y0184863D01*
X0180316Y0181937D01*
X0177390Y0181937D01*
X0177390Y0184863D01*
X0177390Y0182911D02*
X0180316Y0182911D01*
X0180316Y0183885D02*
X0177390Y0183885D01*
X0177390Y0184859D02*
X0180316Y0184859D01*
X0187816Y0161863D02*
X0187816Y0158937D01*
X0184890Y0158937D01*
X0184890Y0161863D01*
X0187816Y0161863D01*
X0187816Y0159911D02*
X0184890Y0159911D01*
X0184890Y0160885D02*
X0187816Y0160885D01*
X0187816Y0161859D02*
X0184890Y0161859D01*
X0187816Y0155863D02*
X0187816Y0152937D01*
X0184890Y0152937D01*
X0184890Y0155863D01*
X0187816Y0155863D01*
X0187816Y0153911D02*
X0184890Y0153911D01*
X0184890Y0154885D02*
X0187816Y0154885D01*
X0187816Y0155859D02*
X0184890Y0155859D01*
X0195816Y0155863D02*
X0195816Y0152937D01*
X0192890Y0152937D01*
X0192890Y0155863D01*
X0195816Y0155863D01*
X0195816Y0153911D02*
X0192890Y0153911D01*
X0192890Y0154885D02*
X0195816Y0154885D01*
X0195816Y0155859D02*
X0192890Y0155859D01*
X0195816Y0158937D02*
X0195816Y0161863D01*
X0195816Y0158937D02*
X0192890Y0158937D01*
X0192890Y0161863D01*
X0195816Y0161863D01*
X0195816Y0159911D02*
X0192890Y0159911D01*
X0192890Y0160885D02*
X0195816Y0160885D01*
X0195816Y0161859D02*
X0192890Y0161859D01*
X0222890Y0124937D02*
X0225816Y0124937D01*
X0222890Y0124937D02*
X0222890Y0127863D01*
X0225816Y0127863D01*
X0225816Y0124937D01*
X0225816Y0125911D02*
X0222890Y0125911D01*
X0222890Y0126885D02*
X0225816Y0126885D01*
X0225816Y0127859D02*
X0222890Y0127859D01*
X0228890Y0124937D02*
X0231816Y0124937D01*
X0228890Y0124937D02*
X0228890Y0127863D01*
X0231816Y0127863D01*
X0231816Y0124937D01*
X0231816Y0125911D02*
X0228890Y0125911D01*
X0228890Y0126885D02*
X0231816Y0126885D01*
X0231816Y0127859D02*
X0228890Y0127859D01*
X0242890Y0101863D02*
X0245816Y0101863D01*
X0245816Y0098937D01*
X0242890Y0098937D01*
X0242890Y0101863D01*
X0242890Y0099911D02*
X0245816Y0099911D01*
X0245816Y0100885D02*
X0242890Y0100885D01*
X0242890Y0101859D02*
X0245816Y0101859D01*
X0248890Y0101863D02*
X0251816Y0101863D01*
X0251816Y0098937D01*
X0248890Y0098937D01*
X0248890Y0101863D01*
X0248890Y0099911D02*
X0251816Y0099911D01*
X0251816Y0100885D02*
X0248890Y0100885D01*
X0248890Y0101859D02*
X0251816Y0101859D01*
X0276890Y0133863D02*
X0279816Y0133863D01*
X0279816Y0130937D01*
X0276890Y0130937D01*
X0276890Y0133863D01*
X0276890Y0131911D02*
X0279816Y0131911D01*
X0279816Y0132885D02*
X0276890Y0132885D01*
X0276890Y0133859D02*
X0279816Y0133859D01*
X0282890Y0133863D02*
X0285816Y0133863D01*
X0285816Y0130937D01*
X0282890Y0130937D01*
X0282890Y0133863D01*
X0282890Y0131911D02*
X0285816Y0131911D01*
X0285816Y0132885D02*
X0282890Y0132885D01*
X0282890Y0133859D02*
X0285816Y0133859D01*
X0260816Y0052863D02*
X0260816Y0049937D01*
X0257890Y0049937D01*
X0257890Y0052863D01*
X0260816Y0052863D01*
X0260816Y0050911D02*
X0257890Y0050911D01*
X0257890Y0051885D02*
X0260816Y0051885D01*
X0260816Y0052859D02*
X0257890Y0052859D01*
X0260816Y0046863D02*
X0260816Y0043937D01*
X0257890Y0043937D01*
X0257890Y0046863D01*
X0260816Y0046863D01*
X0260816Y0044911D02*
X0257890Y0044911D01*
X0257890Y0045885D02*
X0260816Y0045885D01*
X0260816Y0046859D02*
X0257890Y0046859D01*
X0258316Y0030437D02*
X0255390Y0030437D01*
X0255390Y0033363D01*
X0258316Y0033363D01*
X0258316Y0030437D01*
X0258316Y0031411D02*
X0255390Y0031411D01*
X0255390Y0032385D02*
X0258316Y0032385D01*
X0258316Y0033359D02*
X0255390Y0033359D01*
X0261390Y0030437D02*
X0264316Y0030437D01*
X0261390Y0030437D02*
X0261390Y0033363D01*
X0264316Y0033363D01*
X0264316Y0030437D01*
X0264316Y0031411D02*
X0261390Y0031411D01*
X0261390Y0032385D02*
X0264316Y0032385D01*
X0264316Y0033359D02*
X0261390Y0033359D01*
X0210566Y0030437D02*
X0207640Y0030437D01*
X0207640Y0033363D01*
X0210566Y0033363D01*
X0210566Y0030437D01*
X0210566Y0031411D02*
X0207640Y0031411D01*
X0207640Y0032385D02*
X0210566Y0032385D01*
X0210566Y0033359D02*
X0207640Y0033359D01*
X0204566Y0030437D02*
X0201640Y0030437D01*
X0201640Y0033363D01*
X0204566Y0033363D01*
X0204566Y0030437D01*
X0204566Y0031411D02*
X0201640Y0031411D01*
X0201640Y0032385D02*
X0204566Y0032385D01*
X0204566Y0033359D02*
X0201640Y0033359D01*
X0179816Y0031863D02*
X0179816Y0028937D01*
X0176890Y0028937D01*
X0176890Y0031863D01*
X0179816Y0031863D01*
X0179816Y0029911D02*
X0176890Y0029911D01*
X0176890Y0030885D02*
X0179816Y0030885D01*
X0179816Y0031859D02*
X0176890Y0031859D01*
X0179816Y0034937D02*
X0179816Y0037863D01*
X0179816Y0034937D02*
X0176890Y0034937D01*
X0176890Y0037863D01*
X0179816Y0037863D01*
X0179816Y0035911D02*
X0176890Y0035911D01*
X0176890Y0036885D02*
X0179816Y0036885D01*
X0179816Y0037859D02*
X0176890Y0037859D01*
X0171816Y0037863D02*
X0171816Y0034937D01*
X0168890Y0034937D01*
X0168890Y0037863D01*
X0171816Y0037863D01*
X0171816Y0035911D02*
X0168890Y0035911D01*
X0168890Y0036885D02*
X0171816Y0036885D01*
X0171816Y0037859D02*
X0168890Y0037859D01*
X0171816Y0031863D02*
X0171816Y0028937D01*
X0168890Y0028937D01*
X0168890Y0031863D01*
X0171816Y0031863D01*
X0171816Y0029911D02*
X0168890Y0029911D01*
X0168890Y0030885D02*
X0171816Y0030885D01*
X0171816Y0031859D02*
X0168890Y0031859D01*
X0057066Y0170613D02*
X0054140Y0170613D01*
X0057066Y0170613D02*
X0057066Y0167687D01*
X0054140Y0167687D01*
X0054140Y0170613D01*
X0054140Y0168661D02*
X0057066Y0168661D01*
X0057066Y0169635D02*
X0054140Y0169635D01*
X0054140Y0170609D02*
X0057066Y0170609D01*
X0051066Y0170613D02*
X0048140Y0170613D01*
X0051066Y0170613D02*
X0051066Y0167687D01*
X0048140Y0167687D01*
X0048140Y0170613D01*
X0048140Y0168661D02*
X0051066Y0168661D01*
X0051066Y0169635D02*
X0048140Y0169635D01*
X0048140Y0170609D02*
X0051066Y0170609D01*
X0048140Y0174437D02*
X0048140Y0177363D01*
X0051066Y0177363D01*
X0051066Y0174437D01*
X0048140Y0174437D01*
X0048140Y0175411D02*
X0051066Y0175411D01*
X0051066Y0176385D02*
X0048140Y0176385D01*
X0048140Y0177359D02*
X0051066Y0177359D01*
X0048140Y0180437D02*
X0048140Y0183363D01*
X0051066Y0183363D01*
X0051066Y0180437D01*
X0048140Y0180437D01*
X0048140Y0181411D02*
X0051066Y0181411D01*
X0051066Y0182385D02*
X0048140Y0182385D01*
X0048140Y0183359D02*
X0051066Y0183359D01*
X0051066Y0190113D02*
X0048140Y0190113D01*
X0051066Y0190113D02*
X0051066Y0187187D01*
X0048140Y0187187D01*
X0048140Y0190113D01*
X0048140Y0188161D02*
X0051066Y0188161D01*
X0051066Y0189135D02*
X0048140Y0189135D01*
X0048140Y0190109D02*
X0051066Y0190109D01*
X0054140Y0190113D02*
X0057066Y0190113D01*
X0057066Y0187187D01*
X0054140Y0187187D01*
X0054140Y0190113D01*
X0054140Y0188161D02*
X0057066Y0188161D01*
X0057066Y0189135D02*
X0054140Y0189135D01*
X0054140Y0190109D02*
X0057066Y0190109D01*
X0048140Y0193937D02*
X0048140Y0196863D01*
X0051066Y0196863D01*
X0051066Y0193937D01*
X0048140Y0193937D01*
X0048140Y0194911D02*
X0051066Y0194911D01*
X0051066Y0195885D02*
X0048140Y0195885D01*
X0048140Y0196859D02*
X0051066Y0196859D01*
X0048140Y0199937D02*
X0048140Y0202863D01*
X0051066Y0202863D01*
X0051066Y0199937D01*
X0048140Y0199937D01*
X0048140Y0200911D02*
X0051066Y0200911D01*
X0051066Y0201885D02*
X0048140Y0201885D01*
X0048140Y0202859D02*
X0051066Y0202859D01*
X0080316Y0205187D02*
X0080316Y0208113D01*
X0080316Y0205187D02*
X0077390Y0205187D01*
X0077390Y0208113D01*
X0080316Y0208113D01*
X0080316Y0206161D02*
X0077390Y0206161D01*
X0077390Y0207135D02*
X0080316Y0207135D01*
X0080316Y0208109D02*
X0077390Y0208109D01*
X0080316Y0211187D02*
X0080316Y0214113D01*
X0080316Y0211187D02*
X0077390Y0211187D01*
X0077390Y0214113D01*
X0080316Y0214113D01*
X0080316Y0212161D02*
X0077390Y0212161D01*
X0077390Y0213135D02*
X0080316Y0213135D01*
X0080316Y0214109D02*
X0077390Y0214109D01*
X0088066Y0214113D02*
X0088066Y0211187D01*
X0085140Y0211187D01*
X0085140Y0214113D01*
X0088066Y0214113D01*
X0088066Y0212161D02*
X0085140Y0212161D01*
X0085140Y0213135D02*
X0088066Y0213135D01*
X0088066Y0214109D02*
X0085140Y0214109D01*
X0088066Y0208113D02*
X0088066Y0205187D01*
X0085140Y0205187D01*
X0085140Y0208113D01*
X0088066Y0208113D01*
X0088066Y0206161D02*
X0085140Y0206161D01*
X0085140Y0207135D02*
X0088066Y0207135D01*
X0088066Y0208109D02*
X0085140Y0208109D01*
D37*
X0213853Y0006900D03*
X0267853Y0006900D03*
D38*
X0267853Y0023900D03*
X0238853Y0023900D03*
X0238853Y0006900D03*
X0213853Y0023900D03*
X0184853Y0023900D03*
X0184853Y0006900D03*
D39*
X0049603Y0207591D03*
X0049603Y0212709D03*
D40*
X0082353Y0093900D03*
X0082353Y0086900D03*
X0074353Y0090400D03*
X0065353Y0083900D03*
X0065353Y0076900D03*
X0057353Y0080400D03*
X0188603Y0078650D03*
X0188603Y0071650D03*
X0188853Y0063150D03*
X0196853Y0059650D03*
X0188853Y0056150D03*
X0196603Y0075150D03*
D41*
X0147853Y0192400D03*
X0147853Y0201400D03*
X0147853Y0210400D03*
D42*
X0172853Y0201400D03*
D43*
X0082625Y0065916D03*
X0082625Y0063357D03*
X0082625Y0060798D03*
X0082625Y0058239D03*
X0082625Y0055680D03*
X0082625Y0053120D03*
X0082625Y0050561D03*
X0082625Y0048002D03*
X0082625Y0045443D03*
X0082625Y0042884D03*
X0054081Y0042884D03*
X0054081Y0045443D03*
X0054081Y0048002D03*
X0054081Y0050561D03*
X0054081Y0053120D03*
X0054081Y0055680D03*
X0054081Y0058239D03*
X0054081Y0060798D03*
X0054081Y0063357D03*
X0054081Y0065916D03*
D44*
X0057353Y0009400D03*
X0040353Y0009400D03*
D45*
X0049628Y0074088D02*
X0049628Y0078138D01*
X0049628Y0074088D02*
X0045078Y0074088D01*
X0045078Y0078138D01*
X0049628Y0078138D01*
X0049628Y0075437D02*
X0045078Y0075437D01*
X0045078Y0076786D02*
X0049628Y0076786D01*
X0049628Y0078135D02*
X0045078Y0078135D01*
X0049628Y0080662D02*
X0049628Y0084712D01*
X0049628Y0080662D02*
X0045078Y0080662D01*
X0045078Y0084712D01*
X0049628Y0084712D01*
X0049628Y0082011D02*
X0045078Y0082011D01*
X0045078Y0083360D02*
X0049628Y0083360D01*
X0049628Y0084709D02*
X0045078Y0084709D01*
D46*
X0219770Y0065400D03*
X0219770Y0055400D03*
X0246936Y0055400D03*
X0246936Y0065400D03*
D47*
X0238353Y0070046D03*
X0233353Y0070046D03*
X0228353Y0070046D03*
X0228353Y0050754D03*
X0233353Y0050754D03*
X0238353Y0050754D03*
D48*
X0267603Y0051996D03*
X0267603Y0045304D03*
X0206353Y0056804D03*
X0206353Y0063496D03*
D49*
X0196949Y0049400D03*
X0190257Y0049400D03*
D50*
X0022628Y0041875D02*
X0020078Y0041875D01*
X0020078Y0044925D01*
X0022628Y0044925D01*
X0022628Y0041875D01*
X0022628Y0042724D02*
X0020078Y0042724D01*
X0020078Y0043573D02*
X0022628Y0043573D01*
X0022628Y0044422D02*
X0020078Y0044422D01*
X0016628Y0041875D02*
X0014078Y0041875D01*
X0014078Y0044925D01*
X0016628Y0044925D01*
X0016628Y0041875D01*
X0016628Y0042724D02*
X0014078Y0042724D01*
X0014078Y0043573D02*
X0016628Y0043573D01*
X0016628Y0044422D02*
X0014078Y0044422D01*
X0016078Y0202925D02*
X0018628Y0202925D01*
X0018628Y0199875D01*
X0016078Y0199875D01*
X0016078Y0202925D01*
X0016078Y0200724D02*
X0018628Y0200724D01*
X0018628Y0201573D02*
X0016078Y0201573D01*
X0016078Y0202422D02*
X0018628Y0202422D01*
X0022078Y0202925D02*
X0024628Y0202925D01*
X0024628Y0199875D01*
X0022078Y0199875D01*
X0022078Y0202925D01*
X0022078Y0200724D02*
X0024628Y0200724D01*
X0024628Y0201573D02*
X0022078Y0201573D01*
X0022078Y0202422D02*
X0024628Y0202422D01*
X0024628Y0211925D02*
X0022078Y0211925D01*
X0024628Y0211925D02*
X0024628Y0208875D01*
X0022078Y0208875D01*
X0022078Y0211925D01*
X0022078Y0209724D02*
X0024628Y0209724D01*
X0024628Y0210573D02*
X0022078Y0210573D01*
X0022078Y0211422D02*
X0024628Y0211422D01*
X0024628Y0220925D02*
X0022078Y0220925D01*
X0024628Y0220925D02*
X0024628Y0217875D01*
X0022078Y0217875D01*
X0022078Y0220925D01*
X0022078Y0218724D02*
X0024628Y0218724D01*
X0024628Y0219573D02*
X0022078Y0219573D01*
X0022078Y0220422D02*
X0024628Y0220422D01*
X0018628Y0220925D02*
X0016078Y0220925D01*
X0018628Y0220925D02*
X0018628Y0217875D01*
X0016078Y0217875D01*
X0016078Y0220925D01*
X0016078Y0218724D02*
X0018628Y0218724D01*
X0018628Y0219573D02*
X0016078Y0219573D01*
X0016078Y0220422D02*
X0018628Y0220422D01*
X0018628Y0211925D02*
X0016078Y0211925D01*
X0018628Y0211925D02*
X0018628Y0208875D01*
X0016078Y0208875D01*
X0016078Y0211925D01*
X0016078Y0209724D02*
X0018628Y0209724D01*
X0018628Y0210573D02*
X0016078Y0210573D01*
X0016078Y0211422D02*
X0018628Y0211422D01*
D51*
X0227207Y0089963D03*
X0227207Y0087404D03*
X0227207Y0084845D03*
X0227207Y0082286D03*
X0244530Y0082286D03*
X0244530Y0084845D03*
X0244530Y0087404D03*
X0244530Y0089963D03*
D52*
X0161353Y0170400D03*
X0046353Y0252400D03*
D53*
X0056353Y0252400D03*
X0066353Y0252400D03*
X0076353Y0252400D03*
X0086353Y0252400D03*
X0096353Y0252400D03*
X0161353Y0160400D03*
X0161353Y0150400D03*
X0161353Y0140400D03*
D54*
X0261353Y0067900D03*
X0068853Y0016400D03*
X0026353Y0273900D03*
X0276353Y0298900D03*
M02*
